<svg fill="none" height="55" viewBox="0 0 110 55" width="110" xmlns="http://www.w3.org/2000/svg" xmlns:xlink="http://www.w3.org/1999/xlink"><linearGradient id="a"><stop offset="0" stop-color="#f8b430"/><stop offset="1" stop-color="#ffe452"/></linearGradient><linearGradient id="b" gradientUnits="userSpaceOnUse" x1="9.83198" x2="13.4952" xlink:href="#a" y1=".822584" y2="2.59682"/><linearGradient id="c" gradientUnits="userSpaceOnUse" x1="5.43449" x2="9.09913" xlink:href="#a" y1="5.38558" y2="7.16243"/><linearGradient id="d" gradientUnits="userSpaceOnUse" x1="2.4783" x2="6.28441" xlink:href="#a" y1="11.2452" y2="13.4556"/><linearGradient id="e" gradientUnits="userSpaceOnUse" x1="4.28255" x2="30.9193" xlink:href="#a" y1="6.28619" y2="21.9169"/><linearGradient id="f" gradientUnits="userSpaceOnUse" x1="98.2522" x2="101.916" xlink:href="#a" y1=".822584" y2="2.59732"/><linearGradient id="g" gradientUnits="userSpaceOnUse" x1="102.596" x2="106.261" xlink:href="#a" y1="5.38558" y2="7.16234"/><linearGradient id="h" gradientUnits="userSpaceOnUse" x1="105.357" x2="109.163" xlink:href="#a" y1="11.2452" y2="13.4549"/><linearGradient id="i" gradientUnits="userSpaceOnUse" x1="92.5372" x2="119.174" xlink:href="#a" y1="6.28302" y2="21.9137"/><linearGradient id="j" gradientUnits="userSpaceOnUse" x1="41.5427" x2="45.4743" xlink:href="#a" y1="3.87871" y2="20.4035"/><linearGradient id="k" gradientUnits="userSpaceOnUse" x1="31.0739" x2="33.3334" xlink:href="#a" y1="17.9214" y2="35.0842"/><linearGradient id="l" gradientUnits="userSpaceOnUse" x1="44.1975" x2="47.4546" xlink:href="#a" y1="31.6565" y2="44.8187"/><linearGradient id="m" gradientUnits="userSpaceOnUse" x1="30.5427" x2="32.3096" xlink:href="#a" y1="45.8526" y2="61.3655"/><path d="m11.9382 3.35911c.1979-1.25521-.1284-2.466734-.8015-3.35911-.9093.610667-1.59039 1.64301-1.7883 2.89911-.19791 1.25521.12838 2.46763.8014 3.35911.9103-.61067 1.5905-1.643 1.7884-2.89911z" fill="url(#b)"/><path d="m6.74572 10.8197c.67129-.89329.99579-2.10571.79521-3.36092-.20148-1.25521-.88346-2.28666-1.79456-2.89555-.67129.89416-.9949 2.10658-.79432 3.3618.20059 1.25521.88258 2.28577 1.79367 2.89467z" fill="url(#c)"/><path d="m4.5208 16.3471c.4716-1.027.53935-2.2848.08647-3.4634-.45376-1.1794-1.33188-2.0281-2.3455-2.4106-.47159 1.027-.53934 2.2849-.08558 3.4635.45288 1.1794 1.33099 2.0281 2.34461 2.4105z" fill="url(#d)"/><path d="m21.4128 41.2763c-3.5089-.7444-6.6675-2.3276-9.2786-4.4949.8576-.6177 1.4977-1.6162 1.6876-2.8242.1979-1.2561-.1284-2.4676-.8015-3.3591-.9102.6107-1.5904 1.6439-1.7883 2.8991-.173 1.0948.0544 2.1574.5616 3.0025-1.2213-1.0573-2.31338-2.2492-3.25836-3.5427.9744-.3816 1.82216-1.1911 2.27956-2.3179.4734-1.1696.4288-2.4293-.025-3.4652-1.01985.3628-1.91312 1.1937-2.38739 2.3633-.41454 1.0226-.43148 2.1146-.12659 3.0659-1.03501-1.4808-1.87479-3.0926-2.49259-4.7936 1.0573-.1604 2.07003-.7952 2.73686-1.84.67218-1.0546.85048-2.3009.58927-3.409-1.06711.1533-2.09053.7907-2.76361 1.8453-.6383 1.0021-.8264 2.1753-.61869 3.2406-.6071-1.7143-.9735-3.5232-1.09296-5.3819 1.07157.1025 2.20197-.2773 3.0783-1.1465.87633-.8683 1.31138-2.0415 1.2882-3.1835-1.07157-.1025-2.20375.2773-3.08008 1.1465-.86831.8603-1.30157 2.0192-1.28731 3.1514-.02585-.4056-.05349-.8104-.05349-1.2204 0-1.5459.18275-3.0641.52687-4.5297.95835.4787 2.12263.5429 3.2147.0696 1.11079-.4806 1.90951-1.4131 2.27061-2.4891-.96726-.5001-2.15294-.5723-3.26284-.0909-.97617.4226-1.71254 1.1946-2.12084 2.1084.45198-1.7616 1.13843-3.4439 2.02991-5.0111.84067.7096 1.98088 1.0511 3.16027.8389 1.1822-.2131 2.1539-.9378 2.7271-1.9051-.8416-.71141-1.9836-1.05553-3.16566-.84335-1.15358.20772-2.10302.90395-2.6807 1.83555.89862-1.56454 1.99871-3.01231 3.27266-4.30497.5786.94498 1.5387 1.65193 2.7048 1.85964 1.183.21039 2.3241-.1364 3.1647-.85137-.575-.96548-1.5485-1.68758-2.7306-1.89797-1.0511-.18632-2.0682.06775-2.8715.62761.9245-.90486 1.9488-1.71344 3.0329-2.44446.9218.2719 1.9389.23892 2.8714-.20682 1.0903-.52063 1.8231-1.46739 2.0968-2.53539-1.0314-.44396-2.2474-.459115-3.3377.0624-.9976.47606-1.6778 1.31584-1.9987 2.2724-5.72692 3.90471-9.415 10.36353-9.415 17.43573 0 .1622.00624.3227.0107.484-.09985-.8594-.45377-1.7054-1.06533-2.4007-.81838-.9308-1.92293-1.3925-2.9989569-1.3685-.0962804 1.1385.2612059 2.3393 1.0795869 3.27.81839.9307 1.92294 1.3925 2.99896 1.3684.00624-.0802.00624-.1604.00802-.2416.09004 1.6448.37978 3.2495.84424 4.79-.29508-.7016-.77559-1.3363-1.43083-1.807-.99312-.7141-2.16631-.9031-3.210244-.625.144421 1.1322.745284 2.2189 1.738394 2.933.99223.7132 2.16631.9031 3.21024.6249-.01604-.1292-.041-.2567-.06864-.3851.51439 1.4995 1.19637 2.9312 2.02813 4.2738-.3878-.4743-.8799-.8701-1.46739-1.1393-1.10098-.5037-2.28755-.4547-3.26373.0258.34233 1.0841 1.12506 2.0308 2.22604 2.5354 1.10188.5028 2.28756.4547 3.26373-.0258-.06864-.2193-.16046-.4297-.26388-.6339.8273 1.216 1.7803 2.3482 2.84206 3.3796-.468-.336-1.01451-.5776-1.61626-.6837-1.183-.2104-2.32411.1364-3.16389.8504.57501.9664 1.54762 1.6885 2.73063 1.8989 1.183.2095 2.32412-.1373 3.16392-.8513-.1159-.1953-.2523-.3771-.3994-.5501 2.7743 2.4632 6.2065 4.2595 10.047 5.0752z" fill="url(#e)"/><path d="m99.5577 6.25822c.6723-.89148.9983-2.1039.8013-3.35911-.199-1.2561-.8788-2.288443-1.789-2.89911-.6731.892376-.9994 2.1039-.8015 3.35911.1979 1.25611.879 2.28844 1.7892 2.89911z" fill="url(#f)"/><path d="m104.702 7.92503c.201-1.25522-.124-2.46764-.795-3.3618-.91.60889-1.593 1.64034-1.794 2.89555-.2 1.25521.124 2.46763.795 3.36092.911-.6089 1.594-1.63946 1.794-2.89467z" fill="url(#g)"/><path d="m105.14 16.3471c1.015-.3824 1.892-1.2311 2.345-2.4105.453-1.1786.386-2.4365-.085-3.4635-1.015.3825-1.892 1.2312-2.346 2.4106-.452 1.1786-.385 2.4364.086 3.4634z" fill="url(#h)"/><path d="m106.151 25.1034c-.655.4707-1.135 1.1054-1.431 1.807.466-1.5405.755-3.1451.845-4.7899.002.0811.001.1613.008.2416 1.076.024 2.181-.4378 2.999-1.3685.819-.9307 1.176-2.1315 1.08-3.2699-1.076-.0241-2.181.4377-2.999 1.3684-.611.6953-.965 1.5414-1.065 2.4008.003-.1614.01-.3219.01-.4841 0-7.0722-3.689-13.53099-9.4154-17.4357-.3209-.95657-1.0011-1.79635-1.9987-2.2724-1.0903-.521519-2.3063-.506364-3.3377-.0624.2736 1.068 1.0064 2.01475 2.0967 2.53538.9325.44575 1.9497.47873 2.8724.20683 1.084.73102 2.1084 1.53959 3.0319 2.44445-.8032-.55985-1.8204-.81392-2.8714-.6276-1.1821.21039-2.1548.93249-2.7298 1.89797.8398.71497 1.9809 1.06176 3.1639.85137 1.1661-.20772 2.1271-.91467 2.7048-1.85964 1.2743 1.29265 2.3753 2.74043 3.2733 4.30494-.578-.9316-1.528-1.62781-2.6805-1.83553-1.1821-.21217-2.325.13194-3.1656.84335.5732.96728 1.544 1.69208 2.727 1.90508 1.1791.2122 2.3191-.1292 3.1601-.8389.892 1.5673 1.578 3.2495 2.029 5.0111-.408-.9138-1.144-1.6858-2.121-2.1084-1.109-.4814-2.294-.4092-3.2624.0909.3619 1.0761 1.1604 2.0086 2.2714 2.4891 1.092.4734 2.256.4092 3.215-.0696.343 1.4656.527 2.9838.527 4.5297 0 .4101-.029.8148-.054 1.2204.014-1.1322-.419-2.2911-1.287-3.1514-.876-.8692-2.009-1.2489-3.081-1.1464-.022 1.142.412 2.3152 1.289 3.1835.875.8692 2.007 1.2489 3.077 1.1464-.118 1.8588-.485 3.6676-1.092 5.3819.208-1.0653.02-2.2385-.618-3.2405-.673-1.0547-1.697-1.6921-2.764-1.8454-.262 1.1081-.084 2.3544.589 3.409.667 1.0449 1.68 1.6796 2.737 1.8401-.618 1.7009-1.457 3.3127-2.493 4.7935.305-.9512.288-2.0433-.127-3.0658-.473-1.1697-1.3666-2.0005-2.3873-2.3634-.4538 1.0359-.4984 2.2956-.0241 3.4652.4573 1.1269 1.3054 1.9363 2.2794 2.3179-.946 1.2935-2.0369 2.4855-3.2591 3.5428.5072-.8452.7345-1.9078.5616-3.0026-.1979-1.2552-.8781-2.2884-1.7874-2.8991-.6731.8915-1.0003 2.103-.8024 3.3591.1908 1.208.83 2.2065 1.6885 2.8243-2.6112 2.1672-5.7706 3.7505-9.2786 4.4948l.0999.5332c3.8405-.8158 7.2727-2.6121 10.047-5.0753-.1471.173-.2826.3548-.3994.5501.8407.7141 1.9818 1.0608 3.1649.8513 1.182-.2103 2.155-.9325 2.731-1.8988-.84-.7141-1.982-1.0609-3.164-.8505-.602.1061-1.1486.3477-1.6166.6838 1.0616-1.0315 2.0136-2.1637 2.8416-3.3797-.104.2042-.196.4146-.264.6339.977.4805 2.162.5286 3.263.0258 1.102-.5045 1.885-1.4513 2.226-2.5353-.976-.4805-2.161-.5296-3.263-.0259-.587.2692-1.08.6651-1.468 1.1393.832-1.3426 1.515-2.7743 2.029-4.2738-.028.1284-.052.2559-.068.3852 1.044.2781 2.217.0882 3.21-.625.993-.714 1.594-1.8008 1.738-2.933-1.045-.2781-2.218-.0891-3.211.625z" fill="url(#i)"/><path d="m32.7661 13.8488h6.1173c2.8299 0 4.4906-1.1799 4.4906-3.1195 0-1.56786-.9151-2.34369-2.3554-2.79626 1.0506-.43641 1.8301-1.21224 1.8301-2.52146 0-.80816-.2881-1.4062-.7626-1.85876-.6947-.6627-1.7453-1.01829-3.2366-1.01829h-6.0834zm3.2027-2.5215v-2.08504h2.5079c1.1015 0 1.6099.40408 1.6099 1.01824 0 .6951-.5762 1.0668-1.576 1.0668zm0-4.28324v-1.98807h2.1351c.9829 0 1.4912.35559 1.4912.96979 0 .69502-.5592 1.01828-1.5589 1.01828z" fill="url(#j)"/><path d="m44.8795 13.8488h9.6251v-2.667h-6.3715v-1.79407h5.6937v-2.47297h-5.6937v-1.7133h6.2868v-2.66693h-9.5404z" fill="url(#j)"/><path d="m60.8421 14.0427c2.8808 0 4.7956-1.3738 4.7956-3.6852 0-2.14969-1.6946-2.99017-4.4228-3.55588-1.6437-.35559-2.0504-.58188-2.0504-1.0991 0-.43641.3897-.75967 1.1862-.75967 1.0506 0 2.2368.38792 3.3213 1.11526l1.6437-2.21436c-1.2878-.98595-2.8638-1.50317-4.8803-1.50317-2.8468 0-4.5922 1.51934-4.5922 3.62055 0 2.35983 1.9487 3.03868 4.4736 3.58823 1.6098.35559 1.9996.61424 1.9996 1.08294 0 .5172-.4745.8082-1.3557.8082-1.3726 0-2.6774-.4688-3.8466-1.3578l-1.8301 2.0851c1.4573 1.2446 3.4569 1.8749 5.5581 1.8749z" fill="url(#j)"/><path d="m69.8031 13.8488h3.2875v-8.56652h3.5585v-2.74775h-10.4045v2.74775h3.5585z" fill="url(#j)"/><g fill="url(#k)"><path d="m20.4852 28.0533c2.7326 0 4.549-1.3663 4.549-3.665 0-2.1378-1.6074-2.9737-4.1954-3.5363-1.5592-.3537-1.945-.5787-1.945-1.0931 0-.434.3697-.7555 1.1252-.7555.9966 0 2.1218.3858 3.1506 1.1092l1.5592-2.2022c-1.2217-.9806-2.7166-1.4949-4.6294-1.4949-2.7005 0-4.3562 1.5109-4.3562 3.6006 0 2.3469 1.8486 3.022 4.2437 3.5685 1.527.3537 1.8967.6108 1.8967 1.077 0 .5144-.45.8037-1.2859.8037-1.302 0-2.5398-.4661-3.6489-1.3502l-1.736 2.0736c1.3824 1.2377 3.2791 1.8646 5.2724 1.8646z"/><path d="m31.6142 28.0694c3.1988 0 5.2724-1.5914 5.2724-5.2242v-6.2369h-3.1667v6.3333c0 1.5753-.8198 2.3148-2.0736 2.3148s-2.0736-.7716-2.0736-2.3951v-6.253h-3.1666v6.3173c0 3.5203 2.0093 5.1438 5.2081 5.1438z"/><path d="m38.7321 27.8604h3.1184v-3.2149h1.5432c2.7969 0 4.8384-1.3984 4.8384-4.0507 0-2.5237-1.8325-3.9865-4.6777-3.9865h-4.8223zm3.1184-5.6582v-2.9737h1.4628c1.1252 0 1.8003.5143 1.8003 1.4788 0 .9162-.6751 1.4949-1.7842 1.4949z"/><path d="m49.5478 27.8604h3.1184v-3.2149h1.5431c2.797 0 4.8384-1.3984 4.8384-4.0507 0-2.5237-1.8325-3.9865-4.6776-3.9865h-4.8223zm3.1184-5.6582v-2.9737h1.4628c1.1252 0 1.8003.5143 1.8003 1.4788 0 .9162-.6751 1.4949-1.7843 1.4949z"/><path d="m66.0216 28.0855c3.4721 0 6.0761-2.6202 6.0761-5.8511 0-3.2631-2.5719-5.8511-6.0439-5.8511-3.4721 0-6.0762 2.6201-6.0762 5.8511 0 3.2631 2.572 5.8511 6.044 5.8511zm.0322-2.8131c-1.7039 0-2.8773-1.4145-2.8773-3.038 0-1.6557 1.1412-3.0381 2.8451-3.0381 1.72 0 2.8934 1.4146 2.8934 3.0381 0 1.6556-1.1413 3.038-2.8612 3.038z"/><path d="m73.7221 27.8604h3.1184v-3.4078h1.3664l2.2665 3.4078h3.6006l-2.6844-3.9221c1.3985-.5948 2.3147-1.7361 2.3147-3.456 0-1.1413-.3376-2.0093-.9966-2.6684-.7555-.7555-1.945-1.2056-3.665-1.2056h-5.3206zm3.1184-5.8511v-2.7005h2.0415c1.0448 0 1.6878.4501 1.6878 1.3342 0 .852-.6108 1.3663-1.6717 1.3663z"/><path d="m88.0243 27.8604h3.1184v-8.5194h3.3756v-2.7327h-9.8696v2.7327h3.3756z"/></g><path d="m37.4469 39.6077h7.1242v-2.0318h-3.7164l1.5431-1.0802c1.3503-.9516 2.0832-1.7103 2.0832-3.1506 0-1.7231-1.3502-2.8934-3.3177-2.8934-1.7489 0-2.7005.6816-3.665 1.929l1.6846 1.4017c.7073-.8102 1.1831-1.1574 1.7875-1.1574s1.003.3472 1.003.913c0 .5401-.3086.9773-1.1573 1.6203l-3.3692 2.5719z" fill="url(#l)"/><path d="m49.728 39.7877c2.5719 0 4.1794-2.1346 4.1794-4.6808 0-2.5719-1.5946-4.6809-4.1537-4.6809-2.559 0-4.1793 2.1347-4.1793 4.6809 0 2.5719 1.5817 4.6808 4.1536 4.6808zm.0257-2.2118c-1.003 0-1.6717-1.0288-1.6717-2.469 0-1.466.6558-2.469 1.646-2.469s1.6718 1.0416 1.6718 2.469c0 1.4531-.643 2.469-1.6461 2.469z" fill="url(#l)"/><path d="m54.7394 39.6077h7.1242v-2.0318h-3.7164l1.5431-1.0802c1.3503-.9516 2.0833-1.7103 2.0833-3.1506 0-1.7231-1.3503-2.8934-3.3178-2.8934-1.7489 0-2.7005.6816-3.6649 1.929l1.6845 1.4017c.7073-.8102 1.1831-1.1574 1.7875-1.1574s1.0031.3472 1.0031.913c0 .5401-.3087.9773-1.1574 1.6203l-3.3692 2.5719z" fill="url(#l)"/><path d="m67.0205 39.7877c2.5719 0 4.1794-2.1346 4.1794-4.6808 0-2.5719-1.5946-4.6809-4.1536-4.6809-2.5591 0-4.1794 2.1347-4.1794 4.6809 0 2.5719 1.5817 4.6808 4.1536 4.6808zm.0258-2.2118c-1.0031 0-1.6718-1.0288-1.6718-2.469 0-1.466.6559-2.469 1.646-2.469.9902 0 1.6718 1.0416 1.6718 2.469 0 1.4531-.643 2.469-1.646 2.469z" fill="url(#l)"/><path clip-rule="evenodd" d="m18.8063 44.5392c-3.5558.5713-5.5491 3.7345-4.4712 7.0956.9398 2.9307 4.5064 4.218 7.663 2.7659l.3905-.1796.0302-.4961c.0166-.2728.0422-.6986.057-.9461.0313-.5225.0457-.5108-.2943-.2395-2.2468 1.7927-5.3464.8735-5.9976-1.7786-.8723-3.5523 2.2861-5.9637 5.6136-4.2862.2166.109.4063.1983.4216.1983s.0214-.4209.0137-.9351l-.0137-.9352-.3567-.0936c-.9074-.2382-2.1877-.3092-3.0561-.1698zm17.0331.097c-.9693.2606-1.1343 1.5565-.2637 2.0722.5379.319 1.2621.1088 1.54-.4469.4456-.8905-.331-1.8794-1.2763-1.6253zm36.8789-.0011c-1.2711.3455-1.0331 2.207.2834 2.2154 1.3716.009 1.4881-2.0501.1272-2.2522-.0979-.0146-.2828.002-.4106.0368zm8.7132 2.8268-1.2988 1.3963.442.0148.4423.0148.0175 2.4275c.0201 2.7827.0227 2.7997.47 3.216.3999.3721 1.6629.5294 2.2926.2854.0745-.0287 1.0646-1.4585 1.0327-1.4909-.0063-.0064-.1374.0233-.2913.0661-.4114.1139-1.2057.1174-1.4065.0062-.3191-.1762-.3254-.2232-.3254-2.478v-2.036h.9169.9169v-.5914-.5914h-.9169-.9169v-.8226c0-.4526-.017-.8206-.038-.8179-.0212.0026-.6228.6331-1.3371 1.4011zm-56.4111.2145c-.224.0372-.51.0992-.6352.138l-.2277.0706-.2631.8208c-.3092.9657-.3223.8936.1204.6695 1.3082-.6629 2.4626-.3368 2.4782.6999l.0045.306-.5174.2243c-2.365 1.0251-2.8977 1.4942-2.8929 2.5462.0042.8949.5022 1.4729 1.4426 1.6743.5797.1239.8223.1014 1.0546-.0978.2945-.2527.841-.6509.8933-.6509.0249 0 .0454.1734.0454.3856v.3856h1.0696c.5883 0 1.0697-.0097 1.0697-.0214 0-.0119-.0448-.1271-.0997-.2559-.2373-.559-.2709-.9137-.305-3.2192-.0313-2.1095-.0365-2.1955-.1477-2.4783-.391-.9944-1.567-1.4501-3.0896-1.1973zm6.5962-.0228c-1.0866.195-1.8348 1.048-1.8331 2.0901.0016.87.3206 1.3936 1.2333 2.0247 1.0054.6953 1.2814 1.193.9584 1.7279-.4088.6769-1.4808.3575-2.0909-.623-.2428-.3904-.2369-.4045-.2764.6512-.0193.5162-.0468.9787-.0608 1.0284-.0315.1103.1075.1694.6418.2735 2.3116.4504 3.7411-.4337 3.6592-2.2636-.0361-.8083-.3638-1.3057-1.2761-1.9363-.8124-.5619-1.0148-.8136-1.0148-1.2629 0-.7526.8894-.9035 1.7636-.2991l.3333.2301v-.741-.7411l-.356-.0819c-.4488-.103-1.315-.1427-1.6815-.077zm10.6965-.0022c-.4187.0885-.5133.1622-1.083.8418l-.5637.6721.031-.7319.031-.7321h-1.0473-1.0473l.034.1158c.2138.7264.2312.984.2319 3.416.0006 2.4582-.0162 2.7057-.2257 3.3006-.0435.1237-.0794.2451-.0794.2698s.5479.045 1.2172.045h1.2169l-.1202-.3929c-.1943-.6353-.2253-1.0544-.2253-3.0242v-1.8671l.2928-.14c.8177-.3914 1.6675-.244 2.0029.3474l.1237.2177-.0033 1.8512c-.0035 1.9947.0083 1.8816-.304 2.8923l-.0358.1156h1.2285c.6756 0 1.2282-.0086 1.2282-.0192s-.036-.1205-.0801-.2442c-.2151-.6031-.2347-.8329-.2719-3.1559-.0398-2.5079-.0439-2.5385-.4134-3.0534-.4171-.5812-1.3382-.8933-2.1377-.7244zm6.6469.0241c-3.2683.6798-3.9669 5.8117-.9507 6.9835 2.2469.8731 4.5754-.4933 4.9349-2.8956.387-2.5866-1.5663-4.5911-3.9842-4.0879zm8.6405-.0247c-.5516.1173-.9005.4061-1.2729 1.0533l-.2366.4111-.0147-.39c-.008-.2146.0055-.521.0304-.6807s.0334-.3022.019-.3168c-.0848-.0855-2.1036-.0238-2.0772.0636.2559.8453.2992 1.4594.2706 3.8452-.0256 2.1152-.0446 2.3298-.2627 2.9486-.0435.1237-.0791.2336-.0791.2442s.55.0192 1.2224.0192c.6723 0 1.2225-.008 1.2225-.0177s-.0467-.1544-.1037-.3214c-.2118-.6207-.2524-1.1192-.2526-3.0959l-.0003-1.8666.3311-.1564c.7842-.3703 1.4546-.1994 1.7418.4447.2285.5129.1446 3.778-.118 4.5904-.0667.206-.1213.3856-.1213.3988 0 .0133.5526.0241 1.228.0241 1.1485 0 1.2257-.0058 1.1935-.09-.2659-.6953-.333-1.3952-.333-3.4652v-1.7839l.1654-.1008c.5677-.3457 1.3334-.3 1.7047.1017.2486.2689.2845.4899.3083 1.8931.0299 1.7591-.0383 2.4568-.3278 3.3551-.0269.084.0525.09 1.1983.09h1.227l-.0538-.1414c-.2462-.6459-.2615-.8133-.2969-3.2265-.03-2.0455-.0444-2.3433-.1255-2.5672-.593-1.6387-2.6942-1.7954-3.5724-.2663-.2526.4399-.3293.522-.3293.3525-.0005-.8183-1.2667-1.5659-2.2852-1.3488zm10.1558.0026c-1.6437.2773-2.5979 1.6456-2.5979 3.7244 0 1.8531.6398 2.9004 2.0684 3.3853.7845.266 2.3768.1899 2.8648-.1372.0957-.064.6258-1.7662.5681-1.8245-.0123-.0123-.2238.0825-.47.2109-1.2206.6355-2.3871.4754-2.8938-.3975-.1318-.2267-.3483-.9867-.3099-1.0875.0153-.0406.5763-.0695 1.8727-.0959 1.0181-.0208 1.8624-.0492 1.8764-.0629.0714-.0708.0155-1.6012-.0702-1.9149-.3752-1.3749-1.4579-2.045-2.9086-1.8002zm9.7275-.019c-2.0616.276-2.7202 2.6601-1.0746 3.8912.1709.1279.4809.3597.6892.5155 1.0139.7579.9365 1.7803-.1348 1.7786-.5433-.0009-.9383-.2782-1.3778-.9667l-.187-.2927-.0328.2314c-.0179.1273-.0485.6053-.0679 1.0624l-.035.8307.3708.0851c2.2155.5087 3.6806-.1237 3.9223-1.6932.156-1.0129-.2122-1.7274-1.2573-2.4394-.7392-.5034-1.0443-.8764-1.0441-1.2757.0009-.7253.8892-.9042 1.7149-.345.1849.1251.3444.2272.3547.2272.0102 0 .0188-.3209.0188-.7131v-.7132l-.2166-.0587c-.4857-.1319-1.1891-.1852-1.6428-.1244zm10.2778.0406c-1.5663.2868-2.5216 1.6897-2.5216 3.7028 0 1.8785.7263 2.9953 2.229 3.4272.7631.2195 2.4856.0927 2.7854-.2047.0487-.0485.5419-1.8086.5065-1.8086-.0153 0-.2353.1035-.489.2299-1.6312.8124-3.0821.2056-3.151-1.3178l-.0102-.2232 1.8081-.0411c.9947-.0227 1.8395-.0518 1.8777-.0648.0992-.034.0509-1.6976-.0587-2.0332-.4399-1.3435-1.4995-1.9367-2.9762-1.6665zm7.7445.068c-.4444.1822-.8782.6253-1.2728 1.3008-.1169.1996-.2288.3783-.2489.3972-.0201.0188-.0238-.3648-.0083-.8527l.0284-.887h-1.0436c-.9704 0-1.0416.0064-1.0163.09.4327 1.4291.4034 5.8331-.0465 6.9672-.0335.0842.043.09 1.1922.09.6752 0 1.2278-.008 1.2278-.0177s-.047-.1544-.1042-.3214c-.1987-.5781-.2518-1.1794-.252-2.8572l-.0004-1.5765.1656-.1412c.5198-.4441 1.2187-.5376 1.8298-.2451l.3403.1626.0275-.1884c.0151-.1037.0629-.5007.1062-.8826.0433-.3816.0898-.7782.1031-.881.0212-.1606.0086-.1912-.0898-.2177-.218-.0591-.7265-.0262-.9381.0607zm-60.5788.009c0 .0278.0621.2535.1381.5014l.1379.4507.0182 2.3492c.0192 2.5005-.0099 2.9307-.238 3.5371l-.0972.2581h1.2385 1.2387l-.0987-.27c-.2177-.5956-.2491-1.0132-.2487-3.2976.0004-2.253.0212-2.5493.2251-3.1971l.1204-.3825h-1.2171c-.7651 0-1.2172.0187-1.2172.0507zm36.9576.3424c.3308 1.0828.3339 5.3103.0044 6.3579l-.1248.3962h1.2171c.6693 0 1.2169-.0113 1.2169-.025 0-.0136-.0629-.2276-.1398-.4755l-.1399-.4507v-2.5967c-.0002-2.5284.0028-2.6067.1123-2.9823.0621-.212.1276-.4377.146-.5012l.0334-.1158h-1.2228-1.223zm-3.2733.7491c.4213.1272.7088.6064.779 1.2977l.034.3368h-1.2212-1.2213l.0483-.3214c.1624-1.0828.7443-1.5664 1.5812-1.3131zm20.1801.0348c.3616.1685.6092.5663.6649 1.0679.0151.137.0374.3125.0494.3904l.0216.1414h-1.2212c-1.3933 0-1.2689.0565-1.1477-.5217.2006-.9553.9023-1.4186 1.633-1.078zm-38.7662.1291c1.1734.6941 1.402 3.3756.3695 4.3364-1.2746 1.1861-2.8282-1.0385-2.2529-3.2258.2889-1.0981 1.0981-1.5754 1.8834-1.1106zm-23.5024 3.6518v.9471l-.1519.0336c-1.0508.2331-1.7393-.6999-1.3263-1.7969l.0494-.131h.7143.7145z" fill="url(#m)" fill-rule="evenodd"/></svg>