<svg width="86" height="50" viewBox="0 0 86 50" fill="none" xmlns="http://www.w3.org/2000/svg">
<g clip-path="url(#clip0_2546_357)">
<path fill-rule="evenodd" clip-rule="evenodd" d="M68.1224 37C70.2677 37 72.275 38.0587 73.4868 39.8291C75.0016 42.0424 75.0016 44.9591 73.4864 47.1722C72.2748 48.9419 70.2681 50 68.1233 50H17.8765C15.7317 50 13.725 48.9419 12.5134 47.1722C10.9982 44.9591 10.9982 42.0424 12.513 39.8291C13.7248 38.0587 15.7321 37 17.8774 37H68.1224ZM25.3447 46C26.289 46 26.8485 45.7099 27.3522 45.1782L26.6667 44.453C26.282 44.7983 25.9392 45.0193 25.3797 45.0193C24.5403 45.0193 23.9598 44.3287 23.9598 43.5C23.9598 42.6575 24.5543 41.9807 25.3797 41.9807C25.9392 41.9807 26.261 42.1809 26.6387 42.5193L27.2822 41.7873C26.8276 41.3453 26.31 41 25.3867 41C23.8828 41 22.8336 42.1257 22.8336 43.5C22.8336 44.9019 23.9038 46 25.3447 46ZM18.9999 45.9171H22.5182V44.9503H20.0771V41.0829H18.9999V45.9171ZM30.5437 45.9171H28.2145V41.0829H30.4877C31.0473 41.0829 31.4879 41.2348 31.7677 41.511C31.9915 41.732 32.1034 42.0014 32.1034 42.3467C32.1034 42.8923 31.8097 43.1961 31.4599 43.3895C32.0265 43.6036 32.3762 43.9282 32.3762 44.5912C32.3762 45.4751 31.6488 45.9171 30.5437 45.9171ZM29.2636 42.0152V43.0373H30.2569C30.7325 43.0373 31.0333 42.8854 31.0333 42.5124C31.0333 42.1948 30.7815 42.0152 30.3268 42.0152H29.2636ZM29.2636 43.9213V44.9848H30.5437C31.0193 44.9848 31.3061 44.8191 31.3061 44.4461C31.3061 44.1215 31.0613 43.9213 30.5087 43.9213H29.2636ZM34.9396 45.9171H36.0378L36.4854 44.8329H38.5558L39.0035 45.9171H40.1296L38.0313 41.0483H37.038L34.9396 45.9171ZM36.8702 43.8936L37.5206 42.326L38.1711 43.8936H36.8702ZM42.4882 45.9517H41.5509L39.8792 41.0829H41.0333L42.0475 44.3564L43.1457 41.0691H44.069L45.1671 44.3564L46.1813 41.0829H47.3074L45.6357 45.9517H44.6985L43.5933 42.7887L42.4882 45.9517ZM47.0572 45.9171H48.1554L48.603 44.8329H50.6734L51.1211 45.9171H52.2472L50.1488 41.0483H49.1556L47.0572 45.9171ZM48.9877 43.8936L49.6382 42.326L50.2887 43.8936H48.9877ZM54.0801 45.9171H53.0029V41.0829H55.2412C55.8637 41.0829 56.3463 41.2555 56.6681 41.5732C56.9409 41.8425 57.0877 42.2224 57.0877 42.692C57.0877 43.4724 56.6611 43.9627 56.0386 44.1906L57.2346 45.9171H55.9756L54.9124 44.3702H54.0801V45.9171ZM54.0801 42.0428V43.4309H55.1712C55.6958 43.4309 55.9966 43.1547 55.9966 42.7334C55.9966 42.2776 55.6748 42.0428 55.1502 42.0428H54.0801ZM58.0576 45.9171H59.9671C61.5059 45.9171 62.5691 44.8605 62.5691 43.5C62.5691 42.1257 61.5059 41.0829 59.9671 41.0829H58.0576V45.9171ZM59.1348 42.0428H59.9671C60.8484 42.0428 61.443 42.6436 61.443 43.5C61.443 44.3702 60.8484 44.9572 59.9671 44.9572H59.1348V42.0428ZM66.9999 44.4876C66.9999 45.4475 66.2585 45.9862 65.2023 45.9862C64.4609 45.9862 63.7124 45.7307 63.1249 45.2127L63.7614 44.4599C64.2021 44.8191 64.6637 45.047 65.2233 45.047C65.6639 45.047 65.9297 44.8743 65.9297 44.5773C65.9297 44.308 65.7619 44.1699 64.9435 43.9627C63.9573 43.7141 63.3207 43.4448 63.3207 42.471C63.3207 41.5939 64.0342 41.0138 65.0344 41.0138C65.7479 41.0138 66.3564 41.2348 66.853 41.6285L66.2934 42.4296C65.8598 42.1326 65.4331 41.953 65.0204 41.953C64.6078 41.953 64.3909 42.1395 64.3909 42.3881C64.3909 42.7058 64.6008 42.8094 65.4471 43.0235C66.4403 43.279 66.9999 43.6312 66.9999 44.4876Z" fill="url(#paint0_linear_2546_357)"/>
<path d="M10.4324 3.5953C10.6016 2.52267 10.3227 1.48737 9.74757 0.724792C8.97052 1.24663 8.38849 2.12881 8.21937 3.20221C8.05025 4.27484 8.32907 5.3109 8.90424 6.07272C9.68205 5.55088 10.2633 4.6687 10.4324 3.5953Z" fill="url(#paint1_linear_2546_357)"/>
<path d="M5.99518 9.97068C6.56883 9.20734 6.84613 8.17127 6.67472 7.09864C6.50255 6.02601 5.91976 5.14459 5.14119 4.62427C4.56754 5.38837 4.291 6.42443 4.46241 7.49707C4.63382 8.5697 5.21661 9.45036 5.99518 9.97068Z" fill="url(#paint2_linear_2546_357)"/>
<path d="M4.09394 14.6941C4.49694 13.8165 4.55483 12.7416 4.16783 11.7344C3.78007 10.7266 3.02968 10.0013 2.1635 9.6745C1.7605 10.5521 1.7026 11.627 2.09037 12.6341C2.47737 13.642 3.22775 14.3673 4.09394 14.6941Z" fill="url(#paint3_linear_2546_357)"/>
<path d="M18.5289 35.9972C15.5304 35.3611 12.8312 34.0081 10.5999 32.1562C11.3328 31.6282 11.8797 30.775 12.042 29.7427C12.2111 28.6693 11.9323 27.634 11.3571 26.8722C10.5793 27.3941 9.99806 28.277 9.82894 29.3496C9.68115 30.2851 9.87541 31.1932 10.3089 31.9154C9.2652 31.0119 8.33198 29.9934 7.52445 28.888C8.35712 28.5619 9.0816 27.8702 9.47241 26.9073C9.87693 25.9078 9.83884 24.8313 9.45108 23.9461C8.57956 24.2562 7.81623 24.9662 7.41094 25.9657C7.0567 26.8395 7.04222 27.7727 7.30277 28.5855C6.4183 27.3202 5.70067 25.9428 5.17273 24.4893C6.07624 24.3521 6.94167 23.8097 7.5115 22.9169C8.08591 22.0157 8.23827 20.9506 8.01506 20.0037C7.10317 20.1347 6.22861 20.6794 5.65344 21.5807C5.10798 22.4369 4.94724 23.4395 5.12474 24.3499C4.60594 22.8849 4.29284 21.3392 4.19076 19.7508C5.10646 19.8384 6.07244 19.5139 6.8213 18.7711C7.57016 18.0291 7.94193 17.0265 7.92212 16.0507C7.00642 15.963 6.03892 16.2876 5.29005 17.0303C4.54805 17.7655 4.1778 18.7559 4.18999 19.7234C4.1679 19.3767 4.14429 19.0309 4.14429 18.6804C4.14429 17.3595 4.30046 16.0621 4.59452 14.8097C5.41347 15.2188 6.4084 15.2736 7.34162 14.8691C8.29084 14.4585 8.97342 13.6616 9.28196 12.7421C8.45539 12.3147 7.44218 12.253 6.49372 12.6644C5.65953 13.0255 5.03027 13.6852 4.68136 14.4661C5.0676 12.9607 5.6542 11.5232 6.41601 10.1839C7.1344 10.7903 8.10876 11.0821 9.11664 10.9008C10.1268 10.7187 10.9572 10.0994 11.447 9.27283C10.7279 8.6649 9.752 8.37084 8.74183 8.55215C7.75604 8.72965 6.94471 9.32463 6.45106 10.1207C7.21897 8.78374 8.15904 7.54656 9.24768 6.44193C9.74209 7.24945 10.5626 7.85357 11.559 8.03107C12.5699 8.21086 13.5451 7.91451 14.2635 7.30354C13.7721 6.47849 12.9402 5.86142 11.93 5.68164C11.0318 5.52242 10.1626 5.73953 9.47622 6.21795C10.2662 5.44471 11.1415 4.75375 12.0679 4.12906C12.8556 4.36141 13.7249 4.33323 14.5217 3.95232C15.4534 3.50742 16.0796 2.69837 16.3135 1.78572C15.4321 1.40634 14.393 1.39339 13.4613 1.83905C12.6088 2.24586 12.0275 2.96348 11.7533 3.78091C6.85939 7.11766 3.70777 12.637 3.70777 18.6804C3.70777 18.8191 3.7131 18.9562 3.71691 19.0941C3.63158 18.3597 3.32914 17.6368 2.80654 17.0425C2.1072 16.2472 1.16331 15.8526 0.243799 15.8732C0.161523 16.846 0.46701 17.8722 1.16636 18.6675C1.8657 19.4628 2.80959 19.8574 3.7291 19.8369C3.73443 19.7683 3.73443 19.6997 3.73595 19.6304C3.8129 21.036 4.06049 22.4072 4.45739 23.7236C4.20523 23.1241 3.79461 22.5817 3.23468 22.1794C2.38602 21.5692 1.38347 21.4077 0.491388 21.6454C0.614802 22.6129 1.12826 23.5416 1.97693 24.1518C2.82482 24.7612 3.82813 24.9235 4.72022 24.6858C4.7065 24.5754 4.68517 24.4664 4.66156 24.3567C5.10112 25.6381 5.68391 26.8616 6.39468 28.0088C6.06329 27.6036 5.64277 27.2653 5.14074 27.0352C4.1999 26.6048 3.18592 26.6467 2.35174 27.0573C2.64427 27.9837 3.31315 28.7928 4.25399 29.2239C5.19559 29.6536 6.2088 29.6125 7.04299 29.2018C6.98433 29.0144 6.90586 28.8347 6.81749 28.6602C7.52445 29.6993 8.33883 30.6668 9.24615 31.5482C8.8462 31.261 8.37921 31.0546 7.86498 30.9639C6.85406 30.7841 5.87893 31.0805 5.16131 31.6907C5.65268 32.5165 6.48382 33.1336 7.49474 33.3134C8.50567 33.4924 9.48079 33.196 10.1984 32.5858C10.0994 32.419 9.98283 32.2636 9.85713 32.1158C12.2279 34.2207 15.1609 35.7557 18.4428 36.4528L18.5289 35.9972Z" fill="url(#paint4_linear_2546_357)"/>
<path d="M77.3072 6.07272C77.8816 5.3109 78.1604 4.27484 77.992 3.20221C77.8222 2.12881 77.2409 1.24663 76.4631 0.724792C75.8879 1.48737 75.6091 2.52267 75.7782 3.5953C75.9473 4.6687 76.5294 5.55088 77.3072 6.07272Z" fill="url(#paint5_linear_2546_357)"/>
<path d="M81.7035 7.49707C81.8749 6.42443 81.5977 5.38837 81.024 4.62427C80.2462 5.14459 79.6626 6.02601 79.4911 7.09864C79.3197 8.17127 79.597 9.20734 80.1699 9.97068C80.9485 9.45036 81.532 8.5697 81.7035 7.49707Z" fill="url(#paint6_linear_2546_357)"/>
<path d="M82.0775 14.6941C82.9444 14.3673 83.6941 13.642 84.0818 12.6341C84.4688 11.627 84.4109 10.5521 84.0087 9.6745C83.1417 10.0013 82.3921 10.7266 82.0043 11.7344C81.6173 12.7416 81.6752 13.8165 82.0775 14.6941Z" fill="url(#paint7_linear_2546_357)"/>
<path d="M82.9416 22.1767C82.3817 22.5789 81.9718 23.1213 81.7189 23.7209C82.1166 22.4045 82.3641 21.0332 82.4403 19.6276C82.4426 19.697 82.4418 19.7655 82.4479 19.8341C83.3667 19.8547 84.3113 19.46 85.0107 18.6647C85.71 17.8694 86.0155 16.8432 85.9332 15.8704C85.0137 15.8498 84.0699 16.2444 83.3705 17.0398C82.8479 17.634 82.5455 18.3569 82.4601 19.0913C82.4632 18.9534 82.4693 18.8163 82.4693 18.6777C82.4693 12.6342 79.3169 7.11485 74.423 3.7781C74.1487 2.96068 73.5675 2.24305 72.715 1.83624C71.7833 1.39058 70.7442 1.40353 69.8628 1.78291C70.0967 2.69557 70.7229 3.50461 71.6546 3.94951C72.4514 4.33042 73.3207 4.35861 74.1091 4.12625C75.0355 4.75094 75.9108 5.44191 76.7001 6.21515C76.0137 5.73673 75.1444 5.51961 74.2463 5.67883C73.2361 5.85862 72.405 6.47569 71.9136 7.30073C72.6312 7.91171 73.6063 8.20805 74.6173 8.02826C75.6137 7.85076 76.435 7.24664 76.9286 6.43912C78.0172 7.54375 78.9581 8.78094 79.726 10.1179C79.2316 9.32182 78.4202 8.72685 77.4352 8.54934C76.425 8.36803 75.4484 8.66209 74.73 9.27002C75.2199 10.0966 76.0495 10.7159 77.0604 10.898C78.0683 11.0793 79.0419 10.7876 79.761 10.1811C80.5228 11.5204 81.1094 12.958 81.4949 14.4633C81.146 13.6824 80.5175 13.0227 79.6826 12.6616C78.7341 12.2502 77.7217 12.3119 76.8943 12.7393C77.2036 13.6588 77.8862 14.4557 78.8354 14.8663C79.7686 15.2708 80.7628 15.216 81.5825 14.8069C81.8758 16.0593 82.0328 17.3567 82.0328 18.6777C82.0328 19.0281 82.0084 19.374 81.9871 19.7206C81.9992 18.7531 81.629 17.7627 80.887 17.0276C80.1381 16.2848 79.1706 15.9603 78.2542 16.0479C78.2351 17.0238 78.6061 18.0263 79.3557 18.7683C80.1038 19.5111 81.0706 19.8356 81.9855 19.748C81.8842 21.3364 81.5711 22.8821 81.0523 24.3471C81.2298 23.4367 81.0691 22.4342 80.5236 21.5779C79.9484 20.6767 79.0739 20.132 78.162 20.0009C77.938 20.9479 78.0904 22.0129 78.6655 22.9141C79.2354 23.807 80.1008 24.3494 81.0043 24.4865C80.4764 25.94 79.7587 27.3174 78.8735 28.5828C79.1348 27.7699 79.1203 26.8367 78.7653 25.9629C78.3608 24.9634 77.5975 24.2534 76.7252 23.9433C76.3374 24.8285 76.2994 25.905 76.7046 26.9045C77.0954 27.8674 77.8199 28.5591 78.6526 28.8852C77.8443 29.9906 76.9119 31.0091 75.8674 31.9127C76.3009 31.1905 76.4951 30.2824 76.3473 29.3469C76.1782 28.2742 75.597 27.3913 74.8199 26.8694C74.2447 27.6313 73.9652 28.6666 74.1343 29.74C74.2973 30.7722 74.8435 31.6254 75.5771 32.1534C73.3458 34.0054 70.6459 35.3583 67.6482 35.9945L67.7335 36.45C71.0154 35.753 73.9484 34.2179 76.3192 32.113C76.1935 32.2608 76.0777 32.4162 75.9779 32.583C76.6963 33.1933 77.6714 33.4896 78.6823 33.3106C79.6925 33.1308 80.5236 32.5137 81.0157 31.6879C80.2981 31.0777 79.3222 30.7814 78.3121 30.9611C77.7978 31.0518 77.3308 31.2583 76.9309 31.5455C77.8382 30.664 78.6518 29.6965 79.3596 28.6574C79.2704 28.8319 79.192 29.0117 79.1333 29.1991C79.9682 29.6097 80.9815 29.6508 81.9223 29.2212C82.8639 28.79 83.5328 27.9809 83.8245 27.0546C82.9904 26.6439 81.9771 26.602 81.0355 27.0325C80.5343 27.2625 80.113 27.6008 79.7816 28.0061C80.4924 26.8588 81.0759 25.6353 81.5155 24.3539C81.4911 24.4636 81.4705 24.5726 81.4568 24.683C82.3489 24.9207 83.3515 24.7585 84.2001 24.149C85.0488 23.5388 85.5622 22.6101 85.6857 21.6426C84.7928 21.405 83.7903 21.5665 82.9416 22.1767Z" fill="url(#paint8_linear_2546_357)"/>
<path d="M30 10.12H33.61C35.28 10.12 36.26 9.39 36.26 8.19C36.26 7.22 35.72 6.74 34.87 6.46C35.49 6.19 35.95 5.71 35.95 4.9C35.95 4.4 35.78 4.03 35.5 3.75C35.09 3.34 34.47 3.12 33.59 3.12H30V10.12ZM31.89 8.56V7.27H33.37C34.02 7.27 34.32 7.52 34.32 7.9C34.32 8.33 33.98 8.56 33.39 8.56H31.89ZM31.89 5.91V4.68H33.15C33.73 4.68 34.03 4.9 34.03 5.28C34.03 5.71 33.7 5.91 33.11 5.91H31.89Z" fill="url(#paint9_linear_2546_357)"/>
<path d="M37.1484 10.12H42.8284V8.47H39.0684V7.36H42.4284V5.83H39.0684V4.77H42.7784V3.12H37.1484V10.12Z" fill="url(#paint10_linear_2546_357)"/>
<path d="M46.5684 10.24C48.2684 10.24 49.3984 9.39 49.3984 7.96C49.3984 6.63 48.3984 6.11 46.7884 5.76C45.8184 5.54 45.5784 5.4 45.5784 5.08C45.5784 4.81 45.8084 4.61 46.2784 4.61C46.8984 4.61 47.5984 4.85 48.2384 5.3L49.2084 3.93C48.4484 3.32 47.5184 3 46.3284 3C44.6484 3 43.6184 3.94 43.6184 5.24C43.6184 6.7 44.7684 7.12 46.2584 7.46C47.2084 7.68 47.4384 7.84 47.4384 8.13C47.4384 8.45 47.1584 8.63 46.6384 8.63C45.8284 8.63 45.0584 8.34 44.3684 7.79L43.2884 9.08C44.1484 9.85 45.3284 10.24 46.5684 10.24Z" fill="url(#paint11_linear_2546_357)"/>
<path d="M51.8565 10.12H53.7965V4.82H55.8965V3.12H49.7565V4.82H51.8565V10.12Z" fill="url(#paint12_linear_2546_357)"/>
<path d="M17.548 23C19.9301 23 21.2978 21.9876 22.3121 20.6126L20.0684 19.0412C19.4229 19.8118 18.7621 20.3255 17.6402 20.3255C16.1341 20.3255 15.0737 19.0865 15.0737 17.5C15.0737 15.9286 16.1341 14.6745 17.6402 14.6745C18.6699 14.6745 19.3922 15.1429 20.0069 15.8984L22.1892 14.2363C21.2364 12.9368 19.8686 12 17.6709 12C14.4128 12 12 14.4176 12 17.5C12 20.6882 14.4743 23 17.548 23Z" fill="url(#paint13_linear_2546_357)"/>
<path d="M22.7343 22.7885H25.8694L26.6378 20.8997H30.7873L31.5711 22.7885H34.7677L30.1879 12.136H27.314L22.7343 22.7885ZM27.5138 18.6181L28.7279 15.6113L29.9267 18.6181H27.5138Z" fill="url(#paint14_linear_2546_357)"/>
<path d="M39.8877 22.9698C42.5003 22.9698 44.237 21.6854 44.237 19.5247C44.237 17.5151 42.7001 16.7294 40.2258 16.2005C38.7351 15.8681 38.3663 15.6566 38.3663 15.1731C38.3663 14.7651 38.7197 14.4629 39.4421 14.4629C40.3949 14.4629 41.4707 14.8255 42.4542 15.5055L43.945 13.4354C42.777 12.5137 41.3477 12.0302 39.5189 12.0302C36.937 12.0302 35.3541 13.4505 35.3541 15.4148C35.3541 17.6209 37.1214 18.2555 39.4113 18.7692C40.8713 19.1016 41.2248 19.3434 41.2248 19.7816C41.2248 20.2651 40.7945 20.5371 39.9953 20.5371C38.7505 20.5371 37.5671 20.0989 36.5067 19.2679L34.8469 21.217C36.1686 22.3805 37.9821 22.9698 39.8877 22.9698Z" fill="url(#paint15_linear_2546_357)"/>
<path d="M45.7483 22.7885H48.7452V12.2115H45.7483V22.7885Z" fill="url(#paint16_linear_2546_357)"/>
<path d="M50.7146 22.7885H53.6653V16.9863L58.2604 22.7885H60.8731V12.2115H57.9223V17.8022L53.4963 12.2115H50.7146V22.7885Z" fill="url(#paint17_linear_2546_357)"/>
<path d="M68.1908 23C71.5103 23 74 20.5371 74 17.5C74 14.4327 71.5411 12 68.2215 12C64.902 12 62.4123 14.4629 62.4123 17.5C62.4123 20.5673 64.8712 23 68.1908 23ZM68.2215 20.3558C66.5925 20.3558 65.4706 19.0261 65.4706 17.5C65.4706 15.9437 66.5617 14.6442 68.1908 14.6442C69.8352 14.6442 70.9571 15.9739 70.9571 17.5C70.9571 19.0563 69.8659 20.3558 68.2215 20.3558Z" fill="url(#paint18_linear_2546_357)"/>
<path d="M26 33.8508H32.1346V32.9558H27.4803L29.8263 30.8923C31.3568 29.5497 32.0468 28.779 32.0468 27.511C32.0468 26.0691 30.9052 25.0249 29.3245 25.0249C27.7814 25.0249 26.9534 25.7086 26.1631 26.8771L26.8907 27.3992C27.5932 26.4296 28.2456 25.9075 29.2492 25.9075C30.2027 25.9075 31.0181 26.5539 31.0181 27.5732C31.0181 28.4434 30.5414 29.1271 29.1865 30.308L26 33.0925V33.8508Z" fill="url(#paint19_linear_2546_357)"/>
<path d="M37.3865 34C39.6446 34 41.0999 31.9365 41.0999 29.5C41.0999 27.0387 39.6697 25 37.4116 25C35.1534 25 33.6856 27.0635 33.6856 29.5C33.6856 31.9613 35.1158 34 37.3865 34ZM37.4116 33.105C35.7681 33.105 34.7143 31.4019 34.7143 29.5C34.7143 27.5608 35.7431 25.895 37.3865 25.895C39.0174 25.895 40.0712 27.5981 40.0712 29.5C40.0712 31.4268 39.055 33.105 37.4116 33.105Z" fill="url(#paint20_linear_2546_357)"/>
<path d="M42.3554 33.8508H48.49V32.9558H43.8357L46.1817 30.8923C47.7122 29.5497 48.4022 28.779 48.4022 27.511C48.4022 26.0691 47.2606 25.0249 45.6799 25.0249C44.1368 25.0249 43.3088 25.7086 42.5185 26.8771L43.2461 27.3992C43.9486 26.4296 44.601 25.9075 45.6046 25.9075C46.558 25.9075 47.3735 26.5539 47.3735 27.5732C47.3735 28.4434 46.8968 29.1271 45.5419 30.308L42.3554 33.0925V33.8508Z" fill="url(#paint21_linear_2546_357)"/>
<path d="M49.8654 33.8508H56V32.9558H51.3457L53.6917 30.8923C55.2222 29.5497 55.9122 28.779 55.9122 27.511C55.9122 26.0691 54.7706 25.0249 53.1899 25.0249C51.6468 25.0249 50.8188 25.7086 50.0285 26.8771L50.7561 27.3992C51.4586 26.4296 52.111 25.9075 53.1146 25.9075C54.068 25.9075 54.8835 26.5539 54.8835 27.5732C54.8835 28.4434 54.4068 29.1271 53.0519 30.308L49.8654 33.0925V33.8508Z" fill="url(#paint22_linear_2546_357)"/>
</g>
<defs>
<linearGradient id="paint0_linear_2546_357" x1="17.9216" y1="38.2944" x2="55.9378" y2="71.4139" gradientUnits="userSpaceOnUse">
<stop stop-color="#F8B430"/>
<stop offset="1" stop-color="#FFE452"/>
</linearGradient>
<linearGradient id="paint1_linear_2546_357" x1="8.40955" y1="1.25729" x2="10.8384" y2="1.44523" gradientUnits="userSpaceOnUse">
<stop stop-color="#F8B430"/>
<stop offset="1" stop-color="#FFE452"/>
</linearGradient>
<linearGradient id="paint2_linear_2546_357" x1="4.65144" y1="5.15661" x2="7.08221" y2="5.34491" gradientUnits="userSpaceOnUse">
<stop stop-color="#F8B430"/>
<stop offset="1" stop-color="#FFE452"/>
</linearGradient>
<linearGradient id="paint3_linear_2546_357" x1="2.0975" y1="10.1743" x2="4.82387" y2="10.4273" gradientUnits="userSpaceOnUse">
<stop stop-color="#F8B430"/>
<stop offset="1" stop-color="#FFE452"/>
</linearGradient>
<linearGradient id="paint4_linear_2546_357" x1="2.12419" y1="4.98278" x2="21.3023" y2="6.78079" gradientUnits="userSpaceOnUse">
<stop stop-color="#F8B430"/>
<stop offset="1" stop-color="#FFE452"/>
</linearGradient>
<linearGradient id="paint5_linear_2546_357" x1="75.9684" y1="1.25729" x2="78.3977" y2="1.4453" gradientUnits="userSpaceOnUse">
<stop stop-color="#F8B430"/>
<stop offset="1" stop-color="#FFE452"/>
</linearGradient>
<linearGradient id="paint6_linear_2546_357" x1="79.6802" y1="5.15661" x2="82.111" y2="5.34491" gradientUnits="userSpaceOnUse">
<stop stop-color="#F8B430"/>
<stop offset="1" stop-color="#FFE452"/>
</linearGradient>
<linearGradient id="paint7_linear_2546_357" x1="82.012" y1="10.1743" x2="84.7379" y2="10.4272" gradientUnits="userSpaceOnUse">
<stop stop-color="#F8B430"/>
<stop offset="1" stop-color="#FFE452"/>
</linearGradient>
<linearGradient id="paint8_linear_2546_357" x1="69.5417" y1="4.97997" x2="88.7196" y2="6.77796" gradientUnits="userSpaceOnUse">
<stop stop-color="#F8B430"/>
<stop offset="1" stop-color="#FFE452"/>
</linearGradient>
<linearGradient id="paint9_linear_2546_357" x1="32.6797" y1="3.72089" x2="52.0949" y2="16.1565" gradientUnits="userSpaceOnUse">
<stop stop-color="#F8B430"/>
<stop offset="1" stop-color="#FFE452"/>
</linearGradient>
<linearGradient id="paint10_linear_2546_357" x1="32.6797" y1="3.72089" x2="52.0949" y2="16.1565" gradientUnits="userSpaceOnUse">
<stop stop-color="#F8B430"/>
<stop offset="1" stop-color="#FFE452"/>
</linearGradient>
<linearGradient id="paint11_linear_2546_357" x1="32.6797" y1="3.72089" x2="52.0949" y2="16.1565" gradientUnits="userSpaceOnUse">
<stop stop-color="#F8B430"/>
<stop offset="1" stop-color="#FFE452"/>
</linearGradient>
<linearGradient id="paint12_linear_2546_357" x1="32.6797" y1="3.72089" x2="52.0949" y2="16.1565" gradientUnits="userSpaceOnUse">
<stop stop-color="#F8B430"/>
<stop offset="1" stop-color="#FFE452"/>
</linearGradient>
<linearGradient id="paint13_linear_2546_357" x1="18.4157" y1="13.0953" x2="50.8882" y2="45.8701" gradientUnits="userSpaceOnUse">
<stop stop-color="#F8B430"/>
<stop offset="1" stop-color="#FFE452"/>
</linearGradient>
<linearGradient id="paint14_linear_2546_357" x1="18.4157" y1="13.0953" x2="50.8882" y2="45.8701" gradientUnits="userSpaceOnUse">
<stop stop-color="#F8B430"/>
<stop offset="1" stop-color="#FFE452"/>
</linearGradient>
<linearGradient id="paint15_linear_2546_357" x1="18.4157" y1="13.0953" x2="50.8882" y2="45.8701" gradientUnits="userSpaceOnUse">
<stop stop-color="#F8B430"/>
<stop offset="1" stop-color="#FFE452"/>
</linearGradient>
<linearGradient id="paint16_linear_2546_357" x1="18.4157" y1="13.0953" x2="50.8882" y2="45.8701" gradientUnits="userSpaceOnUse">
<stop stop-color="#F8B430"/>
<stop offset="1" stop-color="#FFE452"/>
</linearGradient>
<linearGradient id="paint17_linear_2546_357" x1="18.4157" y1="13.0953" x2="50.8882" y2="45.8701" gradientUnits="userSpaceOnUse">
<stop stop-color="#F8B430"/>
<stop offset="1" stop-color="#FFE452"/>
</linearGradient>
<linearGradient id="paint18_linear_2546_357" x1="18.4157" y1="13.0953" x2="50.8882" y2="45.8701" gradientUnits="userSpaceOnUse">
<stop stop-color="#F8B430"/>
<stop offset="1" stop-color="#FFE452"/>
</linearGradient>
<linearGradient id="paint19_linear_2546_357" x1="29.1044" y1="25.8961" x2="52.4908" y2="39.8556" gradientUnits="userSpaceOnUse">
<stop stop-color="#F8B430"/>
<stop offset="1" stop-color="#FFE452"/>
</linearGradient>
<linearGradient id="paint20_linear_2546_357" x1="29.1044" y1="25.8961" x2="52.4908" y2="39.8556" gradientUnits="userSpaceOnUse">
<stop stop-color="#F8B430"/>
<stop offset="1" stop-color="#FFE452"/>
</linearGradient>
<linearGradient id="paint21_linear_2546_357" x1="29.1044" y1="25.8961" x2="52.4908" y2="39.8556" gradientUnits="userSpaceOnUse">
<stop stop-color="#F8B430"/>
<stop offset="1" stop-color="#FFE452"/>
</linearGradient>
<linearGradient id="paint22_linear_2546_357" x1="29.1044" y1="25.8961" x2="52.4908" y2="39.8556" gradientUnits="userSpaceOnUse">
<stop stop-color="#F8B430"/>
<stop offset="1" stop-color="#FFE452"/>
</linearGradient>
<clipPath id="clip0_2546_357">
<rect width="86" height="50" fill="white"/>
</clipPath>
</defs>
</svg>
