<svg width="94" height="52" viewBox="0 0 94 52" fill="none" xmlns="http://www.w3.org/2000/svg">
<g clip-path="url(#clip0_2738_2)">
<path d="M10.2017 3.87051C10.3708 2.79788 10.092 1.76257 9.51686 1C8.73981 1.52184 8.15778 2.40402 7.98866 3.47741C7.81954 4.55005 8.09836 5.58611 8.67353 6.34792C9.45134 5.82608 10.0326 4.9439 10.2017 3.87051Z" fill="url(#paint0_linear_2738_2)"/>
<path d="M5.76447 10.2459C6.33811 9.48258 6.61541 8.44651 6.44401 7.37388C6.27184 6.30124 5.68905 5.41982 4.91048 4.89951C4.33683 5.6636 4.06029 6.69967 4.2317 7.7723C4.40311 8.84494 4.9859 9.7256 5.76447 10.2459Z" fill="url(#paint1_linear_2738_2)"/>
<path d="M3.86322 14.9694C4.26622 14.0917 4.32412 13.0168 3.93712 12.0097C3.54936 11.0018 2.79897 10.2766 1.93279 9.94977C1.52979 10.8274 1.47189 11.9023 1.85965 12.9094C2.24665 13.9173 2.99704 14.6425 3.86322 14.9694Z" fill="url(#paint2_linear_2738_2)"/>
<path d="M18.2981 36.2724C15.2996 35.6363 12.6005 34.2833 10.3692 32.4314C11.102 31.9034 11.649 31.0502 11.8113 30.0179C11.9804 28.9445 11.7016 27.9092 11.1264 27.1474C10.3486 27.6693 9.76735 28.5522 9.59822 29.6248C9.45043 30.5603 9.64469 31.4684 10.0782 32.1906C9.03448 31.2871 8.10126 30.2686 7.29374 29.1632C8.1264 28.8371 8.85088 28.1454 9.24169 27.1825C9.64622 26.183 9.60813 25.1065 9.22036 24.2213C8.34885 24.5313 7.58551 25.2414 7.18023 26.2409C6.82598 27.1147 6.81151 28.0479 7.07205 28.8607C6.18758 27.5954 5.46996 26.218 4.94202 24.7645C5.84553 24.6273 6.71095 24.0849 7.28079 23.1921C7.85519 22.2909 8.00756 21.2258 7.78435 20.2789C6.87245 20.4099 5.99789 20.9546 5.42272 21.8559C4.87726 22.7121 4.71652 23.7147 4.89402 24.6251C4.37523 23.1601 4.06212 21.6144 3.96004 20.026C4.87574 20.1136 5.84172 19.7891 6.59058 19.0463C7.33945 18.3043 7.71121 17.3017 7.6914 16.3259C6.7757 16.2382 5.8082 16.5628 5.05934 17.3055C4.31733 18.0407 3.94709 19.0311 3.95928 19.9986C3.93719 19.6519 3.91357 19.3061 3.91357 18.9556C3.91357 17.6347 4.06974 16.3373 4.3638 15.0849C5.18275 15.494 6.17768 15.5488 7.1109 15.1443C8.06012 14.7337 8.74271 13.9368 9.05124 13.0173C8.22467 12.5899 7.21146 12.5282 6.263 12.9396C5.42882 13.3007 4.79956 13.9604 4.45065 14.7413C4.83689 13.2359 5.42349 11.7984 6.1853 10.4591C6.90369 11.0655 7.87805 11.3573 8.88593 11.176C9.89609 10.9939 10.7265 10.3746 11.2163 9.548C10.4972 8.94007 9.52128 8.64601 8.51111 8.82733C7.52533 9.00483 6.714 9.5998 6.22034 10.3959C6.98825 9.05892 7.92833 7.82173 9.01696 6.7171C9.51138 7.52462 10.3318 8.12874 11.3283 8.30625C12.3392 8.48603 13.3143 8.18969 14.0327 7.57871C13.5414 6.75367 12.7095 6.1366 11.6993 5.95681C10.8011 5.79759 9.9319 6.01471 9.2455 6.49313C10.0355 5.71989 10.9108 5.02892 11.8372 4.40424C12.6249 4.63659 13.4941 4.6084 14.291 4.2275C15.2227 3.7826 15.8489 2.97355 16.0828 2.0609C15.2014 1.68151 14.1622 1.66856 13.2305 2.11423C12.3781 2.52103 11.7968 3.23866 11.5226 4.05609C6.62867 7.39283 3.47705 12.9122 3.47705 18.9556C3.47705 19.0943 3.48238 19.2314 3.48619 19.3693C3.40087 18.6349 3.09843 17.912 2.57583 17.3177C1.87648 16.5224 0.932595 16.1278 0.0130857 16.1484C-0.0691901 17.1212 0.236297 18.1474 0.935642 18.9427C1.63499 19.738 2.57887 20.1326 3.49838 20.1121C3.50371 20.0435 3.50371 19.9749 3.50524 19.9056C3.58218 21.3112 3.82977 22.6824 4.22668 23.9988C3.97452 23.3993 3.5639 22.8569 3.00397 22.4546C2.15531 21.8444 1.15276 21.6829 0.260675 21.9206C0.384089 22.8881 0.897551 23.8168 1.74621 24.427C2.59411 25.0364 3.59742 25.1987 4.4895 24.961C4.47579 24.8505 4.45446 24.7416 4.43084 24.6319C4.87041 25.9133 5.4532 27.1367 6.16397 28.284C5.83258 27.8788 5.41206 27.5405 4.91002 27.3104C3.96918 26.88 2.95521 26.9219 2.12102 27.3325C2.41356 28.2589 3.08243 29.0679 4.02327 29.4991C4.96487 29.9288 5.97809 29.8877 6.81227 29.477C6.75361 29.2896 6.67514 29.1098 6.58677 28.9354C7.29374 29.9745 8.10812 30.942 9.01544 31.8234C8.61548 31.5362 8.14849 31.3298 7.63427 31.2391C6.62334 31.0593 5.64822 31.3557 4.93059 31.9659C5.42196 32.7917 6.2531 33.4088 7.26403 33.5885C8.27495 33.7676 9.25007 33.4712 9.9677 32.861C9.86867 32.6942 9.75211 32.5388 9.62641 32.391C11.9972 34.4959 14.9302 36.0309 18.212 36.728L18.2981 36.2724Z" fill="url(#paint3_linear_2738_2)"/>
<path d="M85.0765 6.34792C85.6509 5.58611 85.9297 4.55005 85.7613 3.47741C85.5914 2.40402 85.0102 1.52184 84.2324 1C83.6572 1.76257 83.3784 2.79788 83.5475 3.87051C83.7166 4.9439 84.2986 5.82608 85.0765 6.34792Z" fill="url(#paint4_linear_2738_2)"/>
<path d="M89.4727 7.7723C89.6441 6.69967 89.3668 5.6636 88.7932 4.89951C88.0154 5.41982 87.4318 6.30124 87.2604 7.37388C87.089 8.44651 87.3663 9.48258 87.9392 10.2459C88.7178 9.7256 89.3013 8.84494 89.4727 7.7723Z" fill="url(#paint5_linear_2738_2)"/>
<path d="M89.8468 14.9693C90.7137 14.6425 91.4633 13.9172 91.8511 12.9093C92.2381 11.9022 92.1802 10.8273 91.778 9.94971C90.911 10.2765 90.1614 11.0018 89.7736 12.0096C89.3866 13.0168 89.4445 14.0917 89.8468 14.9693Z" fill="url(#paint6_linear_2738_2)"/>
<path d="M90.7106 22.4518C90.1507 22.8541 89.7409 23.3965 89.4879 23.996C89.8856 22.6796 90.1332 21.3084 90.2094 19.9028C90.2117 19.9721 90.2109 20.0407 90.217 20.1093C91.1357 20.1298 92.0804 19.7352 92.7797 18.9399C93.4791 18.1445 93.7846 17.1184 93.7023 16.1455C92.7828 16.125 91.8389 16.5196 91.1395 17.3149C90.6169 17.9091 90.3145 18.6321 90.2292 19.3665C90.2322 19.2286 90.2383 19.0915 90.2383 18.9528C90.2383 12.9094 87.0859 7.39002 82.192 4.05328C81.9178 3.23585 81.3365 2.51823 80.4841 2.11142C79.5524 1.66576 78.5132 1.67871 77.6318 2.05809C77.8657 2.97074 78.4919 3.77979 79.4236 4.22469C80.2205 4.60559 81.0897 4.63378 81.8782 4.40143C82.8045 5.02612 83.6799 5.71708 84.4691 6.49032C83.7827 6.0119 82.9135 5.79479 82.0153 5.954C81.0051 6.13379 80.174 6.75086 79.6826 7.57591C80.4003 8.18688 81.3754 8.48323 82.3863 8.30344C83.3828 8.12594 84.204 7.52182 84.6976 6.71429C85.7863 7.81892 86.7271 9.05611 87.495 10.3931C87.0006 9.597 86.1893 9.00202 85.2043 8.82452C84.1941 8.64321 83.2174 8.93727 82.4991 9.54519C82.9889 10.3718 83.8185 10.9911 84.8294 11.1732C85.8373 11.3545 86.8109 11.0627 87.5301 10.4563C88.2919 11.7956 88.8785 13.2331 89.264 14.7385C88.915 13.9576 88.2865 13.2979 87.4516 12.9368C86.5031 12.5254 85.4907 12.5871 84.6634 13.0145C84.9727 13.934 85.6552 14.7309 86.6045 15.1415C87.5377 15.546 88.5319 15.4911 89.3516 15.0821C89.6449 16.3345 89.8018 17.6318 89.8018 18.9528C89.8018 19.3033 89.7774 19.6491 89.7561 19.9958C89.7683 19.0282 89.398 18.0379 88.656 17.3027C87.9072 16.56 86.9397 16.2354 86.0232 16.323C86.0042 17.2989 86.3752 18.3015 87.1248 19.0435C87.8729 19.7863 88.8396 20.1108 89.7546 20.0232C89.6532 21.6116 89.3401 23.1573 88.8213 24.6222C88.9988 23.7119 88.8381 22.7093 88.2926 21.8531C87.7175 20.9518 86.8429 20.4071 85.931 20.2761C85.707 21.223 85.8594 22.288 86.4346 23.1893C87.0044 24.0821 87.8698 24.6245 88.7733 24.7617C88.2454 26.2152 87.5278 27.5926 86.6426 28.8579C86.9039 28.0451 86.8894 27.1118 86.5344 26.238C86.1299 25.2386 85.3665 24.5285 84.4942 24.2185C84.1065 25.1037 84.0684 26.1802 84.4737 27.1797C84.8645 28.1426 85.589 28.8343 86.4216 29.1604C85.6133 30.2658 84.6809 31.2843 83.6364 32.1878C84.0699 31.4656 84.2642 30.5575 84.1164 29.622C83.9473 28.5494 83.366 27.6665 82.5889 27.1446C82.0138 27.9064 81.7342 28.9417 81.9033 30.0151C82.0663 31.0474 82.6126 31.9006 83.3462 32.4285C81.1148 34.2805 78.415 35.6335 75.4172 36.2696L75.5026 36.7252C78.7845 36.0281 81.7174 34.4931 84.0882 32.3882C83.9625 32.536 83.8467 32.6914 83.7469 32.8582C84.4653 33.4684 85.4404 33.7648 86.4513 33.5857C87.4615 33.406 88.2926 32.7889 88.7848 31.9631C88.0671 31.3529 87.0913 31.0565 86.0811 31.2363C85.5669 31.327 85.0999 31.5334 84.6999 31.8206C85.6073 30.9392 86.4209 29.9717 87.1286 28.9326C87.0395 29.107 86.961 29.2868 86.9023 29.4742C87.7373 29.8849 88.7505 29.926 89.6913 29.4963C90.6329 29.0651 91.3018 28.2561 91.5936 27.3297C90.7594 26.9191 89.7462 26.8772 88.8046 27.3076C88.3033 27.5377 87.882 27.8759 87.5506 28.2812C88.2614 27.1339 88.845 25.9105 89.2845 24.6291C89.2601 24.7388 89.2396 24.8477 89.2259 24.9582C90.1179 25.1959 91.1205 25.0336 91.9692 24.4242C92.8178 23.814 93.3313 22.8853 93.4547 21.9178C92.5618 21.6801 91.5593 21.8416 90.7106 22.4518Z" fill="url(#paint7_linear_2738_2)"/>
<path d="M31.8059 10H36.4989C38.6699 10 39.9439 9.051 39.9439 7.491C39.9439 6.23 39.2419 5.606 38.1369 5.242C38.9429 4.891 39.5409 4.267 39.5409 3.214C39.5409 2.564 39.3199 2.083 38.9559 1.719C38.4229 1.186 37.6169 0.899998 36.4729 0.899998H31.8059V10ZM34.2629 7.972V6.295H36.1869C37.0319 6.295 37.4219 6.62 37.4219 7.114C37.4219 7.673 36.9799 7.972 36.2129 7.972H34.2629ZM34.2629 4.527V2.928H35.9009C36.6549 2.928 37.0449 3.214 37.0449 3.708C37.0449 4.267 36.6159 4.527 35.8489 4.527H34.2629ZM41.0989 10H48.4829V7.855H43.5949V6.412H47.9629V4.423H43.5949V3.045H48.4179V0.899998H41.0989V10ZM53.3448 10.156C55.5548 10.156 57.0238 9.051 57.0238 7.192C57.0238 5.463 55.7238 4.787 53.6308 4.332C52.3698 4.046 52.0578 3.864 52.0578 3.448C52.0578 3.097 52.3568 2.837 52.9678 2.837C53.7738 2.837 54.6838 3.149 55.5158 3.734L56.7768 1.953C55.7888 1.16 54.5798 0.743999 53.0328 0.743999C50.8488 0.743999 49.5098 1.966 49.5098 3.656C49.5098 5.554 51.0048 6.1 52.9418 6.542C54.1768 6.828 54.4758 7.036 54.4758 7.413C54.4758 7.829 54.1118 8.063 53.4358 8.063C52.3828 8.063 51.3818 7.686 50.4848 6.971L49.0808 8.648C50.1988 9.649 51.7328 10.156 53.3448 10.156ZM60.2193 10H62.7413V3.11H65.4713V0.899998H57.4893V3.11H60.2193V10Z" fill="url(#paint8_linear_2738_2)"/>
<path d="M25.1869 23.182C27.2019 23.182 28.3589 22.311 29.2169 21.128L27.3189 19.776C26.7729 20.439 26.2139 20.881 25.2649 20.881C23.9909 20.881 23.0939 19.815 23.0939 18.45C23.0939 17.098 23.9909 16.019 25.2649 16.019C26.1359 16.019 26.7469 16.422 27.2669 17.072L29.1129 15.642C28.3069 14.524 27.1499 13.718 25.2909 13.718C22.5349 13.718 20.4939 15.798 20.4939 18.45C20.4939 21.193 22.5869 23.182 25.1869 23.182ZM30.302 23H32.824V20.244H33.929L35.762 23H38.674L36.503 19.828C37.634 19.347 38.375 18.424 38.375 17.033C38.375 16.11 38.102 15.408 37.569 14.875C36.958 14.264 35.996 13.9 34.605 13.9H30.302V23ZM32.824 18.268V16.084H34.475C35.32 16.084 35.84 16.448 35.84 17.163C35.84 17.852 35.346 18.268 34.488 18.268H32.824ZM41.9417 23H44.4767V19.555L47.9347 13.9H45.1137L43.2287 17.215L41.3567 13.9H38.4837L41.9417 19.594V23ZM48.7102 23H51.2322V20.4H52.4802C54.7422 20.4 56.3932 19.269 56.3932 17.124C56.3932 15.083 54.9112 13.9 52.6102 13.9H48.7102V23ZM51.2322 18.424V16.019H52.4152C53.3252 16.019 53.8712 16.435 53.8712 17.215C53.8712 17.956 53.3252 18.424 52.4282 18.424H51.2322ZM59.6803 23H62.2023V16.11H64.9323V13.9H56.9503V16.11H59.6803V23ZM70.2217 23.182C73.0297 23.182 75.1357 21.063 75.1357 18.45C75.1357 15.811 73.0557 13.718 70.2477 13.718C67.4397 13.718 65.3337 15.837 65.3337 18.45C65.3337 21.089 67.4137 23.182 70.2217 23.182ZM70.2477 20.907C68.8697 20.907 67.9207 19.763 67.9207 18.45C67.9207 17.111 68.8437 15.993 70.2217 15.993C71.6127 15.993 72.5617 17.137 72.5617 18.45C72.5617 19.789 71.6387 20.907 70.2477 20.907Z" fill="url(#paint9_linear_2738_2)"/>
<path d="M26.1869 36.182C28.2019 36.182 29.3589 35.311 30.2169 34.128L28.3189 32.776C27.7729 33.439 27.2139 33.881 26.2649 33.881C24.9909 33.881 24.0939 32.815 24.0939 31.45C24.0939 30.098 24.9909 29.019 26.2649 29.019C27.1359 29.019 27.7469 29.422 28.2669 30.072L30.1129 28.642C29.3069 27.524 28.1499 26.718 26.2909 26.718C23.5349 26.718 21.4939 28.798 21.4939 31.45C21.4939 34.193 23.5869 36.182 26.1869 36.182ZM30.574 36H33.226L33.876 34.375H37.386L38.049 36H40.753L36.879 26.835H34.448L30.574 36ZM34.617 32.412L35.644 29.825L36.658 32.412H34.617ZM45.084 36.156C47.294 36.156 48.763 35.051 48.763 33.192C48.763 31.463 47.463 30.787 45.37 30.332C44.109 30.046 43.797 29.864 43.797 29.448C43.797 29.097 44.096 28.837 44.707 28.837C45.513 28.837 46.423 29.149 47.255 29.734L48.516 27.953C47.528 27.16 46.319 26.744 44.772 26.744C42.588 26.744 41.249 27.966 41.249 29.656C41.249 31.554 42.744 32.1 44.681 32.542C45.916 32.828 46.215 33.036 46.215 33.413C46.215 33.829 45.851 34.063 45.175 34.063C44.122 34.063 43.121 33.686 42.224 32.971L40.82 34.648C41.938 35.649 43.472 36.156 45.084 36.156ZM50.0415 36H52.5765V26.9H50.0415V36ZM54.2424 36H56.7384V31.008L60.6254 36H62.8354V26.9H60.3394V31.71L56.5954 26.9H54.2424V36ZM69.0255 36.182C71.8335 36.182 73.9395 34.063 73.9395 31.45C73.9395 28.811 71.8595 26.718 69.0515 26.718C66.2435 26.718 64.1375 28.837 64.1375 31.45C64.1375 34.089 66.2175 36.182 69.0255 36.182ZM69.0515 33.907C67.6735 33.907 66.7245 32.763 66.7245 31.45C66.7245 30.111 67.6475 28.993 69.0255 28.993C70.4165 28.993 71.3655 30.137 71.3655 31.45C71.3655 32.789 70.4425 33.907 69.0515 33.907Z" fill="url(#paint10_linear_2738_2)"/>
<mask id="mask0_2738_2" style="mask-type:luminance" maskUnits="userSpaceOnUse" x="32" y="39" width="29" height="13">
<path d="M61 39H32V52H61V39Z" fill="white"/>
</mask>
<g mask="url(#mask0_2738_2)">
<path d="M34.9653 41.7772H35.814L35.9115 41.4388H36.8967L36.9943 41.7772H37.8527L36.8967 39.1493H35.9115L34.9653 41.7772ZM36.409 39.8561L36.7016 40.7818H36.1164L36.409 39.8561Z" fill="url(#paint11_linear_2738_2)"/>
<path d="M39.2574 41.16C38.9062 41.16 38.6233 41.0107 38.4282 40.8216L38.0186 41.4089C38.2917 41.6577 38.6721 41.827 39.2184 41.827C39.9109 41.827 40.3304 41.4885 40.3304 40.9112C40.3304 40.304 39.6963 40.1746 39.2769 40.1049C39.0038 40.0551 38.8965 40.0253 38.8965 39.9158C38.8965 39.8461 38.9355 39.7764 39.1306 39.7764C39.3354 39.7764 39.628 39.866 39.8524 40.0352L40.2718 39.4678C39.9792 39.219 39.5988 39.0995 39.1793 39.0995C38.4673 39.0995 38.1063 39.5077 38.1063 39.9556C38.1063 40.6126 38.7599 40.7221 39.1793 40.7917C39.433 40.8415 39.5403 40.8913 39.5403 40.9908C39.5403 41.1103 39.4037 41.16 39.2574 41.16Z" fill="url(#paint12_linear_2738_2)"/>
<path d="M40.7986 39.1493H41.5789V41.7772H40.7986V39.1493Z" fill="url(#paint13_linear_2738_2)"/>
<path d="M43.003 40.3737L43.9589 41.7772H44.71V39.1493H43.9297V40.4732L43.0323 39.1493H42.2227V41.7772H43.003V40.3737Z" fill="url(#paint14_linear_2738_2)"/>
<path d="M48.0461 40.4931C48.0461 40.0971 47.8919 39.7173 47.6175 39.4373C47.3432 39.1573 46.971 39 46.5829 39C46.1949 39 45.8227 39.1573 45.5483 39.4373C45.2739 39.7173 45.1198 40.0971 45.1198 40.4931C45.1198 40.8891 45.2739 41.2689 45.5483 41.5489C45.8227 41.8289 46.1949 41.9862 46.5829 41.9862C46.971 41.9862 47.3432 41.8289 47.6175 41.5489C47.8919 41.2689 48.0461 40.8891 48.0461 40.4931ZM45.8904 40.4931C45.8904 40.1049 46.2025 39.7864 46.5829 39.7864C46.9634 39.7864 47.2755 40.1049 47.2755 40.4931C47.2755 40.8813 46.9634 41.1998 46.5829 41.1998C46.4916 41.2012 46.401 41.1838 46.3164 41.1488C46.2317 41.1137 46.1549 41.0617 46.0903 40.9958C46.0257 40.9299 45.9747 40.8515 45.9404 40.7651C45.9061 40.6788 45.8891 40.5863 45.8904 40.4931ZM33.4632 39.7864C33.7461 39.7864 33.9899 39.9556 34.107 40.2243L34.8191 39.9257C34.6911 39.6065 34.4587 39.3424 34.1615 39.1782C33.8643 39.014 33.5206 38.9598 33.1887 39.0249C32.8568 39.09 32.5572 39.2704 32.3409 39.5353C32.1245 39.8002 32.0047 40.1334 32.0018 40.4783C31.9988 40.8232 32.113 41.1585 32.3249 41.4272C32.5367 41.6959 32.8332 41.8815 33.164 41.9524C33.4947 42.0233 33.8393 41.9752 34.1392 41.8163C34.4392 41.6573 34.6759 41.3973 34.8093 41.0804L34.0972 40.7718C34.0479 40.8892 33.9683 40.9907 33.8669 41.0656C33.7655 41.1405 33.6462 41.1859 33.5215 41.1971C33.3969 41.2083 33.2716 41.1848 33.1589 41.1292C33.0463 41.0735 32.9505 40.9877 32.8819 40.881C32.8132 40.7742 32.7741 40.6505 32.7688 40.5229C32.7636 40.3953 32.7923 40.2686 32.8519 40.1564C32.9115 40.0441 32.9999 39.9504 33.1075 39.8852C33.2151 39.8201 33.338 39.7859 33.4632 39.7864Z" fill="url(#paint15_linear_2738_2)"/>
<mask id="mask1_2738_2" style="mask-type:luminance" maskUnits="userSpaceOnUse" x="32" y="43" width="10" height="10">
<path d="M33.59 43.3798C32.9754 43.7182 32.6145 44.3752 32 44.7037C32.2048 44.9127 32.3219 45.1914 32.3219 45.49C32.3317 46.0574 32.1756 46.6148 32.1171 47.1723C31.9657 48.1525 31.9756 49.1517 32.1463 50.1286C32.2533 50.7249 32.5519 51.2677 32.995 51.6715C33.2778 51.9004 33.6387 52 33.9997 52.0099H34.0192C34.2837 52.0081 34.5454 51.954 34.7898 51.8507C35.5456 51.4978 36.1589 50.8895 36.5261 50.1286C36.7212 50.5965 36.9455 51.0544 37.2869 51.4227C37.7454 51.9303 38.4867 52.1095 39.1208 51.9303C39.7042 51.759 40.2154 51.3949 40.5742 50.8951C41.4281 49.7161 41.871 48.2795 41.8325 46.8139C41.8325 45.928 41.6276 45.0023 41.0424 44.3254C40.779 44.0069 40.3401 43.8277 39.9401 43.9671C39.4538 44.1971 39.0412 44.5629 38.7501 45.0222C39.2183 45.1118 39.589 45.49 39.7353 45.938C39.9299 46.6341 39.9299 47.372 39.7353 48.0681C39.6258 48.6738 39.3636 49.2399 38.9744 49.7106C38.7891 49.9196 38.4477 50.0291 38.2038 49.8499C37.9307 49.6409 37.8722 49.2626 37.8429 48.9341C37.7941 47.9686 37.9405 47.013 38.0965 46.0674C38.1291 45.8916 38.0941 45.7099 37.999 45.5597C37.7161 45.4303 37.404 45.5 37.1211 45.6095C36.7602 45.7688 36.409 45.938 36.0383 46.0674C36.0871 46.2366 36.1359 46.4058 36.1261 46.585C36.1026 47.5331 35.8478 48.4602 35.3848 49.2825C35.1995 49.5911 34.8678 49.9495 34.4776 49.8201C34.1752 49.6707 34.0484 49.3223 34.0094 49.0038C33.9704 48.4663 34.0582 47.9288 34.1948 47.4112C34.3996 46.4257 34.6922 45.4502 34.7508 44.4449C34.7605 44.1164 34.7605 43.7481 34.5459 43.4793C34.4796 43.4045 34.3981 43.3453 34.3072 43.3058C34.2162 43.2663 34.118 43.2474 34.0192 43.2504C33.8729 43.2603 33.7168 43.3001 33.59 43.3798Z" fill="url(#paint16_linear_2738_2)"/>
</mask>
<g mask="url(#mask1_2738_2)">
<path d="M31.9316 43.2603H41.8324V52.0995H31.9316V43.2603Z" fill="url(#paint17_linear_2738_2)"/>
</g>
<mask id="mask2_2738_2" style="mask-type:luminance" maskUnits="userSpaceOnUse" x="42" y="43" width="8" height="9">
<path d="M45.9683 50.039C45.5562 49.6629 45.284 49.1531 45.1977 48.5957C45.0514 47.8193 45.0222 47.0031 45.2465 46.2466C45.3733 45.8185 45.6367 45.4005 46.0561 45.2312C46.2131 45.171 46.3827 45.1531 46.5484 45.1793C46.7141 45.2054 46.8705 45.2748 47.0023 45.3805C47.3632 45.6692 47.5778 46.1072 47.7339 46.5352C47.9973 47.3415 48.0265 48.2075 47.8802 49.0436C47.7924 49.4617 47.6266 49.9096 47.2462 50.1386C47.0706 50.2381 46.8657 50.2879 46.6707 50.2879C46.415 50.293 46.1659 50.2048 45.9683 50.039ZM45.3538 43.4893C44.9226 43.6107 44.5294 43.8439 44.2125 44.1662L44.3686 44.5842C44.0077 44.7833 43.7443 45.1118 43.5395 45.4701C43.0127 46.4357 42.8567 47.5804 43.0225 48.6654C43.1359 49.607 43.5711 50.4776 44.2515 51.124C44.8722 51.6894 45.6775 51.9978 46.5094 51.9886C47.3413 51.9794 48.1399 51.6533 48.7484 51.0743C49.4897 50.3277 49.8213 49.2626 49.8799 48.2274C49.9482 47.232 49.8311 46.2067 49.3726 45.3109C49.0565 44.6612 48.5703 44.1134 47.968 43.7282C47.5747 43.4989 47.1376 43.3589 46.6864 43.3177C46.2353 43.2765 45.7808 43.335 45.3538 43.4893Z" fill="url(#paint18_linear_2738_2)"/>
</mask>
<g mask="url(#mask2_2738_2)">
<path d="M42.8665 43.3001H49.9482V52.2986H42.8665V43.3001Z" fill="url(#paint19_linear_2738_2)"/>
</g>
<mask id="mask3_2738_2" style="mask-type:luminance" maskUnits="userSpaceOnUse" x="51" y="43" width="11" height="10">
<path d="M52.7575 43.3798C52.1527 43.7182 51.7918 44.3752 51.1772 44.7037C51.3821 44.9127 51.4991 45.1914 51.4991 45.49C51.5089 46.0574 51.3528 46.6148 51.2943 47.1822C51.143 48.1592 51.1529 49.155 51.3236 50.1286C51.4306 50.7249 51.7292 51.2677 52.1722 51.6715C52.6794 52.0697 53.3915 52.0896 53.967 51.8507C54.7275 51.5049 55.3429 50.8945 55.7033 50.1286C55.8886 50.5766 56.1032 51.0245 56.4251 51.3828C56.7763 51.791 57.3226 52.0099 57.8493 51.99C58.5028 51.9701 59.1076 51.6217 59.5466 51.134C60.4126 50.1149 60.9176 48.8282 60.9805 47.4808C61.0683 46.4456 60.961 45.3109 60.3269 44.4548C60.0733 44.0865 59.6246 43.8277 59.1759 43.9571C58.6394 44.1263 58.2687 44.5942 57.9371 45.0321C58.4053 45.1217 58.776 45.5 58.9223 45.9479C59.1172 46.6474 59.1172 47.3885 58.9223 48.088C58.8099 48.6908 58.5517 49.2554 58.1712 49.7305C57.9859 49.9395 57.6542 50.049 57.4006 49.8798C57.1275 49.6707 57.0689 49.2925 57.0397 48.974C56.9909 48.0084 57.1372 47.0429 57.2933 46.0972C57.3323 45.9181 57.2835 45.7488 57.1957 45.5896C56.8836 45.4403 56.5422 45.5398 56.2398 45.6792C55.9082 45.8285 55.5765 45.9778 55.2351 46.1072C55.2839 46.2764 55.3326 46.4456 55.3229 46.6248C55.2994 47.5729 55.0446 48.5 54.5816 49.3223C54.3962 49.6309 54.0646 49.9793 53.6744 49.8698C53.372 49.7305 53.2452 49.3721 53.2062 49.0635C53.1672 48.5061 53.2647 47.9487 53.4013 47.4012C53.6061 46.4357 53.889 45.4801 53.9475 44.4847C53.9573 44.1562 53.9573 43.7879 53.7427 43.5191C53.6763 43.4443 53.5949 43.3851 53.5039 43.3456C53.413 43.3061 53.3147 43.2872 53.2159 43.2902C53.0403 43.2603 52.8843 43.3001 52.7575 43.3798Z" fill="url(#paint20_linear_2738_2)"/>
</mask>
<g mask="url(#mask3_2738_2)">
<path d="M51.0991 43.2603H61.0584V52.0896H51.0991V43.2603Z" fill="url(#paint21_linear_2738_2)"/>
</g>
</g>
</g>
<defs>
<linearGradient id="paint0_linear_2738_2" x1="8.40189" y1="1.70293" x2="11.5322" y2="3.21906" gradientUnits="userSpaceOnUse">
<stop stop-color="#F8B430"/>
<stop offset="1" stop-color="#FFE452"/>
</linearGradient>
<linearGradient id="paint1_linear_2738_2" x1="4.64396" y1="5.60224" x2="7.77555" y2="7.12064" gradientUnits="userSpaceOnUse">
<stop stop-color="#F8B430"/>
<stop offset="1" stop-color="#FFE452"/>
</linearGradient>
<linearGradient id="paint2_linear_2738_2" x1="2.11782" y1="10.6096" x2="5.37032" y2="12.4984" gradientUnits="userSpaceOnUse">
<stop stop-color="#F8B430"/>
<stop offset="1" stop-color="#FFE452"/>
</linearGradient>
<linearGradient id="paint3_linear_2738_2" x1="3.65962" y1="6.37183" x2="26.4219" y2="19.7289" gradientUnits="userSpaceOnUse">
<stop stop-color="#F8B430"/>
<stop offset="1" stop-color="#FFE452"/>
</linearGradient>
<linearGradient id="paint4_linear_2738_2" x1="83.9608" y1="1.70293" x2="87.0915" y2="3.21951" gradientUnits="userSpaceOnUse">
<stop stop-color="#F8B430"/>
<stop offset="1" stop-color="#FFE452"/>
</linearGradient>
<linearGradient id="paint5_linear_2738_2" x1="87.6728" y1="5.60224" x2="90.8043" y2="7.12055" gradientUnits="userSpaceOnUse">
<stop stop-color="#F8B430"/>
<stop offset="1" stop-color="#FFE452"/>
</linearGradient>
<linearGradient id="paint6_linear_2738_2" x1="90.0323" y1="10.6095" x2="93.2845" y2="12.4978" gradientUnits="userSpaceOnUse">
<stop stop-color="#F8B430"/>
<stop offset="1" stop-color="#FFE452"/>
</linearGradient>
<linearGradient id="paint7_linear_2738_2" x1="79.0769" y1="6.36903" x2="101.839" y2="19.7262" gradientUnits="userSpaceOnUse">
<stop stop-color="#F8B430"/>
<stop offset="1" stop-color="#FFE452"/>
</linearGradient>
<linearGradient id="paint8_linear_2738_2" x1="38.539" y1="1.98112" x2="41.8367" y2="15.2017" gradientUnits="userSpaceOnUse">
<stop stop-color="#F8B430"/>
<stop offset="1" stop-color="#FFE452"/>
</linearGradient>
<linearGradient id="paint9_linear_2738_2" x1="31.4223" y1="14.962" x2="33.5534" y2="28.7534" gradientUnits="userSpaceOnUse">
<stop stop-color="#F8B430"/>
<stop offset="1" stop-color="#FFE452"/>
</linearGradient>
<linearGradient id="paint10_linear_2738_2" x1="31.983" y1="27.962" x2="34.199" y2="41.7259" gradientUnits="userSpaceOnUse">
<stop stop-color="#F8B430"/>
<stop offset="1" stop-color="#FFE452"/>
</linearGradient>
<linearGradient id="paint11_linear_2738_2" x1="35.5428" y1="39.4947" x2="37.4615" y2="41.8576" gradientUnits="userSpaceOnUse">
<stop stop-color="#F8B430"/>
<stop offset="1" stop-color="#FFE452"/>
</linearGradient>
<linearGradient id="paint12_linear_2738_2" x1="38.4809" y1="39.458" x2="40.513" y2="41.3885" gradientUnits="userSpaceOnUse">
<stop stop-color="#F8B430"/>
<stop offset="1" stop-color="#FFE452"/>
</linearGradient>
<linearGradient id="paint13_linear_2738_2" x1="40.9546" y1="39.4947" x2="42.1294" y2="39.8857" gradientUnits="userSpaceOnUse">
<stop stop-color="#F8B430"/>
<stop offset="1" stop-color="#FFE452"/>
</linearGradient>
<linearGradient id="paint14_linear_2738_2" x1="42.7201" y1="39.4947" x2="44.6772" y2="41.5709" gradientUnits="userSpaceOnUse">
<stop stop-color="#F8B430"/>
<stop offset="1" stop-color="#FFE452"/>
</linearGradient>
<linearGradient id="paint15_linear_2738_2" x1="35.2106" y1="39.3908" x2="35.9315" y2="43.7295" gradientUnits="userSpaceOnUse">
<stop stop-color="#F8B430"/>
<stop offset="1" stop-color="#FFE452"/>
</linearGradient>
<linearGradient id="paint16_linear_2738_2" x1="33.967" y1="44.4015" x2="40.3331" y2="52.4125" gradientUnits="userSpaceOnUse">
<stop stop-color="#F8B430"/>
<stop offset="1" stop-color="#FFE452"/>
</linearGradient>
<linearGradient id="paint17_linear_2738_2" x1="33.9118" y1="44.4221" x2="40.339" y2="52.4911" gradientUnits="userSpaceOnUse">
<stop stop-color="#F8B430"/>
<stop offset="1" stop-color="#FFE452"/>
</linearGradient>
<linearGradient id="paint18_linear_2738_2" x1="44.347" y1="44.4463" x2="50.7862" y2="50.213" gradientUnits="userSpaceOnUse">
<stop stop-color="#F8B430"/>
<stop offset="1" stop-color="#FFE452"/>
</linearGradient>
<linearGradient id="paint19_linear_2738_2" x1="44.2828" y1="44.4829" x2="50.9434" y2="50.358" gradientUnits="userSpaceOnUse">
<stop stop-color="#F8B430"/>
<stop offset="1" stop-color="#FFE452"/>
</linearGradient>
<linearGradient id="paint20_linear_2738_2" x1="53.1432" y1="44.4272" x2="59.4797" y2="52.428" gradientUnits="userSpaceOnUse">
<stop stop-color="#F8B430"/>
<stop offset="1" stop-color="#FFE452"/>
</linearGradient>
<linearGradient id="paint21_linear_2738_2" x1="53.091" y1="44.4208" x2="59.5008" y2="52.5246" gradientUnits="userSpaceOnUse">
<stop stop-color="#F8B430"/>
<stop offset="1" stop-color="#FFE452"/>
</linearGradient>
<clipPath id="clip0_2738_2">
<rect width="94" height="52" fill="white"/>
</clipPath>
</defs>
</svg>
