<svg fill="none" height="56" viewBox="0 0 97 56" width="97" xmlns="http://www.w3.org/2000/svg" xmlns:xlink="http://www.w3.org/1999/xlink"><linearGradient id="a"><stop offset="0" stop-color="#f8b430"/><stop offset="1" stop-color="#ffe452"/></linearGradient><linearGradient id="b" gradientUnits="userSpaceOnUse" x1="30.7502" x2="39.019" xlink:href="#a" y1="4.95265" y2="13.0956"/><linearGradient id="c" gradientUnits="userSpaceOnUse" x1="41.8009" x2="49.9138" xlink:href="#a" y1="4.95265" y2="11.6191"/><linearGradient id="d" gradientUnits="userSpaceOnUse" x1="51.1919" x2="59.7143" xlink:href="#a" y1="4.81659" y2="12.7748"/><linearGradient id="e" gradientUnits="userSpaceOnUse" x1="61.0993" x2="69.3373" xlink:href="#a" y1="4.95265" y2="12.4978"/><linearGradient id="f" gradientUnits="userSpaceOnUse" x1="19.2286" x2="27.7697" xlink:href="#a" y1="17.8503" y2="26.896"/><linearGradient id="g" gradientUnits="userSpaceOnUse" x1="30.2974" x2="38.4221" xlink:href="#a" y1="17.9838" y2="27.7999"/><linearGradient id="h" gradientUnits="userSpaceOnUse" x1="41.8198" x2="50.3423" xlink:href="#a" y1="17.8481" y2="25.8063"/><linearGradient id="i" gradientUnits="userSpaceOnUse" x1="51.435" x2="55.8466" xlink:href="#a" y1="17.9838" y2="19.2587"/><linearGradient id="j" gradientUnits="userSpaceOnUse" x1="57.8734" x2="66.1369" xlink:href="#a" y1="17.9838" y2="26.593"/><linearGradient id="k" gradientUnits="userSpaceOnUse" x1="69.9766" x2="78.4403" xlink:href="#a" y1="17.8503" y2="27.653"/><linearGradient id="l" gradientUnits="userSpaceOnUse" x1="27.0034" x2="33.693" xlink:href="#a" y1="30.6875" y2="37.8921"/><linearGradient id="m" gradientUnits="userSpaceOnUse" x1="36.7334" x2="42.9205" xlink:href="#a" y1="30.8056" y2="35.3487"/><linearGradient id="n" gradientUnits="userSpaceOnUse" x1="47.0577" x2="53.399" xlink:href="#a" y1="30.6914" y2="35.51"/><linearGradient id="o" gradientUnits="userSpaceOnUse" x1="54.8251" x2="61.409" xlink:href="#a" y1="30.712" y2="36.174"/><linearGradient id="p" gradientUnits="userSpaceOnUse" x1="61.7031" x2="66.2023" xlink:href="#a" y1="30.8056" y2="32.6204"/><linearGradient id="q" gradientUnits="userSpaceOnUse" x1="66.7918" x2="73.0498" xlink:href="#a" y1="30.8056" y2="35.5909"/><linearGradient id="r" gradientUnits="userSpaceOnUse" x1="62.8015" x2="63.9237" xlink:href="#a" y1="47.5401" y2="48.3069"/><linearGradient id="s" gradientUnits="userSpaceOnUse" x1="43.8744" x2="45.1328" xlink:href="#a" y1="48.1667" y2="48.6361"/><linearGradient id="t" gradientUnits="userSpaceOnUse" x1="53.3918" x2="54.4101" xlink:href="#a" y1="49.935" y2="50.499"/><linearGradient id="u" gradientUnits="userSpaceOnUse" x1="53.3797" x2="54.3203" xlink:href="#a" y1="47.6025" y2="48.1236"/><linearGradient id="v" gradientUnits="userSpaceOnUse" x1="31.0265" x2="34.4646" xlink:href="#a" y1="44.7009" y2="62.6323"/><linearGradient id="w" gradientUnits="userSpaceOnUse" x1="28.3948" x2="29.6542" xlink:href="#a" y1="48.1667" y2="48.6369"/><linearGradient id="x" gradientUnits="userSpaceOnUse" x1="15.6131" x2="17.2141" xlink:href="#a" y1="6.12897" y2="9.5765"/><linearGradient id="y" gradientUnits="userSpaceOnUse" x1="10.0494" x2="13.4681" xlink:href="#a" y1="3.76275" y2="5.5207"/><linearGradient id="z" gradientUnits="userSpaceOnUse" x1="5.89016" x2="9.31027" xlink:href="#a" y1="7.86908" y2="9.62954"/><linearGradient id="A" gradientUnits="userSpaceOnUse" x1="3.05888" x2="6.58397" xlink:href="#a" y1="13.1417" y2="15.3147"/><linearGradient id="B" gradientUnits="userSpaceOnUse" x1="5.32604" x2="32.6931" xlink:href="#a" y1="5.70484" y2="23.3868"/><linearGradient id="C" gradientUnits="userSpaceOnUse" x1="77.9524" x2="79.5534" xlink:href="#a" y1="6.12897" y2="9.5765"/><linearGradient id="D" gradientUnits="userSpaceOnUse" x1="85.1821" x2="88.6008" xlink:href="#a" y1="3.76275" y2="5.5207"/><linearGradient id="E" gradientUnits="userSpaceOnUse" x1="89.3422" x2="92.7623" xlink:href="#a" y1="7.86908" y2="9.62941"/><linearGradient id="F" gradientUnits="userSpaceOnUse" x1="91.9865" x2="95.5117" xlink:href="#a" y1="13.1417" y2="15.315"/><linearGradient id="G" gradientUnits="userSpaceOnUse" x1="77.5107" x2="104.878" xlink:href="#a" y1="5.70484" y2="23.3865"/><path d="m35.6332 11.141c0-.549-.3996-.9306-1.0971-.9306h-2.8755v1.8774h2.8755c.6813 0 1.0971-.3483 1.0971-.9468zm-.2169-4.28843c0-.53189-.3978-.86485-.9801-.86485h-2.7756v1.72886h2.7756c.5823 0 .9801-.31504.9801-.86401zm-6.614 7.72823v-11.08519h6.2827c2.2104 0 3.2409 1.42918 3.2409 2.82507 0 1.37967-.8478 2.31027-1.8953 2.54334 1.1807.18185 2.1113 1.31308 2.1113 2.70808 0 1.6128-1.0809 3.0087-3.2579 3.0087z" fill="url(#b)"/><path d="m40.1755 14.5808v-11.08519h8.1269v2.49211h-5.2685v1.72886h5.1533v2.49382h-5.1533v1.8774h5.2685v2.493z" fill="url(#c)"/><path d="m49.2839 13.0008 1.5128-2.2274c.7974.7982 2.0277 1.4633 3.5568 1.4633.9639 0 1.5624-.3321 1.5624-.8811 0-1.46247-6.2666-.2493-6.2666-4.52062 0-1.86119 1.5624-3.52346 4.4045-3.52346 1.7784 0 3.3245.53189 4.5036 1.54616l-1.5615 2.14293c-.9306-.78119-2.1438-1.16282-3.2417-1.16282-.8308 0-1.1962.28259-1.1962.76497 0 1.36174 6.2658.33211 6.2658 4.45404 0 2.2266-1.6452 3.7053-4.6206 3.7053-2.2436 0-3.806-.7146-4.9193-1.7613z" fill="url(#d)"/><path d="m62.3962 14.5808v-8.59308h-3.1086v-2.49211h9.0584v2.49211h-3.0914v8.59308z" fill="url(#e)"/><path d="m17.0614 22.0768c0-3.4235 2.592-5.7338 5.9993-5.7338 2.6757 0 4.122 1.5129 4.8366 2.9583l-2.4597 1.1799c-.3654-.8802-1.3131-1.6119-2.3769-1.6119-1.8116 0-3.0914 1.3805-3.0914 3.2075 0 1.8117 1.2798 3.2085 3.0914 3.2085 1.0638 0 2.0115-.7309 2.3769-1.6128l2.4597 1.1637c-.7146 1.413-2.1609 2.9745-4.8366 2.9745-3.4073 0-5.9993-2.3265-5.9993-5.7339z" fill="url(#f)"/><path d="m33.8905 19.3517-1.413 4.1715h2.8089zm2.7252 8.2609-.5482-1.5965h-4.3712l-.549 1.5965h-3.24l4.1715-11.086h3.6063l4.1723 11.086z" fill="url(#g)"/><path d="m39.9119 26.0323 1.512-2.2275c.7982.7983 2.0276 1.4634 3.5567 1.4634.9639 0 1.5624-.333 1.5624-.8811 0-1.4625-6.2657-.2493-6.2657-4.5206 0-1.8621 1.5623-3.5235 4.4045-3.5235 1.7784 0 3.3237.5319 4.5036 1.5453l-1.5624 2.1438c-.9306-.7812-2.1438-1.1628-3.2409-1.1628-.8307 0-1.1961.2826-1.1961.7641 0 1.3626 6.2657.333 6.2657 4.4549 0 2.2266-1.6451 3.7053-4.6205 3.7053-2.2445 0-3.806-.7146-4.9193-1.7613z" fill="url(#h)"/><path d="m53.7217 16.5266h-2.8584v11.086h2.8584z" fill="url(#i)"/><path d="m63.3579 27.6126-4.6862-6.4159v6.4159h-2.8593v-11.086h2.9421l4.4873 6.1001v-6.1001h2.8755v11.086z" fill="url(#j)"/><path d="m76.5479 22.0768c0-1.8108-1.1799-3.2075-3.0078-3.2075-1.8287 0-3.0248 1.3967-3.0248 3.2075 0 1.7955 1.1961 3.2085 3.0248 3.2085 1.8279 0 3.0078-1.413 3.0078-3.2085zm-8.9414 0c0-3.3731 2.5434-5.7338 5.9336-5.7338 3.3903 0 5.9166 2.3607 5.9166 5.7338 0 3.3741-2.5263 5.7339-5.9166 5.7339-3.3902 0-5.9336-2.3598-5.9336-5.7339z" fill="url(#k)"/><path d="m32.7944 34.0007c0-2.0328-1.2636-3.5312-3.2059-3.5312-1.9542 0-3.1922 1.4984-3.1922 3.5312 0 2.0208 1.238 3.5319 3.1922 3.5319 1.9423 0 3.2059-1.5111 3.2059-3.5319zm-7.519 0c0-2.5673 1.7459-4.4951 4.3131-4.4951 2.5681 0 4.3269 1.9278 4.3269 4.4951 0 2.5672-1.7588 4.4967-4.3269 4.4967-2.5672 0-4.3131-1.9295-4.3131-4.4967z" fill="url(#l)"/><path d="m35.5945 38.3552v-8.6921h5.6945v.9647h-4.6128v2.8021h4.5215v.9639h-4.5215v3.9614z" fill="url(#m)"/><path d="m45.8742 38.3545v-.8726c3.1282-2.4503 4.8348-3.8965 4.8348-5.3949 0-1.1218-.9246-1.5905-1.8245-1.5905-1.0424 0-1.8501.4431-2.358 1.0954l-.6651-.6916c.6651-.8862 1.798-1.3686 3.0231-1.3686 1.4472 0 2.919.8214 2.919 2.5553 0 1.7716-1.798 3.3878-4.2218 5.3036h4.2611v.9639z" fill="url(#n)"/><path d="m59.0341 34.0148c0-1.7331-.56-3.5183-2.2155-3.5183-1.6554 0-2.2146 1.7852-2.2146 3.5183 0 1.734.5592 3.532 2.2146 3.532 1.6555 0 2.2155-1.798 2.2155-3.532zm-5.5383 0c0-2.1241.9383-4.4831 3.3228-4.4831 2.3718 0 3.3237 2.359 3.3237 4.4831 0 2.1113-.9519 4.4967-3.3237 4.4967-2.3845 0-3.3228-2.3854-3.3228-4.4967z" fill="url(#o)"/><path d="m63.1239 38.3552v-7.2715l-1.3942 1.4856-.6522-.6642 2.177-2.242h.9511v8.6921z" fill="url(#p)"/><path d="m66.7789 38.3552 3.5055-7.7274h-4.6786v-.9647h5.9302v.7436l-3.5585 7.9485z" fill="url(#q)"/><path d="m63.589 48.0604c0-.2817-.0811-.4738-.2424-.5771-.1631-.1033-.3475-.1554-.5541-.1554-.0487 0-.0888.0017-.1204.006-.0324.0034-.0546.0068-.0674.0093v1.5949c.0256.0025.0631.0042.111.0042.3449 0 .5771-.0794.6949-.2365.1187-.1562.1784-.3201.1784-.4883 0-.0307-.0008-.0504-.0017-.0572-.0017-.0077-.0025-.0145-.0025-.0196 0-.0154.0008-.0282.0025-.0385.0009-.0094.0017-.0239.0017-.0418z" fill="url(#r)"/><path d="m43.703 50.4039h.8571l-.49-2.5758z" fill="url(#s)"/><path d="m53.6937 49.8378c-.1085-.0751-.2314-.1144-.3697-.1144-.0196 0-.0504.0026-.0913.0077v1.5948c.0554.0051.0956.0077.1186.0077.2092 0 .374-.0718.4952-.2152.1212-.1426.1819-.3389.1819-.5899 0-.1324-.0282-.2621-.0854-.3868-.0581-.1255-.1409-.2271-.2493-.3039z" fill="url(#t)"/><path d="m53.7756 48.7141c.1281-.1195.1922-.3108.1922-.5712 0-.2151-.0265-.3756-.0786-.4832-.0521-.1067-.1289-.1759-.2297-.2066-.1007-.0308-.2433-.0461-.4268-.0461v1.4727c.0452.0094.0853.0145.1186.0145.1554 0 .2971-.0597.4243-.1801z" fill="url(#u)"/><path d="m70.0065 47.5045c-.0709.1152-.1657.2006-.2826.257-.1179.0563-.2416.0836-.3723.0836-.2091 0-.3893-.0657-.5413-.1989-.1519-.1323-.2279-.3193-.2279-.5592.0154-.2228.0999-.397.2544-.5242.1545-.1255.3313-.1887.5302-.1887.1204 0 .2365.0265.3483.0794.1127.0546.2049.1357.2758.2442.0717.1075.1118.2382.1229.3893 0 .1631-.0358.3022-.1075.4175zm-1.9884 3.9375c-.0897.1759-.2024.3304-.3407.4619-.1374.1315-.2997.2365-.4841.3125-.1852.0759-.3859.1144-.6027.1144-.3347 0-.6753-.0914-1.0228-.275v-1.1662c.2322.2322.502.3492.8085.3492.1938 0 .3586-.0529.4952-.1579.1366-.1042.2126-.2502.2279-.4363 0-.1358-.0401-.263-.1204-.3816-.0811-.1187-.1673-.216-.2604-.2895-.093-.0742-.2117-.1605-.3543-.2587-.1434-.099-.245-.1767-.3056-.2364-.4781-.3911-.7163-.8854-.7163-1.483 0-.2203.0341-.4414.1033-.6634.099-.3193.2758-.5669.5276-.7436.2527-.1759.5447-.2647.8734-.2647.3364 0 .6659.0905.9878.2715v1.1048c-.2963-.2425-.5678-.3637-.8153-.3637-.1742 0-.3134.0546-.4192.1665-.1059.111-.1588.245-.1588.4012 0 .1221.0358.2382.1067.3484.0666.0999.1537.1989.2621.2988s.2587.222.4482.3662c.1896.1443.3005.2297.3313.2553.1451.1221.2663.2536.362.3927.0956.1392.169.2912.2202.4559.0513.1648.0769.3322.0769.5003 0 .3091-.0769.6165-.2305.9204zm-4.3004.7974-1.0416-2.761v2.761h-1.2251v-5.8892h1.4701c.3492 0 .6634.07.94.2109.2775.1408.496.3423.6566.6036.1605.2621.2416.5643.2416.9033 0 .1587-.0145.3107-.0444.4584-.0291.1469-.1067.3091-.2314.4884-.1255.1793-.3193.3543-.5823.5259l1.0416 2.6987zm-2.8311-4.7853h-1.1636v1.2277h.9801v1.1654h-.9801v1.2883h1.1636v1.1039h-2.3888v-5.8892h2.3888zm-2.7072 4.7853h-2.5118v-5.8892h1.1637v4.7853h1.3481zm-3.1436-.8469c-.1255.2501-.309.4542-.5506.6104-.2408.158-.5251.2365-.8521.2365h-1.5316v-5.8892h1.5316c.082 0 .1691.0128.2604.0367.0914.0248.1947.0675.3082.1306.1136.0624.2194.1409.3176.234.0991.093.1913.2049.2775.3355.0794.1076.1485.257.2091.4499.0598.193.0897.3859.0897.5772 0 .1502-.0205.2988-.0623.4448-.0427.1451-.1127.2808-.2118.4064-.0973.1246-.2288.2347-.3918.3295.1656.0743.3107.1793.4345.3167.1238.1366.2152.2886.2741.4577.058.169.0879.3466.0879.5336 0 .2757-.0632.5387-.1904.7897zm-4.6623.8469-.3057-4.11-.6736 4.11h-.9195l-.7342-4.11-.2459 4.11h-1.2251l.5515-5.8892h1.5316l.5507 3.6199.4909-3.6199h1.5308l.6745 5.8892zm-5.4026 0-.1844-.9818h-1.1637l-.245.9818h-1.1637l1.3472-5.8892h1.2252l1.4087 5.8892zm-2.8883-1.9841c-.0256.1852-.0469.315-.0657.3893-.0119.1076-.0564.274-.1315.4994-.0751.2271-.2228.4628-.4422.7087-.2194.245-.5183.3944-.8956.4482-.1102.0128-.2083.0188-.2954.0188-.4798 0-.8785-.1469-1.1978-.4423s-.5533-.6762-.7027-1.1432c-.1494-.4661-.2237-.9596-.2237-1.4812 0-.1844.0094-.3748.0299-.5712 0-.1947.0606-.4858.1802-.8751.1203-.3885.3287-.7436.6258-1.0672.2979-.3236.6941-.4849 1.1893-.4849.1963 0 .4098.0324.6394.0956.3065.0845.5396.2288.7001.4311.1614.2032.3159.4892.4636.8572l-1.1022.4295c0-.1401-.029-.269-.0862-.3851-.0581-.1161-.1341-.2057-.228-.2689-.0948-.0623-.1981-.0931-.3099-.0931-.1306 0-.2544.047-.3714.1417-.1178.094-.2151.2348-.2911.4209-.0564.1307-.0982.3193-.1247.5661-.0264.2467-.0427.467-.0478.6616-.0077.1964-.0119.339-.0119.4295.0051.0171.0162.1383.0333.3611.0162.2246.0435.4269.0819.6105.0384.1827.1127.3483.222.4977.1101.1503.2629.2331.4593.2476.1614 0 .2971-.0444.4081-.1358.111-.0905.1989-.2245.2638-.4012.0649-.1759.1067-.3859.1247-.6284h-.7966v-1.1039h1.8988c.0281.1972.0418.4038.0418.6215 0 .2451-.0119.4602-.0376.6455zm-5.4068 1.9841-1.1031-2.8831v2.8831h-1.1636v-5.8892h1.1636v2.6987l.9802-2.6987h1.2251l-1.1022 2.8225 1.2251 3.0667zm-3.0146-.7974c-.0897.1759-.2032.3304-.3407.4619-.1383.1315-.2996.2365-.4849.3125-.1844.0759-.3859.1144-.6028.1144-.3338 0-.6753-.0914-1.0219-.275v-1.1662c.2322.2322.502.3492.8077.3492.1938 0 .3594-.0529.496-.1579.1366-.1042.2126-.2502.2279-.4363 0-.1358-.0409-.263-.1203-.3816-.0811-.1187-.1674-.216-.2613-.2895-.093-.0742-.2109-.1605-.3534-.2587-.1435-.099-.2451-.1767-.3065-.2364-.4773-.3911-.7155-.8854-.7155-1.483 0-.2203.0342-.4414.1033-.6634.0991-.3193.2749-.5669.5276-.7436.2527-.1759.5439-.2647.8734-.2647.3364 0 .666.0905.987.2715v1.1048c-.2954-.2425-.5678-.3637-.8145-.3637-.1742 0-.3133.0546-.4192.1665-.1067.111-.1588.245-.1588.4012 0 .1221.035.2382.1067.3484.0666.0999.1537.1989.2621.2988s.2579.222.4482.3662c.1904.1443.3006.2297.3313.2553.1451.1221.2655.2536.3611.3927.0957.1392.1691.2912.2203.4559.0512.1648.0768.3322.0768.5003 0 .3091-.0768.6165-.2296.9204zm-4.1783.7974-.1836-.9818h-1.1636l-.2451.9818h-1.1645l1.3481-5.8892h1.2251l1.4087 5.8892zm44.018-9.1762h-50.1616l-3.9085 6.2299 3.9085 6.2299h50.1616l3.9085-6.2299z" fill="url(#v)"/><path d="m28.2232 50.4039h.8581l-.491-2.5758z" fill="url(#w)"/><path d="m14.5338 6.22667c.3962.95023 1.2038 1.74678 2.2864 2.12329 1.0825.37565 2.2104.251 3.1102-.24845-.3961-.94937-1.2038-1.74678-2.2872-2.12328-1.0826-.37565-2.2104-.25015-3.1094.24844z" fill="url(#x)"/><path d="m12.0624 6.04708c.1895-1.13038-.1229-2.22148-.7658-3.02486-.8692.54982-1.52057 1.47956-1.70925 2.60993-.18953 1.13123.12295 2.22148.76585 3.02401.8691-.54897 1.5197-1.47871 1.7092-2.60908z" fill="url(#y)"/><path d="m7.14394 12.7617c.64117-.805.95108-1.8961.75984-3.02652-.19209-1.13037-.84437-2.05841-1.7152-2.60652-.64117.80424-.95109 1.89705-.75985 3.02654.1921 1.1295.84437 2.0584 1.71521 2.6065z" fill="url(#z)"/><path d="m5.01169 17.7356c.44993-.9255.51482-2.0576.08197-3.1188-.43371-1.0621-1.2721-1.8253-2.24197-2.1703-.45078.9247-.51481 2.0576-.08195 3.118.43285 1.0612 1.27209 1.8261 2.24195 2.1711z" fill="url(#A)"/><path d="m20.8103 2.22488c-1.016.24674-1.8348.86742-2.3393 1.66312-1.2798.4209-2.4964.95706-3.6422 1.58628.6668-.44566 1.2081-1.11415 1.4975-1.94913.3757-1.08256.251-2.21037-.2484-3.109379-.9494.396143-1.7468 1.203799-2.1225 2.286359-.3765 1.08342-.251 2.21123.2485 3.11024.0495-.02049.0965-.04696.146-.07001-5.91912 3.45003-9.77383 9.52194-9.77383 16.18724 0 .146.00682.2911.01024.4363-.09477-.7744-.4337-1.536-1.01767-2.1626-.78289-.8376-1.83899-1.2533-2.866916-1.2311-.093059 1.0245.249297 2.1062 1.032196 2.9437.78204.8384 1.83813 1.2542 2.86605 1.232.00683-.0717.00597-.1443.00854-.2169.08537 1.4805.362 2.925.8068 4.3132-.28259-.6326-.74192-1.2046-1.36772-1.6281-.94938-.6429-2.07122-.8136-3.069257-.5626.138307 1.0185.712887 1.9978 1.661407 2.6406.94938.6429 2.07122.8128 3.06926.5627-.01622-.1161-.03842-.2314-.06574-.3458.49177 1.3498 1.14403 2.639 1.93888 3.847-.37053-.426-.84179-.7837-1.40271-1.0253-1.05268-.4534-2.18648-.4098-3.11964.023.32699.975 1.07489 1.8288 2.12757 2.2821 1.05354.4534 2.18732.4098 3.11962-.0239-.06574-.1955-.15282-.3859-.25186-.5703.79058 1.0962 1.70155 2.1156 2.71668 3.0436-.4474-.3031-.96988-.5199-1.54531-.6164-1.13038-.1887-2.22148.1238-3.02402.7675.54982.8692 1.47957 1.5197 2.60994 1.7084 1.13038.1887 2.22149-.1238 3.02399-.7667-.111-.1758-.2416-.3389-.3816-.4951 2.6518 2.218 5.9336 3.835 9.6039 4.5701l.0956-.4798c-3.3527-.671-6.3733-2.096-8.8688-4.0468.8205-.5575 1.4317-1.4557 1.6136-2.5433.1887-1.1304-.1238-2.2215-.7667-3.0249-.8691.5507-1.5197 1.4804-1.7092 2.6108-.1648.9861.0521 1.9414.537 2.703-1.1679-.952-2.21121-2.0251-3.11449-3.1896.93145-.3441 1.74169-1.0715 2.17879-2.0875.4533-1.0518.4098-2.1856-.0231-3.1196-.9758.327-1.8287 1.0757-2.2829 2.1275-.39614.9213-.41237 1.9048-.12038 2.7611-.98951-1.3336-1.79289-2.7841-2.38284-4.3166 1.00999-.1434 1.97815-.7154 2.61591-1.6571.64288-.9486.81278-2.0704.56263-3.0676-1.01938.1375-1.99779.7121-2.64067 1.6606-.61129.9024-.79058 1.9585-.59251 2.9181-.57884-1.5444-.92974-3.1725-1.04329-4.8459 1.02366.0922 2.10451-.2502 2.94119-1.0322.83839-.782 1.25417-1.8373 1.23198-2.8661-1.02451-.093-2.10622.2502-2.94376 1.0322-.8307.7744-1.24477 1.8185-1.23111 2.8371-.02391-.3654-.05123-.7291-.05123-1.0988 0-1.3925.17502-2.7585.50372-4.0776.91693.4303 2.02937.4884 3.07351.0624 1.06122-.4329 1.82445-1.2721 2.17025-2.2411-.92461-.4508-2.0584-.5157-3.11876-.0829-.93401.3808-1.63666 1.0775-2.02768 1.8988.432-1.5854 1.08768-3.1009 1.94059-4.5113.80338.6387 1.89279.9469 3.02055.7548 1.1296-.1913 2.0585-.8435 2.6066-1.7144-.8043-.6411-1.8962-.9519-3.0257-.7598-1.10224.1878-2.00979.8145-2.56217 1.652.85802-1.4078 1.9107-2.7115 3.12817-3.87606.5524.85205 1.4702 1.48896 2.5852 1.67506 1.1312.1895 2.2214-.1229 3.0248-.76581-.5498-.86997-1.4795-1.51968-2.6099-1.70922-1.0049-.16819-1.9765.06062-2.7448.56434 2.1275-1.96364 4.7289-3.5115 7.6573-4.466.7906.4209 1.7519.56604 2.7167.33125 1.1133-.26978 1.9943-.98608 2.4801-1.89277-.8478-.58397-1.9585-.8162-3.0726-.54641z" fill="url(#B)"/><path d="m82.2697 6.22667c-.8999-.49859-2.0268-.62409-3.1103-.24844-1.0825.3765-1.8902 1.17391-2.2863 2.12328.899.49945 2.0268.6241 3.1094.24845 1.0834-.37651 1.891-1.17306 2.2872-2.12329z" fill="url(#C)"/><path d="m86.4293 8.65616c.6429-.80253.9553-1.89278.7658-3.02401-.1895-1.13037-.8401-2.06011-1.7092-2.60993-.6429.80338-.9554 1.89448-.7659 3.02486.1887 1.13037.8401 2.06011 1.7093 2.60908z" fill="url(#D)"/><path d="m91.3554 10.1552c.1921-1.12949-.1179-2.2223-.759-3.02654-.8709.54811-1.524 1.47615-1.7152 2.60652-.1921 1.13042.1186 2.22152.7598 3.02652.8708-.5481 1.5231-1.477 1.7144-2.6065z" fill="url(#E)"/><path d="m91.7796 17.7356c.969-.345 1.8083-1.1099 2.242-2.1711.4328-1.0604.3679-2.1933-.0828-3.118-.9691.345-1.8083 1.1082-2.2412 2.1703-.4337 1.0612-.3688 2.1933.082 3.1188z" fill="url(#F)"/><path d="m92.7069 25.6161c-.6267.4243-1.086.9963-1.3686 1.6298.4448-1.389.7215-2.8353.8077-4.3166.0017.0735.0017.1469.0077.2186 1.0288.0222 2.0849-.3936 2.8669-1.232.782-.8375 1.1244-1.9192 1.0322-2.9437-1.0288-.0222-2.084.3935-2.8669 1.2311-.5849.6266-.923 1.389-1.0186 2.1634.0043-.146.0103-.2903.0103-.4371 0-6.6662-3.8547-12.73721-9.7738-16.18724.0486.0222.0973.04952.1468.07001.4995-.89901.6241-2.02682.2485-3.11024-.3757-1.08256-1.1731-1.890216-2.1225-2.286359-.4994.899009-.6249 2.026819-.2484 3.109379.2903.83498.8315 1.50432 1.4992 1.94998-1.1466-.63007-2.3632-1.16537-3.6439-1.58713-.5045-.7957-1.3233-1.41638-2.3401-1.66312-1.1133-.26979-2.2249-.03756-3.0718.54641.4858.90669 1.366 1.62299 2.4801 1.89277.9648.23479 1.9261.08965 2.7167-.33125 2.9275.9545 5.5289 2.50236 7.6556 4.466-.7675-.50372-1.7391-.73253-2.7431-.56434-1.1304.18954-2.061.83925-2.6099 1.70922.8025.64291 1.8936.95531 3.024.76581 1.115-.1861 2.0336-.82301 2.586-1.67506 1.2166 1.16456 2.2684 2.46736 3.1273 3.87516-.5532-.8383-1.4599-1.4641-2.5612-1.6511-1.1296-.1921-2.2215.1187-3.0258.7598.5473.8709 1.4762 1.5231 2.6066 1.7144 1.1269.1921 2.2163-.1161 3.0205-.7548.8521 1.4104 1.5078 2.925 1.9398 4.5096-.391-.8205-1.0937-1.5163-2.0268-1.8971-1.0613-.4328-2.1942-.3679-3.1188.0829.3449.969 1.109 1.8082 2.1702 2.2411 1.0442.426 2.1566.3679 3.0727-.0624.3296 1.3191.5037 2.6851.5037 4.0776 0 .3688-.0264.7325-.0503 1.0971.0128-1.0186-.4013-2.061-1.2312-2.8354-.8375-.782-1.9192-1.1252-2.9437-1.0322-.0222 1.0288.3927 2.0841 1.2311 2.8661.8375.782 1.9175 1.1244 2.942 1.0322-.1144 1.6725-.4644 3.3006-1.0432 4.8451.1972-.9597.0179-2.0149-.5925-2.9173-.6429-.9485-1.6213-1.5231-2.6416-1.6606-.2501.9972-.0794 2.119.5635 3.0676.6369.9417 1.6051 1.5137 2.6159 1.6571-.5908 1.5325-1.3933 2.983-2.3828 4.3166.292-.8563.2749-1.8398-.1213-2.7611-.4533-1.0518-1.3062-1.8005-2.282-2.1275-.4329.934-.4764 2.0678-.0231 3.1196.4363 1.016 1.2473 1.7434 2.1788 2.0875-.9041 1.1645-1.9466 2.2376-3.1145 3.1896.4841-.7616.7009-1.7169.5361-2.703-.1886-1.1304-.8392-2.0601-1.7083-2.6108-.6437.8034-.9562 1.8945-.7667 3.0249.1819 1.0876.7931 1.9858 1.6136 2.5424-2.4964 1.9517-5.5161 3.3767-8.8697 4.0477l.0965.4798c3.6703-.7351 6.9521-2.3521 9.6039-4.5701-.1409.1562-.2715.3193-.3825.4951.8034.6429 1.8937.9554 3.0249.7667 1.1304-.1887 2.0601-.8392 2.6099-1.7084-.8025-.6437-1.8936-.9562-3.024-.7675-.5763.0965-1.0979.3133-1.5461.6173 1.0159-.9289 1.9269-1.9491 2.7175-3.0454-.0991.1844-.1862.3748-.2527.5712.9331.4337 2.0669.4773 3.1204.0239 1.0527-.4533 1.8006-1.3071 2.1268-2.2821-.9323-.4328-2.067-.4764-3.1197-.023-.5609.2416-1.0322.5993-1.4027 1.0262.7957-1.2081 1.448-2.499 1.9397-3.8488-.0273.1144-.0503.2297-.0657.3467.9972.2501 2.1199.0802 3.0684-.5627.9494-.6428 1.5239-1.6221 1.6614-2.6406-.998-.251-2.1199-.0803-3.0684.5626z" fill="url(#G)"/></svg>