<svg width="94" height="47" viewBox="0 0 94 47" fill="none" xmlns="http://www.w3.org/2000/svg">
<path d="M10.2017 2.87051C10.3709 1.79788 10.092 0.762575 9.51686 0C8.73981 0.521842 8.15778 1.40402 7.98866 2.47742C7.81954 3.55005 8.09836 4.58611 8.67353 5.34793C9.45134 4.82608 10.0326 3.9439 10.2017 2.87051Z" fill="url(#paint0_linear_1745_26)"/>
<path d="M5.76447 9.24592C6.33811 8.48258 6.61542 7.44651 6.44401 6.37388C6.27184 5.30124 5.68905 4.41982 4.91048 3.89951C4.33683 4.66361 4.06029 5.69967 4.2317 6.77231C4.40311 7.84494 4.9859 8.7256 5.76447 9.24592Z" fill="url(#paint1_linear_1745_26)"/>
<path d="M3.86322 13.9693C4.26622 13.0917 4.32412 12.0168 3.93712 11.0097C3.54936 10.0018 2.79897 9.27656 1.93279 8.94974C1.52979 9.82735 1.47189 10.9023 1.85965 11.9094C2.24665 12.9173 2.99704 13.6425 3.86322 13.9693Z" fill="url(#paint2_linear_1745_26)"/>
<path d="M18.2981 35.2725C15.2996 34.6363 12.6005 33.2834 10.3692 31.4314C11.102 30.9035 11.649 30.0502 11.8113 29.018C11.9804 27.9446 11.7016 26.9093 11.1264 26.1475C10.3486 26.6693 9.76735 27.5522 9.59823 28.6249C9.45043 29.5604 9.6447 30.4685 10.0782 31.1907C9.03448 30.2872 8.10126 29.2686 7.29374 28.1632C8.1264 27.8372 8.85089 27.1454 9.2417 26.1825C9.64622 25.183 9.60813 24.1066 9.22037 23.2213C8.34885 23.5314 7.58551 24.2414 7.18023 25.2409C6.82599 26.1147 6.81151 27.0479 7.07205 27.8608C6.18759 26.5954 5.46996 25.218 4.94202 23.7645C5.84553 23.6274 6.71095 23.085 7.28079 22.1921C7.8552 21.2909 8.00756 20.2259 7.78435 19.2789C6.87246 19.41 5.99789 19.9547 5.42272 20.8559C4.87727 21.7122 4.71652 22.7147 4.89403 23.6251C4.37523 22.1601 4.06213 20.6144 3.96004 19.026C4.87574 19.1136 5.84172 18.7891 6.59059 18.0463C7.33945 17.3043 7.71121 16.3018 7.69141 15.3259C6.77571 15.2383 5.8082 15.5628 5.05934 16.3056C4.31733 17.0407 3.94709 18.0311 3.95928 18.9986C3.93719 18.652 3.91357 18.3061 3.91357 17.9557C3.91357 16.6347 4.06974 15.3373 4.3638 14.0849C5.18275 14.494 6.17768 14.5488 7.1109 14.1443C8.06012 13.7337 8.74271 12.9368 9.05124 12.0173C8.22468 11.59 7.21146 11.5283 6.26301 11.9396C5.42882 12.3007 4.79956 12.9605 4.45065 13.7413C4.83689 12.236 5.42349 10.7984 6.1853 9.45916C6.90369 10.0656 7.87805 10.3573 8.88593 10.176C9.8961 9.99396 10.7265 9.3746 11.2163 8.54803C10.4972 7.94011 9.52128 7.64605 8.51112 7.82736C7.52533 8.00486 6.714 8.59984 6.22034 9.39593C6.98825 8.05895 7.92833 6.82177 9.01696 5.71713C9.51138 6.52466 10.3319 7.12878 11.3283 7.30628C12.3392 7.48607 13.3144 7.18972 14.0327 6.57875C13.5414 5.7537 12.7095 5.13663 11.6993 4.95684C10.8011 4.79763 9.9319 5.01474 9.24551 5.49316C10.0355 4.71992 10.9108 4.02896 11.8372 3.40427C12.6249 3.63662 13.4941 3.60843 14.291 3.22753C15.2227 2.78263 15.8489 1.97358 16.0828 1.06093C15.2014 0.681545 14.1623 0.668595 13.2306 1.11426C12.3781 1.52106 11.7968 2.23869 11.5226 3.05612C6.62868 6.39286 3.47705 11.9122 3.47705 17.9557C3.47705 18.0943 3.48239 18.2315 3.48619 18.3693C3.40087 17.635 3.09843 16.912 2.57583 16.3178C1.87648 15.5224 0.932595 15.1278 0.0130858 15.1484C-0.0691901 16.1212 0.236297 17.1474 0.935642 17.9427C1.63499 18.7381 2.57887 19.1327 3.49838 19.1121C3.50372 19.0435 3.50372 18.975 3.50524 18.9057C3.58218 20.3112 3.82977 21.6825 4.22668 22.9989C3.97452 22.3993 3.5639 21.8569 3.00397 21.4547C2.15531 20.8445 1.15276 20.683 0.260675 20.9207C0.384089 21.8882 0.897552 22.8168 1.74621 23.427C2.59411 24.0365 3.59742 24.1987 4.4895 23.9611C4.47579 23.8506 4.45446 23.7417 4.43084 23.632C4.87041 24.9133 5.4532 26.1368 6.16397 27.2841C5.83258 26.8788 5.41206 26.5406 4.91002 26.3105C3.96918 25.8801 2.95521 25.922 2.12102 26.3326C2.41356 27.2589 3.08243 28.068 4.02327 28.4992C4.96487 28.9288 5.97809 28.8877 6.81227 28.4771C6.75361 28.2897 6.67515 28.1099 6.58678 27.9354C7.29374 28.9746 8.10812 29.9421 9.01544 30.8235C8.61549 30.5363 8.1485 30.3298 7.63427 30.2392C6.62334 30.0594 5.64822 30.3557 4.93059 30.9659C5.42196 31.7917 6.2531 32.4088 7.26403 32.5886C8.27496 32.7676 9.25008 32.4713 9.96771 31.8611C9.86867 31.6942 9.75211 31.5388 9.62641 31.391C11.9972 33.4959 14.9302 35.031 18.2121 35.728L18.2981 35.2725Z" fill="url(#paint3_linear_1745_26)"/>
<path d="M85.0765 5.34793C85.6509 4.58611 85.9297 3.55005 85.7613 2.47742C85.5914 1.40402 85.0102 0.521842 84.2324 0C83.6572 0.762575 83.3784 1.79788 83.5475 2.87051C83.7166 3.9439 84.2986 4.82608 85.0765 5.34793Z" fill="url(#paint4_linear_1745_26)"/>
<path d="M89.4727 6.77231C89.6441 5.69967 89.3668 4.66361 88.7932 3.89951C88.0154 4.41982 87.4318 5.30124 87.2604 6.37388C87.089 7.44651 87.3663 8.48258 87.9392 9.24592C88.7178 8.7256 89.3013 7.84494 89.4727 6.77231Z" fill="url(#paint5_linear_1745_26)"/>
<path d="M89.8468 13.9693C90.7137 13.6425 91.4633 12.9173 91.8511 11.9094C92.2381 10.9023 92.1802 9.82735 91.778 8.94974C90.911 9.27656 90.1614 10.0018 89.7736 11.0097C89.3866 12.0168 89.4445 13.0917 89.8468 13.9693Z" fill="url(#paint6_linear_1745_26)"/>
<path d="M90.7109 21.4519C90.151 21.8541 89.7411 22.3966 89.4882 22.9961C89.8858 21.6797 90.1334 20.3084 90.2096 18.9029C90.2119 18.9722 90.2111 19.0408 90.2172 19.1093C91.136 19.1299 92.0806 18.7353 92.78 17.9399C93.4793 17.1446 93.7848 16.1185 93.7025 15.1456C92.783 15.125 91.8391 15.5197 91.1398 16.315C90.6172 16.9092 90.3147 17.6322 90.2294 18.3666C90.2325 18.2287 90.2386 18.0915 90.2386 17.9529C90.2386 11.9094 87.0862 6.39009 82.1923 3.05334C81.918 2.23592 81.3368 1.51829 80.4843 1.11148C79.5526 0.665818 78.5135 0.678768 77.6321 1.05815C77.8659 1.9708 78.4922 2.77985 79.4239 3.22475C80.2207 3.60566 81.0899 3.63384 81.8784 3.40149C82.8048 4.02618 83.6801 4.71714 84.4693 5.49039C83.783 5.01197 82.9137 4.79485 82.0155 4.95407C81.0054 5.13386 80.1742 5.75092 79.6829 6.57597C80.4005 7.18694 81.3756 7.48329 82.3865 7.3035C83.383 7.126 84.2042 6.52188 84.6979 5.71436C85.7865 6.81899 86.7274 8.05617 87.4953 9.39316C87.0009 8.59706 86.1895 8.00209 85.2045 7.82458C84.1943 7.64327 83.2177 7.93733 82.4993 8.54526C82.9891 9.37183 83.8188 9.99118 84.8297 10.1733C85.8376 10.3546 86.8112 10.0628 87.5303 9.45639C88.2921 10.7957 88.8787 12.2332 89.2642 13.7385C88.9153 12.9577 88.2868 12.298 87.4519 11.9369C86.5034 11.5255 85.4909 11.5872 84.6636 12.0146C84.9729 12.9341 85.6555 13.7309 86.6047 14.1415C87.5379 14.5461 88.5321 14.4912 89.3518 14.0821C89.6451 15.3345 89.802 16.6319 89.802 17.9529C89.802 18.3033 89.7777 18.6492 89.7563 18.9958C89.7685 18.0283 89.3983 17.038 88.6563 16.3028C87.9074 15.56 86.9399 15.2355 86.0234 15.3231C86.0044 16.299 86.3754 17.3015 87.125 18.0436C87.8731 18.7863 88.8399 19.1109 89.7548 19.0232C89.6535 20.6116 89.3404 22.1573 88.8216 23.6223C88.9991 22.7119 88.8384 21.7094 88.2929 20.8531C87.7177 19.9519 86.8432 19.4072 85.9313 19.2762C85.7073 20.2231 85.8597 21.2881 86.4348 22.1893C87.0047 23.0822 87.8701 23.6246 88.7736 23.7617C88.2457 25.2153 87.528 26.5926 86.6428 27.858C86.9041 27.0451 86.8896 26.1119 86.5346 25.2381C86.1301 24.2386 85.3668 23.5286 84.4945 23.2186C84.1067 24.1038 84.0686 25.1802 84.4739 26.1797C84.8647 27.1427 85.5892 27.8344 86.4219 28.1604C85.6136 29.2658 84.6811 30.2844 83.6367 31.1879C84.0702 30.4657 84.2644 29.5576 84.1166 28.6221C83.9475 27.5495 83.3662 26.6665 82.5892 26.1447C82.014 26.9065 81.7344 27.9418 81.9036 29.0152C82.0666 30.0475 82.6128 30.9007 83.3464 31.4286C81.1151 33.2806 78.4152 34.6336 75.4175 35.2697L75.5028 35.7253C78.7847 35.0282 81.7177 33.4931 84.0884 31.3882C83.9627 31.536 83.8469 31.6914 83.7472 31.8583C84.4655 32.4685 85.4407 32.7648 86.4516 32.5858C87.4618 32.406 88.2929 31.789 88.785 30.9632C88.0674 30.3529 87.0915 30.0566 86.0814 30.2364C85.5671 30.327 85.1001 30.5335 84.7002 30.8207C85.6075 29.9393 86.4211 28.9718 87.1288 27.9327C87.0397 28.1071 86.9612 28.2869 86.9026 28.4743C87.7375 28.8849 88.7507 28.9261 89.6916 28.4964C90.6332 28.0652 91.3021 27.2562 91.5938 26.3298C90.7596 25.9192 89.7464 25.8773 88.8048 26.3077C88.3036 26.5378 87.8823 26.876 87.5509 27.2813C88.2617 26.134 88.8452 24.9105 89.2848 23.6292C89.2604 23.7389 89.2398 23.8478 89.2261 23.9583C90.1182 24.196 91.1207 24.0337 91.9694 23.4242C92.8181 22.814 93.3315 21.8854 93.4549 20.9179C92.5621 20.6802 91.5596 20.8417 90.7109 21.4519Z" fill="url(#paint7_linear_1745_26)"/>
<path d="M32.2844 8.85083H36.7453C38.8089 8.85083 40.0198 7.94337 40.0198 6.45166C40.0198 5.24586 39.3526 4.64917 38.3022 4.3011C39.0684 3.96547 39.6368 3.36878 39.6368 2.36188C39.6368 1.74033 39.4267 1.28039 39.0807 0.93232C38.5741 0.422652 37.808 0.149171 36.7205 0.149171H32.2844V8.85083ZM34.6199 6.9116V5.30801H36.4487C37.2519 5.30801 37.6226 5.61878 37.6226 6.09116C37.6226 6.62569 37.2025 6.9116 36.4734 6.9116H34.6199ZM34.6199 3.6174V2.0884H36.1768C36.8935 2.0884 37.2643 2.36188 37.2643 2.83425C37.2643 3.36878 36.8565 3.6174 36.1274 3.6174H34.6199Z" fill="url(#paint8_linear_1745_26)"/>
<path d="M41.1177 8.85083H48.1364V6.79972H43.4902V5.41989H47.6421V3.51796H43.4902V2.20028H48.0746V0.149171H41.1177V8.85083Z" fill="url(#paint9_linear_1745_26)"/>
<path d="M52.7578 9C54.8584 9 56.2548 7.94337 56.2548 6.16575C56.2548 4.51243 55.0191 3.86602 53.0296 3.43094C51.831 3.15746 51.5344 2.98343 51.5344 2.58564C51.5344 2.25 51.8186 2.00138 52.3994 2.00138C53.1655 2.00138 54.0305 2.29972 54.8214 2.85912L56.02 1.15608C55.0809 0.39779 53.9317 0 52.4612 0C50.3852 0 49.1125 1.16851 49.1125 2.78453C49.1125 4.59945 50.5335 5.12155 52.3747 5.5442C53.5486 5.81768 53.8328 6.01657 53.8328 6.37707C53.8328 6.77486 53.4868 6.99862 52.8443 6.99862C51.8434 6.99862 50.8919 6.63812 50.0392 5.95442L48.7047 7.55801C49.7674 8.51519 51.2255 9 52.7578 9Z" fill="url(#paint10_linear_1745_26)"/>
<path d="M59.2922 8.85083H61.6895V2.26243H64.2844V0.149171H56.6973V2.26243H59.2922V8.85083Z" fill="url(#paint11_linear_1745_26)"/>
<path d="M26.206 23C28.3191 23 29.5325 22.0797 30.4323 20.8297L28.4418 19.4011C27.8693 20.1016 27.283 20.5687 26.2878 20.5687C24.9518 20.5687 24.0111 19.4423 24.0111 18C24.0111 16.5714 24.9518 15.4313 26.2878 15.4313C27.2012 15.4313 27.842 15.8571 28.3873 16.544L30.3232 15.033C29.478 13.8516 28.2646 13 26.3151 13C23.4248 13 21.2844 15.1978 21.2844 18C21.2844 20.8984 23.4794 23 26.206 23Z" fill="url(#paint12_linear_1745_26)"/>
<path d="M30.8068 22.8077H33.5879L34.2696 21.0907H37.9506L38.6459 22.8077H41.4816L37.4189 13.1236H34.8695L30.8068 22.8077ZM35.0467 19.0165L36.1237 16.283L37.1871 19.0165H35.0467Z" fill="url(#paint13_linear_1745_26)"/>
<path d="M46.0235 22.9725C48.3412 22.9725 49.8817 21.8049 49.8817 19.8407C49.8817 18.0137 48.5184 17.2995 46.3235 16.8187C45.0011 16.5165 44.6739 16.3242 44.6739 15.8846C44.6739 15.5137 44.9874 15.239 45.6282 15.239C46.4734 15.239 47.4278 15.5687 48.3003 16.1868L49.6227 14.3049C48.5866 13.467 47.3187 13.0275 45.6964 13.0275C43.406 13.0275 42.0018 14.3187 42.0018 16.1044C42.0018 18.1099 43.5696 18.6868 45.6009 19.1538C46.8961 19.456 47.2096 19.6758 47.2096 20.0742C47.2096 20.5137 46.8279 20.761 46.119 20.761C45.0147 20.761 43.9649 20.3626 43.0242 19.6071L41.5519 21.3791C42.7243 22.4368 44.333 22.9725 46.0235 22.9725Z" fill="url(#paint14_linear_1745_26)"/>
<path d="M51.2225 22.8077H53.8809V13.1923H51.2225V22.8077Z" fill="url(#paint15_linear_1745_26)"/>
<path d="M55.628 22.8077H58.2456V17.533L62.3219 22.8077H64.6396V13.1923H62.022V18.2747L58.0956 13.1923H55.628V22.8077Z" fill="url(#paint16_linear_1745_26)"/>
<path d="M71.1311 23C74.0759 23 76.2844 20.761 76.2844 18C76.2844 15.2115 74.1031 13 71.1583 13C68.2136 13 66.005 15.239 66.005 18C66.005 20.7885 68.1863 23 71.1311 23ZM71.1583 20.5962C69.7132 20.5962 68.718 19.3874 68.718 18C68.718 16.5852 69.686 15.4038 71.1311 15.4038C72.5898 15.4038 73.5851 16.6126 73.5851 18C73.5851 19.4148 72.6171 20.5962 71.1583 20.5962Z" fill="url(#paint17_linear_1745_26)"/>
<path d="M33.2844 35.568H39.9324V33.672H36.4644L37.9044 32.664C39.1644 31.776 39.8484 31.068 39.8484 29.724C39.8484 28.116 38.5884 27.024 36.7524 27.024C35.1204 27.024 34.2324 27.66 33.3324 28.824L34.9044 30.132C35.5644 29.376 36.0084 29.052 36.5724 29.052C37.1364 29.052 37.5084 29.376 37.5084 29.904C37.5084 30.408 37.2204 30.816 36.4284 31.416L33.2844 33.816V35.568Z" fill="url(#paint18_linear_1745_26)"/>
<path d="M44.7447 35.736C47.1447 35.736 48.6447 33.744 48.6447 31.368C48.6447 28.968 47.1567 27 44.7687 27C42.3807 27 40.8687 28.992 40.8687 31.368C40.8687 33.768 42.3447 35.736 44.7447 35.736ZM44.7687 33.672C43.8327 33.672 43.2087 32.712 43.2087 31.368C43.2087 30 43.8207 29.064 44.7447 29.064C45.6687 29.064 46.3047 30.036 46.3047 31.368C46.3047 32.724 45.7047 33.672 44.7687 33.672Z" fill="url(#paint19_linear_1745_26)"/>
<path d="M49.4211 35.568H56.0691V33.672H52.6011L54.0411 32.664C55.3011 31.776 55.9851 31.068 55.9851 29.724C55.9851 28.116 54.7251 27.024 52.8891 27.024C51.2571 27.024 50.3691 27.66 49.4691 28.824L51.0411 30.132C51.7011 29.376 52.1451 29.052 52.7091 29.052C53.2731 29.052 53.6451 29.376 53.6451 29.904C53.6451 30.408 53.3571 30.816 52.5651 31.416L49.4211 33.816V35.568Z" fill="url(#paint20_linear_1745_26)"/>
<path d="M58.4694 35.568H60.7614V27.108H59.0694L56.6094 27.804L57.0534 29.604L58.4694 29.28V35.568Z" fill="url(#paint21_linear_1745_26)"/>
<path fill-rule="evenodd" clip-rule="evenodd" d="M16.0708 38.0606C13.0321 38.5488 11.3288 41.2519 12.2499 44.1241C13.0531 46.6285 16.1008 47.7286 18.7983 46.4877L19.132 46.3342L19.1578 45.9103C19.172 45.6771 19.1938 45.3133 19.2065 45.1018C19.2332 44.6553 19.2455 44.6653 18.955 44.8971C17.0351 46.4291 14.3863 45.6436 13.8298 43.3772C13.0844 40.3416 15.7834 38.281 18.6269 39.7145C18.812 39.8076 18.974 39.884 18.9871 39.884C19.0002 39.884 19.0054 39.5243 18.9989 39.0849L18.9871 38.2857L18.6824 38.2058C17.9069 38.0022 16.8128 37.9415 16.0708 38.0606ZM30.6263 38.1435C29.798 38.3662 29.657 39.4736 30.4009 39.9143C30.8607 40.1869 31.4795 40.0072 31.717 39.5324C32.0977 38.7714 31.4341 37.9264 30.6263 38.1435ZM62.1409 38.1426C61.0547 38.4378 61.2581 40.0285 62.3831 40.0357C63.5552 40.0434 63.6547 38.2838 62.4918 38.1111C62.4081 38.0987 62.2502 38.1128 62.1409 38.1426ZM69.5867 40.5582L68.4768 41.7514L68.8546 41.7641L69.2325 41.7767L69.2475 43.8511C69.2646 46.2291 69.2669 46.2436 69.6491 46.5993C69.9908 46.9173 71.0701 47.0517 71.6083 46.8432C71.6719 46.8187 72.518 45.5968 72.4908 45.5691C72.4853 45.5637 72.3733 45.5891 72.2418 45.6257C71.8902 45.7229 71.2115 45.726 71.0399 45.6309C70.7672 45.4803 70.7618 45.4402 70.7618 43.5133V41.7735H71.5453H72.3289V41.2681V40.7628H71.5453H70.7618V40.0598C70.7618 39.673 70.7473 39.3586 70.7293 39.3609C70.7112 39.3631 70.1972 39.9019 69.5867 40.5582ZM21.381 40.7415C21.1896 40.7733 20.9452 40.8263 20.8382 40.8595L20.6436 40.9198L20.4188 41.6212C20.1545 42.4464 20.1433 42.3848 20.5217 42.1933C21.6396 41.6268 22.6261 41.9054 22.6393 42.7914L22.6433 43.0528L22.2011 43.2445C20.1801 44.1205 19.7249 44.5214 19.729 45.4204C19.7325 46.1851 20.1581 46.679 20.9618 46.8511C21.4572 46.957 21.6644 46.9378 21.8629 46.7676C22.1146 46.5516 22.5816 46.2113 22.6263 46.2113C22.6476 46.2113 22.6651 46.3595 22.6651 46.5408V46.8703H23.5792C24.0818 46.8703 24.4932 46.862 24.4932 46.8521C24.4932 46.8419 24.4549 46.7435 24.408 46.6334C24.2053 46.1557 24.1765 45.8526 24.1474 43.8824C24.1207 42.0798 24.1162 42.0063 24.0211 41.7646C23.6871 40.9149 22.6821 40.5254 21.381 40.7415ZM27.0178 40.722C26.0892 40.8887 25.4498 41.6176 25.4513 42.5081C25.4526 43.2515 25.7252 43.699 26.5052 44.2383C27.3643 44.8325 27.6002 45.2577 27.3242 45.7148C26.9748 46.2933 26.0587 46.0204 25.5374 45.1825C25.3299 44.8489 25.335 44.8368 25.3012 45.739C25.2847 46.18 25.2612 46.5753 25.2493 46.6177C25.2224 46.712 25.3411 46.7625 25.7977 46.8515C27.7731 47.2364 28.9947 46.4809 28.9246 44.9171C28.8938 44.2264 28.6137 43.8014 27.8341 43.2624C27.1399 42.7823 26.967 42.5673 26.967 42.1833C26.967 41.5401 27.727 41.4112 28.4741 41.9277L28.7588 42.1243V41.4911V40.8578L28.4546 40.7878C28.0711 40.6998 27.3309 40.6659 27.0178 40.722ZM36.1583 40.7202C35.8006 40.7957 35.7197 40.8587 35.2329 41.4395L34.7511 42.0138L34.7777 41.3884L34.8042 40.7628H33.9092H33.0142L33.0433 40.8617C33.2259 41.4824 33.2409 41.7026 33.2414 43.7808C33.242 45.8815 33.2276 46.093 33.0486 46.6013C33.0114 46.7071 32.9808 46.8108 32.9808 46.8319C32.9808 46.853 33.4489 46.8703 34.0209 46.8703H35.0607L34.958 46.5346C34.792 45.9917 34.7655 45.6336 34.7655 43.9503V42.3548L35.0157 42.2351C35.7145 41.9007 36.4407 42.0266 36.7273 42.532L36.833 42.7181L36.8302 44.3C36.8272 46.0046 36.8373 45.9079 36.5704 46.7716L36.5398 46.8703H37.5896C38.167 46.8703 38.6392 46.863 38.6392 46.8539C38.6392 46.8449 38.6084 46.751 38.5707 46.6453C38.3869 46.1299 38.3701 45.9335 38.3384 43.9484C38.3044 41.8053 38.3009 41.7791 37.9851 41.3392C37.6286 40.8425 36.8416 40.5758 36.1583 40.7202ZM41.8384 40.7407C39.0455 41.3217 38.4486 45.7071 41.026 46.7084C42.9461 47.4545 44.9359 46.2869 45.2431 44.234C45.5738 42.0236 43.9046 40.3107 41.8384 40.7407ZM49.2221 40.7196C48.7508 40.8199 48.4526 41.0666 48.1344 41.6197L47.9322 41.971L47.9196 41.6378C47.9127 41.4544 47.9243 41.1925 47.9456 41.0561C47.9669 40.9196 47.9742 40.7978 47.9618 40.7854C47.8894 40.7122 46.1642 40.765 46.1868 40.8397C46.4055 41.562 46.4424 42.0868 46.418 44.1256C46.3961 45.9331 46.3799 46.1165 46.1935 46.6453C46.1564 46.751 46.1259 46.8449 46.1259 46.8539C46.1259 46.863 46.5959 46.8703 47.1705 46.8703C47.7451 46.8703 48.2152 46.8636 48.2152 46.8553C48.2152 46.847 48.1753 46.7233 48.1265 46.5806C47.9456 46.0502 47.9109 45.6242 47.9107 43.935L47.9105 42.3399L48.1934 42.2063C48.8636 41.8898 49.4364 42.0359 49.6818 42.5863C49.8771 43.0246 49.8054 45.8147 49.581 46.509C49.524 46.685 49.4773 46.8385 49.4773 46.8498C49.4773 46.8611 49.9496 46.8703 50.5268 46.8703C51.5082 46.8703 51.5741 46.8654 51.5467 46.7934C51.3194 46.1993 51.2621 45.6012 51.2621 43.8323V42.3079L51.4035 42.2217C51.8886 41.9264 52.5429 41.9654 52.8601 42.3086C53.0726 42.5384 53.1032 42.7273 53.1236 43.9263C53.1492 45.4296 53.0909 46.0259 52.8435 46.7934C52.8205 46.8652 52.8883 46.8703 53.8675 46.8703H54.916L54.8701 46.7495C54.6596 46.1976 54.6466 46.0545 54.6163 43.9923C54.5907 42.2444 54.5784 41.9899 54.5091 41.7986C54.0023 40.3982 52.2068 40.2644 51.4563 41.571C51.2404 41.9469 51.1749 42.017 51.1749 41.8723C51.1745 41.1729 50.0924 40.5341 49.2221 40.7196ZM57.9007 40.7218C56.4961 40.9588 55.6807 42.1281 55.6807 43.9045C55.6807 45.4881 56.2274 46.3831 57.4482 46.7974C58.1186 47.0247 59.4793 46.9597 59.8963 46.6801C59.978 46.6255 60.4311 45.1708 60.3818 45.1211C60.3713 45.1105 60.1905 45.1916 59.9801 45.3013C58.937 45.8443 57.9403 45.7075 57.5072 44.9616C57.3947 44.7678 57.2096 44.1184 57.2425 44.0323C57.2555 43.9976 57.7349 43.9729 58.8427 43.9503C59.7127 43.9326 60.4342 43.9082 60.4462 43.8966C60.5072 43.8361 60.4594 42.5282 60.3862 42.2602C60.0656 41.0853 59.1404 40.5126 57.9007 40.7218ZM66.2133 40.7056C64.4515 40.9415 63.8887 42.9788 65.295 44.0308C65.441 44.1401 65.706 44.3382 65.8839 44.4713C66.7503 45.119 66.6842 45.9927 65.7687 45.9912C65.3045 45.9904 64.9669 45.7535 64.5914 45.1652L64.4315 44.915L64.4035 45.1128C64.3882 45.2215 64.3621 45.63 64.3455 46.0206L64.3156 46.7305L64.6325 46.8032C66.5257 47.2379 67.7777 46.6975 67.9842 45.3563C68.1176 44.4907 67.8029 43.8802 66.9098 43.2717C66.2781 42.8415 66.0174 42.5228 66.0176 42.1816C66.0184 41.5618 66.7774 41.4089 67.4831 41.8868C67.641 41.9937 67.7773 42.0809 67.7861 42.0809C67.7949 42.0809 67.8022 41.8067 67.8022 41.4715V40.8621L67.6171 40.812C67.202 40.6992 66.6009 40.6536 66.2133 40.7056ZM74.9961 40.7403C73.6576 40.9854 72.8412 42.1842 72.8412 43.9045C72.8412 45.5097 73.4619 46.4641 74.7461 46.8332C75.3981 47.0208 76.8701 46.9124 77.1263 46.6583C77.1679 46.6168 77.5894 45.1128 77.5591 45.1128C77.5461 45.1128 77.358 45.2012 77.1412 45.3092C75.7473 46.0034 74.5074 45.4849 74.4486 44.1831L74.4398 43.9923L75.985 43.9573C76.835 43.9378 77.5569 43.913 77.5896 43.9018C77.6744 43.8728 77.6331 42.4511 77.5393 42.1644C77.1635 41.0163 76.258 40.5094 74.9961 40.7403ZM81.6141 40.7984C81.2343 40.9541 80.8637 41.3328 80.5264 41.91C80.4265 42.0806 80.3309 42.2332 80.3138 42.2495C80.2966 42.2655 80.2934 41.9377 80.3067 41.5207L80.3309 40.7628H79.4391C78.6099 40.7628 78.549 40.7682 78.5706 40.8397C78.9404 42.061 78.9153 45.8244 78.5309 46.7934C78.5023 46.8654 78.5677 46.8703 79.5497 46.8703C80.1267 46.8703 80.5989 46.8636 80.5989 46.8553C80.5989 46.847 80.5588 46.7233 80.5098 46.5806C80.3401 46.0866 80.2947 45.5727 80.2945 44.139L80.2942 42.7918L80.4357 42.6711C80.8799 42.2917 81.4771 42.2118 81.9994 42.4617L82.2901 42.6006L82.3136 42.4396C82.3265 42.3511 82.3674 42.0118 82.4044 41.6855C82.4414 41.3594 82.4811 41.0204 82.4925 40.9326C82.5106 40.7954 82.4998 40.7692 82.4158 40.7465C82.2294 40.696 81.7949 40.7241 81.6141 40.7984ZM29.8469 40.8061C29.8469 40.8299 29.8999 41.0227 29.9649 41.2346L30.0827 41.6197L30.0982 43.6272C30.1147 45.764 30.0898 46.1316 29.8949 46.6498L29.8118 46.8703H30.8702H31.9287L31.8443 46.6396C31.6584 46.1307 31.6315 45.7738 31.6318 43.8217C31.6322 41.8964 31.65 41.6432 31.8242 41.0896L31.9271 40.7628H30.887C30.2332 40.7628 29.8469 40.7788 29.8469 40.8061ZM61.4287 41.0987C61.7115 42.024 61.7141 45.6366 61.4325 46.5318L61.3259 46.8703H62.3659C62.9379 46.8703 63.4058 46.8607 63.4058 46.849C63.4058 46.8373 63.3521 46.6545 63.2863 46.4426L63.1668 46.0575V43.8385C63.1666 41.6779 63.1692 41.611 63.2628 41.29C63.3158 41.1088 63.3718 40.916 63.3875 40.8617L63.4161 40.7628H62.3712H61.326L61.4287 41.0987ZM58.6315 41.7388C58.9916 41.8476 59.2373 42.257 59.2972 42.8477L59.3264 43.1356H58.2827H57.2391L57.2804 42.8609C57.4191 41.9356 57.9164 41.5224 58.6315 41.7388ZM75.8763 41.7686C76.1854 41.9126 76.3969 42.2525 76.4446 42.6811C76.4574 42.7982 76.4765 42.9482 76.4868 43.0148L76.5052 43.1356H75.4616C74.271 43.1356 74.3773 43.1838 74.4809 42.6898C74.6523 41.8734 75.2519 41.4775 75.8763 41.7686ZM42.7489 41.8789C43.7517 42.4721 43.947 44.7635 43.0647 45.5846C41.9755 46.5981 40.6479 44.6971 41.1395 42.828C41.3864 41.8896 42.0778 41.4817 42.7489 41.8789ZM22.6651 44.9995V45.8089L22.5353 45.8375C21.6374 46.0368 21.049 45.2394 21.4019 44.302L21.4441 44.1901H22.0545H22.6651V44.9995Z" fill="url(#paint22_linear_1745_26)"/>
<defs>
<linearGradient id="paint0_linear_1745_26" x1="8.4019" y1="0.702934" x2="11.5323" y2="2.2191" gradientUnits="userSpaceOnUse">
<stop stop-color="#F8B430"/>
<stop offset="1" stop-color="#FFE452"/>
</linearGradient>
<linearGradient id="paint1_linear_1745_26" x1="4.64396" y1="4.60224" x2="7.77556" y2="6.12063" gradientUnits="userSpaceOnUse">
<stop stop-color="#F8B430"/>
<stop offset="1" stop-color="#FFE452"/>
</linearGradient>
<linearGradient id="paint2_linear_1745_26" x1="2.11782" y1="9.60951" x2="5.37031" y2="11.4984" gradientUnits="userSpaceOnUse">
<stop stop-color="#F8B430"/>
<stop offset="1" stop-color="#FFE452"/>
</linearGradient>
<linearGradient id="paint3_linear_1745_26" x1="3.65963" y1="5.37186" x2="26.4219" y2="18.729" gradientUnits="userSpaceOnUse">
<stop stop-color="#F8B430"/>
<stop offset="1" stop-color="#FFE452"/>
</linearGradient>
<linearGradient id="paint4_linear_1745_26" x1="83.9608" y1="0.702934" x2="87.0915" y2="2.21953" gradientUnits="userSpaceOnUse">
<stop stop-color="#F8B430"/>
<stop offset="1" stop-color="#FFE452"/>
</linearGradient>
<linearGradient id="paint5_linear_1745_26" x1="87.6728" y1="4.60224" x2="90.8043" y2="6.12055" gradientUnits="userSpaceOnUse">
<stop stop-color="#F8B430"/>
<stop offset="1" stop-color="#FFE452"/>
</linearGradient>
<linearGradient id="paint6_linear_1745_26" x1="90.0323" y1="9.60951" x2="93.2845" y2="11.4978" gradientUnits="userSpaceOnUse">
<stop stop-color="#F8B430"/>
<stop offset="1" stop-color="#FFE452"/>
</linearGradient>
<linearGradient id="paint7_linear_1745_26" x1="79.0771" y1="5.36909" x2="101.839" y2="18.7262" gradientUnits="userSpaceOnUse">
<stop stop-color="#F8B430"/>
<stop offset="1" stop-color="#FFE452"/>
</linearGradient>
<linearGradient id="paint8_linear_1745_26" x1="38.6844" y1="1.18297" x2="41.8544" y2="13.816" gradientUnits="userSpaceOnUse">
<stop stop-color="#F8B430"/>
<stop offset="1" stop-color="#FFE452"/>
</linearGradient>
<linearGradient id="paint9_linear_1745_26" x1="38.6844" y1="1.18297" x2="41.8544" y2="13.816" gradientUnits="userSpaceOnUse">
<stop stop-color="#F8B430"/>
<stop offset="1" stop-color="#FFE452"/>
</linearGradient>
<linearGradient id="paint10_linear_1745_26" x1="38.6844" y1="1.18297" x2="41.8544" y2="13.816" gradientUnits="userSpaceOnUse">
<stop stop-color="#F8B430"/>
<stop offset="1" stop-color="#FFE452"/>
</linearGradient>
<linearGradient id="paint11_linear_1745_26" x1="38.6844" y1="1.18297" x2="41.8544" y2="13.816" gradientUnits="userSpaceOnUse">
<stop stop-color="#F8B430"/>
<stop offset="1" stop-color="#FFE452"/>
</linearGradient>
<linearGradient id="paint12_linear_1745_26" x1="32.2844" y1="14.3144" x2="34.6427" y2="28.8523" gradientUnits="userSpaceOnUse">
<stop stop-color="#F8B430"/>
<stop offset="1" stop-color="#FFE452"/>
</linearGradient>
<linearGradient id="paint13_linear_1745_26" x1="32.2844" y1="14.3144" x2="34.6427" y2="28.8523" gradientUnits="userSpaceOnUse">
<stop stop-color="#F8B430"/>
<stop offset="1" stop-color="#FFE452"/>
</linearGradient>
<linearGradient id="paint14_linear_1745_26" x1="32.2844" y1="14.3144" x2="34.6427" y2="28.8523" gradientUnits="userSpaceOnUse">
<stop stop-color="#F8B430"/>
<stop offset="1" stop-color="#FFE452"/>
</linearGradient>
<linearGradient id="paint15_linear_1745_26" x1="32.2844" y1="14.3144" x2="34.6427" y2="28.8523" gradientUnits="userSpaceOnUse">
<stop stop-color="#F8B430"/>
<stop offset="1" stop-color="#FFE452"/>
</linearGradient>
<linearGradient id="paint16_linear_1745_26" x1="32.2844" y1="14.3144" x2="34.6427" y2="28.8523" gradientUnits="userSpaceOnUse">
<stop stop-color="#F8B430"/>
<stop offset="1" stop-color="#FFE452"/>
</linearGradient>
<linearGradient id="paint17_linear_1745_26" x1="32.2844" y1="14.3144" x2="34.6427" y2="28.8523" gradientUnits="userSpaceOnUse">
<stop stop-color="#F8B430"/>
<stop offset="1" stop-color="#FFE452"/>
</linearGradient>
<linearGradient id="paint18_linear_1745_26" x1="38.7798" y1="28.1483" x2="42.2019" y2="40.2121" gradientUnits="userSpaceOnUse">
<stop stop-color="#F8B430"/>
<stop offset="1" stop-color="#FFE452"/>
</linearGradient>
<linearGradient id="paint19_linear_1745_26" x1="38.7798" y1="28.1483" x2="42.2019" y2="40.2121" gradientUnits="userSpaceOnUse">
<stop stop-color="#F8B430"/>
<stop offset="1" stop-color="#FFE452"/>
</linearGradient>
<linearGradient id="paint20_linear_1745_26" x1="38.7798" y1="28.1483" x2="42.2019" y2="40.2121" gradientUnits="userSpaceOnUse">
<stop stop-color="#F8B430"/>
<stop offset="1" stop-color="#FFE452"/>
</linearGradient>
<linearGradient id="paint21_linear_1745_26" x1="38.7798" y1="28.1483" x2="42.2019" y2="40.2121" gradientUnits="userSpaceOnUse">
<stop stop-color="#F8B430"/>
<stop offset="1" stop-color="#FFE452"/>
</linearGradient>
<linearGradient id="paint22_linear_1745_26" x1="26.1" y1="39.183" x2="27.6099" y2="52.4394" gradientUnits="userSpaceOnUse">
<stop stop-color="#F8B430"/>
<stop offset="1" stop-color="#FFE452"/>
</linearGradient>
</defs>
</svg>
