<svg width="149" height="54" viewBox="0 0 149 54" fill="none" xmlns="http://www.w3.org/2000/svg">
<path fill-rule="evenodd" clip-rule="evenodd" d="M50.2716 8.27136C50.2731 8.27126 50.2695 8.27152 50.2744 8.27114C50.2794 8.27075 50.2768 8.27096 50.2779 8.27088C50.3623 8.26378 51.57 8.14996 52.0023 7.41886C52.3695 6.79663 54.1023 2.80493 54.7135 1.38974C54.8169 1.15011 54.8687 1.0303 55.0443 0.841205C55.2199 0.652106 55.2685 0.62671 55.3657 0.575916C55.7436 0.378392 56.3185 0.252009 56.8978 0.78662C57.6517 1.4826 59.6561 6.6624 59.8577 7.18682C59.8628 7.20004 59.8654 7.20665 59.8803 7.24042C59.8952 7.2742 59.8952 7.27405 59.8952 7.27411C59.9879 7.45856 60.3953 8.15739 61.283 8.24014C62.1429 8.3189 66.5667 8.79955 67.9645 8.9518C68.1776 8.97501 68.2842 8.98662 68.4447 9.0423C68.6051 9.09797 68.6587 9.13152 68.7658 9.19861C69.2233 9.48511 69.8785 10.066 69.4119 10.8601C69.1235 11.3515 65.0529 15.0231 64.0178 15.9529C63.8975 16.061 63.8373 16.115 63.7598 16.2122C63.6823 16.3094 63.6582 16.3525 63.6102 16.4387C63.4356 16.7523 63.2055 17.2799 63.3316 17.7136C63.5013 18.2998 64.5472 22.7659 64.7865 23.7898C64.8107 23.8933 64.8228 23.9451 64.8327 24.0287C64.8426 24.1122 64.8428 24.1465 64.8431 24.215C64.8451 24.5699 64.8012 25.2726 64.4516 25.6407C63.9715 26.1461 63.6828 26.1769 62.9469 25.9249C62.2892 25.6986 57.7687 22.8985 56.8176 22.3073C56.7403 22.2593 56.7017 22.2352 56.5955 22.19C56.4893 22.1448 56.4737 22.1408 56.4426 22.1329C56.2081 22.0733 55.8033 22.0225 55.426 22.2289C54.8541 22.543 49.4808 25.6927 49.4101 25.7341C49.4087 25.7349 49.4123 25.7328 49.4089 25.7348C49.4056 25.7367 49.4087 25.7349 49.4075 25.7356C49.3413 25.7735 47.624 26.7387 47.1086 25.1933C47.0862 25.1263 47.075 25.0927 47.056 24.9556C47.037 24.8184 47.0389 24.7761 47.0428 24.6913C47.116 23.1129 48.2491 19.5309 48.3747 19.1381C48.3802 19.1209 48.3829 19.1123 48.3878 19.0957C48.3927 19.0791 48.3939 19.0747 48.3962 19.0661C48.4698 18.7928 48.8921 17.073 48.0976 16.2603C47.3083 15.4533 43.559 12.0143 42.9122 11.4216C42.869 11.3821 42.8474 11.3623 42.8027 11.3134C42.7579 11.2645 42.75 11.2541 42.7341 11.2333C42.5046 10.9328 41.9312 10.0249 42.772 9.3482C42.8228 9.30735 42.8482 9.28692 42.99 9.21545C43.1319 9.14398 43.1821 9.13087 43.2824 9.10465C45.0495 8.64281 50.1697 8.27858 50.2716 8.27136Z" fill="#E31351"/>
<path d="M11.6936 17.2411C11.6936 15.5157 11.3503 14.1488 10.6652 13.1399C9.97886 12.1318 8.89579 11.6285 7.4131 11.6285C6.73951 11.6285 6.10412 11.7296 5.50981 11.9307C4.91345 12.1318 4.43701 12.3572 4.07723 12.6029V22.7182C4.36965 22.7854 4.74546 22.8485 5.2067 22.9038C5.66589 22.9603 6.22283 22.9874 6.87505 22.9874C8.37951 22.9874 9.5591 22.4778 10.4126 21.4586C11.2661 20.4399 11.6936 19.0341 11.6936 17.2411ZM15.871 17.3075C15.871 18.7199 15.6628 19.9909 15.2476 21.122C14.8324 22.2537 14.2368 23.2225 13.4622 24.029C12.6868 24.836 11.7483 25.4521 10.6479 25.8785C9.54679 26.3029 8.30066 26.5158 6.90791 26.5158C5.55992 26.5158 4.27478 26.4152 3.04919 26.2136C1.82524 26.0117 0.808708 25.7884 0 25.5418V0.673011L4.07723 0V9.10797C4.54872 8.86146 5.12743 8.63736 5.8121 8.43625C6.49882 8.23387 7.2562 8.13389 8.08708 8.13389C9.32253 8.13389 10.429 8.3523 11.4069 8.78854C12.3836 9.2256 13.1981 9.84658 13.8499 10.6544C14.5009 11.4601 15.0004 12.4297 15.3486 13.5598C15.697 14.6925 15.871 15.9418 15.871 17.3075Z" fill="white"/>
<path d="M23.4528 26.0788H19.3756V8.50257H23.4528V26.0788ZM23.891 3.36178C23.891 4.12286 23.6438 4.72746 23.1492 5.17641C22.6548 5.62454 22.0712 5.84818 21.3975 5.84818C20.701 5.84818 20.1054 5.62454 19.611 5.17641C19.1169 4.72746 18.8691 4.12286 18.8691 3.36178C18.8691 2.57775 19.1169 1.96126 19.611 1.51231C20.1054 1.06459 20.701 0.840515 21.3975 0.840515C22.0712 0.840515 22.6548 1.06459 23.1492 1.51231C23.6438 1.96126 23.891 2.57775 23.891 3.36178Z" fill="white"/>
<path d="M27.6987 3.86522L31.7764 3.19302V8.50257H38.0435V11.8972H31.7764V19.0557C31.7764 20.4661 32.0011 21.4742 32.4499 22.0796C32.8993 22.685 33.6628 22.9874 34.7414 22.9874C35.4831 22.9874 36.1403 22.9091 36.7128 22.7514C37.2854 22.5949 37.7396 22.4495 38.0781 22.3155L38.7513 25.5418C38.2797 25.7429 37.6612 25.9506 36.8977 26.1636C36.1337 26.3758 35.2347 26.4818 34.2021 26.4818C32.944 26.4818 31.8942 26.3135 31.0514 25.9777C30.2094 25.6417 29.5413 25.1555 29.0463 24.5165C28.5526 23.8779 28.2044 23.1049 28.0019 22.1972C27.7993 21.2902 27.6987 20.2539 27.6987 19.0894V3.86522Z" fill="white"/>
<path d="M80.2363 22.9201C81.7638 22.9201 82.876 22.6624 83.5726 22.1471C84.268 21.6318 84.6171 20.9042 84.6171 19.9625C84.6171 19.4025 84.5 18.9208 84.2627 18.5174C84.0269 18.1143 83.6914 17.7501 83.253 17.4248C82.8145 17.1009 82.2801 16.7985 81.6513 16.518C81.0224 16.2386 80.3041 15.9638 79.4949 15.6938C78.6863 15.4034 77.9055 15.0839 77.1534 14.7369C76.4001 14.39 75.7382 13.9578 75.1656 13.4421C74.5927 12.9276 74.1327 12.3115 73.7835 11.5938C73.4348 10.8782 73.2615 10.0151 73.2615 9.00713C73.2615 6.9016 73.9918 5.24834 75.4527 4.05019C76.9111 2.85163 78.8999 2.25153 81.416 2.25153C82.876 2.25153 84.1731 2.41456 85.3083 2.7398C86.4419 3.06464 87.3349 3.41732 87.9866 3.79868L86.6731 7.22602C85.9088 6.80083 85.0713 6.47559 84.1624 6.2507C83.253 6.02786 82.3145 5.9148 81.3485 5.9148C80.2027 5.9148 79.3105 6.15034 78.6699 6.62142C78.03 7.09125 77.7096 7.75239 77.7096 8.60363C77.7096 9.11894 77.816 9.56169 78.03 9.93116C78.2427 10.3006 78.5459 10.6312 78.9393 10.9216C79.3328 11.2141 79.7928 11.4828 80.3205 11.7294C80.8483 11.9752 81.427 12.2112 82.0571 12.434C83.1562 12.8387 84.1394 13.2475 85.0048 13.6617C85.8698 14.0762 86.6 14.5685 87.1952 15.1404C87.7907 15.7123 88.245 16.384 88.5592 17.1566C88.873 17.9296 89.0319 18.8656 89.0319 19.9625C89.0319 22.0688 88.2844 23.6995 86.7906 24.8522C85.296 26.007 83.1121 26.5832 80.2363 26.5832C79.2704 26.5832 78.3885 26.5215 77.5918 26.3985C76.7945 26.2753 76.0864 26.1241 75.4691 25.9451C74.8502 25.7657 74.3166 25.5805 73.8677 25.3905C73.4184 25.2 73.0595 25.0263 72.7904 24.8694L74.0365 21.4077C74.6435 21.7436 75.4626 22.0799 76.4971 22.4158C77.5297 22.7517 78.7758 22.9201 80.2363 22.9201Z" fill="white"/>
<path d="M91.6254 3.86522L95.7017 3.19302V8.50257H101.97V11.8972H95.7017V19.0557C95.7017 20.4661 95.9264 21.4742 96.3767 22.0796C96.8255 22.685 97.5899 22.9874 98.6676 22.9874C99.4086 22.9874 100.066 22.9091 100.639 22.7514C101.212 22.5949 101.666 22.4495 102.003 22.3155L102.677 25.5418C102.206 25.7429 101.588 25.9506 100.824 26.1636C100.06 26.3758 99.1621 26.4818 98.1287 26.4818C96.8707 26.4818 95.8205 26.3135 94.9789 25.9777C94.1349 25.6417 93.4666 25.1555 92.973 24.5165C92.4789 23.8779 92.1302 23.1049 91.9285 22.1972C91.7269 21.2902 91.6254 20.2539 91.6254 19.0894V3.86522Z" fill="white"/>
<path d="M111.372 23.2224C112.63 23.2224 113.584 23.1548 114.236 23.0213V18.5174C114.012 18.4503 113.686 18.3836 113.26 18.3163C112.832 18.2492 112.361 18.2152 111.844 18.2152C111.395 18.2152 110.941 18.2492 110.479 18.3163C110.018 18.3836 109.603 18.5056 109.233 18.6863C108.863 18.8652 108.564 19.1175 108.34 19.4416C108.115 19.7668 108.003 20.1757 108.003 20.6693C108.003 21.6319 108.305 22.2984 108.913 22.6678C109.519 23.0377 110.339 23.2224 111.372 23.2224ZM111.036 8.06628C112.383 8.06628 113.517 8.23378 114.439 8.5697C115.359 8.90596 116.095 9.37669 116.646 9.98211C117.197 10.5859 117.59 11.3208 117.825 12.1831C118.062 13.0453 118.179 13.9924 118.179 15.0222V25.6753C117.55 25.81 116.601 25.973 115.332 26.1636C114.063 26.3528 112.63 26.4494 111.036 26.4494C109.98 26.4494 109.014 26.3475 108.138 26.1464C107.261 25.9448 106.514 25.6199 105.897 25.1718C105.278 24.7241 104.796 24.142 104.448 23.4235C104.1 22.7071 103.925 21.8228 103.925 20.7696C103.925 19.7615 104.123 18.9099 104.515 18.2152C104.908 17.5205 105.442 16.9551 106.116 16.5181C106.79 16.081 107.57 15.7676 108.457 15.5764C109.345 15.3871 110.271 15.2917 111.238 15.2917C111.687 15.2917 112.158 15.3195 112.653 15.3761C113.147 15.4317 113.675 15.5263 114.236 15.6611V14.9893C114.236 14.5182 114.18 14.0706 114.068 13.6454C113.955 13.2194 113.759 12.8441 113.479 12.5189C113.197 12.1941 112.827 11.9426 112.367 11.7624C111.905 11.5838 111.327 11.4936 110.632 11.4936C109.687 11.4936 108.823 11.5612 108.036 11.6956C107.25 11.8295 106.609 11.9864 106.116 12.1654L105.611 8.87206C106.127 8.69382 106.88 8.51443 107.868 8.33503C108.856 8.15563 109.912 8.06628 111.036 8.06628Z" fill="white"/>
<path d="M132.466 12.1658C132.128 12.0548 131.661 11.9363 131.067 11.8135C130.471 11.6905 129.781 11.6287 128.995 11.6287C128.546 11.6287 128.068 11.6733 127.563 11.7626C127.058 11.8527 126.704 11.931 126.5 11.9982V26.079H122.423V9.34303C123.21 9.05182 124.193 8.77767 125.372 8.52002C126.551 8.26236 127.86 8.13382 129.298 8.13382C129.567 8.13382 129.882 8.15019 130.241 8.18421C130.601 8.21696 130.959 8.26236 131.319 8.31774C131.679 8.37429 132.027 8.44187 132.363 8.52002C132.701 8.59828 132.971 8.6712 133.172 8.73843L132.466 12.1658Z" fill="white"/>
<path d="M147.595 11.36C147.146 11.8298 146.555 12.491 145.826 13.3421C145.095 14.1941 144.314 15.1403 143.483 16.1821C142.653 17.2238 141.816 18.3108 140.973 19.4419C140.131 20.5737 139.372 21.6542 138.699 22.6853H147.798V26.079H133.779V23.5586C134.274 22.6623 134.892 21.6883 135.632 20.6346C136.374 19.5819 137.139 18.5239 137.924 17.4589C138.711 16.3951 139.491 15.3816 140.266 14.4174C141.04 13.454 141.733 12.6146 142.338 11.8974H134.218V8.50244H147.595V11.36Z" fill="white"/>
<path d="M11.6365 46.6906C11.6365 42.6799 9.23619 40.249 5.99087 40.249C2.7333 40.249 0.339111 42.6799 0.339111 46.6906C0.339111 50.6952 2.7333 53.1323 5.99087 53.1323C9.23619 53.1323 11.6365 50.7013 11.6365 46.6906ZM9.76279 46.6906C9.76279 49.7461 8.14625 51.4055 5.99087 51.4055C3.82936 51.4055 2.21895 49.7461 2.21895 46.6906C2.21895 43.6351 3.82936 41.9757 5.99087 41.9757C8.14625 41.9757 9.76279 43.6351 9.76279 46.6906Z" fill="white"/>
<path d="M21.2376 52.9608H23.1297V48.2153H25.7014C25.7443 48.2153 25.781 48.2153 25.8239 48.2153L28.3712 52.9608H30.5265L27.7466 47.8847C29.2835 47.3152 30.0489 46.0354 30.0489 44.3515C30.0489 42.0431 28.6161 40.4204 25.7075 40.4204H21.2376V52.9608ZM23.1297 46.5865V42.0431H25.5055C27.3731 42.0431 28.1446 42.9309 28.1446 44.3515C28.1446 45.766 27.3731 46.5865 25.53 46.5865H23.1297Z" fill="white"/>
<path d="M41.4854 40.4204H39.5934V52.9608H41.4854V40.4204Z" fill="white"/>
<path d="M59.9698 44.3822H61.9109C61.4884 41.939 59.4003 40.249 56.6939 40.249C53.4485 40.249 51.0788 42.6921 51.0788 46.6967C51.0788 50.6646 53.3812 53.1323 56.7796 53.1323C59.8228 53.1323 61.9966 51.1361 61.9966 47.9704V46.5437H57.0674V48.1051H60.1658C60.1229 50.1258 58.788 51.4055 56.7796 51.4055C54.5691 51.4055 52.9587 49.7339 52.9587 46.6845C52.9587 43.6474 54.5813 41.9757 56.7061 41.9757C58.3716 41.9757 59.4983 42.8942 59.9698 44.3822Z" fill="white"/>
<path d="M73.5326 40.4204H71.6405V52.9608H73.5326V40.4204Z" fill="white"/>
<path d="M93.6519 40.4204H91.7782V49.6298H91.6618L85.2814 40.4204H83.5302V52.9608H85.4223V43.7637H85.5386L91.9129 52.9608H93.6519V40.4204Z" fill="white"/>
<path d="M104.713 52.9608L105.865 49.642H110.763L111.908 52.9608H113.917L109.404 40.4204H107.218L102.705 52.9608H104.713ZM106.416 48.05L108.265 42.6983H108.363L110.212 48.05H106.416Z" fill="white"/>
<path d="M122.97 52.9608H130.544V51.332H124.862V40.4204H122.97V52.9608Z" fill="white"/>
<path d="M146.784 43.7147H148.609C148.554 41.7063 146.778 40.249 144.231 40.249C141.714 40.249 139.785 41.6879 139.785 43.8494C139.785 45.5946 141.035 46.6171 143.049 47.1621L144.531 47.5662C145.872 47.9214 146.907 48.3623 146.907 49.4767C146.907 50.7013 145.737 51.5096 144.127 51.5096C142.669 51.5096 141.457 50.8605 141.347 49.4951H139.449C139.571 51.7668 141.328 53.169 144.139 53.169C147.084 53.169 148.78 51.6198 148.78 49.4951C148.78 47.2356 146.766 46.36 145.174 45.9681L143.949 45.6497C142.97 45.3986 141.665 44.9394 141.671 43.7392C141.671 42.6738 142.645 41.8839 144.188 41.8839C145.627 41.8839 146.65 42.5574 146.784 43.7147Z" fill="white"/>
</svg>
