<svg width="32" height="32" viewBox="0 0 32 32" fill="none" xmlns="http://www.w3.org/2000/svg">
<circle cx="16" cy="16" r="16" fill="#111111"/>
<path d="M9.74373 10.1365C10.634 10.1365 11.3943 10.2209 12.0181 10.3834C12.642 10.5459 13.1553 10.7798 13.5517 11.0852C13.9481 11.3906 14.234 11.7545 14.416 12.1834C14.5979 12.6123 14.6889 13.0932 14.6889 13.626C14.6889 13.9184 14.6499 14.1914 14.5654 14.4643C14.481 14.7307 14.351 14.9842 14.1755 15.2181C14.0001 15.452 13.7726 15.6665 13.4932 15.8614C13.2138 16.0564 12.8824 16.2253 12.4925 16.3683C13.3438 16.5762 13.9676 16.9076 14.377 17.369C14.7864 17.8304 14.9878 18.4282 14.9878 19.156C14.9878 19.7019 14.8838 20.2153 14.6694 20.6896C14.455 21.164 14.143 21.5734 13.7337 21.9243C13.3243 22.2752 12.8174 22.5481 12.2131 22.7496C11.6087 22.9445 10.9264 23.0485 10.1531 23.0485H5V10.1365H9.74373ZM7.9892 12.3784V15.5625H9.54878C9.88019 15.5625 10.1791 15.5365 10.4455 15.491C10.712 15.4455 10.9394 15.3611 11.1214 15.2441C11.3098 15.1271 11.4463 14.9647 11.5437 14.7567C11.6412 14.5488 11.6867 14.2888 11.6867 13.9769C11.6867 13.6715 11.6477 13.4181 11.5697 13.2101C11.4918 13.0087 11.3748 12.8397 11.2188 12.7163C11.0564 12.5928 10.8549 12.5018 10.6145 12.4498C10.3676 12.3979 10.0816 12.3719 9.74373 12.3719H7.9892V12.3784ZM10.0946 20.7806C10.491 20.7806 10.8159 20.7286 11.0629 20.6312C11.3163 20.5337 11.5113 20.4037 11.6542 20.2413C11.7972 20.0788 11.8947 19.9033 11.9466 19.7019C11.9986 19.5005 12.0246 19.299 12.0246 19.0911C12.0246 18.8571 11.9921 18.6427 11.9336 18.4542C11.8687 18.2658 11.7647 18.1033 11.6152 17.9734C11.4658 17.8434 11.2643 17.7459 11.0174 17.6744C10.7705 17.603 10.4585 17.5705 10.0816 17.5705H7.9892V20.7806H10.0946ZM22.7078 16.3553H27.2955V21.8008C26.6327 22.2817 25.9309 22.6391 25.1836 22.8536C24.4363 23.0745 23.6565 23.1785 22.8442 23.1785C21.785 23.1785 20.8168 23.0095 19.946 22.6781C19.0752 22.3467 18.3279 21.8853 17.7106 21.3005C17.0933 20.7156 16.6124 20.0203 16.2745 19.2145C15.9366 18.4087 15.7676 17.5315 15.7676 16.5892C15.7676 15.6275 15.9301 14.7437 16.2485 13.9379C16.5669 13.1322 17.0218 12.4368 17.6131 11.852C18.2045 11.2672 18.9258 10.8123 19.764 10.4874C20.6023 10.1625 21.5446 10 22.5843 10C23.1236 10 23.624 10.0455 24.0984 10.13C24.5728 10.2209 25.0081 10.3379 25.4045 10.4939C25.8009 10.6498 26.1648 10.8318 26.4962 11.0397C26.8276 11.2542 27.1201 11.4816 27.38 11.7285L26.5157 13.0542C26.3793 13.2621 26.2038 13.3856 25.9894 13.4376C25.7749 13.4831 25.541 13.4311 25.2941 13.2751C25.0601 13.1322 24.8327 13.0087 24.6247 12.9047C24.4168 12.8007 24.2023 12.7163 23.9814 12.6513C23.7605 12.5863 23.533 12.5408 23.2926 12.5083C23.0522 12.4758 22.7792 12.4628 22.4803 12.4628C21.9215 12.4628 21.4146 12.5603 20.9662 12.7618C20.5178 12.9567 20.1344 13.2361 19.8225 13.6C19.5041 13.9574 19.2637 14.3928 19.0947 14.8997C18.9258 15.4066 18.8413 15.9654 18.8413 16.5827C18.8413 17.2651 18.9388 17.8759 19.1272 18.4087C19.3157 18.9416 19.5821 19.39 19.9265 19.7539C20.2709 20.1178 20.6868 20.3972 21.1677 20.5922C21.6485 20.7806 22.1814 20.8781 22.7662 20.8781C23.1236 20.8781 23.4551 20.8456 23.7475 20.7741C24.0399 20.7026 24.3258 20.6117 24.5987 20.4882V18.5322H23.3251C23.1366 18.5322 22.9872 18.4802 22.8832 18.3828C22.7792 18.2853 22.7207 18.1553 22.7207 17.9994V16.3553H22.7078Z" fill="#EC1C24"/>
</svg>
