<svg width="188" height="24" viewBox="0 0 188 24" fill="none" xmlns="http://www.w3.org/2000/svg">
<path fill-rule="evenodd" clip-rule="evenodd" d="M10.8554 0.16162C2.75238 1.46353 -1.78987 8.67176 0.666492 16.3309C2.80815 23.0093 10.9356 25.9429 18.1289 22.6338L19.0187 22.2246L19.0874 21.0942C19.1253 20.4724 19.1835 19.5022 19.2174 18.9382C19.2886 17.7474 19.3215 17.774 18.5467 18.3923C13.4268 22.4775 6.36347 20.3829 4.8796 14.3393C2.8918 6.24439 10.0891 0.749237 17.6718 4.57201C18.1652 4.82033 18.5975 5.02391 18.6323 5.02391C18.6672 5.02391 18.6811 4.06482 18.6637 2.89311L18.6323 0.761804L17.8197 0.548673C15.7517 0.00579379 12.8342 -0.156065 10.8554 0.16162ZM49.6702 0.382794C47.4613 0.976442 47.0853 3.92961 49.0691 5.10484C50.2951 5.8317 51.9453 5.35265 52.5786 4.08644C53.5939 2.05717 51.8243 -0.196278 49.6702 0.382794ZM133.709 0.38028C130.813 1.16746 131.355 5.40946 134.355 5.42856C137.481 5.44917 137.746 0.756777 134.645 0.296335C134.422 0.263159 134 0.300859 133.709 0.38028ZM153.565 6.82195L150.605 10.0038L151.612 10.0375L152.62 10.0712L152.66 15.603C152.706 21.9442 152.712 21.9829 153.731 22.9314C154.642 23.7794 157.52 24.1378 158.955 23.5818C159.125 23.5165 161.381 20.2582 161.309 20.1843C161.294 20.1697 160.995 20.2376 160.645 20.3351C159.707 20.5945 157.897 20.6025 157.44 20.3492C156.713 19.9476 156.698 19.8405 156.698 14.7022V10.0626H158.788H160.877V8.71499V7.36734H158.788H156.698V5.4929C156.698 4.46143 156.659 3.62298 156.612 3.62901C156.563 3.63504 155.192 5.07166 153.565 6.82195ZM25.0159 7.31054C24.5056 7.39549 23.8537 7.53674 23.5684 7.62521L23.0496 7.78606L22.45 9.65648C21.7455 11.8572 21.7156 11.6928 22.7244 11.1821C25.7056 9.67156 28.3362 10.4145 28.3716 12.777L28.3821 13.4742L27.2029 13.9854C21.8137 16.3213 20.5997 17.3905 20.6106 19.7877C20.6201 21.827 21.7549 23.144 23.8981 23.603C25.2191 23.8855 25.7718 23.8342 26.3011 23.3803C26.9724 22.8042 28.2177 21.8969 28.3367 21.8969C28.3935 21.8969 28.4403 22.292 28.4403 22.7756V23.6542H30.8777C32.2182 23.6542 33.3152 23.6321 33.3152 23.6055C33.3152 23.5783 33.2131 23.3159 33.0881 23.0224C32.5474 21.7486 32.4707 20.9403 32.393 15.6865C32.3218 10.8795 32.3098 10.6834 32.0564 10.039C31.1656 7.77299 28.4856 6.73448 25.0159 7.31054ZM40.0474 7.25877C37.5711 7.70312 35.8661 9.64693 35.8701 12.0215C35.8736 14.004 36.6006 15.1974 38.6805 16.6355C40.9716 18.2199 41.6005 19.3539 40.8645 20.5729C39.9329 22.1156 37.4899 21.3877 36.0997 19.1534C35.5465 18.2636 35.5599 18.2315 35.4698 20.6372C35.426 21.8135 35.3632 22.8676 35.3314 22.9807C35.2597 23.232 35.5763 23.3667 36.7938 23.604C42.0616 24.6304 45.3191 22.6157 45.1324 18.4456C45.0502 16.6038 44.3033 15.4703 42.2244 14.0332C40.373 12.7529 39.9119 12.1794 39.9119 11.1554C39.9119 9.44034 41.9386 9.09651 43.9308 10.4738L44.6902 10.9981V9.30964V7.62068L43.8791 7.4342C42.8563 7.19945 40.8824 7.10897 40.0474 7.25877ZM64.4222 7.25374C63.4682 7.45531 63.2526 7.6232 61.9544 9.17191L60.6697 10.7035L60.7404 9.03569L60.8111 7.36734H58.4245H56.0379L56.1155 7.63124C56.6025 9.28652 56.6424 9.87364 56.6439 15.4155C56.6453 21.0172 56.607 21.5812 56.1295 22.9369C56.0304 23.2189 55.9487 23.4954 55.9487 23.5517C55.9487 23.608 57.1971 23.6542 58.7223 23.6542H61.4953L61.2215 22.759C60.7788 21.3113 60.7081 20.3562 60.7081 15.8674V11.6129L61.3753 11.2937C63.2386 10.4019 65.1751 10.7377 65.9395 12.0854L66.2213 12.5815L66.2138 16.7999C66.2059 21.3455 66.2328 21.0876 65.5212 23.3908L65.4395 23.6542H68.239C69.7786 23.6542 71.0379 23.6346 71.0379 23.6105C71.0379 23.5864 70.9558 23.336 70.8552 23.054C70.3652 21.6798 70.3204 21.156 70.2357 15.8624C70.1451 10.1476 70.1356 10.0777 69.2936 8.90449C68.343 7.57997 66.2442 6.8687 64.4222 7.25374ZM79.5692 7.30853C72.1214 8.85775 70.5295 20.5523 77.4026 23.2224C82.523 25.212 87.8291 22.0985 88.6482 16.6239C89.5301 10.7297 85.0789 6.16195 79.5692 7.30853ZM99.2589 7.25223C98.0021 7.51965 97.2069 8.17764 96.3584 9.65246L95.8191 10.5894L95.7857 9.70072C95.7673 9.21162 95.7982 8.51342 95.8549 8.14949C95.9117 7.78556 95.9311 7.46084 95.8983 7.42766C95.7051 7.23263 91.1046 7.37337 91.1648 7.57243C91.7479 9.49865 91.8465 10.8981 91.7813 16.3349C91.723 21.155 91.6797 21.6441 91.1827 23.054C91.0836 23.336 91.0025 23.5864 91.0025 23.6105C91.0025 23.6346 92.2558 23.6542 93.788 23.6542C95.3202 23.6542 96.574 23.6361 96.574 23.614C96.574 23.5919 96.4674 23.2621 96.3375 22.8816C95.8549 21.4671 95.7623 20.3311 95.7618 15.8267L95.7613 11.5731L96.5157 11.2168C98.3028 10.3728 99.8305 10.7623 100.485 12.2301C101.006 13.3988 100.814 20.8393 100.216 22.6906C100.064 23.1601 99.9396 23.5693 99.9396 23.5994C99.9396 23.6296 101.199 23.6542 102.738 23.6542C105.355 23.6542 105.531 23.6412 105.458 23.4491C104.852 21.8647 104.699 20.2698 104.699 15.5528V11.4877L105.076 11.258C106.37 10.4703 108.114 10.5744 108.96 11.4897C109.527 12.1025 109.609 12.6061 109.663 15.8036C109.731 19.8124 109.576 21.4023 108.916 23.4491C108.855 23.6407 109.036 23.6542 111.647 23.6542H114.443L114.32 23.332C113.759 21.8602 113.724 21.4787 113.643 15.9795C113.575 11.3183 113.542 10.6397 113.358 10.1295C112.006 6.39518 107.218 6.03829 105.217 9.52277C104.641 10.5251 104.466 10.7121 104.466 10.326C104.465 8.46114 101.58 6.75761 99.2589 7.25223ZM122.402 7.25826C118.656 7.89011 116.482 11.0082 116.482 15.7453C116.482 19.9682 117.94 22.3548 121.195 23.4597C122.983 24.0659 126.611 23.8925 127.723 23.147C127.941 23.0013 129.149 19.1222 129.018 18.9895C128.99 18.9613 128.508 19.1775 127.947 19.47C125.165 20.9182 122.507 20.5533 121.353 18.5642C121.052 18.0475 120.559 16.3158 120.647 16.0861C120.681 15.9936 121.96 15.9277 124.914 15.8674C127.234 15.8202 129.158 15.7553 129.19 15.7242C129.353 15.5628 129.225 12.0753 129.03 11.3605C128.175 8.2274 125.708 6.7003 122.402 7.25826ZM144.569 7.21503C139.871 7.84387 138.37 13.2767 142.12 16.0821C142.509 16.3736 143.216 16.9019 143.69 17.2568C146.001 18.984 145.825 21.3138 143.383 21.3098C142.145 21.3078 141.245 20.6759 140.244 19.1071L139.817 18.4401L139.743 18.9674C139.702 19.2574 139.632 20.3467 139.588 21.3882L139.508 23.2812L140.353 23.4753C145.402 24.6344 148.741 23.1933 149.291 19.6168C149.647 17.3086 148.808 15.6804 146.426 14.0578C144.742 12.9107 144.046 12.0607 144.047 11.1509C144.049 9.49814 146.073 9.09048 147.955 10.3647C148.376 10.6498 148.74 10.8825 148.763 10.8825C148.786 10.8825 148.806 10.1511 148.806 9.25737V7.63225L148.312 7.49854C147.205 7.19794 145.603 7.0763 144.569 7.21503ZM167.99 7.30752C164.42 7.96099 162.243 11.1579 162.243 15.7453C162.243 20.026 163.898 22.571 167.323 23.5552C169.062 24.0554 172.987 23.7663 173.67 23.0887C173.781 22.9781 174.905 18.9674 174.824 18.9674C174.79 18.9674 174.288 19.2031 173.71 19.4911C169.993 21.3425 166.686 19.9596 166.53 16.4882L166.506 15.9795L170.627 15.886C172.893 15.8343 174.818 15.7679 174.906 15.7382C175.132 15.6608 175.022 11.8697 174.772 11.1052C173.769 8.04343 171.355 6.69176 167.99 7.30752ZM185.638 7.46234C184.625 7.87755 183.636 8.8874 182.737 10.4266C182.471 10.8815 182.216 11.2886 182.17 11.3319C182.124 11.3746 182.116 10.5005 182.151 9.38856L182.216 7.36734H179.838C177.626 7.36734 177.464 7.38192 177.522 7.57243C178.508 10.8292 178.441 20.8649 177.416 23.4491C177.339 23.6412 177.514 23.6542 180.132 23.6542C181.671 23.6542 182.93 23.6361 182.93 23.614C182.93 23.5919 182.823 23.2621 182.693 22.8816C182.24 21.5641 182.119 20.1939 182.119 16.3706L182.118 12.778L182.495 12.4563C183.68 11.4445 185.272 11.2313 186.665 11.8979L187.44 12.2683L187.503 11.8391C187.537 11.6028 187.646 10.698 187.745 9.82789C187.844 8.95828 187.95 8.05449 187.98 7.82024C188.028 7.4543 187.999 7.38443 187.775 7.32411C187.278 7.1894 186.12 7.26429 185.638 7.46234ZM47.5917 7.48295C47.5917 7.54629 47.7332 8.06052 47.9064 8.62551L48.2206 9.65246L48.262 15.0059C48.3058 20.7041 48.2396 21.6843 47.7197 23.0661L47.4981 23.6542H50.3205H53.1433L52.9182 23.039C52.4223 21.6818 52.3506 20.7302 52.3516 15.5246C52.3526 10.3904 52.3999 9.71529 52.8645 8.23896L53.1388 7.36734H50.3653C48.622 7.36734 47.5917 7.41007 47.5917 7.48295ZM131.81 8.26309C132.564 10.7307 132.571 20.3643 131.82 22.7514L131.536 23.6542H134.309C135.834 23.6542 137.082 23.6286 137.082 23.5974C137.082 23.5663 136.939 23.0787 136.764 22.5137L136.445 21.4867V15.5693C136.444 9.80779 136.451 9.62934 136.701 8.7733C136.842 8.29024 136.992 7.77601 137.033 7.63124L137.11 7.36734H134.323H131.536L131.81 8.26309ZM124.351 9.97015C125.311 10.2602 125.966 11.352 126.126 12.9273L126.204 13.6949H123.421H120.638L120.748 12.9625C121.118 10.4949 122.444 9.39309 124.351 9.97015ZM170.337 10.0496C171.161 10.4336 171.725 11.3399 171.852 12.483C171.887 12.7951 171.937 13.1953 171.965 13.3727L172.014 13.6949H169.231C166.056 13.6949 166.339 13.8236 166.616 12.5061C167.073 10.3291 168.672 9.27345 170.337 10.0496ZM81.9972 10.3436C84.6711 11.9255 85.192 18.0359 82.8392 20.2255C79.9347 22.9284 76.3943 17.859 77.7054 12.8746C78.3637 10.3723 80.2076 9.28451 81.9972 10.3436ZM28.4403 18.6653V20.8237L28.0942 20.9001C25.6996 21.4314 24.1306 19.3052 25.0717 16.8054L25.1843 16.5068H26.812H28.4403V18.6653Z" fill="white"/>
</svg>
