<svg fill="none" height="61" viewBox="0 0 96 61" width="96" xmlns="http://www.w3.org/2000/svg" xmlns:xlink="http://www.w3.org/1999/xlink"><linearGradient id="a"><stop offset="0" stop-color="#f8b430"/><stop offset="1" stop-color="#ffe452"/></linearGradient><linearGradient id="b" gradientUnits="userSpaceOnUse" x1="2.75695" x2="10.1092" xlink:href="#a" y1="38.6126" y2="47.4964"/><linearGradient id="c" gradientUnits="userSpaceOnUse" x1="13.0991" x2="20.8296" xlink:href="#a" y1="38.4622" y2="46.6497"/><linearGradient id="d" gradientUnits="userSpaceOnUse" x1="23.6433" x2="31.3738" xlink:href="#a" y1="38.4622" y2="46.6497"/><linearGradient id="e" gradientUnits="userSpaceOnUse" x1="34.3276" x2="41.8043" xlink:href="#a" y1="38.6126" y2="45.7619"/><linearGradient id="f" gradientUnits="userSpaceOnUse" x1="43.8501" x2="51.1925" xlink:href="#a" y1="38.6126" y2="44.6468"/><linearGradient id="g" gradientUnits="userSpaceOnUse" x1="53.2891" x2="60.7526" xlink:href="#a" y1="38.6126" y2="46.6539"/><linearGradient id="h" gradientUnits="userSpaceOnUse" x1="62.8126" x2="66.8058" xlink:href="#a" y1="38.6126" y2="39.7669"/><linearGradient id="i" gradientUnits="userSpaceOnUse" x1="67.8396" x2="75.2951" xlink:href="#a" y1="38.6126" y2="45.4411"/><linearGradient id="j" gradientUnits="userSpaceOnUse" x1="77.0432" x2="84.3856" xlink:href="#a" y1="38.6126" y2="44.6468"/><linearGradient id="k" gradientUnits="userSpaceOnUse" x1="86.4825" x2="93.9461" xlink:href="#a" y1="38.6126" y2="46.6531"/><linearGradient id="l" gradientUnits="userSpaceOnUse" x1="21.6914" x2="29.4219" xlink:href="#a" y1="51.9351" y2="60.1218"/><linearGradient id="m" gradientUnits="userSpaceOnUse" x1="31.6551" x2="39.0082" xlink:href="#a" y1="52.0851" y2="60.9692"/><linearGradient id="n" gradientUnits="userSpaceOnUse" x1="41.7623" x2="49.4765" xlink:href="#a" y1="51.9332" y2="59.1348"/><linearGradient id="o" gradientUnits="userSpaceOnUse" x1="50.3164" x2="54.311" xlink:href="#a" y1="52.0851" y2="53.2402"/><linearGradient id="p" gradientUnits="userSpaceOnUse" x1="56.35" x2="63.8288" xlink:href="#a" y1="52.0851" y2="59.877"/><linearGradient id="q" gradientUnits="userSpaceOnUse" x1="67.1729" x2="74.8334" xlink:href="#a" y1="51.9351" y2="60.8074"/><linearGradient id="r" gradientUnits="userSpaceOnUse" x1="40.2619" x2="48.2866" xlink:href="#a" y1="1.78299" y2="18.0683"/><linearGradient id="s" gradientUnits="userSpaceOnUse" x1="13.6851" x2="15.7699" xlink:href="#a" y1="10.33" y2="12.7861"/><linearGradient id="t" gradientUnits="userSpaceOnUse" x1="19.2164" x2="22.8899" xlink:href="#a" y1="8.85643" y2="13.1861"/><linearGradient id="u" gradientUnits="userSpaceOnUse" x1="26.9858" x2="31.8831" xlink:href="#a" y1="7.90308" y2="13.6751"/><linearGradient id="v" gradientUnits="userSpaceOnUse" x1="79.6823" x2="81.7672" xlink:href="#a" y1="10.33" y2="12.7861"/><linearGradient id="w" gradientUnits="userSpaceOnUse" x1="72.7167" x2="76.3902" xlink:href="#a" y1="8.85643" y2="13.1861"/><linearGradient id="x" gradientUnits="userSpaceOnUse" x1="64.0844" x2="68.9817" xlink:href="#a" y1="7.90308" y2="13.6751"/><linearGradient id="y" gradientUnits="userSpaceOnUse" x1="39.8542" x2="43.9041" xlink:href="#a" y1="22.9725" y2="27.1135"/><linearGradient id="z" gradientUnits="userSpaceOnUse" x1="86.3417" x2="87.9959" xlink:href="#a" y1="22.5709" y2="24.976"/><linearGradient id="A" gradientUnits="userSpaceOnUse" x1="14.8002" x2="17.4224" xlink:href="#a" y1="22.9225" y2="25.1424"/><linearGradient id="B" gradientUnits="userSpaceOnUse" x1="19.1824" x2="22.2996" xlink:href="#a" y1="19.5518" y2="41.5734"/><path d="m6.00932 39.8513-1.27817 3.7757h2.54188zm2.46645 7.4748-.49701-1.4435h-3.95541l-.49598 1.4435h-2.933498l3.775628-10.0322h3.26311l3.77669 10.0322z" fill="url(#b)"/><path d="m11.1375 42.2871c0-3.0978 2.3466-5.1892 5.4309-5.1892 2.4221 0 3.7302 1.3691 4.377 2.6772l-2.2257 1.0685c-.3306-.7977-1.1893-1.4601-2.1513-1.4601-1.6398 0-2.7981 1.2493-2.7981 2.9036 0 1.6398 1.1583 2.9035 2.7981 2.9035.962 0 1.8207-.6613 2.1513-1.46l2.2257 1.0539c-.6468 1.2782-1.9549 2.6928-4.377 2.6928-3.0843 0-5.4309-2.1069-5.4309-5.1902z" fill="url(#c)"/><path d="m21.6817 42.2871c0-3.0978 2.3466-5.1892 5.4309-5.1892 2.422 0 3.7291 1.3691 4.377 2.6772l-2.2267 1.0685c-.3307-.7977-1.1883-1.4601-2.1503-1.4601-1.6398 0-2.7981 1.2493-2.7981 2.9036 0 1.6398 1.1583 2.9035 2.7981 2.9035.962 0 1.8196-.6613 2.1503-1.46l2.2267 1.0539c-.6479 1.2782-1.955 2.6928-4.377 2.6928-3.0843 0-5.4309-2.1069-5.4309-5.1902z" fill="url(#d)"/><path d="m38.4963 40.618c0-.6923-.5559-1.0684-1.2482-1.0684h-2.0459v2.1523h2.0459c.6923 0 1.2482-.3771 1.2482-1.0839zm-.2852 6.7081-1.6843-3.3695h-1.3246v3.3695h-2.5864v-10.0322h5.0239c2.2257 0 3.4894 1.4745 3.4894 3.3396 0 1.7442-1.054 2.6762-2.0015 3.0089l2.0469 3.6837z" fill="url(#e)"/><path d="m42.3789 47.3261v-10.0322h7.356v2.2557h-4.7686v1.5644h4.6632v2.2567h-4.6632v1.6997h4.7686v2.2557z" fill="url(#f)"/><path d="m58.3557 42.3023c0-1.5489-.932-2.7527-2.7681-2.7527h-1.6388v5.5219h1.6253c1.7587 0 2.7816-1.2803 2.7816-2.7692zm-6.9953 5.0238v-10.0322h4.2137c3.1577 0 5.4299 1.8951 5.4299 5.0084 0 3.1143-2.2722 5.0238-5.4164 5.0238z" fill="url(#g)"/><path d="m64.8824 37.2939h-2.5873v10.0322h2.5873z" fill="url(#h)"/><path d="m69.0126 47.3261v-7.7765h-2.8126v-2.2557h8.1981v2.2557h-2.7981v7.7765z" fill="url(#i)"/><path d="m75.572 47.3261v-10.0322h7.356v2.2557h-4.7686v1.5644h4.6642v2.2567h-4.6642v1.6997h4.7686v2.2557z" fill="url(#j)"/><path d="m91.5493 42.3023c0-1.5489-.933-2.7527-2.7681-2.7527h-1.6399v5.5219h1.6254c1.7597 0 2.7826-1.2803 2.7826-2.7692zm-6.9953 5.0238v-10.0322h4.2127c3.1587 0 5.4299 1.8951 5.4299 5.0084 0 3.1143-2.2712 5.0238-5.4154 5.0238z" fill="url(#k)"/><path d="m19.73 55.76c0-3.0978 2.3466-5.1892 5.4299-5.1892 2.422 0 3.7302 1.3691 4.377 2.6772l-2.2257 1.0685c-.3307-.7977-1.1883-1.4601-2.1513-1.4601-1.6398 0-2.7981 1.2493-2.7981 2.9036 0 1.6398 1.1583 2.9035 2.7981 2.9035.963 0 1.8206-.6613 2.1513-1.46l2.2257 1.0539c-.6468 1.2792-1.955 2.6928-4.377 2.6928-3.0833 0-5.4299-2.1069-5.4299-5.1902z" fill="url(#l)"/><path d="m34.9064 53.3237-1.2781 3.7757h2.5429zm2.4675 7.4759-.497-1.4446h-3.9564l-.495 1.4446h-2.9335l3.7746-10.0332h3.2642l3.7766 10.0332z" fill="url(#m)"/><path d="m40.0357 59.3403 1.3691-2.0149c.7212.7223 1.8351 1.3226 3.2176 1.3226.8732 0 1.4146-.3007 1.4146-.7967 0-1.3236-5.6707-.2252-5.6707-4.0907 0-1.6853 1.4136-3.1898 3.9864-3.1898 1.6089 0 3.009.4815 4.0764 1.3991l-1.4146 1.9405c-.8421-.7058-1.9405-1.0529-2.9325-1.0529-.7522 0-1.0839.2562-1.0839.6923 0 1.2327 5.6707.3006 5.6707 4.0318 0 2.0139-1.488 3.3541-4.1807 3.3541-2.0304 0-3.4439-.6479-4.4524-1.5954z" fill="url(#n)"/><path d="m52.3871 50.7664h-2.5884v10.0332h2.5884z" fill="url(#o)"/><path d="m61.3137 60.7996-4.2416-5.8071v5.8071h-2.5874v-10.0332h2.6628l4.0598 5.5198v-5.5198h2.6039v10.0332z" fill="url(#p)"/><path d="m73.1216 55.76c0-1.6388-1.0685-2.9036-2.7238-2.9036-1.6532 0-2.7372 1.2648-2.7372 2.9036 0 1.6243 1.084 2.9035 2.7372 2.9035 1.6553 0 2.7238-1.2792 2.7238-2.9035zm-8.0938 0c0-3.0524 2.3022-5.1892 5.37-5.1892 3.0689 0 5.3555 2.1368 5.3555 5.1892 0 3.0543-2.2866 5.1902-5.3555 5.1902-3.0678 0-5.37-2.1359-5.37-5.1902z" fill="url(#q)"/><path d="m53.4476 8.28178-5.8174-8.28178-5.8163 8.28178-6.4643-2.56978 4.2024 7.853h16.1575l4.2013-7.853z" fill="url(#r)"/><path d="m14.5787 9.95776.4587.93204 1.0292.1498-.744.7254.1757 1.025-.9196-.4846-.9207.4846.1757-1.025-.744-.7254 1.0291-.1498z" fill="url(#s)"/><path d="m20.7913 8.20044.8112 1.64292 1.8123.26354-1.3112 1.2792.3089 1.8051-1.6212-.8525-1.6212.8525.309-1.8051-1.3123-1.2792 1.8134-.26354z" fill="url(#t)"/><path d="m29.0853 7.02856-1.0808 2.18954-2.4179.35131 1.7493 1.70489-.4133 2.4076 2.1627-1.1366 2.1616 1.1366-.4133-2.4076 1.7493-1.70489-2.4168-.35131z" fill="url(#u)"/><path d="m80.5759 9.95776-.4598.93204-1.0292.1498.744.7254-.1757 1.025.9207-.4846.9206.4846-.1767-1.025.744-.7254-1.0281-.1498z" fill="url(#v)"/><path d="m74.2906 8.20044-.8101 1.64292-1.8134.26354 1.3112 1.2792-.3089 1.8051 1.6212-.8525 1.6223.8525-.309-1.8051 1.3112-1.2792-1.8134-.26354z" fill="url(#w)"/><path d="m66.1838 7.02856 1.0808 2.18954 2.4169.35131-1.7494 1.70489.4134 2.4076-2.1617-1.1366-2.1626 1.1366.4133-2.4076-1.7494-1.70489 2.4169-.35131z" fill="url(#x)"/><path d="m41.3382 22.2588c-.745 0-1.3433.2552-1.7948.7636-.4526.5094-.6799 1.1593-.6799 1.9519 0 .7842.2273 1.4321.6799 1.9446.4515.5135 1.0498.7698 1.7948.7698.7409 0 1.3392-.2563 1.7948-.7698.4567-.5125.6841-1.1604.6841-1.9446 0-.7884-.2274-1.4373-.6841-1.9488-.4556-.5105-1.0539-.7667-1.7948-.7667z" fill="url(#y)"/><path d="m88.8058 23.4347c0-.3534-.1188-.6376-.3564-.8525-.2367-.2159-.5425-.3234-.9186-.3234h-1.8052v2.3745h1.8052c.3719 0 .6778-.1085.9165-.3286.2387-.218.3585-.5073.3585-.87z" fill="url(#z)"/><path d="m14.2618 26.0179h2.6917l-1.3453-3.5638z" fill="url(#A)"/><path d="m88.8969 28.656-1.6481-2.7919h-1.3122v2.7919h-1.3154v-7.4758h3.2848c.7367 0 1.3309.217 1.7814.6489s.6758.9961.6758 1.6925c0 .3224-.0496.6138-.1509.8793-.1002.2646-.2346.4847-.404.6624-.1705.1767-.3586.3203-.5673.4319-.2077.1116-.4288.185-.6623.2211l1.8402 2.9397zm-5.6159-6.3206h-3.8087v1.9261h3.7323v1.1541h-3.7323v2.0862h3.8087v1.1542h-5.123v-7.4758h5.123zm-6.2276 0h-2.2598v6.3206h-1.3143v-6.3206h-2.265v-1.1552h5.8391zm-6.5479 4.8585c-.0713.2253-.1839.4361-.3369.6324-.1529.1963-.341.3668-.5641.5073-.2222.1426-.495.2553-.8174.3369-.3234.0816-.6799.1219-1.0705.1219-1.2626 0-2.2784-.3937-3.0482-1.1821l.743-1.0219c.2821.3038.6251.5549 1.0302.7533.405.1973.8504.2965 1.336.2965.4991 0 .8721-.1023 1.1191-.3048.2459-.2046.3688-.4484.3688-.7347 0-.1673-.0496-.3141-.1477-.4391-.0982-.124-.2315-.2263-.3999-.3048-.1674-.0786-.3617-.1488-.5797-.2118-.219-.062-.4484-.123-.6902-.184-.2397-.0599-.4805-.126-.7192-.1973-.2397-.0713-.4681-.1612-.6871-.2728-.2191-.1095-.4123-.2387-.5807-.3865-.1674-.1488-.3007-.3389-.3989-.5693-.0981-.2304-.1477-.4918-.1477-.7853 0-.6293.2511-1.1531.7553-1.5685.5032-.4175 1.1604-.6252 1.9705-.6252 1.1459 0 2.0758.3483 2.7909 1.0457l-.7388.9775c-.2873-.2903-.621-.5073-.9992-.651-.3772-.1457-.7688-.218-1.1728-.218-.3802 0-.685.0878-.9144.2614-.2305.1747-.3452.3989-.3452.6737 0 .1499.0496.2811.1478.3927.0982.1105.2315.2025.3999.2748.1674.0713.3616.1375.5797.2005.219.062.4474.124.6871.187.2387.062.4794.1302.7202.2025.2397.0734.4701.1695.6892.2863.219.1167.4123.2521.5797.4071.1684.1529.3006.3482.3998.5848.0982.2366.1478.5022.1478.7998 0 .2511-.0351.4887-.1064.715zm-6.9427 1.4621h-1.3143v-7.4758h1.3143zm-2.6545-6.3206h-3.8087v1.9261h3.7323v1.1541h-3.7323v2.0862h3.8087v1.1542h-5.123v-7.4758h5.123zm-6.7091 6.3206h-1.3143v-5.774l-2.2867 5.774h-.558l-2.299-5.774v5.774h-1.3144v-7.4758h1.8496l2.0418 5.1334 2.0304-5.1334h1.8506zm-9.3047-2.1864c-.1902.4774-.4516.8855-.7884 1.2265-.3358.341-.7399.6086-1.2141.8049-.4743.1943-.9879.2914-1.5386.2914-.7378 0-1.396-.1653-1.9787-.498-.5818-.3297-1.0344-.7895-1.3567-1.3795-.3235-.5879-.4847-1.2513-.4847-1.9911 0-.7409.1612-1.4053.4847-1.9932.3223-.588.7749-1.0478 1.3567-1.3795.5827-.3316 1.2409-.497 1.9787-.497.5507 0 1.0643.0972 1.5386.2925.4742.1942.8783.4629 1.2141.8039.3368.3399.5982.7501.7884 1.2275.1901.4774.2841.993.2841 1.5458s-.094 1.0684-.2841 1.5458zm-8.6207 2.1864h-1.2689l-3.9027-5.3472v5.3472h-1.3133v-7.4758h1.3463l3.8263 5.1768v-5.1768h1.3123zm-8.0721 0h-1.3133v-7.4758h1.3133zm-2.6131-1.4621c-.0713.2253-.1829.4361-.3369.6324-.1529.1963-.341.3668-.5642.5073-.2211.1426-.4949.2553-.8173.3369s-.6799.1219-1.0705.1219c-1.2616 0-2.2784-.3937-3.0482-1.1821l.745-1.0219c.2801.3038.6231.5549 1.0282.7533.405.1973.8504.2965 1.336.2965.4991 0 .8731-.1023 1.119-.3048.246-.2046.3689-.4484.3689-.7347 0-.1673-.0496-.3141-.1467-.4391-.0992-.124-.2325-.2263-.3999-.3048-.1684-.0786-.3616-.1488-.5807-.2118-.218-.062-.4484-.123-.6902-.184-.2397-.0599-.4795-.126-.7192-.1973-.2387-.0713-.467-.1612-.6861-.2728-.2201-.1095-.4123-.2387-.5807-.3865-.1684-.1488-.3007-.3389-.3988-.5693-.0992-.2304-.1488-.4918-.1488-.7853 0-.6293.2521-1.1531.7563-1.5685.5022-.4175 1.1594-.6252 1.9695-.6252 1.1459 0 2.0758.3483 2.7909 1.0457l-.7388.9775c-.2873-.2903-.62-.5073-.9982-.651-.3782-.1457-.7698-.218-1.1738-.218-.3792 0-.684.0878-.9144.2614-.2305.1747-.3441.3989-.3441.6737 0 .1499.0485.2811.1477.3927.0982.1105.2315.2025.3989.2748.1674.0713.3616.1375.5796.2005.2201.062.4485.124.6882.187.2377.062.4784.1302.7192.2025.2407.0734.4701.1695.6892.2863.219.1167.4133.2521.5807.4071.1674.1529.3007.3482.3988.5848.0982.2366.1478.5022.1478.7998 0 .2511-.0351.4887-.1064.715zm-7.5389 1.4621-.5476-1.4445h-3.4316l-.5528 1.4445h-1.4889l2.9397-7.4758h1.6367l2.9335 7.4758zm-9.23238.1364c-.54764 0-1.06222-.094-1.54373-.2841-.48254-.1902-.89688-.4516-1.24717-.7853-.35132-.3348-.62824-.743-.82973-1.2286-.20252-.4857-.30378-1.0085-.30378-1.5706 0-.5652.10126-1.0912.30378-1.5768.20149-.4846.47841-.8948.82973-1.2286.35029-.3337.76463-.5941 1.24717-.7822.48151-.188.99609-.2821 1.54373-.2821.70057 0 1.29888.154 1.79378.4598.497.3069.8969.7078 1.1986 1.2059l-1.1108.5828c-.1849-.3224-.4474-.5859-.78733-.7884-.33995-.2046-.70367-.3059-1.09425-.3059-.7419 0-1.35671.2552-1.84442.7636-.48977.5094-.73363 1.1594-.73363 1.9519 0 .7801.24386 1.428.73363 1.9426.48771.5145 1.10252.7718 1.84442.7718.38645 0 .7512-.1023 1.09218-.3079.341-.2046.6045-.467.7894-.7853l1.1222.5601c-.7182 1.1252-1.7204 1.6873-3.00378 1.6873zm-3.84279-11.2194c-2.63488 0-4.770673 2.1368-4.770673 4.7717v10.2833h90.122143c2.6348 0 4.7706-2.1369 4.7706-4.7707v-10.2843z" fill="url(#B)"/></svg>