<svg width="2427" height="855" viewBox="0 0 2427 855" fill="none" xmlns="http://www.w3.org/2000/svg">
<path d="M1272.06 231.746L1295.37 214.588C1295.85 214.235 1296.22 213.737 1296.4 213.165C1296.59 212.594 1296.59 211.977 1296.41 211.404C1296.22 210.831 1295.86 210.331 1295.38 209.975C1294.89 209.619 1294.31 209.425 1293.71 209.421L1264.85 209.226C1264.25 209.233 1263.66 209.048 1263.17 208.697C1262.68 208.347 1262.31 207.849 1262.12 207.276L1253.06 179.876C1252.87 179.302 1252.5 178.802 1252.01 178.448C1251.52 178.093 1250.93 177.903 1250.32 177.903C1249.72 177.903 1249.13 178.093 1248.64 178.448C1248.15 178.802 1247.78 179.302 1247.6 179.876L1238.53 207.276C1238.34 207.849 1237.97 208.347 1237.48 208.697C1236.99 209.048 1236.4 209.233 1235.8 209.226L1206.94 209.421C1206.34 209.425 1205.76 209.619 1205.27 209.975C1204.79 210.331 1204.43 210.831 1204.24 211.404C1204.06 211.977 1204.06 212.594 1204.25 213.165C1204.43 213.737 1204.8 214.235 1205.29 214.588L1228.59 231.746C1229.05 232.123 1229.4 232.627 1229.59 233.197C1229.78 233.768 1229.81 234.38 1229.66 234.963L1220.88 262.455C1220.69 263.029 1220.68 263.65 1220.87 264.227C1221.05 264.805 1221.41 265.309 1221.9 265.668C1222.39 266.026 1222.98 266.219 1223.58 266.22C1224.19 266.221 1224.78 266.03 1225.27 265.673L1248.77 248.807C1249.26 248.473 1249.84 248.295 1250.43 248.295C1251.02 248.295 1251.6 248.473 1252.09 248.807L1275.59 265.673C1276.07 266.03 1276.67 266.221 1277.27 266.22C1277.88 266.219 1278.47 266.026 1278.95 265.668C1279.44 265.309 1279.8 264.805 1279.99 264.227C1280.17 263.65 1280.17 263.029 1279.97 262.455L1271.2 234.963C1270.97 234.406 1270.93 233.789 1271.08 233.207C1271.24 232.625 1271.59 232.112 1272.06 231.746V231.746Z" fill="white"/>
<path d="M1365.71 227.55L1378.91 217.835C1379.18 217.635 1379.39 217.353 1379.49 217.029C1379.6 216.706 1379.6 216.357 1379.49 216.033C1379.39 215.709 1379.19 215.426 1378.91 215.224C1378.64 215.022 1378.31 214.913 1377.97 214.91L1361.63 214.8C1361.29 214.804 1360.95 214.7 1360.68 214.502C1360.4 214.305 1360.19 214.024 1360.08 213.7L1354.95 198.189C1354.84 197.864 1354.63 197.58 1354.36 197.38C1354.08 197.179 1353.75 197.071 1353.4 197.071C1353.06 197.071 1352.73 197.179 1352.45 197.38C1352.17 197.58 1351.97 197.864 1351.86 198.189L1346.73 213.7C1346.62 214.024 1346.41 214.305 1346.13 214.502C1345.85 214.7 1345.52 214.804 1345.18 214.8L1328.84 214.91C1328.5 214.912 1328.17 215.022 1327.89 215.223C1327.62 215.425 1327.42 215.708 1327.31 216.033C1327.21 216.357 1327.21 216.706 1327.32 217.03C1327.42 217.353 1327.63 217.635 1327.9 217.835L1341.1 227.55C1341.36 227.764 1341.56 228.049 1341.67 228.372C1341.77 228.695 1341.79 229.042 1341.7 229.372L1336.73 244.937C1336.62 245.262 1336.62 245.614 1336.72 245.941C1336.83 246.268 1337.03 246.554 1337.31 246.757C1337.59 246.96 1337.92 247.07 1338.26 247.07C1338.61 247.07 1338.94 246.961 1339.22 246.759L1352.52 237.21C1352.79 237.021 1353.12 236.92 1353.46 236.92C1353.79 236.92 1354.12 237.021 1354.39 237.21L1367.69 246.759C1367.97 246.961 1368.31 247.069 1368.65 247.068C1368.99 247.068 1369.32 246.958 1369.6 246.755C1369.88 246.552 1370.08 246.267 1370.19 245.94C1370.29 245.613 1370.29 245.262 1370.18 244.937L1365.21 229.372C1365.08 229.055 1365.06 228.705 1365.15 228.375C1365.24 228.046 1365.44 227.756 1365.71 227.55V227.55Z" fill="white"/>
<path d="M1159.56 227.55L1172.75 217.835C1173.02 217.635 1173.23 217.353 1173.33 217.03C1173.44 216.706 1173.44 216.357 1173.34 216.033C1173.23 215.708 1173.03 215.425 1172.76 215.223C1172.48 215.022 1172.15 214.912 1171.81 214.91L1155.47 214.8C1155.13 214.804 1154.8 214.7 1154.52 214.502C1154.24 214.305 1154.03 214.024 1153.93 213.7L1148.79 198.189C1148.68 197.864 1148.48 197.58 1148.2 197.38C1147.92 197.179 1147.59 197.071 1147.25 197.071C1146.9 197.071 1146.57 197.179 1146.29 197.38C1146.02 197.58 1145.81 197.864 1145.7 198.189L1140.57 213.7C1140.46 214.024 1140.25 214.305 1139.97 214.502C1139.7 214.7 1139.36 214.804 1139.02 214.8L1122.68 214.91C1122.34 214.913 1122.01 215.022 1121.74 215.224C1121.46 215.426 1121.26 215.709 1121.16 216.033C1121.05 216.357 1121.05 216.706 1121.16 217.029C1121.26 217.353 1121.47 217.635 1121.75 217.835L1134.94 227.55C1135.2 227.764 1135.4 228.049 1135.51 228.372C1135.62 228.695 1135.63 229.042 1135.55 229.372L1130.58 244.937C1130.47 245.262 1130.46 245.614 1130.57 245.941C1130.67 246.268 1130.88 246.554 1131.15 246.757C1131.43 246.96 1131.76 247.07 1132.11 247.07C1132.45 247.07 1132.78 246.961 1133.06 246.759L1146.36 237.21C1146.64 237.021 1146.96 236.92 1147.3 236.92C1147.63 236.92 1147.96 237.021 1148.24 237.21L1161.54 246.759C1161.82 246.961 1162.15 247.07 1162.49 247.07C1162.84 247.07 1163.17 246.96 1163.45 246.757C1163.72 246.554 1163.93 246.268 1164.03 245.941C1164.14 245.614 1164.13 245.262 1164.02 244.937L1159.06 229.372C1158.93 229.056 1158.9 228.706 1158.99 228.376C1159.09 228.046 1159.28 227.756 1159.56 227.55V227.55Z" fill="white"/>
<path d="M785.271 390.437C780.416 391.362 775.907 391.937 766.08 391.937C751.86 391.937 735.56 384.306 735.56 356.213V352.361C735.56 324.037 751.86 316.638 766.08 316.638C772.593 316.746 779.087 317.364 785.503 318.487C786.543 318.602 787.353 318.95 787.353 319.987V325.887C787.353 326.581 787.121 327.159 785.965 327.159H785.619C781.456 326.812 772.901 326.118 766.196 326.118C754.866 326.118 746.08 332.708 746.08 352.362V356.214C746.08 375.636 754.866 382.457 766.196 382.457C772.785 382.457 781.11 381.879 785.271 381.533H785.734C785.986 381.49 786.245 381.509 786.489 381.587C786.733 381.665 786.955 381.8 787.136 381.981C787.317 382.162 787.452 382.384 787.529 382.628C787.607 382.872 787.626 383.131 787.583 383.383V388.122C787.583 389.513 786.543 390.206 785.271 390.437Z" fill="white"/>
<path d="M871.407 391.131H864.587C864.139 391.135 863.703 390.989 863.347 390.718C862.991 390.446 862.736 390.064 862.621 389.631L855.106 366.679H825.164L817.764 389.631C817.608 390.061 817.326 390.434 816.955 390.702C816.584 390.97 816.14 391.119 815.683 391.131H808.862C808.627 391.16 808.389 391.141 808.161 391.076C807.934 391.01 807.722 390.899 807.538 390.75C807.355 390.601 807.203 390.416 807.093 390.206C806.983 389.997 806.916 389.767 806.897 389.531C806.878 389.292 806.918 389.052 807.012 388.831L828.4 323.872C830.366 317.785 835.8 316.288 840.192 316.288C844.47 316.288 849.903 317.688 851.869 323.773L873.256 388.836C873.351 389.057 873.391 389.297 873.372 389.536C873.373 390.432 872.679 391.131 871.407 391.131ZM842.39 325.968C842.291 325.459 842.017 325 841.615 324.671C841.213 324.342 840.709 324.164 840.19 324.168C839.654 324.145 839.127 324.313 838.703 324.643C838.279 324.973 837.987 325.442 837.878 325.968L827.528 358.268H852.758L842.39 325.968Z" fill="white"/>
<path d="M962.64 391.131H956.281C955.699 391.1 955.153 390.839 954.762 390.406C954.372 389.972 954.171 389.401 954.201 388.819V319.647C954.188 319.365 954.231 319.082 954.329 318.817C954.428 318.552 954.578 318.31 954.773 318.104C954.967 317.899 955.201 317.735 955.46 317.622C955.719 317.509 955.998 317.449 956.281 317.447H962.64C962.923 317.449 963.202 317.509 963.462 317.621C963.721 317.734 963.955 317.898 964.149 318.104C964.343 318.309 964.494 318.552 964.592 318.817C964.691 319.082 964.735 319.365 964.721 319.647V388.819C964.752 389.402 964.549 389.972 964.159 390.406C963.769 390.839 963.223 391.1 962.64 391.131V391.131Z" fill="white"/>
<path d="M1044.23 391.131H1037.06C1035.21 391.131 1033.94 390.437 1033.36 389.281L997.641 333.636C997.525 333.404 997.409 333.289 997.294 333.289C997.179 333.289 997.179 333.404 997.179 333.636V388.936C997.186 389.502 996.973 390.048 996.584 390.458C996.195 390.869 995.662 391.112 995.097 391.136H989.086C987.93 391.136 987.005 390.905 987.005 389.749V320.688C987.008 320.254 987.097 319.824 987.268 319.425C987.439 319.026 987.688 318.665 988 318.363C988.312 318.062 988.682 317.826 989.087 317.669C989.492 317.512 989.924 317.438 990.358 317.45H996.716C999.953 317.45 1000.53 318.028 1001.46 319.763L1036.95 375.063L1037.18 375.41C1037.29 375.41 1037.3 375.179 1037.3 375.063V319.647C1037.29 319.082 1037.5 318.536 1037.89 318.125C1038.28 317.714 1038.81 317.471 1039.38 317.447H1045.5C1045.79 317.449 1046.07 317.509 1046.32 317.621C1046.58 317.734 1046.82 317.898 1047.01 318.104C1047.21 318.309 1047.36 318.552 1047.46 318.817C1047.55 319.082 1047.6 319.365 1047.58 319.647V387.778C1047.58 388.667 1047.23 389.519 1046.6 390.148C1045.97 390.777 1045.12 391.13 1044.23 391.131V391.131Z" fill="white"/>
<path d="M1099.57 391.941C1081.42 391.941 1068.24 381.304 1068.24 355.641V352.941C1068.24 327.275 1081.42 316.641 1099.57 316.641C1117.72 316.641 1130.79 327.276 1130.79 352.941V355.641C1130.79 381.3 1117.72 391.941 1099.57 391.941ZM1120.15 352.941C1120.15 333.518 1112.29 326.119 1099.57 326.119C1086.97 326.119 1078.88 333.519 1078.88 352.941V355.641C1078.88 375.063 1086.86 382.462 1099.57 382.462C1112.17 382.462 1120.15 375.062 1120.15 355.641V352.941Z" fill="white"/>
<path d="M917.83 351.536L907.291 346.156C899.639 341.746 896.225 339.025 896.225 334.556C896.225 328.148 900.837 325.534 912.145 325.534C916.638 325.534 922.579 325.773 929.822 326.242H930.028C930.285 326.268 930.544 326.24 930.789 326.159C931.034 326.079 931.259 325.947 931.45 325.774C931.64 325.6 931.792 325.388 931.896 325.152C931.999 324.915 932.051 324.66 932.049 324.402V320.195C932.049 319.484 931.707 318.571 930.068 318.261C924.127 317.453 918.141 317.019 912.145 316.961C895.428 316.961 886.222 323.209 886.222 334.554C886.222 343.054 891.947 348.109 900.553 353.095L911.596 358.862C920.596 364.136 923.796 366.874 923.796 371.737C923.796 379.322 918.42 383.01 907.363 383.01C902.73 383.01 895.291 382.694 890.404 382.291H890.096C889.839 382.261 889.578 382.287 889.332 382.367C889.086 382.446 888.859 382.577 888.668 382.751C888.476 382.926 888.324 383.139 888.222 383.376C888.12 383.614 888.07 383.871 888.075 384.13V388.045C888.075 389.274 888.404 389.765 890.26 390.076L890.34 390.088C895.964 391.049 901.657 391.548 907.363 391.581C932.178 391.581 934.107 376.392 934.107 371.737C934.1 363.73 929.693 358.255 917.83 351.536Z" fill="white"/>
<path d="M854.515 403.03H818.883C817.915 403.033 816.987 403.418 816.302 404.103C815.617 404.788 815.232 405.716 815.229 406.684V486.534C815.229 500.97 806.457 504.076 796.956 504.076C787.455 504.076 778.683 500.97 778.683 486.534V406.684C778.68 405.716 778.295 404.788 777.61 404.103C776.925 403.418 775.997 403.033 775.029 403.03H739.4C738.413 403.026 737.462 403.404 736.747 404.085C736.032 404.766 735.607 405.697 735.563 406.684V486.534C735.563 533.495 768.636 540.621 796.963 540.621C825.29 540.621 858.363 533.495 858.363 486.534V406.684C858.319 405.696 857.893 404.763 857.175 404.081C856.458 403.4 855.504 403.023 854.515 403.03Z" fill="white"/>
<path d="M1125.36 403.03H1089.73C1088.76 403.033 1087.84 403.418 1087.15 404.103C1086.47 404.788 1086.08 405.716 1086.08 406.684V486.534C1086.08 500.97 1077.31 504.076 1067.8 504.076C1058.3 504.076 1049.53 500.97 1049.53 486.534V406.684C1049.53 405.716 1049.14 404.788 1048.46 404.103C1047.77 403.418 1046.85 403.033 1045.88 403.03H1010.25C1009.26 403.026 1008.31 403.404 1007.59 404.085C1006.88 404.766 1006.45 405.697 1006.41 406.684V486.534C1006.41 533.495 1039.48 540.621 1067.81 540.621C1096.13 540.621 1129.21 533.495 1129.21 486.534V406.684C1129.16 405.696 1128.74 404.764 1128.02 404.082C1127.31 403.401 1126.35 403.024 1125.36 403.03V403.03Z" fill="white"/>
<path d="M969.615 485.8C979.482 481.414 990.629 469.9 990.629 450.351V446.7C990.629 412.166 967.788 401.2 931.06 401.2C918.453 401.2 891.165 402.479 884.952 403.393C875.085 405.037 872.161 407.593 872.161 418.924V535.139C872.205 536.126 872.63 537.057 873.345 537.739C874.061 538.42 875.012 538.798 876 538.794H911.63C912.598 538.791 913.526 538.405 914.211 537.72C914.896 537.035 915.282 536.107 915.285 535.139V492.2H927.223L948.967 535.14C949.881 536.967 950.612 538.795 953.901 538.795H992.09C992.523 538.797 992.951 538.714 993.351 538.549C993.751 538.385 994.115 538.142 994.421 537.837C994.727 537.531 994.969 537.167 995.133 536.767C995.298 536.367 995.381 535.938 995.379 535.506C995.347 534.804 995.16 534.117 994.831 533.496L969.615 485.8ZM947.689 450.533C947.689 455.468 944.216 460.218 935.08 460.218H915.28V437.2H935.08C944.399 437.2 947.689 440.671 947.689 446.884V450.533Z" fill="white"/>
<path d="M676.367 418.562C690.041 418.882 708.797 419.886 715.415 420.769C718.503 421.21 719.165 420.106 719.165 416.797V384.368C719.165 381.5 718.945 380.838 714.532 379.515C707.369 377.398 690.932 374.683 673.232 373.404C670.104 373.212 666.89 373.104 663.725 373.104C656.254 373.104 649.511 373.65 645.689 374.565H645.678C645.794 375.493 645.726 376.434 645.478 377.336C644.534 380.727 641.369 382.548 639.566 383.336C633.907 385.747 628.094 387.78 622.166 389.421C616.758 391.464 612.589 392.457 609.424 392.457C608.052 392.482 606.687 392.244 605.404 391.757C596.59 399.436 588.469 410.821 583.397 427.996C582.366 434.434 581.864 440.945 581.897 447.465V466.217C581.897 529.752 624.033 541.003 652.05 541.003C672.788 541.003 701.064 537.694 714.521 534.826C718.492 533.944 719.154 533.726 719.154 529.972V452.672C719.15 451.434 718.657 450.248 717.782 449.373C716.907 448.498 715.721 448.005 714.483 448.001H659.38C658.249 447.968 657.15 448.384 656.324 449.158C655.497 449.931 655.01 451 654.968 452.131V471.441C655.01 472.572 655.497 473.641 656.323 474.415C657.15 475.188 658.248 475.604 659.38 475.571H672.564C672.935 475.571 673.291 475.718 673.554 475.981C673.817 476.244 673.964 476.6 673.964 476.971V494.088C673.966 494.564 673.786 495.023 673.461 495.371C673.137 495.72 672.691 495.931 672.216 495.962C667.157 496.286 653.765 496.448 652.065 496.448C645.447 496.448 634.637 495.566 634.637 466.666V447.462C634.633 423.2 648.131 417.9 676.367 418.562Z" fill="white"/>
<path d="M600.73 382.258C600.751 381.868 600.773 381.425 600.76 381.219C600.691 380.073 600.696 378.319 600.703 375.665C600.703 375.118 600.703 374.524 600.703 373.906C573.045 397.49 571.782 417.048 573.421 426.471C573.651 427.793 575.594 428.607 577.285 428.607C578.466 428.607 579.524 428.207 579.785 427.307C584.957 409.57 593.321 397.668 602.426 389.556C600.506 387.158 600.635 384.122 600.73 382.258Z" fill="white"/>
<path d="M552.353 307.443C552.564 307.442 552.771 307.385 552.953 307.278C558.853 303.878 567.47 299.594 573.574 296.806C574.619 293.374 575.73 289.925 576.907 286.524C567.728 290.251 556.868 297.685 551.382 305.59C551.261 305.768 551.191 305.975 551.179 306.189C551.166 306.403 551.212 306.617 551.312 306.807C551.412 306.998 551.561 307.157 551.745 307.269C551.928 307.381 552.138 307.441 552.353 307.443V307.443Z" fill="white"/>
<path d="M606.886 284.763C610.963 284.312 615.06 284.071 619.162 284.042C628.099 284.027 636.968 285.597 645.356 288.681C645.565 288.754 645.789 288.767 646.005 288.718C649.367 287.908 652.81 287.483 656.268 287.451C659.256 287.486 662.235 287.791 665.168 288.362C665.243 288.376 665.32 288.382 665.396 288.382C665.65 288.376 665.895 288.289 666.096 288.134C666.297 287.979 666.442 287.763 666.512 287.519C666.581 287.275 666.57 287.015 666.481 286.777C666.392 286.539 666.229 286.336 666.016 286.198C654.778 278.916 637.66 276.798 622.475 276.798C614.479 276.798 606.493 277.358 598.575 278.476C601.153 280.365 603.964 282.5 606.886 284.763Z" fill="white"/>
<path d="M638.654 289.923C633.523 287.623 626.579 287.043 620.254 287.043C616.542 287.043 613.063 287.243 610.275 287.414C614.43 290.685 618.715 294.141 622.835 297.514C627.888 295.304 633.1 293.479 638.427 292.053C639.664 291.734 639.818 290.444 638.654 289.923Z" fill="white"/>
<path d="M628.63 302.3C636.804 309.095 643.554 314.911 646.079 317.23C660.655 317.323 678.452 318.838 693.29 327.648C693.476 327.76 693.69 327.82 693.907 327.82C694.214 327.821 694.509 327.702 694.731 327.49C694.952 327.277 695.082 326.987 695.094 326.68C695.574 315.739 692.156 304.722 685.014 300.069C677.772 295.068 669.182 292.386 660.381 292.379C651.783 292.376 641.164 294.837 628.63 302.3Z" fill="white"/>
<path d="M568.646 362.134C568.557 362.027 568.462 361.925 568.374 361.817C565.857 358.827 564.053 355.303 563.099 351.513C562.145 347.722 562.065 343.765 562.866 339.939L563.171 338.483C563.236 338.173 563.306 337.842 563.379 337.495L563.031 337.779C563.003 337.803 562.975 337.828 562.948 337.854C522.188 377.443 532.841 408.099 545.624 422.019C545.73 422.139 545.86 422.235 546.006 422.301C546.151 422.367 546.309 422.401 546.469 422.401C546.645 422.402 546.82 422.364 546.98 422.289C547.139 422.214 547.28 422.104 547.392 421.968C547.504 421.832 547.585 421.673 547.628 421.502C547.671 421.331 547.675 421.152 547.64 420.979C545.808 411.726 545.661 398.805 551.518 386.632C555.426 378.51 561.734 370.479 568.646 362.134Z" fill="white"/>
<path d="M693.9 334.769C680.694 326.494 665.482 321.975 649.9 321.698C651.896 324.786 653.1 328.319 653.406 331.983C653.713 335.647 653.112 339.33 651.656 342.707C650.558 345.366 649.021 347.821 647.109 349.971C674.409 352.236 689.081 368.151 691.089 371.071C691.151 371.197 691.241 371.309 691.351 371.396C691.461 371.484 691.59 371.546 691.727 371.578C695.072 372.019 696.399 372.203 700.178 372.804C700.233 372.813 700.289 372.818 700.345 372.818C701.145 372.818 701.619 371.859 701.495 371.018C700.1 361.55 690.422 357 684.916 352.292C684.734 352.135 684.604 351.927 684.543 351.695C684.481 351.463 684.491 351.217 684.572 350.991C684.652 350.765 684.798 350.568 684.992 350.426C685.186 350.285 685.418 350.205 685.658 350.197C685.804 350.198 685.948 350.224 686.084 350.276C695.06 353.587 698.389 363.416 702.469 364.448C702.551 364.469 702.635 364.48 702.72 364.48C703.018 364.467 703.3 364.342 703.511 364.131C703.722 363.92 703.846 363.638 703.859 363.34C704.677 347.33 700.664 339.1 693.9 334.769Z" fill="white"/>
<path d="M641.954 356.7C640.772 356.7 639.628 356.724 638.529 356.767H638.477C638.229 356.769 637.987 356.69 637.789 356.541C636.439 357.071 635.043 357.479 633.62 357.758C638.846 364.016 642.859 368.894 644.036 370.551C644.17 370.74 644.271 370.922 644.386 371.107C644.535 371.073 644.7 371.038 644.838 371.007C648.899 370.035 655.877 369.445 663.725 369.445C668.433 369.445 673.453 369.657 678.346 370.126C678.388 370.126 678.43 370.132 678.471 370.132C678.712 370.138 678.95 370.072 679.153 369.941C679.357 369.811 679.516 369.622 679.611 369.4C679.706 369.178 679.733 368.933 679.687 368.696C679.642 368.459 679.526 368.241 679.355 368.07C669.446 359.109 653.848 356.7 641.954 356.7Z" fill="white"/>
<path d="M532.479 345.491C532.643 345.491 532.805 345.456 532.955 345.389C533.105 345.321 533.238 345.223 533.347 345.1C541.734 335.813 555.847 324.881 567.702 318.348C569.038 312.888 570.614 306.859 572.418 300.672C561.259 307.135 548.783 315.226 545.018 318.627C540.183 323 531 334.248 531.292 344.353C531.301 344.66 531.43 344.952 531.652 345.165C531.874 345.378 532.171 345.495 532.479 345.491V345.491Z" fill="white"/>
<path d="M564.992 329.993C565.436 327.983 565.933 325.785 566.486 323.421C557.21 328.834 543.673 338.612 533.273 351.763C533.254 351.787 533.238 351.81 533.22 351.835C530.12 356.39 519.879 368.855 527.661 383.102C527.779 383.318 527.961 383.493 528.182 383.601C528.404 383.71 528.653 383.746 528.896 383.706C529.14 383.666 529.364 383.551 529.539 383.377C529.714 383.204 529.83 382.98 529.872 382.737C531.513 372.509 537.291 352.974 564.992 329.993Z" fill="white"/>
<path d="M593.413 372.554C592.408 372.689 591.394 372.759 590.38 372.765C583.888 372.626 577.637 370.276 572.66 366.105C563.336 376.056 555.846 389.739 554.232 399.119C551.224 416.592 555.04 431.219 568.281 439.437C568.461 439.551 568.668 439.612 568.881 439.614C569.065 439.612 569.246 439.567 569.41 439.483C569.573 439.4 569.716 439.279 569.825 439.131C569.935 438.984 570.009 438.813 570.041 438.632C570.074 438.451 570.064 438.265 570.013 438.088C560.163 404.394 580.373 385.734 593.413 372.554Z" fill="white"/>
<path d="M629.249 358.229C629.143 358.229 629.038 358.242 628.932 358.242C623.387 358.129 617.992 356.425 613.388 353.334C611.488 359.598 608.379 364.518 604.345 367.845C604.402 374.945 604.296 379.136 604.409 380.998C604.555 383.417 602.956 388.798 609.432 388.798C611.925 388.798 615.613 387.998 621.058 385.931C626.87 384.333 632.568 382.344 638.113 379.979C640.448 378.964 643.798 376.528 641.057 372.67C639.8 370.9 634.649 364.685 629.249 358.229Z" fill="white"/>
<path d="M590.38 369.11C599.529 369.11 608.38 362.932 611.109 347.087C617.318 352.411 623.448 354.587 628.932 354.587C646.132 354.587 657.006 333.213 644.305 320.574C640.741 317.027 596.084 279.174 585.526 274.302C574.969 298.667 568.174 332.502 566.441 340.695C563.186 356.083 577.1 369.11 590.38 369.11Z" fill="white"/>
<path d="M1364.48 322.1H1428.2V338.84H1382.89V356.654H1422.82V373.4H1382.89V405.8H1364.48V322.1Z" fill="white"/>
<path d="M1458.46 321.5H1475.44L1511.31 405.8H1492.06L1484.41 387.028H1449.01L1441.36 405.8H1422.59L1458.46 321.5ZM1477.83 370.762L1466.71 343.621L1455.59 370.762H1477.83Z" fill="white"/>
<path d="M1521.47 322.1H1539.89V405.8H1521.47V322.1Z" fill="white"/>
<path d="M1557.23 322.1H1595.49C1606.13 322.1 1614.38 325.09 1619.88 330.59C1624.54 335.252 1627.06 341.828 1627.06 349.721V349.959C1627.06 363.471 1619.76 371.959 1609.12 375.906L1629.57 405.797H1608.04L1590.11 379.014H1575.64V405.8H1557.23V322.1ZM1594.29 362.754C1603.26 362.754 1608.4 357.971 1608.4 350.916V350.676C1608.4 342.785 1602.9 338.721 1593.94 338.721H1575.64V362.754H1594.29Z" fill="white"/>
<path d="M1363.16 488.188V487.949C1363.16 464.273 1380.86 444.666 1405.01 444.666C1419.96 444.666 1428.92 450.166 1437.53 458.057L1433.11 462.6C1425.81 455.545 1417.44 450.285 1404.89 450.285C1384.8 450.285 1369.62 466.666 1369.62 487.709V487.949C1369.62 509.111 1385.04 525.613 1405.01 525.613C1417.09 525.613 1425.34 520.949 1433.82 512.58L1438.01 516.645C1429.16 525.373 1419.6 531.232 1404.77 531.232C1380.86 531.232 1363.16 512.221 1363.16 488.188Z" fill="white"/>
<path d="M1486.92 445.5H1492.9L1531.87 529.8H1525.06L1514.42 506.364H1465.04L1454.39 529.8H1447.94L1486.92 445.5ZM1511.79 500.74L1489.79 452.316L1467.67 500.74H1511.79Z" fill="white"/>
<path d="M1542.4 517.6L1546.47 512.936C1555.67 521.426 1564.17 525.371 1576.48 525.371C1589.03 525.371 1597.64 518.316 1597.64 508.752V508.512C1597.64 499.664 1592.98 494.523 1573.97 490.697C1553.88 486.631 1545.75 479.816 1545.75 467.143V466.9C1545.75 454.465 1557.11 444.9 1572.65 444.9C1584.85 444.9 1592.86 448.248 1601.35 455.064L1597.4 459.964C1589.51 453.147 1581.62 450.516 1572.41 450.516C1560.1 450.516 1551.97 457.571 1551.97 466.3V466.54C1551.97 475.388 1556.51 480.768 1576.36 484.833C1595.73 488.778 1603.86 495.714 1603.86 507.909V508.149C1603.86 521.659 1592.26 530.985 1576.12 530.985C1562.73 530.992 1552.44 526.568 1542.4 517.6Z" fill="white"/>
<path d="M1625.14 446.1H1631.36V529.8H1625.14V446.1Z" fill="white"/>
<path d="M1657.07 446.1H1662.93L1720.68 518.916V446.1H1726.66V529.8H1721.99L1663.05 455.429V529.8H1657.07V446.1Z" fill="white"/>
<path d="M1747.82 488.188V487.949C1747.82 465.111 1764.68 444.666 1790.03 444.666C1815.38 444.666 1832 464.871 1832 487.709V487.949C1832 510.785 1815.14 531.232 1789.79 531.232C1764.44 531.232 1747.82 511.025 1747.82 488.188ZM1825.54 488.188V487.949C1825.54 467.264 1810.48 450.285 1789.79 450.285C1769.11 450.285 1754.28 467.023 1754.28 487.709V487.949C1754.28 508.635 1769.35 525.613 1790.03 525.613C1810.72 525.613 1825.54 508.873 1825.54 488.188Z" fill="white"/>
<path d="M1249 310C1248.2 310 1247.44 310.316 1246.88 310.879C1246.32 311.441 1246 312.204 1246 313V542.5C1246 543.296 1246.32 544.059 1246.88 544.621C1247.44 545.184 1248.2 545.5 1249 545.5C1249.8 545.5 1250.56 545.184 1251.12 544.621C1251.68 544.059 1252 543.296 1252 542.5V313C1252 312.204 1251.68 311.441 1251.12 310.879C1250.56 310.316 1249.8 310 1249 310Z" fill="white"/>
<path d="M1806.06 694H316.825V147H2191.83V428.625C2201.73 422.634 2211.73 416.926 2221.83 411.5V117H286.825V724H1825.98C1819.55 714.024 1812.96 704.03 1806.06 694Z" fill="white"/>
<path d="M2191.82 502.254V694H2013.86C2006.2 703.874 1998.65 713.874 1991.19 724H2221.82V476.1C2211.74 484.644 2201.74 493.362 2191.82 502.254Z" fill="white"/>
<path d="M1722.65 618.537C1731.25 593.991 1760.52 566.11 1811.36 574.026C1851.56 582.689 1884.73 609.891 1911.3 654.484C2058.45 496.819 2185.1 388.221 2352.79 346.941C2367.75 344.204 2375.63 344.805 2364.75 354.309C2191.75 462.243 2035.59 618.38 1914.56 812.158C1911.72 816.686 1901.54 816.392 1898.11 811.489C1860.63 759.968 1833.92 709.673 1796.45 658.148C1779.72 631.488 1758.58 612.348 1722.67 618.512L1722.65 618.537Z" fill="white"/>
</svg>
