<svg width="76" height="25" viewBox="0 0 76 25" fill="none" xmlns="http://www.w3.org/2000/svg">
<path d="M19.7662 4.45966V2.3513C19.7662 0.858488 20.6714 0 22.3418 0C23.0508 0 23.6384 0.195689 24.0959 0.578586C24.5534 0.961482 24.7877 1.53037 24.7877 2.30223V2.39553H23.3338V2.30223C23.3338 1.63034 22.8581 1.32257 22.2516 1.32257C21.5608 1.32257 21.2155 1.63054 21.2155 2.24649V4.56265C21.2155 5.17819 21.5608 5.48617 22.2516 5.48656C22.8763 5.48656 23.3338 5.20666 23.3338 4.50631V4.41301H24.7877V4.50631C24.7877 5.28118 24.5545 5.85978 24.0976 6.24207C23.6408 6.62436 23.0525 6.81096 22.3438 6.81096C20.6714 6.81096 19.7662 5.95308 19.7662 4.45966Z" fill="white"/>
<path fill-rule="evenodd" clip-rule="evenodd" d="M25.922 6.67101V0.139954H28.7581C30.1021 0.139954 30.8181 0.886359 30.8181 2.19257C30.8181 3.07892 30.4728 3.71326 29.773 4.07737L31.0049 6.19784V6.67343H29.5979L28.2359 4.25004H27.3683V6.67343L25.922 6.67101ZM27.3683 3.04196H28.5159C29.0756 3.04196 29.3556 2.80871 29.3556 2.21135C29.3556 1.62368 29.0756 1.39951 28.5159 1.39951H27.3683V3.04196Z" fill="white"/>
<path d="M33.8997 6.67101V4.08646L31.8002 0.615545V0.139954H33.2278L34.6372 2.73359L36.1209 0.139954H37.454V0.615545L35.3556 4.03072V6.67101H33.8997Z" fill="white"/>
<path fill-rule="evenodd" clip-rule="evenodd" d="M38.2948 6.67101V0.139954H41.225C42.3912 0.139954 43.091 0.933009 43.091 2.19257C43.091 3.45212 42.3912 4.2361 41.225 4.2361H39.741V6.67101H38.2948ZM39.741 2.97533H40.9529C41.3163 2.97533 41.6248 2.71421 41.6248 2.19135C41.6248 1.66851 41.3182 1.39951 40.954 1.39951H39.7423L39.741 2.97533Z" fill="white"/>
<path d="M45.405 6.67101V1.40012H43.6042V0.139954H48.6429V1.39951H46.8512V6.67039L45.405 6.67101Z" fill="white"/>
<path fill-rule="evenodd" clip-rule="evenodd" d="M54.6289 4.45057C54.6289 5.18788 54.3956 5.76648 53.9195 6.18633C53.4431 6.60618 52.8088 6.81096 52.0068 6.81096C51.2045 6.81096 50.5695 6.60618 50.0938 6.18633C49.6183 5.76648 49.3868 5.18788 49.3868 4.45057V2.37008C49.3868 0.87727 50.3927 0 52.0068 0C53.6209 0 54.6289 0.87727 54.6289 2.37008V4.45057ZM53.1827 2.29496C53.1827 1.76363 52.7809 1.3256 52.0068 1.3256C51.2324 1.3256 50.8313 1.76423 50.8313 2.29496V4.516C50.8313 5.04793 51.2324 5.48536 52.0068 5.48536C52.7809 5.48536 53.1827 5.04673 53.1827 4.516V2.29496Z" fill="white"/>
<path fill-rule="evenodd" clip-rule="evenodd" d="M20.1086 15.4812V8.95021H23.0386C24.205 8.95021 24.9048 9.74326 24.9048 11.0028C24.9048 12.2624 24.205 13.0463 23.0386 13.0463H21.5548V15.4812H20.1086ZM21.5548 11.7856H22.7665C23.1301 11.7856 23.4386 11.5238 23.4386 11.0016C23.4386 10.4794 23.1307 10.2086 22.7665 10.2086H21.5548V11.7856Z" fill="white"/>
<path fill-rule="evenodd" clip-rule="evenodd" d="M25.922 15.4813V8.95021H28.7581C30.1021 8.95021 30.8181 9.69661 30.8181 11.0028C30.8181 11.8892 30.4728 12.5235 29.773 12.8876L31.0049 15.0081V15.4837H29.5979L28.2359 13.0603H27.3683V15.4837L25.922 15.4813ZM27.3683 11.8516H28.5159C29.0756 11.8516 29.3556 11.6184 29.3556 11.0216C29.3556 10.4249 29.0756 10.2098 28.5159 10.2098H27.3683V11.8516Z" fill="white"/>
<path fill-rule="evenodd" clip-rule="evenodd" d="M37.1375 13.2608C37.1375 13.9975 36.9043 14.5761 36.4288 14.996C35.953 15.4158 35.318 15.6212 34.5158 15.6212C33.7136 15.6212 33.0788 15.4158 32.6024 14.996C32.1263 14.5761 31.8937 13.9975 31.8937 13.2608V11.1797C31.8937 9.68692 32.9013 8.81026 34.5158 8.81026C36.1305 8.81026 37.1375 9.68692 37.1375 11.1797V13.2608ZM35.6936 11.1052C35.6936 10.5733 35.2927 10.1359 34.5184 10.1359C33.744 10.1359 33.3423 10.5739 33.3423 11.1052V13.3287C33.3423 13.86 33.7434 14.298 34.5184 14.298C35.2932 14.298 35.6936 13.8594 35.6936 13.3287V11.1052Z" fill="white"/>
<path d="M38.2015 13.2681V11.1597C38.2015 9.66691 39.1066 8.80843 40.7765 8.80843C41.4861 8.80843 42.0737 9.00412 42.5336 9.38701C42.9934 9.7699 43.2237 10.3382 43.2237 11.1131V11.2082H41.7695V11.1149C41.7695 10.443 41.2934 10.1352 40.6869 10.1352C39.997 10.1352 39.6518 10.443 39.6514 11.0585V13.3729C39.6514 13.9884 39.9965 14.2962 40.6869 14.2962C41.3122 14.2962 41.7695 14.0163 41.7695 13.3165V13.2232H43.2237V13.3165C43.2237 14.0908 42.9904 14.6694 42.5336 15.0523C42.0767 15.4352 41.4884 15.6212 40.7765 15.6212C39.1066 15.6212 38.2015 14.7627 38.2015 13.2681Z" fill="white"/>
<path d="M44.3696 15.4812V8.95021H48.6714V10.2098H45.8158V11.6093H48.2392V12.8131H45.8158V14.2217H48.6894V15.4812H44.3696Z" fill="white"/>
<path d="M50.1684 15.0335C49.674 14.6415 49.4312 14.0817 49.4312 13.3632H50.8778C50.8714 13.5766 50.9483 13.7842 51.0924 13.9418C51.3911 14.2314 51.7454 14.2962 52.1654 14.2962C52.7908 14.2962 53.1173 14.0539 53.1173 13.671C53.1186 13.5845 53.0945 13.4995 53.048 13.4266C53.0015 13.3537 52.9346 13.296 52.8555 13.2608C52.6786 13.1578 52.3521 13.0276 51.8668 12.8688L51.3445 12.6913C50.8598 12.5332 50.5513 12.3932 50.1684 12.1036C49.7952 11.8147 49.5898 11.3766 49.5898 10.8162C49.5898 10.2104 49.8048 9.72568 50.243 9.36217C50.681 8.99866 51.2789 8.81206 52.0346 8.81206C52.7719 8.81206 53.3675 8.99866 53.8262 9.38095C54.2848 9.76324 54.5071 10.314 54.5071 11.0422H53.053C53.053 10.4448 52.5957 10.1371 51.9988 10.1371C51.402 10.1371 51.056 10.3606 51.056 10.7429C51.056 10.9483 51.1494 11.0507 51.2892 11.1628C51.3589 11.2233 51.5261 11.2843 51.6314 11.3227L51.6528 11.3306L52.1285 11.4984L52.6133 11.6662C53.8728 12.1048 54.5824 12.5901 54.5824 13.5977C54.5824 14.8203 53.6862 15.6224 52.0376 15.6224C51.2881 15.6212 50.6628 15.4255 50.1684 15.0335Z" fill="white"/>
<path d="M56.0612 15.0335C55.5668 14.6415 55.3246 14.0817 55.3246 13.3632H56.7708C56.7642 13.5766 56.8411 13.7842 56.9852 13.9418C57.2841 14.2314 57.6384 14.2962 58.0582 14.2962C58.6836 14.2962 59.0101 14.0539 59.0101 13.671C59.0116 13.5845 58.9876 13.4996 58.9412 13.4267C58.8947 13.3537 58.8278 13.2961 58.7489 13.2608C58.5714 13.1578 58.2449 13.0276 57.7602 12.8688L57.2373 12.6913C56.7526 12.5332 56.4441 12.3932 56.0619 12.1036C55.6886 11.8147 55.4832 11.3766 55.4832 10.8162C55.4832 10.2104 55.6978 9.72568 56.1365 9.36217C56.5751 8.99866 57.1719 8.81206 57.9281 8.81206C58.6647 8.81206 59.2609 8.99866 59.7197 9.38095C60.1782 9.76324 60.4006 10.314 60.4006 11.0422H58.9466C58.9466 10.4448 58.4898 10.1371 57.8923 10.1371C57.2948 10.1371 56.95 10.3606 56.95 10.7429C56.95 10.9483 57.0435 11.0507 57.1833 11.1628C57.253 11.2233 57.4202 11.2843 57.5255 11.3227L57.5469 11.3306L58.023 11.4984L58.5078 11.6662C59.7675 12.1048 60.4764 12.5901 60.4764 13.5977C60.4764 14.8203 59.581 15.6224 57.9317 15.6224C57.1809 15.6212 56.5558 15.4255 56.0612 15.0335Z" fill="white"/>
<path d="M61.641 15.4812V8.95021H63.087V15.4812H61.641Z" fill="white"/>
<path d="M64.5242 15.4812V8.95021H65.8493L68.173 12.7834V8.95021H69.6193V15.4812H68.2942L65.9707 11.6468V15.4812H64.5242Z" fill="white"/>
<path d="M71.5131 14.9869C71.0842 14.5573 70.8691 13.9884 70.8691 13.2699V11.1616C70.8691 9.67783 71.8306 8.81026 73.4818 8.81026C74.2191 8.81026 74.8146 9.00595 75.2831 9.40702C75.7513 9.80809 75.9852 10.3685 75.9852 11.087H74.531C74.531 10.4994 74.0834 10.1359 73.4023 10.1359C72.6837 10.1359 72.3196 10.4994 72.3196 11.0967V13.2681C72.3196 13.8655 72.7115 14.2944 73.3836 14.2944C73.6171 14.2991 73.8482 14.2463 74.0564 14.1407C74.2645 14.035 74.4438 13.8798 74.5777 13.6885V13.11H73.458V11.908H75.9852V15.4825H75.2108L74.9122 14.9039C74.5857 15.3425 73.9603 15.6224 73.2884 15.6224C72.5396 15.6212 71.9518 15.4067 71.5131 14.9869Z" fill="white"/>
<path fill-rule="evenodd" clip-rule="evenodd" d="M19.7662 23.1374V19.289H20.4757V20.4777C20.6866 20.2971 20.9573 20.2018 21.2348 20.2105C21.8243 20.2105 22.2503 20.574 22.2503 21.2586V22.1534C22.2503 22.8362 21.826 23.2015 21.2348 23.2015C21.0768 23.2026 20.9202 23.1723 20.7739 23.1125C20.6277 23.0525 20.4948 22.9642 20.383 22.8527L20.1758 23.1361L19.7662 23.1374ZM20.4757 22.2588C20.678 22.4606 20.8798 22.5618 21.0876 22.5618C21.1479 22.5633 21.2079 22.5521 21.2638 22.5296C21.3197 22.5069 21.3704 22.473 21.4128 22.4301C21.4551 22.3873 21.4884 22.336 21.5102 22.2799C21.5321 22.2237 21.5424 22.1634 21.5402 22.1032V21.3156C21.5424 21.2553 21.5321 21.1952 21.5102 21.139C21.4884 21.0827 21.4551 21.0316 21.4128 20.9886C21.3704 20.9457 21.3197 20.9119 21.2638 20.8892C21.2079 20.8666 21.1479 20.8556 21.0876 20.8569C20.8798 20.8569 20.678 20.9551 20.4757 21.1568V22.2588Z" fill="white"/>
<path d="M23.2924 24.011V23.7542L23.5602 23.1374L22.5776 20.6098V20.2772H23.2324L23.9098 22.1742L24.5485 20.2802H25.1925V20.6128L23.8717 24.014L23.2924 24.011Z" fill="white"/>
<path d="M26.7103 21.8438V20.6098C26.7103 19.7367 27.2452 19.2345 28.2117 19.2345C28.6205 19.2345 28.9592 19.349 29.2263 19.5726C29.4937 19.7961 29.6305 20.1293 29.6305 20.5716V20.6261H28.8557V20.5716C28.8557 20.1512 28.5527 19.9439 28.1619 19.9439C27.7094 19.9439 27.4851 20.1675 27.4851 20.5552V21.8985C27.4851 22.2861 27.7094 22.5097 28.1619 22.5097C28.5551 22.5097 28.8557 22.3135 28.8557 21.882V21.8275H29.6305V21.882C29.6305 22.3242 29.4941 22.6623 29.2263 22.8866C28.9586 23.1108 28.6205 23.2191 28.2117 23.2191C27.2452 23.2191 26.7103 22.7193 26.7103 21.8438Z" fill="white"/>
<path fill-rule="evenodd" clip-rule="evenodd" d="M30.133 22.1437V21.2708C30.133 20.6425 30.5752 20.2117 31.3775 20.2117C32.1692 20.2117 32.617 20.6425 32.617 21.2708V22.1437C32.617 22.7714 32.1692 23.2028 31.3775 23.2028C30.5752 23.2041 30.133 22.7714 30.133 22.1437ZM31.907 22.1135V21.3035C31.907 21.0411 31.7215 20.8557 31.3775 20.8557C31.0334 20.8557 30.8424 21.0466 30.8424 21.3035V22.1135C30.8424 22.3703 31.0284 22.5611 31.3775 22.5611C31.7265 22.5611 31.907 22.3733 31.907 22.1135Z" fill="white"/>
<path d="M33.2278 23.1374V20.2772H33.9368V23.1374H33.2278Z" fill="white"/>
<path d="M34.6747 23.1374V20.2771H35.0842L35.2915 20.5607C35.4021 20.4485 35.5341 20.3598 35.6799 20.2999C35.8257 20.2399 35.982 20.2099 36.1396 20.2117C36.7564 20.2117 37.1332 20.6261 37.1332 21.3198V23.1374H36.4206V21.3634C36.4206 21.0302 36.239 20.8557 35.979 20.8557C35.7603 20.8557 35.5639 20.9539 35.3834 21.1556V23.1374H34.6747Z" fill="white"/>
<path d="M38.0482 22.9194C37.9342 22.8274 37.8422 22.7108 37.7792 22.5785C37.7164 22.446 37.684 22.3013 37.6846 22.1547H38.3887C38.4159 22.4115 38.6667 22.5588 39.0552 22.5588C39.312 22.5588 39.4756 22.4662 39.4756 22.3165C39.4756 22.2123 39.4102 22.1467 39.2848 22.1195L38.4929 21.9178C37.9961 21.7923 37.7453 21.5246 37.7453 21.126C37.7453 20.5583 38.1822 20.2093 38.9079 20.2093C39.6448 20.2093 40.0924 20.5637 40.1143 21.1914H39.4023C39.386 20.9678 39.1999 20.8533 38.8509 20.8533C38.5615 20.8533 38.4305 20.9515 38.4305 21.0823C38.4305 21.175 38.5124 21.2465 38.676 21.2847L39.4895 21.4864C39.9372 21.5955 40.1608 21.85 40.1608 22.2614C40.1608 22.846 39.6913 23.2004 38.9656 23.2004C38.5887 23.2041 38.2834 23.1102 38.0482 22.9194Z" fill="white"/>
<path fill-rule="evenodd" clip-rule="evenodd" d="M40.8322 23.1374V19.3163H42.5402C43.2224 19.3163 43.6374 19.7804 43.6374 20.5225C43.6374 21.2647 43.2224 21.7233 42.5402 21.7233H41.6079V23.1374H40.8322ZM41.6079 21.0466H42.3989C42.656 21.0466 42.8521 20.8648 42.8521 20.5171C42.8521 20.1693 42.656 19.993 42.3989 19.993H41.6079V21.0466Z" fill="white"/>
<path fill-rule="evenodd" clip-rule="evenodd" d="M44.1567 22.9792C43.9751 22.8321 43.8842 22.6158 43.8842 22.3517C43.8842 21.7565 44.2774 21.4234 45.0412 21.4234H45.6301V21.2417C45.6301 20.9848 45.4775 20.8539 45.1716 20.8539C44.8656 20.8539 44.713 20.9848 44.713 21.1811H44.0205C44.0205 20.5916 44.4137 20.2117 45.1716 20.2117C45.9294 20.2117 46.3402 20.5989 46.3402 21.1938V23.1374H45.9331L45.7253 22.8593C45.488 23.0859 45.1707 23.2099 44.8425 23.2041C44.5949 23.2103 44.3526 23.131 44.1567 22.9792ZM45.6301 22.2807V21.9639H45.0408C44.7081 21.9639 44.5929 22.1056 44.5929 22.2588C44.5929 22.4606 44.7244 22.5618 44.9917 22.5618C45.1122 22.5643 45.2318 22.5405 45.342 22.4919C45.4524 22.4434 45.5506 22.3712 45.6301 22.2807Z" fill="white"/>
<path d="M47.0506 23.1374V20.2772H47.76V23.1374H47.0506Z" fill="white"/>
<path fill-rule="evenodd" clip-rule="evenodd" d="M50.9014 19.289V23.1374H50.4894L50.2823 22.8538C50.1703 22.9657 50.0376 23.0542 49.8914 23.1142C49.7452 23.1745 49.5885 23.2049 49.4303 23.2041C48.8416 23.2041 48.4173 22.8405 48.4173 22.1547V21.2598C48.4173 20.577 48.8416 20.2117 49.4329 20.2117C49.7094 20.2033 49.9791 20.2981 50.1894 20.4777V19.289H50.9014ZM50.192 21.1556C49.9896 20.9539 49.7879 20.8557 49.5799 20.8557C49.5197 20.8544 49.4597 20.8654 49.4039 20.888C49.348 20.9106 49.2972 20.9445 49.2547 20.9874C49.2125 21.0304 49.1793 21.0815 49.1574 21.1377C49.1355 21.194 49.1252 21.2541 49.1274 21.3144V22.1019C49.1252 22.1624 49.1355 22.2224 49.1574 22.2786C49.1793 22.3347 49.2125 22.386 49.2547 22.4289C49.2972 22.4719 49.348 22.5056 49.4039 22.5283C49.4597 22.551 49.5197 22.562 49.5799 22.5607C49.7879 22.5607 49.9896 22.4625 50.192 22.2578V21.1556Z" fill="white"/>
<path d="M8.98451 5.147C9.66578 4.46573 10.5876 4.08029 11.5503 4.07334C12.0771 4.07154 12.6032 4.12368 13.1203 4.22922V0.317751C12.6086 0.248915 12.0929 0.214386 11.5767 0.214386L11.5317 0.214474C10.9001 0.216931 10.2679 0.271073 9.64143 0.377296C7.88599 0.674949 6.22284 1.3735 4.78134 2.41864C3.33985 3.46378 2.15885 4.82733 1.3302 6.40324C0.501536 7.97916 0.0475499 9.72499 0.00353782 11.505C-0.0404744 13.2849 0.326674 15.051 1.07643 16.666C1.82619 18.281 2.93835 19.7012 4.32644 20.8163C5.71451 21.9315 7.34109 22.7112 9.0797 23.0954C10.4094 23.3891 11.7771 23.4452 13.1203 23.2645V19.353C12.062 19.569 10.969 19.5607 9.91204 19.3273C8.75298 19.0712 7.66858 18.5513 6.74321 17.8079C5.81782 17.0645 5.07638 16.1177 4.57654 15.041C4.0767 13.9644 3.83192 12.787 3.86127 11.6003C3.87452 11.0648 3.94342 10.5339 4.06584 10.016C4.09045 9.93005 4.15219 9.86162 4.23708 9.86162C4.32402 9.86934 4.37601 9.91565 4.39899 10.016C4.76022 11.1538 5.39604 12.2003 6.25583 13.0601C7.66704 14.4713 9.58101 15.2641 11.5767 15.2641C12.1941 15.2566 12.6572 15.2209 13.1203 15.1607V11.2493C12.6508 11.3451 12.1724 11.3972 11.6913 11.4044C11.653 11.4035 11.6148 11.4021 11.5767 11.4001V11.4052C10.6045 11.4052 9.672 11.019 8.98451 10.3314C8.297 9.64394 7.91077 8.71149 7.91077 7.73922C7.91077 6.76695 8.297 5.83448 8.98451 5.147Z" fill="white"/>
</svg>
