<svg width="60" height="25" viewBox="0 0 60 25" fill="none" xmlns="http://www.w3.org/2000/svg">
<g clip-path="url(#clip0_1710_10)">
<path d="M55.556 24.9999H0L4.22267 -0.000976562H60L55.556 24.9999Z" fill="#393A41"/>
<path d="M18.4277 8.63613C15.9317 8.63613 14.037 10.5575 14.037 12.847C14.037 14.9184 15.5917 16.3625 17.709 16.3625C20.205 16.3625 22.0863 14.3866 22.0863 12.097C22.0997 10.012 20.545 8.63613 18.4277 8.63613ZM17.8663 14.4139C16.9117 14.4139 16.245 13.7593 16.245 12.7502C16.245 11.6334 17.069 10.5711 18.2583 10.5711C19.2117 10.5711 19.8783 11.2529 19.8783 12.262C19.8917 13.3925 19.0557 14.4139 17.865 14.4139H17.8663ZM33.4423 8.63613C30.9463 8.63613 29.065 10.5575 29.065 12.847C29.065 14.9184 30.6197 16.3625 32.737 16.3625C35.233 16.3625 37.1157 14.3866 37.1157 12.097C37.129 10.012 35.573 8.63613 33.4423 8.63613ZM32.8943 14.4139C31.9397 14.4139 31.2743 13.7593 31.2743 12.7502C31.2743 11.6334 32.097 10.5711 33.2863 10.5711C34.2397 10.5711 34.9063 11.2529 34.9063 12.262C34.9063 13.3925 34.0837 14.4139 32.893 14.4139H32.8943ZM44.4597 11.0757C44.4597 9.68477 43.4277 8.7984 41.545 8.7984H38.905L37.7423 16.1989H39.9637L40.3303 13.8684H40.4343L41.6103 16.2002H44.1583L42.525 13.6093C43.741 13.1729 44.4583 12.2334 44.4583 11.0757H44.4597ZM40.905 12.3029H40.5783L40.8263 10.7484H41.1277C41.8197 10.7484 42.185 10.9666 42.185 11.4439C42.185 12.0029 41.6623 12.3029 40.905 12.3029ZM11.489 11.7561C10.6397 11.3061 10.4557 11.197 10.4557 10.9516C10.4557 10.6516 10.7957 10.5016 11.253 10.5016C11.789 10.5016 12.5997 10.5698 13.397 11.3607C13.593 10.7198 13.9197 10.1484 14.337 9.64386C13.2143 8.97567 12.1677 8.63477 11.2143 8.63477C9.31966 8.63477 8.22233 9.6984 8.22233 10.9802C8.22233 12.0848 9.01833 12.6561 9.95966 13.1607C10.809 13.6107 11.0183 13.7607 11.0183 14.0334C11.0183 14.3334 10.665 14.497 10.1943 14.497C9.385 14.497 8.44366 13.9652 7.88233 13.4198L7.55566 15.4775C8.129 15.9139 8.96633 16.3639 10.2343 16.3639C12.1943 16.3639 13.253 15.3275 13.253 14.0048C13.253 12.9139 12.573 12.3289 11.489 11.7561ZM27.9543 12.0425H25.341L25.5503 10.747H28.3463C28.7174 9.96878 29.2746 9.29898 29.9663 8.79976H25.393C24.3743 8.79976 23.5117 9.52249 23.3663 10.5029L22.4797 16.2125H24.701L25.0663 13.882H27.7063L27.9023 12.6152C27.9157 12.4107 27.929 12.2334 27.9557 12.0425H27.9543ZM44.5117 8.79976C45.1117 9.27704 45.4783 9.94522 45.557 10.7484H47.413L46.5637 16.1989H48.785L49.6343 10.7484H51.6997L51.9997 8.7984H44.5117V8.79976Z" fill="#EDEDED"/>
</g>
<defs>
<clipPath id="clip0_1710_10">
<rect width="60" height="25" fill="white"/>
</clipPath>
</defs>
</svg>
