<svg width="51" height="20" viewBox="0 0 51 20" fill="none" xmlns="http://www.w3.org/2000/svg">
<path d="M20 19.7668C20.4267 19.4556 20.7026 18.9627 20.7026 18.4075V1.35924C20.7026 0.804042 20.4267 0.311156 20 0H49.1655C50.1103 0 50.8776 0.736853 50.8776 1.64703V18.1197C50.8776 19.0299 50.1103 19.7668 49.1655 19.7668H20ZM24.4776 10.5009H26.0535V10.3219C26.0535 10.0833 26.0381 9.86686 26.0073 9.67252C25.9765 9.47817 25.9188 9.3127 25.8341 9.17608C25.7495 9.03946 25.6331 8.93363 25.4849 8.85859C25.3367 8.78355 25.1472 8.74603 24.9163 8.74603C24.6469 8.74603 24.4314 8.79028 24.2698 8.87879C24.1081 8.96731 23.984 9.0866 23.8975 9.23669C23.8109 9.38678 23.7531 9.55803 23.7243 9.75044C23.6954 9.94286 23.681 10.143 23.681 10.3508C23.681 10.5471 23.6896 10.7433 23.707 10.9396C23.7243 11.1359 23.7714 11.3129 23.8484 11.4707C23.9254 11.6284 24.0447 11.7554 24.2063 11.8516C24.3679 11.9479 24.593 11.996 24.8817 11.996C25.2627 11.996 25.5417 11.9017 25.7187 11.7131C25.8957 11.5245 25.9919 11.2494 26.0073 10.8876H25.2915C25.2684 11.0839 25.2261 11.2301 25.1645 11.3263C25.1029 11.4226 25.0048 11.4707 24.8701 11.4707C24.797 11.4707 24.7354 11.4505 24.6854 11.41C24.6354 11.3696 24.595 11.3158 24.5642 11.2484C24.5334 11.1811 24.5113 11.1041 24.4978 11.0175C24.4843 10.9309 24.4776 10.8415 24.4776 10.7491V10.5009ZM28.0854 9.92362H26.4576V10.6048H28.0854V9.92362ZM31.0409 7.81088H28.4087V8.49203H29.3092V11.9325H30.1404V8.49203H31.0409V7.81088ZM30.9486 8.82684V11.9325H31.7452V10.0679C31.7452 9.96403 31.7625 9.87648 31.7971 9.80528C31.8318 9.73409 31.878 9.67636 31.9357 9.63211C31.9934 9.58785 32.0569 9.5561 32.1262 9.53686C32.1955 9.51762 32.2647 9.508 32.334 9.508C32.3763 9.508 32.4177 9.50896 32.4581 9.51089C32.4985 9.51281 32.5399 9.5157 32.5822 9.51954V8.75757C32.5591 8.75372 32.5351 8.75084 32.5101 8.74891C32.485 8.74699 32.461 8.74603 32.4379 8.74603C32.2724 8.74603 32.132 8.79124 32.0165 8.88168C31.9011 8.97212 31.8029 9.09238 31.7221 9.24246H31.7106V8.82684H30.9486ZM32.8651 9.77931H33.5809V9.69272C33.5809 9.56957 33.6116 9.47144 33.6732 9.39832C33.7348 9.3252 33.8272 9.28864 33.9503 9.28864C34.085 9.28864 34.1802 9.32232 34.236 9.38966C34.2918 9.45701 34.3197 9.55033 34.3197 9.66963C34.3197 9.77354 34.2967 9.85243 34.2505 9.9063C34.2043 9.96018 34.1216 10.0025 34.0023 10.0333L33.552 10.1545C33.4135 10.193 33.2951 10.2373 33.197 10.2873C33.0989 10.3373 33.018 10.3999 32.9545 10.4749C32.891 10.5499 32.8439 10.6404 32.8131 10.7462C32.7823 10.852 32.7669 10.9781 32.7669 11.1243C32.7669 11.2282 32.7804 11.3331 32.8073 11.4389C32.8343 11.5447 32.8766 11.64 32.9343 11.7246C32.9921 11.8093 33.069 11.8757 33.1652 11.9238C33.2614 11.9719 33.3788 11.996 33.5174 11.996C33.7098 11.996 33.8666 11.9719 33.9878 11.9238C34.109 11.8757 34.2158 11.7708 34.3082 11.6092H34.3197C34.3313 11.6631 34.3438 11.7179 34.3573 11.7737C34.3707 11.8295 34.3909 11.8824 34.4179 11.9325H35.1798C35.1414 11.8401 35.1154 11.7535 35.1019 11.6727C35.0885 11.5919 35.0817 11.4784 35.0817 11.3321V9.69849C35.0817 9.55995 35.0673 9.43199 35.0384 9.31462C35.0096 9.19724 34.9547 9.09623 34.8739 9.01156C34.7931 8.9269 34.6796 8.86148 34.5333 8.8153C34.3871 8.76912 34.1947 8.74603 33.9561 8.74603C33.806 8.74603 33.6646 8.76238 33.5318 8.79509C33.399 8.8278 33.2836 8.88168 33.1854 8.95672C33.0873 9.03177 33.0094 9.1299 32.9517 9.25112C32.8939 9.37235 32.8651 9.52339 32.8651 9.70426V9.77931ZM34.3197 10.3797V10.9915C34.3197 11.0762 34.3044 11.1493 34.2736 11.2109C34.2428 11.2725 34.2033 11.3225 34.1552 11.361C34.1071 11.3995 34.0542 11.4274 33.9965 11.4447C33.9388 11.462 33.883 11.4707 33.8291 11.4707C33.7213 11.4707 33.6444 11.4283 33.5982 11.3437C33.552 11.259 33.5289 11.157 33.5289 11.0377C33.5289 10.8992 33.5635 10.7895 33.6328 10.7087C33.7021 10.6279 33.8175 10.5701 33.9792 10.5355C34.0292 10.524 34.085 10.5057 34.1466 10.4807C34.2081 10.4557 34.2659 10.422 34.3197 10.3797ZM35.6474 8.82684V11.9325H36.444V9.87167C36.444 9.52916 36.5845 9.35791 36.8654 9.35791C36.9847 9.35791 37.0713 9.38966 37.1252 9.45316C37.1791 9.51666 37.206 9.62922 37.206 9.79085V11.9325H38.0026V9.62922C38.0026 9.3175 37.9343 9.09238 37.7977 8.95384C37.6611 8.8153 37.4658 8.74603 37.2118 8.74603C37.0386 8.74603 36.8847 8.78162 36.75 8.85282C36.6153 8.92401 36.5056 9.03658 36.4209 9.19051H36.4094V8.82684H35.6474ZM39.1167 10.9165H38.4009V11.0262C38.4009 11.1763 38.4182 11.3119 38.4529 11.4331C38.4875 11.5544 38.5481 11.6573 38.6347 11.742C38.7213 11.8266 38.8387 11.8901 38.9868 11.9325C39.135 11.9748 39.3207 11.996 39.5439 11.996C39.7132 11.996 39.8681 11.9786 40.0086 11.944C40.149 11.9094 40.2703 11.8516 40.3722 11.7708C40.4742 11.69 40.5541 11.589 40.6118 11.4678C40.6695 11.3465 40.6984 11.2032 40.6984 11.0377C40.6984 10.803 40.6464 10.6173 40.5425 10.4807C40.4386 10.3441 40.2616 10.2334 40.0115 10.1487L39.5323 9.98712C39.3976 9.94479 39.3062 9.89283 39.2581 9.83126C39.21 9.76969 39.186 9.70042 39.186 9.62345C39.186 9.51185 39.2235 9.42815 39.2985 9.37234C39.3736 9.31654 39.4611 9.28864 39.5612 9.28864C39.692 9.28864 39.7834 9.32616 39.8354 9.40121C39.8873 9.47625 39.9133 9.59459 39.9133 9.75622H40.6291V9.62922C40.6291 9.34829 40.5425 9.13086 40.3693 8.97693C40.1962 8.82299 39.9287 8.74603 39.567 8.74603C39.363 8.74603 39.1889 8.77104 39.0446 8.82107C38.9002 8.8711 38.7819 8.93844 38.6895 9.02311C38.5972 9.10777 38.5298 9.20686 38.4875 9.32039C38.4452 9.43392 38.424 9.55418 38.424 9.68117C38.424 9.90053 38.4798 10.0804 38.5914 10.2209C38.703 10.3614 38.8685 10.4701 39.0878 10.5471L39.6478 10.7491C39.7247 10.7799 39.7921 10.8212 39.8498 10.8732C39.9075 10.9252 39.9364 11.0012 39.9364 11.1012C39.9364 11.2244 39.8999 11.3167 39.8267 11.3783C39.7536 11.4399 39.6555 11.4707 39.5323 11.4707C39.3976 11.4707 39.2947 11.4293 39.2235 11.3465C39.1523 11.2638 39.1167 11.1551 39.1167 11.0204V10.9165ZM41.2699 9.36946V11.9325H42.0665V9.36946H42.5283V8.82684H42.0665V8.55553C42.0665 8.46702 42.0896 8.40352 42.1357 8.36504C42.1819 8.32656 42.2608 8.30731 42.3724 8.30731H42.4475C42.4821 8.30731 42.509 8.30924 42.5283 8.31309V7.74738C42.3859 7.73583 42.2435 7.73006 42.1011 7.73006C41.9741 7.73006 41.8587 7.74257 41.7548 7.76758C41.6508 7.7926 41.5633 7.83397 41.4921 7.89169C41.4209 7.94942 41.3661 8.02638 41.3276 8.12259C41.2891 8.2188 41.2699 8.33618 41.2699 8.47472V8.82684H40.8658V9.36946H41.2699ZM25.2915 10.0275H24.4776V9.9063C24.4776 9.83318 24.4843 9.76007 24.4978 9.68695C24.5113 9.61383 24.5334 9.54744 24.5642 9.48779C24.595 9.42815 24.6363 9.38004 24.6883 9.34348C24.7402 9.30692 24.8066 9.28864 24.8874 9.28864C24.9683 9.28864 25.0346 9.305 25.0866 9.33771C25.1385 9.37042 25.179 9.41852 25.2078 9.48202C25.2367 9.54552 25.2569 9.62249 25.2684 9.71292C25.28 9.80336 25.2877 9.90823 25.2915 10.0275ZM43.4865 10.5009H45.0624V10.3219C45.0624 10.0833 45.047 9.86686 45.0162 9.67252C44.9854 9.47817 44.9277 9.3127 44.8431 9.17608C44.7584 9.03946 44.642 8.93363 44.4938 8.85859C44.3457 8.78355 44.1561 8.74603 43.9252 8.74603C43.6558 8.74603 43.4403 8.79028 43.2787 8.87879C43.1171 8.96731 42.993 9.0866 42.9064 9.23669C42.8198 9.38678 42.7621 9.55803 42.7332 9.75044C42.7043 9.94286 42.6899 10.143 42.6899 10.3508C42.6899 10.5471 42.6986 10.7433 42.7159 10.9396C42.7332 11.1359 42.7803 11.3129 42.8573 11.4707C42.9343 11.6284 43.0536 11.7554 43.2152 11.8516C43.3768 11.9479 43.602 11.996 43.8906 11.996C44.2716 11.996 44.5506 11.9017 44.7276 11.7131C44.9046 11.5245 45.0008 11.2494 45.0162 10.8876H44.3004C44.2773 11.0839 44.235 11.2301 44.1734 11.3263C44.1119 11.4226 44.0137 11.4707 43.879 11.4707C43.8059 11.4707 43.7443 11.4505 43.6943 11.41C43.6443 11.3696 43.6039 11.3158 43.5731 11.2484C43.5423 11.1811 43.5202 11.1041 43.5067 11.0175C43.4932 10.9309 43.4865 10.8415 43.4865 10.7491V10.5009ZM44.3004 10.0275H43.4865V9.9063C43.4865 9.83318 43.4932 9.76007 43.5067 9.68695C43.5202 9.61383 43.5423 9.54744 43.5731 9.48779C43.6039 9.42815 43.6453 9.38004 43.6972 9.34348C43.7492 9.30692 43.8155 9.28864 43.8964 9.28864C43.9772 9.28864 44.0436 9.305 44.0955 9.33771C44.1475 9.37042 44.1879 9.41852 44.2167 9.48202C44.2456 9.54552 44.2658 9.62249 44.2773 9.71292C44.2889 9.80336 44.2966 9.90823 44.3004 10.0275ZM45.478 8.82684V11.9325H46.2746V10.0679C46.2746 9.96403 46.292 9.87648 46.3266 9.80528C46.3612 9.73409 46.4074 9.67636 46.4651 9.63211C46.5229 9.58785 46.5864 9.5561 46.6556 9.53686C46.7249 9.51762 46.7942 9.508 46.8634 9.508C46.9058 9.508 46.9471 9.50896 46.9875 9.51089C47.028 9.51281 47.0693 9.5157 47.1117 9.51954V8.75757C47.0886 8.75372 47.0645 8.75084 47.0395 8.74891C47.0145 8.74699 46.9904 8.74603 46.9673 8.74603C46.8019 8.74603 46.6614 8.79124 46.5459 8.88168C46.4305 8.97212 46.3324 9.09238 46.2515 9.24246H46.24V8.82684H45.478Z" fill="white"/>
<path d="M19.8318 18.1793C19.8318 19.0925 19.0912 19.8318 18.1794 19.8318H1.65309C0.739902 19.8318 0 19.0925 0 18.1793V1.65244C0 0.739277 0.739902 0 1.65309 0H18.1794C19.0912 0 19.8318 0.739277 19.8318 1.65244V18.1793ZM11.0554 10.1435L12.0206 9.91419L12.0197 7.94807C12.0197 7.49637 12.1896 7.20077 12.5265 7.06492C12.7974 6.95455 13.0045 6.96335 13.0045 6.96335V6.05473C13.0045 6.05473 12.9195 6.02895 12.7506 6.07204C12.2024 6.21478 11.9664 6.82848 11.9664 6.82848V6.36207L11.0538 6.58221L11.0554 10.1435ZM6.15006 11.3139L7.19669 11.0635C7.19669 11.0635 6.98091 10.9064 6.98091 10.0872C6.97994 9.73476 6.98091 8.28507 6.98091 8.28507L7.67264 8.11942V7.39149L6.98091 7.55677V6.76232L6.00154 6.99506V7.78951L5.5269 7.90265V8.63158L6.00091 8.51814V10.288C6.00091 11.0876 6.15006 11.3139 6.15006 11.3139ZM7.80268 9.19992C7.80268 10.2312 8.1127 10.9464 9.274 10.6683C10.5 10.3766 10.5979 9.53385 10.6059 9.19409C10.6069 9.11295 10.605 9.03997 10.605 9.03997L9.7225 9.25313C9.7225 9.25313 9.72087 9.35666 9.71638 9.3982C9.69093 9.65099 9.60079 9.85608 9.27623 9.92487C8.90085 10.0053 8.77624 9.72203 8.77624 9.12432V9.09351L10.6594 8.64763C10.6594 8.64763 10.6581 8.49837 10.6632 8.19267C10.6784 7.33798 10.293 6.70029 9.22407 6.94531C8.68161 7.06959 8.30909 7.34183 8.08246 7.75981C7.89153 8.11221 7.80268 8.57072 7.80268 9.19992ZM9.26306 7.60405C9.60947 7.52455 9.72796 7.72799 9.72955 8.11352C9.72955 8.19331 9.72955 8.24461 9.72796 8.26764L8.78043 8.49512C8.78756 7.9837 8.95108 7.67542 9.26306 7.60405ZM16.3887 7.10882C16.4261 8.22561 16.6653 8.93733 17.8852 8.64857C18.7716 8.44087 19.244 7.87062 19.2466 6.96641C19.2466 6.88895 19.2457 6.8184 19.2457 6.8184L18.304 7.04247C18.304 7.04247 18.302 7.18163 18.3013 7.2253C18.2955 7.50184 18.2467 7.81781 17.8901 7.89195C17.4794 7.9789 17.3857 7.66296 17.3857 6.97325C17.3857 6.94078 17.3844 6.89779 17.3844 6.65664C17.3844 5.97781 17.5285 5.63659 17.8852 5.54635C18.1852 5.47055 18.2994 5.62872 18.2991 6.04537C18.2991 6.04934 18.2994 6.17795 18.2994 6.17795L19.2434 5.95192L19.2424 5.88693C19.2424 5.53587 19.1874 5.28519 19.0455 5.09915C18.8978 4.90461 18.6063 4.70315 17.837 4.87935C16.6317 5.15427 16.3519 6.01913 16.3887 7.10882ZM13.0695 8.64069C13.0695 9.24831 13.4481 9.69053 14.1621 9.52222C14.8418 9.36209 15.0388 8.86523 15.0388 8.86523C15.0757 9.01497 15.16 9.18919 15.16 9.18919L16.0605 8.97572C16.0605 8.97572 15.9191 8.86429 15.9191 8.10071V6.52235C15.9175 5.8556 15.5918 5.42743 14.6165 5.65231C13.8658 5.82619 13.4304 6.15824 13.2838 6.65182C13.2057 6.91131 13.2204 7.19437 13.2204 7.19437L14.1376 6.97767C14.1376 6.97767 14.1347 6.88777 14.1435 6.79463C14.1595 6.6214 14.2388 6.40405 14.5381 6.32824C14.8637 6.2452 14.9552 6.41486 14.9516 6.61258C14.9486 6.84826 14.9349 6.9826 14.281 7.25319C13.5536 7.55425 13.0695 7.81539 13.0695 8.64069ZM14.9457 7.51369V8.01021C14.9457 8.38803 14.7432 8.66031 14.4515 8.73353C14.1801 8.8012 14.0301 8.64231 14.0301 8.40079C14.0301 8.12233 14.1664 7.94122 14.4662 7.79415C14.7582 7.65195 14.9457 7.51369 14.9457 7.51369ZM1.01674 13.7847C1.05564 13.7847 1.09519 13.7808 1.13216 13.7718C1.20642 13.7561 1.56481 13.6711 1.86476 13.5961L1.88565 13.5911V12.5493L0.562533 12.873L0.55194 12.8757L0.545828 12.8837C0.486343 12.9794 0.455156 13.0884 0.455156 13.2014C0.455156 13.5234 0.707171 13.7847 1.01674 13.7847ZM1.01674 15.1502C1.05564 15.1502 1.09519 15.1466 1.13216 15.1389C1.20642 15.1239 1.56481 15.0375 1.86476 14.9628L1.88565 14.9571V13.9148L0.562533 14.2389L0.55194 14.2412L0.545828 14.2516C0.486343 14.3449 0.455156 14.4539 0.455156 14.5684C0.455156 14.8898 0.707171 15.1502 1.01674 15.1502ZM1.01674 16.4506C1.05564 16.4506 1.09519 16.4463 1.13216 16.439C1.19609 16.424 1.54811 16.3416 1.86476 16.2623L1.88565 16.257V15.2152L0.55194 15.5409L0.545828 15.5515C0.486343 15.6445 0.455156 15.7541 0.455156 15.8681C0.455156 16.1897 0.707171 16.4506 1.01674 16.4506ZM0.845629 12.5493L1.88565 12.3045V6.63228L0.84529 6.87683L0.845629 12.5493ZM3.43689 12.0823C3.43689 11.7305 3.14748 11.4439 2.79183 11.4439C2.43417 11.4439 2.14574 11.7305 2.14574 12.0823L2.14638 17.3877C2.14638 18.3399 2.93058 19.1166 3.89364 19.1166C4.38219 19.1166 5.7206 19.1143 5.7206 19.1143L5.72128 16.901C5.72162 15.6917 5.72196 14.4608 5.72196 14.4329C5.72196 14.1528 5.58215 13.8932 5.34658 13.7371L3.71776 12.643C3.71776 12.643 3.71742 15.0187 3.71742 15.1274C3.71742 15.2036 3.65538 15.2659 3.57829 15.2659C3.50185 15.2659 3.44018 15.2036 3.44018 15.1274C3.44018 15.1008 3.43689 12.4104 3.43689 12.0823ZM4.3461 8.10148C3.66977 8.2567 3.41355 8.81851 3.41355 8.81851V8.41686L2.47085 8.63878L2.47183 11.2046C2.58155 11.1612 2.70175 11.1373 2.8276 11.1373C3.07163 11.1373 3.29399 11.2275 3.46449 11.3772V9.72056C3.46449 9.3238 3.66353 9.00676 3.94666 8.94467C4.16016 8.89793 4.33819 8.97408 4.33819 9.35189L4.33883 11.769L5.33183 11.537V8.98033C5.33183 8.36034 5.09267 7.92762 4.3461 8.10148ZM18.6289 4.48654C18.9692 4.48654 19.2466 4.2093 19.2466 3.86929C19.2466 3.52866 18.9692 3.25112 18.6289 3.25112C18.2886 3.25112 18.0112 3.52866 18.0112 3.86929C18.0112 4.2093 18.2886 4.48654 18.6289 4.48654Z" fill="white"/>
</svg>
