<svg width="38" height="20" viewBox="0 0 38 20" fill="none" xmlns="http://www.w3.org/2000/svg">
<g clip-path="url(#clip0)">
<path d="M19.7979 19.7515C20.2229 19.4416 20.4976 18.9507 20.4976 18.3977V1.41844C20.4976 0.865487 20.2229 0.374594 19.7979 0.0646973H36.4381C37.379 0.0646973 38.1432 0.79857 38.1432 1.70506V18.1111C38.1432 19.0176 37.379 19.7515 36.4381 19.7515H19.7979ZM25.156 10.0545V9.88453C25.1544 9.52944 25.0883 9.21451 24.9577 8.93974C24.8271 8.66497 24.6442 8.45318 24.409 8.30438C24.1738 8.15558 23.9061 8.08118 23.606 8.08118C23.3027 8.08118 23.0322 8.15643 22.7945 8.30692C22.5569 8.45741 22.3744 8.67089 22.247 8.94735C22.1197 9.22381 22.056 9.54297 22.056 9.90483V10.1128C22.0625 10.4611 22.131 10.7697 22.2616 11.0386C22.3922 11.3074 22.5743 11.5141 22.8079 11.6587C23.0415 11.8033 23.3092 11.8756 23.6109 11.8756C23.9126 11.8756 24.1815 11.8008 24.4175 11.6511C24.6536 11.5015 24.8357 11.288 24.9638 11.0107C25.092 10.7334 25.156 10.4146 25.156 10.0545ZM24.2874 9.89975V10.0697C24.2857 10.4282 24.2265 10.7029 24.1097 10.894C23.9929 11.0851 23.8266 11.1806 23.6109 11.1806C23.3838 11.1806 23.2126 11.0834 23.0975 10.8889C22.9823 10.6945 22.9247 10.4163 22.9247 10.0545L22.9271 9.78308C22.9515 9.11348 23.1778 8.77868 23.606 8.77868C23.825 8.77868 23.9933 8.8738 24.1109 9.06402C24.2285 9.25425 24.2874 9.53282 24.2874 9.89975ZM26.3119 9.08051H25.5429V11.8248H26.363V9.88707C26.4408 9.75518 26.5601 9.68923 26.7207 9.68923C26.8618 9.68923 26.9591 9.72178 27.0127 9.78688C27.0662 9.85198 27.093 9.95386 27.093 10.0925V11.8248H27.9154V10.057C27.9106 9.71375 27.8404 9.45674 27.7049 9.28595C27.5695 9.11517 27.3647 9.02978 27.0905 9.02978C26.771 9.02978 26.5203 9.15406 26.3386 9.40263L26.3119 9.08051ZM29.2343 11.8248V7.929H28.4118V11.8248H29.2343ZM30.6042 11.8248V9.08051H29.7818V11.8248H30.6042ZM29.7331 8.37286C29.7331 8.49461 29.7753 8.59437 29.8596 8.67216C29.944 8.74994 30.0535 8.78883 30.1881 8.78883C30.3228 8.78883 30.4323 8.74994 30.5166 8.67216C30.601 8.59437 30.6432 8.49461 30.6432 8.37286C30.6432 8.25112 30.601 8.15136 30.5166 8.07358C30.4323 7.99579 30.3228 7.9569 30.1881 7.9569C30.0535 7.9569 29.944 7.99579 29.8596 8.07358C29.7753 8.15136 29.7331 8.25112 29.7331 8.37286ZM31.8623 9.08051H31.0933V11.8248H31.9134V9.88707C31.9912 9.75518 32.1105 9.68923 32.2711 9.68923C32.4122 9.68923 32.5095 9.72178 32.563 9.78688C32.6166 9.85198 32.6433 9.95386 32.6433 10.0925V11.8248H33.4658V10.057C33.4609 9.71375 33.3908 9.45674 33.2553 9.28595C33.1199 9.11517 32.9151 9.02978 32.6409 9.02978C32.3213 9.02978 32.0707 9.15406 31.889 9.40263L31.8623 9.08051ZM35.1935 11.8756C35.4092 11.8756 35.6108 11.832 35.7981 11.745C35.9855 11.6579 36.1303 11.5408 36.2325 11.3937L35.8578 10.9321C35.7118 11.1214 35.509 11.2161 35.2494 11.2161C35.0921 11.2161 34.9639 11.1722 34.865 11.0842C34.766 10.9963 34.7019 10.8754 34.6727 10.7215H36.303V10.3893C36.303 9.96147 36.196 9.62794 35.9819 9.38868C35.7677 9.14941 35.4757 9.02978 35.1059 9.02978C34.8431 9.02978 34.616 9.08854 34.4245 9.20606C34.2331 9.32358 34.0875 9.48971 33.9878 9.70445C33.888 9.9192 33.8381 10.1669 33.8381 10.4476V10.5186C33.8381 10.9211 33.963 11.2478 34.2128 11.4989C34.4627 11.75 34.7895 11.8756 35.1935 11.8756ZM35.101 9.68923C35.2308 9.68923 35.3305 9.72686 35.4003 9.8021C35.47 9.87735 35.5033 9.98345 35.5001 10.1204V10.1864H34.6727C34.7181 9.85494 34.8609 9.68923 35.101 9.68923Z" fill="white"/>
<path d="M19.8318 18.1793C19.8318 19.0925 19.0912 19.8318 18.1794 19.8318H1.65309C0.739902 19.8318 0 19.0925 0 18.1793V1.65244C0 0.739277 0.739902 0 1.65309 0H18.1794C19.0912 0 19.8318 0.739277 19.8318 1.65244V18.1793ZM11.0554 10.1435L12.0206 9.91419L12.0197 7.94807C12.0197 7.49637 12.1896 7.20077 12.5265 7.06492C12.7974 6.95455 13.0045 6.96335 13.0045 6.96335V6.05473C13.0045 6.05473 12.9195 6.02895 12.7506 6.07204C12.2024 6.21478 11.9664 6.82848 11.9664 6.82848V6.36207L11.0538 6.58221L11.0554 10.1435ZM6.15006 11.3139L7.19669 11.0635C7.19669 11.0635 6.98091 10.9064 6.98091 10.0872C6.97994 9.73476 6.98091 8.28507 6.98091 8.28507L7.67264 8.11942V7.39149L6.98091 7.55677V6.76232L6.00154 6.99506V7.78951L5.5269 7.90265V8.63158L6.00091 8.51814V10.288C6.00091 11.0876 6.15006 11.3139 6.15006 11.3139ZM7.80268 9.19992C7.80268 10.2312 8.1127 10.9464 9.274 10.6683C10.5 10.3766 10.5979 9.53385 10.6059 9.19409C10.6069 9.11295 10.605 9.03997 10.605 9.03997L9.7225 9.25313C9.7225 9.25313 9.72087 9.35666 9.71638 9.3982C9.69093 9.65099 9.60079 9.85608 9.27623 9.92487C8.90085 10.0053 8.77624 9.72203 8.77624 9.12432V9.09351L10.6594 8.64763C10.6594 8.64763 10.6581 8.49837 10.6632 8.19267C10.6784 7.33798 10.293 6.70029 9.22407 6.94531C8.68161 7.06959 8.30909 7.34183 8.08246 7.75981C7.89153 8.11221 7.80268 8.57072 7.80268 9.19992ZM9.26306 7.60405C9.60947 7.52455 9.72796 7.72799 9.72955 8.11352C9.72955 8.19331 9.72955 8.24461 9.72796 8.26764L8.78043 8.49512C8.78756 7.9837 8.95108 7.67542 9.26306 7.60405ZM16.3887 7.10882C16.4261 8.22561 16.6653 8.93733 17.8852 8.64857C18.7716 8.44087 19.244 7.87062 19.2466 6.96641C19.2466 6.88895 19.2457 6.8184 19.2457 6.8184L18.304 7.04247C18.304 7.04247 18.302 7.18163 18.3013 7.2253C18.2955 7.50184 18.2467 7.81781 17.8901 7.89195C17.4794 7.9789 17.3857 7.66296 17.3857 6.97325C17.3857 6.94078 17.3844 6.89779 17.3844 6.65664C17.3844 5.97781 17.5285 5.63659 17.8852 5.54635C18.1852 5.47055 18.2994 5.62872 18.2991 6.04537C18.2991 6.04934 18.2994 6.17795 18.2994 6.17795L19.2434 5.95192L19.2424 5.88693C19.2424 5.53587 19.1874 5.28519 19.0455 5.09915C18.8978 4.90461 18.6063 4.70315 17.837 4.87935C16.6317 5.15427 16.3519 6.01913 16.3887 7.10882ZM13.0695 8.64069C13.0695 9.24831 13.4481 9.69053 14.1621 9.52222C14.8418 9.36209 15.0388 8.86523 15.0388 8.86523C15.0757 9.01497 15.16 9.18919 15.16 9.18919L16.0605 8.97572C16.0605 8.97572 15.9191 8.86429 15.9191 8.10071V6.52235C15.9175 5.8556 15.5918 5.42743 14.6165 5.65231C13.8658 5.82619 13.4304 6.15824 13.2838 6.65182C13.2057 6.91131 13.2204 7.19437 13.2204 7.19437L14.1376 6.97767C14.1376 6.97767 14.1347 6.88777 14.1435 6.79463C14.1595 6.6214 14.2388 6.40405 14.5381 6.32824C14.8637 6.2452 14.9552 6.41486 14.9516 6.61258C14.9486 6.84826 14.9349 6.9826 14.281 7.25319C13.5536 7.55425 13.0695 7.81539 13.0695 8.64069ZM14.9457 7.51369V8.01021C14.9457 8.38803 14.7432 8.66031 14.4515 8.73353C14.1801 8.8012 14.0301 8.64231 14.0301 8.40079C14.0301 8.12233 14.1664 7.94122 14.4662 7.79415C14.7582 7.65195 14.9457 7.51369 14.9457 7.51369ZM1.01674 13.7847C1.05564 13.7847 1.09519 13.7808 1.13216 13.7718C1.20642 13.7561 1.56481 13.6711 1.86476 13.5961L1.88565 13.5911V12.5493L0.562533 12.873L0.55194 12.8757L0.545828 12.8837C0.486343 12.9794 0.455156 13.0884 0.455156 13.2014C0.455156 13.5234 0.707171 13.7847 1.01674 13.7847ZM1.01674 15.1502C1.05564 15.1502 1.09519 15.1466 1.13216 15.1389C1.20642 15.1239 1.56481 15.0375 1.86476 14.9628L1.88565 14.9571V13.9148L0.562533 14.2389L0.55194 14.2412L0.545828 14.2516C0.486343 14.3449 0.455156 14.4539 0.455156 14.5684C0.455156 14.8898 0.707171 15.1502 1.01674 15.1502ZM1.01674 16.4506C1.05564 16.4506 1.09519 16.4463 1.13216 16.439C1.19609 16.424 1.54811 16.3416 1.86476 16.2623L1.88565 16.257V15.2152L0.55194 15.5409L0.545828 15.5515C0.486343 15.6445 0.455156 15.7541 0.455156 15.8681C0.455156 16.1897 0.707171 16.4506 1.01674 16.4506ZM0.845629 12.5493L1.88565 12.3045V6.63228L0.84529 6.87683L0.845629 12.5493ZM3.43689 12.0823C3.43689 11.7305 3.14748 11.4439 2.79183 11.4439C2.43417 11.4439 2.14574 11.7305 2.14574 12.0823L2.14638 17.3877C2.14638 18.3399 2.93058 19.1166 3.89364 19.1166C4.38219 19.1166 5.7206 19.1143 5.7206 19.1143L5.72128 16.901C5.72162 15.6917 5.72196 14.4608 5.72196 14.4329C5.72196 14.1528 5.58215 13.8932 5.34658 13.7371L3.71776 12.643C3.71776 12.643 3.71742 15.0187 3.71742 15.1274C3.71742 15.2036 3.65538 15.2659 3.57829 15.2659C3.50185 15.2659 3.44018 15.2036 3.44018 15.1274C3.44018 15.1008 3.43689 12.4104 3.43689 12.0823ZM4.3461 8.10148C3.66977 8.2567 3.41355 8.81851 3.41355 8.81851V8.41686L2.47085 8.63878L2.47183 11.2046C2.58155 11.1612 2.70175 11.1373 2.8276 11.1373C3.07163 11.1373 3.29399 11.2275 3.46449 11.3772V9.72056C3.46449 9.3238 3.66353 9.00676 3.94666 8.94467C4.16016 8.89793 4.33819 8.97408 4.33819 9.35189L4.33883 11.769L5.33183 11.537V8.98033C5.33183 8.36034 5.09267 7.92762 4.3461 8.10148ZM18.6289 4.48654C18.9692 4.48654 19.2466 4.2093 19.2466 3.86929C19.2466 3.52866 18.9692 3.25112 18.6289 3.25112C18.2886 3.25112 18.0112 3.52866 18.0112 3.86929C18.0112 4.2093 18.2886 4.48654 18.6289 4.48654Z" fill="white"/>
</g>
<defs>
<clipPath id="clip0">
<rect width="38" height="20" fill="white"/>
</clipPath>
</defs>
</svg>
