<svg fill="none" height="59" viewBox="0 0 90 59" width="90" xmlns="http://www.w3.org/2000/svg" xmlns:xlink="http://www.w3.org/1999/xlink"><linearGradient id="a"><stop offset="0" stop-color="#f8b430"/><stop offset="1" stop-color="#ffe452"/></linearGradient><linearGradient id="b" gradientUnits="userSpaceOnUse" x1="2.47768" x2="10.3832" xlink:href="#a" y1="15.6039" y2="22.1002"/><linearGradient id="c" gradientUnits="userSpaceOnUse" x1="11.6775" x2="19.638" xlink:href="#a" y1="15.6039" y2="24.9147"/><linearGradient id="d" gradientUnits="userSpaceOnUse" x1="22.6446" x2="30.9675" xlink:href="#a" y1="15.4683" y2="24.2831"/><linearGradient id="e" gradientUnits="userSpaceOnUse" x1="33.9629" x2="41.8684" xlink:href="#a" y1="15.6039" y2="22.1002"/><linearGradient id="f" gradientUnits="userSpaceOnUse" x1="43.334" x2="51.0387" xlink:href="#a" y1="15.6039" y2="21.3011"/><linearGradient id="g" gradientUnits="userSpaceOnUse" x1="51.9164" x2="59.6208" xlink:href="#a" y1="15.6039" y2="21.3002"/><linearGradient id="h" gradientUnits="userSpaceOnUse" x1="60.7101" x2="68.6158" xlink:href="#a" y1="15.6039" y2="22.101"/><linearGradient id="i" gradientUnits="userSpaceOnUse" x1="70.7694" x2="78.821" xlink:href="#a" y1="15.6039" y2="23.9927"/><linearGradient id="j" gradientUnits="userSpaceOnUse" x1="81.9516" x2="89.979" xlink:href="#a" y1="15.6039" y2="22.9563"/><linearGradient id="k" gradientUnits="userSpaceOnUse" x1="8.86065" x2="17.1657" xlink:href="#a" y1="27.7606" y2="35.5151"/><linearGradient id="l" gradientUnits="userSpaceOnUse" x1="19.6775" x2="27.8748" xlink:href="#a" y1="27.897" y2="36.4214"/><linearGradient id="m" gradientUnits="userSpaceOnUse" x1="31.7381" x2="39.7863" xlink:href="#a" y1="27.8714" y2="35.5268"/><linearGradient id="n" gradientUnits="userSpaceOnUse" x1="42.2154" x2="50.2636" xlink:href="#a" y1="27.8714" y2="35.5268"/><linearGradient id="o" gradientUnits="userSpaceOnUse" x1="52.6425" x2="60.8901" xlink:href="#a" y1="27.7362" y2="37.2882"/><linearGradient id="p" gradientUnits="userSpaceOnUse" x1="65.1811" x2="73.2313" xlink:href="#a" y1="27.8714" y2="35.5693"/><linearGradient id="q" gradientUnits="userSpaceOnUse" x1="75.107" x2="83.1343" xlink:href="#a" y1="27.8714" y2="35.2231"/><linearGradient id="r" gradientUnits="userSpaceOnUse" x1="17.2883" x2="23.9431" xlink:href="#a" y1="1.60539" y2="9.49921"/><linearGradient id="s" gradientUnits="userSpaceOnUse" x1="29.5558" x2="36.2106" xlink:href="#a" y1="1.60539" y2="9.49865"/><linearGradient id="t" gradientUnits="userSpaceOnUse" x1="41.8234" x2="48.4783" xlink:href="#a" y1="1.60539" y2="9.49845"/><linearGradient id="u" gradientUnits="userSpaceOnUse" x1="54.0916" x2="60.7465" xlink:href="#a" y1="1.60539" y2="9.49845"/><linearGradient id="v" gradientUnits="userSpaceOnUse" x1="66.4115" x2="73.0657" xlink:href="#a" y1="1.60529" y2="9.49824"/><linearGradient id="w" gradientUnits="userSpaceOnUse" x1="65.706" x2="71.2123" xlink:href="#a" y1="1.96448" y2="5.25754"/><linearGradient id="x" gradientUnits="userSpaceOnUse" x1="35.5761" x2="45.5587" xlink:href="#a" y1="44.3119" y2="64.6421"/><linearGradient id="y" gradientUnits="userSpaceOnUse" x1="48.7468" x2="52.6436" xlink:href="#a" y1="46.7259" y2="49.3514"/><linearGradient id="z" gradientUnits="userSpaceOnUse" x1="44.7206" x2="48.8016" xlink:href="#a" y1="46.7096" y2="49.747"/><linearGradient id="A" gradientUnits="userSpaceOnUse" x1="40.7562" x2="43.8291" xlink:href="#a" y1="48.0809" y2="50.9595"/><linearGradient id="B" gradientUnits="userSpaceOnUse" x1="52.5731" x2="55.5999" xlink:href="#a" y1="48.0816" y2="50.5763"/><linearGradient id="C" gradientUnits="userSpaceOnUse" x1="37.0269" x2="40.0365" xlink:href="#a" y1="48.0952" y2="51.2356"/><linearGradient id="D" gradientUnits="userSpaceOnUse" x1="32.2956" x2="35.8274" xlink:href="#a" y1="46.7248" y2="48.6534"/><linearGradient id="E" gradientUnits="userSpaceOnUse" x1="55.7349" x2="58.9489" xlink:href="#a" y1="47.2281" y2="49.0317"/><linearGradient id="F" gradientUnits="userSpaceOnUse" x1="34.5658" x2="36.6578" xlink:href="#a" y1="48.1195" y2="48.9695"/><linearGradient id="G" gradientUnits="userSpaceOnUse" x1="35.0719" x2="35.6872" xlink:href="#a" y1="46.0942" y2="46.7831"/><path d="m.893784 24.9858v-10.8017h7.919456v2.4289h-5.13364v1.6845h5.0201v2.4281h-5.0201v1.8313h5.13364v2.4289z" fill="url(#b)"/><path d="m17.4066 24.9858-2.3478-3.6285-2.3487 3.6285h-3.287l3.7574-5.5392-3.51408-5.2625h3.28788l2.1045 3.3843 2.0891-3.3843h3.304l-3.514 5.2472 3.7574 5.5545z" fill="url(#c)"/><path d="m20.5327 19.5873c0-3.3356 2.5272-5.5878 5.8474-5.5878 2.6065 0 4.0161 1.4744 4.7119 2.8831l-2.3965 1.1501c-.3569-.8581-1.2789-1.571-2.3154-1.571-1.7664 0-3.0138 1.3439-3.0138 3.1256 0 1.7648 1.2474 3.1248 3.0138 3.1248 1.0365 0 1.9585-.712 2.3154-1.5701l2.3965 1.1338c-.6958 1.3763-2.1054 2.8985-4.7119 2.8985-3.3202 0-5.8474-2.2667-5.8474-5.587z" fill="url(#d)"/><path d="m32.379 24.9858v-10.8017h7.9195v2.4289h-5.1337v1.6845h5.021v2.4281h-5.021v1.8313h5.1337v2.4289z" fill="url(#e)"/><path d="m41.9087 24.9858v-10.8017h2.7858v8.3728h4.3405v2.4289z" fill="url(#f)"/><path d="m50.4913 24.9858v-10.8017h2.7849v8.3728h4.3405v2.4289z" fill="url(#g)"/><path d="m59.1261 24.9858v-10.8017h7.9203v2.4289h-5.1345v1.6845h5.0201v2.4281h-5.0201v1.8313h5.1345v2.4289z" fill="url(#h)"/><path d="m76.1129 24.9858-4.5659-6.2512v6.2512h-2.7858v-10.8017h2.8661l4.3738 5.943v-5.943h2.8012v10.8017z" fill="url(#i)"/><path d="m83.2153 24.9858v-8.3728h-3.0291v-2.4289h8.827v2.4289h-3.0129v8.3728z" fill="url(#j)"/><path d="m7.00151 35.7356 1.47274-2.1694c.77777.777 1.97645 1.4241 3.46705 1.4241.9375 0 1.5214-.3227 1.5214-.8572 0-1.4257-6.10518-.2441-6.10518-4.4062 0-1.8134 1.52225-3.433 4.29098-3.433 1.7323 0 3.2392.5183 4.39 1.5069l-1.5231 2.0883c-.9067-.7615-2.0891-1.1329-3.158-1.1329-.8102 0-1.1663.2749-1.1663.7453 0 1.3268 6.1061.3227 6.1061 4.3397 0 2.1702-1.6042 3.6114-4.5027 3.6114-2.18648 0-3.70872-.6959-4.79299-1.717z" fill="url(#k)"/><path d="m17.637 32.8813v-6.4296h2.8345v6.3314c0 1.2798.777 2.2027 2.283 2.2027 1.4898 0 2.2676-.9229 2.2676-2.2027v-6.3314h2.8174v6.4125c0 2.6885-1.6196 4.5838-5.085 4.5838s-5.1175-1.9115-5.1175-4.5667z" fill="url(#l)"/><path d="m36.2379 30.0468c0-.7453-.5994-1.1662-1.3438-1.1662h-2.2027v2.3154h2.2027c.7444 0 1.3438-.4209 1.3438-1.1492zm-6.3332 7.2066v-10.8017h5.4103c2.4289 0 3.7565 1.6349 3.7565 3.5951 0 1.944-1.3276 3.579-3.7565 3.579h-2.6236v3.6276z" fill="url(#m)"/><path d="m46.7143 30.0468c0-.7453-.5993-1.1662-1.3429-1.1662h-2.2027v2.3154h2.2027c.7436 0 1.3429-.4209 1.3429-1.1492zm-6.3323 7.2066v-10.8017h5.4103c2.4289 0 3.7565 1.6349 3.7565 3.5951 0 1.944-1.3276 3.579-3.7565 3.579h-2.6236v3.6276z" fill="url(#n)"/><path d="m59.0465 31.8543c0-1.7656-1.1508-3.1247-2.9318-3.1247-1.7818 0-2.9471 1.3591-2.9471 3.1247 0 1.7494 1.1653 3.1256 2.9471 3.1256 1.781 0 2.9318-1.3762 2.9318-3.1256zm-8.7134 0c0-3.2869 2.4784-5.587 5.7816-5.587s5.7654 2.3001 5.7654 5.587c0 3.2887-2.4622 5.5879-5.7654 5.5879s-5.7816-2.2992-5.7816-5.5879z" fill="url(#o)"/><path d="m69.6703 30.0306c0-.7445-.5993-1.15-1.3438-1.15h-2.2018v2.3154h2.2018c.7445 0 1.3438-.4047 1.3438-1.1654zm-.3065 7.2228-1.8151-3.6276h-1.424v3.6276h-2.7867v-10.8017h5.4094c2.3965 0 3.7565 1.5871 3.7565 3.5951 0 1.8783-1.1329 2.8823-2.1531 3.2392l2.2026 3.9674z" fill="url(#p)"/><path d="m76.3709 37.2534v-8.3728h-3.0291v-2.4289h8.8261v2.4289h-3.0129v8.3728z" fill="url(#q)"/><g clip-rule="evenodd" fill-rule="evenodd"><path d="m18.1664 3.18903s.4499-.03415.6079-.30137c.1571-.26637 1.0279-2.300023 1.0279-2.300023s.344-.360285.6924-.037565c.2791.258688 1.0467 2.271848 1.0467 2.271848s.1349.32272.4952.35601c.3602.0333 2.498.26723 2.498.26723s.5994.24844.3603.65654c-.1161.19807-1.9807 1.87058-1.9807 1.87058s-.2245.31077-.1571.5447c.0675.23393.5285 2.21549.5285 2.21549s.0341.40127-.1349.57885c-.169.17844-.2706.18954-.5293.10074-.2587-.08964-2.2164-1.31393-2.2164-1.31393s-.2254-.09989-.4277.0111-2.1148 1.23539-2.1148 1.23539-.6864.40041-.8324-.27833c-.023-.52335.4721-2.05926.4721-2.05926s.2032-.69069-.1015-1.00145c-.3031-.31248-1.857-1.7374-1.857-1.7374s-.4268-.467.0683-.75643c.5063-.17843 2.5545-.32272 2.5545-.32272z" fill="url(#r)"/><path d="m30.4338 3.18903s.4499-.03415.607-.30137c.1579-.26637 1.0288-2.300023 1.0288-2.300023s.344-.360285.6924-.037565c.2791.258688 1.0467 2.271848 1.0467 2.271848s.1349.32272.4951.35601c.3603.0333 2.4973.26723 2.4973.26723s.6002.24844.3603.65654c-.1153.19807-1.9799 1.87058-1.9799 1.87058s-.2254.31077-.1579.5447c.0683.23393.5293 2.21549.5293 2.21549s.0342.40127-.1357.57885c-.1682.17844-.2698.18954-.5285.10074-.2579-.08964-2.2164-1.31393-2.2164-1.31393s-.2254-.09989-.4268.0111c-.2032.11099-2.1157 1.23539-2.1157 1.23539s-.6872.40041-.8332-.27833c-.0222-.52335.4729-2.05926.4729-2.05926s.2024-.69069-.1015-1.00145c-.3031-.31248-1.8561-1.7374-1.8561-1.7374s-.4277-.467.0674-.75643c.5063-.17843 2.5545-.32272 2.5545-.32272z" fill="url(#s)"/><path d="m42.7006 3.18903s.4508-.03415.6079-.30137c.1579-.26637 1.0279-2.300023 1.0279-2.300023s.3449-.360285.6932-.037565c.2792.258688 1.0459 2.271848 1.0459 2.271848s.1357.32272.496.35601c.3595.0333 2.4973.26723 2.4973.26723s.5993.24844.3603.65654c-.1161.19807-1.9799 1.87058-1.9799 1.87058s-.2254.31077-.1579.5447c.0674.23393.5284 2.21549.5284 2.21549s.0342.40127-.1349.57885c-.1682.17844-.2698.18954-.5285.10074-.2586-.08964-2.2172-1.31393-2.2172-1.31393s-.2245-.09989-.4268.0111c-.2024.11099-2.1148 1.23539-2.1148 1.23539s-.6873.40041-.8333-.27833c-.0222-.52335.473-2.05926.473-2.05926s.2024-.69069-.1016-1.00145c-.3039-.31248-1.856-1.7374-1.856-1.7374s-.4278-.467.0674-.75643c.5063-.17843 2.5536-.32272 2.5536-.32272z" fill="url(#t)"/><path d="m54.9688 3.18903s.4499-.03415.6079-.30137c.1579-.26637 1.0279-2.300023 1.0279-2.300023s.3441-.360285.6933-.037565c.2791.258688 1.0458 2.271848 1.0458 2.271848s.1349.32272.4952.35601c.3603.0333 2.4981.26723 2.4981.26723s.5993.24844.3603.65654c-.1162.19807-1.9799 1.87058-1.9799 1.87058s-.2254.31077-.158.5447c.0675.23393.5285 2.21549.5285 2.21549s.0342.40127-.1349.57885c-.1682.17844-.2698.18954-.5284.10074-.2587-.08964-2.2164-1.31393-2.2164-1.31393s-.2254-.09989-.4277.0111c-.2024.11099-2.1148 1.23539-2.1148 1.23539s-.6873.40041-.8333-.27833c-.0222-.52335.473-2.05926.473-2.05926s.2023-.69069-.1016-1.00145c-.3039-.31248-1.856-1.7374-1.856-1.7374s-.4278-.467.0674-.75643c.5063-.17843 2.5536-.32272 2.5536-.32272z" fill="url(#u)"/></g><path d="m69.3053.415771c-.2169 0-.3808.171606-.3808.171606s-.8709 2.033653-1.028 2.300023c-.1579.26722-.6078.30137-.6078.30137s-2.0473.14429-2.5536.32272c-.4952.28943-.0674.75643-.0674.75643s1.5521 1.42492 1.8552 1.7374c.3048.31076.1024 1.00145.1024 1.00145s-.4952 1.53591-.473 2.05927c.0675.31162.2476.39614.4235.39614.2075 0 .4089-.11782.4089-.11782s1.9133-1.1244 2.1157-1.23539c.0717-.04012.1477-.05293.2143-.05293.1203 0 .2134.04183.2134.04183s1.9577 1.22429 2.2164 1.31394c.1015.03415.1792.05378.2458.05378.1025 0 .1802-.0461.2826-.15453.1691-.17758.1349-.57884.1349-.57884s-.461-1.98157-.5285-2.2155c-.0674-.23393.1571-.5447.1571-.5447s1.8646-1.67251 1.9807-1.87058c.2391-.4081-.3602-.65654-.3602-.65654s-2.1378-.23393-2.4981-.26723c-.3595-.03329-.4952-.35601-.4952-.35601s-.7667-2.01316-1.0459-2.271849c-.1075-.099889-.2151-.13404-.3124-.13404zm-.0017.507986c.169.249293.595 1.240513.9169 2.083163.0913.21857.3833.6019.8939.64971.3167.02903 2.0029.21259 2.405.25698.0051.00256.0102.00598.0154.01025-.2766.2843-1.0868 1.03219-1.8194 1.68958l-.0375.03415-.0316.04269c-.0846.11697-.3526.53445-.2288.96048.0461.15965.3278 1.35662.5122 2.1489.0009.06233-.0034.13319-.0051.16478-.0051-.00171-.0094-.00342-.0154-.00427-.1759-.07257-1.22-.7035-2.1258-1.27039l-.0291-.01793-.0307-.01366c-.0435-.01964-.2032-.08281-.4089-.08281-.1606 0-.3108.03756-.4457.11184-.2075.11355-2.0499 1.19697-2.1225 1.23965-.0256.01452-.0708.0333-.1127.0444.0248-.36541.269-1.25673.4534-1.82875.0461-.1605.257-.98523-.2186-1.47358-.2919-.29882-1.6434-1.54189-1.8509-1.73228-.0017-.0017-.0026-.00341-.0034-.00426.4405-.10075 1.5675-.21174 2.3102-.26382.117-.00853.7146-.07598.9861-.53615.1477-.25101.7616-1.66995.993-2.208673z" fill="url(#v)"/><path clip-rule="evenodd" d="m69.2822.863281v6.812969l-2.8353 1.56494.4943-2.2949-.0307-1.12525-2.0986-1.9773 2.0678-.42517 1.1261-.24332z" fill="url(#w)" fill-rule="evenodd"/><path d="m36.3848 57.8517c.2621-.1127.4201-.1716.5712-.2467 1.8364-.917 3.6694-1.8433 5.5127-2.7466.2629-.1289.5805-.2066.8725-.2074 4.5266-.0137 9.0524-.0077 13.579-.0128.385 0 .7718-.0274 1.1552-.0666.6727-.0692 1.0842-.4858 1.1508-1.168.0384-.397.064-.7974.0649-1.1961.006-2.4562.0384-4.9134-.0102-7.3688-.0308-1.5282-.3245-1.7527-1.5496-1.8791-.1588-.0153-.3202-.0085-.4807-.0085h-24.8332c-.134 0-.2681-.0051-.4013.0034-1.0313.0683-1.5128.3808-1.6341 1.0868-.0546.3134-.0836.6352-.0845.9537-.0059 2.551-.0059 5.1003 0 7.6505.0009.3184.0299.6395.0769.9545.0845.5754.3816.8742.9604.9647.2886.0453.5831.0709.8743.0735 1.1747.0085 2.3495.0017 3.5243.0042.514.0017.6454.1315.6506.6335.0034.3603.0008.7206.0008 1.0817zm-.8623-2.3478c-.9323 0-1.8108.0077-2.6885-.0034-.4798-.006-.9604-.0222-1.4368-.0701-1.0911-.1084-1.7366-.7436-1.8817-1.8424-.0495-.3696-.0786-.7436-.0794-1.1167-.006-2.4835-.0094-4.9663.0025-7.4499.0017-.4098.0572-.8247.1375-1.2277.1921-.9553.8341-1.4573 1.7587-1.6161.3672-.0623.7437-.0845 1.1159-.0845 8.3045-.0052 16.609-.006 24.9126.0017.397 0 .8025.0401 1.1893.1263.9169.2058 1.3976.7496 1.5188 1.6802.0495.3697.0803.7436.0811 1.1167.0069 2.5092.0086 5.0193-.0017 7.5293-.0017.3842-.0392.7752-.1229 1.15-.2365 1.0621-.8862 1.6247-1.9696 1.7331-.4235.0419-.8512.0692-1.2764.0701-4.4071.0051-8.8125 0-13.2187.0111-.2544.0008-.5302.0665-.7581.1792-2.102 1.0416-4.1954 2.1011-6.2922 3.1547-.6583.3304-.9895.1306-.9904-.596z" fill="url(#x)"/><path d="m48.9263 48.1911c.2989-.1861.5337-.3568.7889-.4874.753-.3825 1.7306-.041 1.7272 1.0398-.0026.8401-.0051 1.6819.0145 2.522.0077.3407-.181.3484-.432.3509-.2519.0034-.4021-.0461-.3936-.3483.0162-.5592.0034-1.121.0034-1.6811-.0008-.1195.0043-.2407-.0043-.3602-.0392-.5174-.239-.7898-.5925-.8196-.5353-.0444-1.0347.2416-1.0834.7188-.0683.6728-.0734 1.3566-.0572 2.0337.0103.391-.1451.4806-.4917.4584-.2297-.0136-.3373-.0768-.3364-.3244.0051-1.6682.0068-3.3356 0-5.0039-.0009-.3398.2203-.2962.4337-.3039.2211-.006.3953.0154.3867.3108-.0119.4798-.0042.9613 0 1.4411.0017.1383.0222.2766.0367.4533z" fill="url(#y)"/><path d="m47.5571 50.6856c.07.2442.1349.4696.1972.6856-.8631.5345-2.6048.3825-3.2997-.7146-.7812-1.2302-.6207-3.1333.3953-4.0946.5967-.5643 1.897-.7872 2.6287-.4311.0819.0392.1562.1972.1502.2937-.0111.1647-.0887.3261-.1348.4815-.3381-.0205-.6404-.0521-.9435-.053-.8324-.0034-1.2823.3168-1.4274 1.1407-.0905.5156-.1068 1.0697-.0265 1.5854.1468.9451.9152 1.3839 1.9525 1.2055.1554-.0265.3082-.0598.508-.0991z" fill="url(#z)"/><path d="m41.0772 49.1303h1.5462c-.0052-.6121-.2237-.8469-.7445-.8486-.5388-.0017-.7838.2552-.8017.8486zm-.1281.8597c.0786.4927.473.8564.9494.8811.3159.0154.6386-.0145.9511-.0691.274-.0479.3543.0913.4073.3048.0495.2023.0401.3491-.2169.4132-.7453.1852-1.4907.2655-2.1532-.199-.8905-.6258-1.0646-1.7971-.4815-2.9053.3108-.5917.8435-.8606 1.4693-.8768.5882-.0145 1.0775.2536 1.3857.7897.2569.4491.3022.9366.216 1.4292-.0171.0939-.2169.216-.3373.2211-.5592.0239-1.1201.0111-1.681.0111z" fill="url(#A)"/><path d="m54.1769 50.933c0-.3679.0085-.6992-.006-1.0287-.0034-.0717-.0948-.2041-.1349-.2007-.3355.0316-.6958.0299-.9912.164-.1357.0623-.2194.4183-.1861.6181.0264.1545.251.3389.4226.3884.2561.0752.5438.0427.8956.0589zm-1.8561-2.5715c-.0939-.6164-.0905-.6266.4474-.7351.6275-.1263 1.2729-.1818 1.7698.2954.2263.2177.4013.5832.4269.8956.0632.7812.0341 1.5709.0256 2.3564-.0017.1093-.0854.2946-.1639.315-.7675.1956-1.5419.3142-2.2949-.0691-.4397-.2228-.5558-.6258-.566-1.0655-.0103-.4294.157-.8085.5703-.9665.3628-.14.7632-.1801 1.1449-.274.163-.0393.3201-.1033.4798-.1554-.1315-.1938-.2323-.514-.4013-.5558-.3893-.0973-.8128-.0615-1.2226-.0751-.064-.0009-.1289.0196-.216.0341z" fill="url(#B)"/><path d="m36.2751 47.6937c.6736-.2595.9596-.1392 1.1312.461.1836.6395.3526 1.2832.5387 1.9227.0444.1528.1281.2937.1938.4397.0444-.0026.0888-.0043.1324-.0069.1297-.4644.2595-.928.3893-1.3924.0785-.2818.1622-.5627.2347-.8461.1887-.7325.2758-.7863 1.139-.6164-.14.3901-.2775.7701-.4133 1.15-.2962.8273-.6112 1.6486-.8768 2.4853-.111.35-.3466.3073-.5925.3099-.2493.0026-.4789.0333-.5942-.3108-.4072-1.2055-.852-2.3982-1.2823-3.596z" fill="url(#C)"/><path d="m31.7535 48.7949c0-.8145.0128-1.6273-.0059-2.4401-.0077-.3244.1434-.3688.4123-.3697.2766-.0017.4124.0564.409.374-.0145 1.3336.0068 2.6671-.0137 3.9998-.0051.3586.111.4696.4576.4466.3851-.0265.7735.0059 1.1594-.0094.292-.0103.3261.1536.315.3799-.0102.2083.047.4405-.2988.4345-.706-.0102-1.4129-.0111-2.119.0018-.2903.0051-.3201-.1503-.3184-.3783.0059-.8127.0025-1.6264.0025-2.4391z" fill="url(#D)"/><path d="m55.7725 48.4609c-.193-.0444-.3193-.0726-.543-.1238.4371-.6207.8435-1.1961 1.2482-1.7724.0367.006.0734.0119.1101.0179 0 .1733.0188.3492-.0034.5191-.0495.3842.0965.5404.4867.4918.2638-.0325.49-.0248.49.3722 0 .3586-.1204.4943-.4636.4406-.397-.0607-.5609.087-.5165.5028.0341.3159.006.6395.0068.9596.0026.8094.2288 1.0297 1.0203.9972.2774.5806.1861.7326-.4448.7454-.946.0205-1.3712-.3817-1.3891-1.3362-.0111-.5976-.0017-1.1961-.0017-1.8142z" fill="url(#E)"/><path d="m35.7271 49.6109c-.0008.5592-.0128 1.1193.0043 1.6776.0102.3279-.187.3193-.4141.3228-.2399.0042-.4098-.0171-.4038-.333.0154-.8119-.0009-1.6256.0068-2.4384.0034-.2689-.0145-.4721-.3739-.4431-.3569.0291-.2501-.2595-.2681-.4516-.0205-.2143.0316-.3645.2971-.3534.2801.0128.5601.0128.8393 0 .2535-.0111.3184.1126.315.3406-.0085.5592-.0026 1.1184-.0026 1.6785z" fill="url(#F)"/><path d="m35.7217 46.414c.0668.3419-.12.3899-.4105.4002-.336.0137-.3942-.132-.4045-.4268-.0112-.335.1328-.3959.4276-.4019.33-.0086.4422.1183.3874.4285z" fill="url(#G)"/></svg>