<svg fill="none" height="56" viewBox="0 0 97 56" width="97" xmlns="http://www.w3.org/2000/svg" xmlns:xlink="http://www.w3.org/1999/xlink"><linearGradient id="a"><stop offset="0" stop-color="#f8b430"/><stop offset="1" stop-color="#ffe452"/></linearGradient><linearGradient id="b" gradientUnits="userSpaceOnUse" x1="62.6306" x2="63.7543" xlink:href="#a" y1="47.3563" y2="48.1237"/><linearGradient id="c" gradientUnits="userSpaceOnUse" x1="43.7037" x2="44.9646" xlink:href="#a" y1="47.983" y2="48.4533"/><linearGradient id="d" gradientUnits="userSpaceOnUse" x1="53.2213" x2="54.242" xlink:href="#a" y1="49.7513" y2="50.3176"/><linearGradient id="e" gradientUnits="userSpaceOnUse" x1="53.209" x2="54.1518" xlink:href="#a" y1="47.4186" y2="47.9409"/><linearGradient id="f" gradientUnits="userSpaceOnUse" x1="30.7725" x2="34.2173" xlink:href="#a" y1="44.52" y2="62.4857"/><linearGradient id="g" gradientUnits="userSpaceOnUse" x1="28.1719" x2="29.4338" xlink:href="#a" y1="47.983" y2="48.4542"/><linearGradient id="h" gradientUnits="userSpaceOnUse" x1="22.5188" x2="28.5066" xlink:href="#a" y1="4.94694" y2="10.6415"/><linearGradient id="i" gradientUnits="userSpaceOnUse" x1="29.9549" x2="35.6866" xlink:href="#a" y1="4.94694" y2="9.18376"/><linearGradient id="j" gradientUnits="userSpaceOnUse" x1="36.2082" x2="42.098" xlink:href="#a" y1="4.94694" y2="12.0624"/><linearGradient id="k" gradientUnits="userSpaceOnUse" x1="43.7415" x2="49.6874" xlink:href="#a" y1="4.94694" y2="11.711"/><linearGradient id="l" gradientUnits="userSpaceOnUse" x1="52.1343" x2="58.0159" xlink:href="#a" y1="4.94694" y2="9.77992"/><linearGradient id="m" gradientUnits="userSpaceOnUse" x1="59.4344" x2="65.4238" xlink:href="#a" y1="4.94694" y2="10.6729"/><linearGradient id="n" gradientUnits="userSpaceOnUse" x1="66.2707" x2="68.9337" xlink:href="#a" y1="4.26231" y2="6.08297"/><linearGradient id="o" gradientUnits="userSpaceOnUse" x1="70.1348" x2="76.3131" xlink:href="#a" y1="4.84989" y2="10.6187"/><linearGradient id="p" gradientUnits="userSpaceOnUse" x1="18.9722" x2="27.5909" xlink:href="#a" y1="16.0474" y2="25.175"/><linearGradient id="q" gradientUnits="userSpaceOnUse" x1="18.9122" x2="27.6711" xlink:href="#a" y1="15.9673" y2="25.2822"/><linearGradient id="r" gradientUnits="userSpaceOnUse" x1="31.083" x2="39.4198" xlink:href="#a" y1="16.1804" y2="24.8797"/><linearGradient id="s" gradientUnits="userSpaceOnUse" x1="31.0161" x2="39.4962" xlink:href="#a" y1="16.101" y2="24.961"/><linearGradient id="t" gradientUnits="userSpaceOnUse" x1="43.3435" x2="51.8842" xlink:href="#a" y1="16.0474" y2="25.9385"/><linearGradient id="u" gradientUnits="userSpaceOnUse" x1="43.2765" x2="51.9588" xlink:href="#a" y1="15.9673" y2="26.018"/><linearGradient id="v" gradientUnits="userSpaceOnUse" x1="55.0076" x2="59.4599" xlink:href="#a" y1="16.1804" y2="17.4675"/><linearGradient id="w" gradientUnits="userSpaceOnUse" x1="54.9932" x2="59.7059" xlink:href="#a" y1="16.101" y2="17.5294"/><linearGradient id="x" gradientUnits="userSpaceOnUse" x1="61.0403" x2="69.6589" xlink:href="#a" y1="16.0474" y2="25.175"/><linearGradient id="y" gradientUnits="userSpaceOnUse" x1="60.9802" x2="69.7391" xlink:href="#a" y1="15.9673" y2="25.2822"/><linearGradient id="z" gradientUnits="userSpaceOnUse" x1="72.7612" x2="80.9472" xlink:href="#a" y1="16.1804" y2="22.9071"/><linearGradient id="A" gradientUnits="userSpaceOnUse" x1="72.694" x2="81.0307" xlink:href="#a" y1="16.101" y2="22.9924"/><linearGradient id="B" gradientUnits="userSpaceOnUse" x1="26.2666" x2="33.0096" xlink:href="#a" y1="29.7492" y2="37.0114"/><linearGradient id="C" gradientUnits="userSpaceOnUse" x1="36.0978" x2="42.3346" xlink:href="#a" y1="29.8411" y2="34.4203"/><linearGradient id="D" gradientUnits="userSpaceOnUse" x1="46.4755" x2="52.8676" xlink:href="#a" y1="29.7267" y2="34.5848"/><linearGradient id="E" gradientUnits="userSpaceOnUse" x1="54.2965" x2="60.9325" xlink:href="#a" y1="29.7475" y2="35.253"/><linearGradient id="F" gradientUnits="userSpaceOnUse" x1="61.2216" x2="65.7567" xlink:href="#a" y1="29.8411" y2="31.6702"/><linearGradient id="G" gradientUnits="userSpaceOnUse" x1="66.7432" x2="73.2869" xlink:href="#a" y1="29.7475" y2="34.8354"/><linearGradient id="H" gradientUnits="userSpaceOnUse" x1="9.82667" x2="13.3349" xlink:href="#a" y1="1.20354" y2="2.90269"/><linearGradient id="I" gradientUnits="userSpaceOnUse" x1="5.61517" x2="9.12471" xlink:href="#a" y1="5.57344" y2="7.27508"/><linearGradient id="J" gradientUnits="userSpaceOnUse" x1="2.78404" x2="6.42907" xlink:href="#a" y1="11.185" y2="13.3018"/><linearGradient id="K" gradientUnits="userSpaceOnUse" x1="4.51206" x2="30.0215" xlink:href="#a" y1="6.43612" y2="21.4053"/><linearGradient id="L" gradientUnits="userSpaceOnUse" x1="85.539" x2="89.0476" xlink:href="#a" y1="1.20354" y2="2.90317"/><linearGradient id="M" gradientUnits="userSpaceOnUse" x1="89.699" x2="93.2085" xlink:href="#a" y1="5.57344" y2="7.27499"/><linearGradient id="N" gradientUnits="userSpaceOnUse" x1="92.3432" x2="95.9879" xlink:href="#a" y1="11.185" y2="13.3012"/><linearGradient id="O" gradientUnits="userSpaceOnUse" x1="80.0661" x2="105.576" xlink:href="#a" y1="6.43295" y2="21.4021"/><path d="m63.4188 47.878c0-.2817-.0811-.4747-.2433-.578-.163-.1041-.3475-.1562-.5549-.1562-.0478 0-.0888.0017-.1204.006-.0316.0042-.0546.0068-.0666.0094v1.5982c.0248.0026.0623.0034.111.0034.3449 0 .5771-.0785.6958-.2365.1195-.1571.1784-.321.1784-.4892 0-.0307-.0008-.0495-.0017-.0572-.0017-.0085-.0017-.0145-.0017-.0196 0-.0154 0-.0282.0017-.0393.0009-.0094.0017-.0239.0017-.041z" fill="url(#b)"/><path d="m43.5319 50.2247h.8589l-.4909-2.5809z" fill="url(#c)"/><path d="m53.5235 49.6537c-.1084-.076-.2314-.1144-.3697-.1144-.0205 0-.0512.0026-.0922.0068v1.5991c.0563.0043.0956.0069.1187.0069.21 0 .3756-.0718.4969-.2152.1212-.1434.1827-.3406.1827-.5916 0-.1324-.0291-.2621-.0871-.3876-.0572-.1256-.14-.2272-.2493-.304z" fill="url(#d)"/><path d="m53.6063 48.5323c.1281-.1195.1921-.3107.1921-.572 0-.2151-.0265-.3765-.0794-.4841-.0521-.1076-.1289-.1767-.2297-.2074-.1007-.0308-.2433-.0461-.4277-.0461v1.4752c.0461.0103.0854.0154.1187.0154.1562 0 .2979-.0606.426-.181z" fill="url(#e)"/><path d="m69.8261 47.3289c-.0709.1161-.1656.2015-.2835.2579-.1178.0563-.2416.0845-.3722.0845-.2092 0-.3902-.0666-.5421-.1998-.1529-.1332-.2288-.3202-.2288-.5609.0153-.2228.1007-.397.2552-.5242.1546-.1264.3321-.1904.5311-.1904.1204 0 .2365.0273.3492.0811s.2049.1349.2757.2442c.0717.1084.1127.2382.123.3893 0 .1639-.0359.3031-.1076.4183zm-1.9918 3.9452c-.0888.1768-.2032.3313-.3407.4628-.1391.1314-.3005.2356-.4858.3133-.1852.0768-.3867.1153-.6044.1153-.3347 0-.6762-.0923-1.0237-.2767v-1.167c.2322.2322.502.3491.8094.3491.1938 0 .3594-.0529.4969-.1579.1366-.105.2126-.251.2279-.4371 0-.1366-.0401-.2638-.1204-.3825-.0811-.1187-.1681-.216-.2612-.2903s-.2117-.1605-.3552-.2587c-.1425-.099-.245-.1776-.3065-.2373-.4781-.3919-.7171-.8871-.7171-1.4864 0-.2203.0341-.4414.1033-.6642.0999-.3202.2766-.5678.5293-.7445s.5447-.2655.8743-.2655c.338 0 .6676.0913.9903.2732v1.1056c-.2971-.2433-.5694-.3646-.817-.3646-.1742 0-.3142.0555-.4209.1665-.1059.1119-.1588.2459-.1588.4021 0 .1221.0358.2391.1075.3492.0666.0999.1546.1998.263.2997s.2578.222.4482.3663c.1913.1451.3014.2305.3321.2561.146.1229.2664.2544.3629.3936.0956.1391.169.2919.2203.4567.0512.1648.0768.333.0768.5012 0 .3099-.0768.6181-.2305.922zm-4.3089.7991-1.0433-2.7661v2.7661h-1.2269v-5.9003h1.4728c.35 0 .6642.0709.9416.2118.2775.1408.4969.3423.6583.6053.1605.2621.2408.5635.2408.9041 0 .1588-.0146.3116-.0436.4585-.0299.1477-.1067.3107-.2322.49s-.3193.3543-.5831.5268l1.0433 2.7038zm-2.8354-4.7938h-1.1662v1.2294h.9818v1.168h-.9818v1.29h1.1662v1.1064h-2.3939v-5.9003h2.3939zm-2.7132 4.7938h-2.5169v-5.9003h1.1663v4.7939h1.3506zm-3.1487-.8486c-.1263.2502-.3107.4551-.5523.6122-.2416.1579-.526.2364-.8538.2364h-1.5342v-5.9003h1.5342c.082 0 .169.0128.2613.0368.0922.0247.1946.0683.309.1306.1136.0632.2194.1408.3176.2339.099.0939.1913.2058.2783.3364.0794.1084.1494.2587.2092.4516.0598.1938.0897.3859.0897.578 0 .1511-.0205.2997-.0624.4457-.0427.146-.1127.2809-.2117.4072-.0982.1247-.2288.2348-.3927.3304.1664.0734.3107.1802.4354.3168.1238.1366.2151.2902.274.4593.0589.169.088.3466.088.5336 0 .2766-.0623.5404-.1896.7914zm-4.6717.8486-.3065-4.1176-.6753 4.1176h-.9204l-.7359-4.1176-.2459 4.1176h-1.2277l.5524-5.9003h1.5342l.5524 3.6268.4909-3.6268h1.5342l.6753 5.9003zm-5.4128 0-.1844-.9835h-1.1663l-.2459.9835h-1.1653l1.3498-5.9003h1.2277l1.4112 5.9003zm-2.8943-1.9875c-.0247.1853-.0469.3159-.0649.3902-.0128.1075-.0572.274-.1323.5003-.0751.2271-.2228.4627-.4431.7094-.2194.2459-.5191.3953-.8973.4491-.1101.0128-.2083.0188-.2954.0188-.4807 0-.8811-.1468-1.2004-.4431-.3201-.2963-.5549-.677-.7043-1.1449-.1494-.467-.2246-.9622-.2246-1.4847 0-.1844.0111-.3748.0308-.572 0-.1946.0606-.4858.1801-.8759.1213-.3894.3296-.7462.6275-1.0689.298-.3245.695-.4867 1.191-.4867.1972 0 .4107.0316.6403.0956.3074.0846.5413.2288.7027.432.1613.2041.3159.491.4636.8589l-1.1048.4303c0-.1409-.0282-.2698-.0862-.3859-.0572-.117-.1332-.2057-.228-.2689-.0947-.0632-.198-.0939-.3107-.0939-.1307 0-.2545.0469-.3723.1417-.1178.0956-.2143.2356-.2911.4226-.0564.1315-.0982.3193-.1247.566-.0273.2476-.0435.4679-.0478.6634-.0085.1972-.0119.3398-.0119.4303.0051.0179.0162.1392.0324.362.0171.2245.0444.4277.0828.6113.0385.1835.1127.3492.222.4994.1102.1494.2638.2331.461.2476.1606 0 .2972-.0452.4081-.1366.111-.0905.199-.2245.2647-.4012.0649-.1768.1067-.3868.1247-.6301h-.7975v-1.1056h1.9022c.0282.1972.0419.4046.0419.6224 0 .2458-.0129.4618-.0385.6471zm-5.4171 1.9875-1.1047-2.8882v2.8882h-1.1654v-5.9003h1.1654v2.7039l.9827-2.7039h1.2268l-1.1048 2.8277 1.2277 3.0726zm-3.0197-.7991c-.0896.1768-.2032.3313-.3415.4628-.1383.1314-.2997.2356-.4849.3133-.1853.0768-.3876.1153-.6045.1153-.3347 0-.6762-.0923-1.0236-.2767v-1.167c.2322.2322.502.3491.8085.3491.1946 0 .3603-.0529.4969-.1579.1374-.105.2125-.251.2288-.4371 0-.1366-.041-.2638-.1213-.3825-.0802-.1187-.1673-.216-.2604-.2903-.0939-.0743-.2117-.1605-.3551-.2587-.1435-.099-.2451-.1776-.3074-.2373-.4781-.3919-.7171-.8871-.7171-1.4864 0-.2203.035-.4414.1041-.6642.0991-.3202.2758-.5678.5293-.7445.2528-.1767.5447-.2655.8743-.2655.3381 0 .6676.0913.9895.2732v1.1056c-.2963-.2433-.5686-.3646-.817-.3646-.1734 0-.3134.0555-.4192.1665-.1068.1119-.1597.2459-.1597.4021 0 .1221.0359.2391.1076.3492.0666.0999.1537.1998.2621.2997.1093.0999.2587.222.4491.3663.1903.1451.3013.2305.3321.2561.146.1229.2663.2544.362.3936.0956.1391.1699.2919.2202.4567.0513.1648.0769.333.0769.5012 0 .3099-.0769.6181-.2297.922zm-4.186.7991-.1844-.9835h-1.1662l-.245.9835h-1.1663l1.3498-5.9003h1.2277l1.4113 5.9003zm44.1008-9.194h-50.2563l-3.9162 6.2426 3.9162 6.241h50.2563l3.9162-6.241z" fill="url(#f)"/><path d="m28 50.2247h.8597l-.4918-2.5809z" fill="url(#g)"/><path d="m25.8652 6.56544c0-.55323-.4457-.86741-.9998-.86741h-1.6383v1.72288h1.6383c.5541 0 .9998-.31333.9998-.85547zm-4.7102 5.36156v-8.03638h4.0238c1.8065 0 2.7952 1.21746 2.7952 2.67482 0 1.44541-.9887 2.66372-2.7952 2.66372h-1.9517v2.69784z" fill="url(#h)"/><path d="m28.8949 11.927v-8.03638h2.072v6.22898h3.2281v1.8074z" fill="url(#i)"/><path d="m38.8137 5.93964-1.0245 3.02401h2.0362zm1.9756 5.98736-.3978-1.156h-3.1683l-.3987 1.156h-2.3487l3.024-8.03638h2.6142l3.024 8.03638z" fill="url(#j)"/><path d="m45.1581 11.927v-3.24083l-3.0479-4.79555h2.3376l1.7468 2.9651 1.7228-2.9651h2.3496l-3.036 4.79555v3.24083z" fill="url(#k)"/><path d="m50.9559 11.927v-8.03638h5.8918v1.80741h-3.8197v1.25331h3.7352v1.80655h-3.7352v1.36171h3.8197v1.8074z" fill="url(#l)"/><path d="m62.7745 6.55434c0-.55494-.4465-.85631-.9997-.85631h-1.6392v1.72288h1.6392c.5532 0 .9997-.30138.9997-.86657zm-.2288 5.37266-1.3498-2.69784h-1.0603v2.69784h-2.0721v-8.03638h4.0237c1.7835 0 2.7952 1.1816 2.7952 2.67482 0 1.39846-.8435 2.14464-1.6025 2.41016l1.6384 2.9514z" fill="url(#m)"/><path d="m66.7664 7.58959-.771-.6147c.3859-.1921.8914-.71033 1.0246-1.15599-.0487.02391-.1691.04781-.2775.04781-.5174 0-.9391-.397-.9391-.99975 0-.6147.5054-1.10817 1.1081-1.10817.6506 0 1.2286.50542 1.2286 1.3976 0 .97584-.5302 1.84325-1.3737 2.4332z" fill="url(#n)"/><path d="m68.7517 10.7818 1.0963-1.61361c.5788.57799 1.4701 1.05951 2.5783 1.05951.6992 0 1.1329-.24076 1.1329-.63776 0-1.06122-4.5419-.18099-4.5419-3.27757 0-1.34893 1.132-2.55358 3.1922-2.55358 1.2891 0 2.4093.38504 3.2647 1.12098l-1.1321 1.55298c-.6753-.56604-1.5546-.84265-2.3486-.84265-.6028 0-.8683.20404-.8683.55408 0 .9878 4.542.24076 4.542 3.22891 0 1.61361-1.1927 2.68681-3.3493 2.68681-1.6256 0-2.7585-.5191-3.5662-1.2781z" fill="url(#o)"/><path d="m16.7854 20.3114c0-3.4543 2.6159-5.785 6.0531-5.785 2.7005 0 4.1595 1.5256 4.881 2.9847l-2.4828 1.191c-.3679-.8888-1.325-1.6264-2.3982-1.6264-1.827 0-3.1187 1.3908-3.1187 3.2357 0 1.8279 1.2917 3.2366 3.1187 3.2366 1.0732 0 2.0303-.7385 2.3982-1.6272l2.4828 1.1747c-.7215 1.4249-2.1805 3.0027-4.881 3.0027-3.4372 0-6.0531-2.3487-6.0531-5.7868z" fill="url(#p)"/><path d="m22.8295 14.6124c-3.4517 0-5.9575 2.3931-5.9575 5.6894 0 3.2972 2.5058 5.6894 5.9575 5.6894 2.6697 0 4.0537-1.5342 4.7486-2.8609l-2.3017-1.0894c-.4363.9434-1.4275 1.594-2.4469 1.594-1.833 0-3.2152-1.4335-3.2152-3.3331 0-1.9303 1.3523-3.3322 3.2152-3.3322 1.0194 0 2.0106.6506 2.4461 1.5923l2.3042-1.1048c-.677-1.3191-2.0456-2.8447-4.7503-2.8447zm0 11.5718c-3.5627 0-6.1496-2.4733-6.1496-5.8824 0-3.4082 2.5869-5.8807 6.1496-5.8807 3.0147 0 4.4063 1.9031 4.9672 3.0386l.0435.0879-.0887.041-2.5741 1.2345-.0393-.0939c-.3816-.9229-1.331-1.5666-2.3086-1.5666-1.751 0-3.0231 1.3199-3.0231 3.1392 0 1.8194 1.2721 3.141 3.0231 3.141.9776 0 1.9261-.6455 2.3086-1.5684l.0393-.093 2.6637 1.2584-.0453.0897c-.5771 1.1406-1.9901 3.0547-4.9663 3.0547z" fill="url(#q)"/><path d="m36.5288 25.8953v-4.4942h-4.6445v4.4942h-2.884v-11.1851h2.884v4.1749h4.6445v-4.1749h2.8848v11.1851z" fill="url(#r)"/><path d="m36.6162 25.7914h2.6928v-10.9938h-2.6928v4.1757h-4.8373v-4.1757h-2.6919v10.9938h2.6919v-4.495h4.8373zm2.8849.1921h-3.077v-4.495h-4.4531v4.495h-3.0761v-11.378h3.0761v4.1757h4.4531v-4.1757h3.077z" fill="url(#s)"/><path d="m49.9746 20.3114c0-1.827-1.191-3.2357-3.0368-3.2357-1.8441 0-3.0505 1.4087-3.0505 3.2357 0 1.8108 1.2064 3.2366 3.0505 3.2366 1.8458 0 3.0368-1.4258 3.0368-3.2366zm-9.0225 0c0-3.4048 2.5656-5.785 5.9857-5.785 3.4219 0 5.9712 2.3802 5.9712 5.785s-2.5493 5.7868-5.9712 5.7868c-3.4201 0-5.9857-2.382-5.9857-5.7868z" fill="url(#t)"/><path d="m46.9288 17.1626c-1.7391 0-2.9548 1.2908-2.9548 3.1392 0 1.8194 1.243 3.141 2.9548 3.141 1.7323 0 2.9404-1.2926 2.9404-3.141s-1.2081-3.1392-2.9404-3.1392zm0 6.4723c-1.8227 0-3.1469-1.4019-3.1469-3.3331 0-1.9303 1.3242-3.3322 3.1469-3.3322 1.845 0 3.1325 1.3703 3.1325 3.3322 0 1.9312-1.3165 3.3331-3.1325 3.3331zm0-9.0225c-3.4124 0-5.89 2.3931-5.89 5.6894 0 3.2972 2.4776 5.6894 5.89 5.6894 3.404 0 5.8756-2.3922 5.8756-5.6894 0-3.2963-2.4716-5.6894-5.8756-5.6894zm0 11.5718c-3.5243 0-6.0821-2.4733-6.0821-5.8824 0-3.4082 2.5578-5.8807 6.0821-5.8807 3.5158 0 6.0668 2.4725 6.0668 5.8807 0 3.4091-2.551 5.8824-6.0668 5.8824z" fill="url(#u)"/><path d="m57.3154 14.7102h-2.8848v11.1851h2.8848z" fill="url(#v)"/><path d="m54.57 25.7914h2.6927v-10.9938h-2.6927zm2.8848.1921h-3.0769v-11.378h3.0769z" fill="url(#w)"/><path d="m58.8534 20.3114c0-3.4543 2.616-5.785 6.0549-5.785 2.6996 0 4.1578 1.5256 4.8792 2.9847l-2.4819 1.191c-.3688-.8888-1.3241-1.6264-2.3973-1.6264-1.8288 0-3.1196 1.3908-3.1196 3.2357 0 1.8279 1.2908 3.2366 3.1196 3.2366 1.0732 0 2.0285-.7385 2.3973-1.6272l2.4819 1.1747c-.7214 1.4249-2.1796 3.0027-4.8792 3.0027-3.4389 0-6.0549-2.3487-6.0549-5.7868z" fill="url(#x)"/><path d="m64.8993 14.6124c-3.4526 0-5.9584 2.3931-5.9584 5.6894 0 3.2972 2.5058 5.6894 5.9584 5.6894 2.6688 0 4.0519-1.5342 4.7477-2.8609l-2.3025-1.0894c-.4355.9434-1.4267 1.594-2.4452 1.594-1.8638 0-3.2153-1.4019-3.2153-3.3331 0-1.9303 1.3515-3.3322 3.2153-3.3322 1.0185 0 2.0097.6506 2.4452 1.5923l2.3042-1.1048c-.677-1.3191-2.0456-2.8447-4.7494-2.8447zm0 11.5718c-3.5644 0-6.1513-2.4733-6.1513-5.8824 0-3.4082 2.5869-5.8807 6.1513-5.8807 3.0138 0 4.4045 1.9031 4.9654 3.0386l.0436.0879-.088.041-2.5732 1.2345-.0393-.0939c-.3824-.9229-1.3327-1.5666-2.3085-1.5666-1.7519 0-3.024 1.3199-3.024 3.1392 0 1.8194 1.2721 3.141 3.024 3.141.9758 0 1.9244-.6455 2.3085-1.5684l.0393-.093 2.662 1.2584-.0452.0897c-.5772 1.1406-1.9893 3.0547-4.9646 3.0547z" fill="url(#y)"/><path d="m71.1211 25.8953v-11.1851h8.2003v2.5152h-5.3154v1.7433h5.1985v2.5161h-5.1985v1.8953h5.3154v2.5152z" fill="url(#z)"/><path d="m71.2069 25.7914h8.0082v-2.3239h-5.3155v-2.0875h5.1994v-2.323h-5.1994v-1.9355h5.3155v-2.3239h-8.0082zm8.2003.1921h-8.3916v-11.378h8.3916v2.7072h-5.3155v1.5522h5.1994v2.7081h-5.1994v1.7032h5.3155z" fill="url(#A)"/><path d="m32.1044 33.0896c0-2.049-1.2738-3.5602-3.2315-3.5602-1.9696 0-3.2186 1.5112-3.2186 3.5602 0 2.0354 1.249 3.5602 3.2186 3.5602 1.9577 0 3.2315-1.5248 3.2315-3.5602zm-7.5797 0c0-2.5877 1.7605-4.5317 4.3482-4.5317 2.5886 0 4.361 1.944 4.361 4.5317 0 2.5869-1.7724 4.5317-4.361 4.5317-2.5877 0-4.3482-1.9448-4.3482-4.5317z" fill="url(#B)"/><path d="m34.9499 37.4516v-8.7621h5.7398v.9724h-4.6496v2.8251h4.5574v.9707h-4.5574v3.9939z" fill="url(#C)"/><path d="m45.2832 37.4506v-.8794c3.1529-2.4699 4.8741-3.9281 4.8741-5.4384 0-1.1295-.9332-1.6034-1.8399-1.6034-1.0509 0-1.8646.4474-2.3768 1.1039l-.6711-.6966c.6711-.893 1.8134-1.3788 3.0479-1.3788 1.4582 0 2.9429.8281 2.9429 2.5749 0 1.7861-1.8134 3.415-4.256 5.3454h4.2953v.9724z" fill="url(#D)"/><path d="m58.5394 33.0768c0-1.7476-.5652-3.5474-2.2335-3.5474-1.6682 0-2.2325 1.7998-2.2325 3.5474 0 1.7468.5643 3.5602 2.2325 3.5602 1.6683 0 2.2335-1.8134 2.2335-3.5602zm-5.5828 0c0-2.1421.9452-4.5189 3.3493-4.5189 2.3906 0 3.3502 2.3768 3.3502 4.5189 0 2.1276-.9596 4.5317-3.3502 4.5317-2.4041 0-3.3493-2.4041-3.3493-4.5317z" fill="url(#E)"/><path d="m62.6529 37.4516v-7.3304l-1.4053 1.4983-.6565-.6702 2.1941-2.2598h.9588v8.7621z" fill="url(#F)"/><path d="m70.5315 30.9748c0-.9066-.8538-1.4454-1.9048-1.4454-1.0646 0-1.8919.5388-1.8919 1.4454 0 1.0638 1.366 1.4181 1.8919 1.5112.5388-.0931 1.9048-.4474 1.9048-1.5112zm.1314 4.1374c0-1.1424-1.4974-1.6282-2.0362-1.6939-.5378.0657-2.0362.5515-2.0362 1.6939 0 .9459.9468 1.5248 2.0362 1.5248 1.0775 0 2.0362-.5789 2.0362-1.5248zm-5.1754.1195c0-1.1705.998-1.9713 2.0883-2.3-1.0117-.2886-1.944-.958-1.944-2.1011 0-1.5769 1.5367-2.2727 2.9949-2.2727 1.4446 0 3.0087.6958 3.0087 2.2727 0 1.1431-.9468 1.8125-1.9577 2.1011 1.0903.3287 2.0883 1.1295 2.0883 2.3 0 1.4838-1.4189 2.3768-3.1393 2.3768-1.7339 0-3.1392-.8802-3.1392-2.3768z" fill="url(#G)"/><path d="m11.8437 3.63272c.1896-1.20209-.1229-2.36234-.7675-3.216949-.8708.584819-1.52311 1.573469-1.71264 2.776409-.18954 1.20209.12294 2.3632.76754 3.21695.8717-.58482 1.5231-1.57347 1.7126-2.77641z" fill="url(#H)"/><path d="m6.8709 10.7776c.64288-.85551.95365-2.01662.76156-3.21871-.19295-1.20209-.84608-2.18989-1.71862-2.773-.64288.85632-.95279 2.01743-.76069 3.21952.19209 1.20209.84521 2.18899 1.71775 2.77219z" fill="url(#I)"/><path d="m4.74009 16.071c.45164-.9836.51653-2.1882.08282-3.3169-.43456-1.1295-1.27551-1.9423-2.24624-2.3085-.45163.9835-.51652 2.1881-.08196 3.3168.43371 1.1295 1.27466 1.9423 2.24538 2.3086z" fill="url(#J)"/><path d="m20.9173 39.9454c-3.3604-.7129-6.3853-2.2292-8.8859-4.3046.8213-.5917 1.4343-1.5479 1.6161-2.7047.1896-1.203-.1229-2.3632-.7675-3.217-.8717.5848-1.5231 1.5743-1.7126 2.7764-.1656 1.0484.0521 2.0661.5379 2.8755-1.1697-1.0126-2.21555-2.154-3.12053-3.3928.93316-.3655 1.74503-1.1407 2.18303-2.2198.4534-1.1201.4107-2.3265-.0239-3.3186-.97668.3475-1.83214 1.1432-2.28634 2.2633-.397.9793-.41322 2.0252-.12123 2.9361-.99122-1.4181-1.79545-2.9617-2.38711-4.5906 1.01256-.1537 1.98243-.7616 2.62104-1.7622.64373-1.01.81448-2.2035.56433-3.2648-1.02195.1469-2.00206.7573-2.64665 1.7673-.61129.9596-.79143 2.0832-.5925 3.1034-.58141-1.6417-.93231-3.374-1.04671-5.1541 1.02622.0982 2.10878-.2655 2.94802-1.0979.83924-.8316 1.25588-1.9551 1.23368-3.0488-1.02621-.0982-2.11049.2655-2.94973 1.0979-.83156.8239-1.24648 1.9338-1.23282 3.0181-.02476-.3885-.05123-.7761-.05123-1.1688 0-1.4804.17502-2.9344.50457-4.338.91779.4585 2.0328.52 3.07865.0666 1.06378-.4602 1.82873-1.3532 2.17453-2.3837-.92634-.4789-2.06184-.5481-3.12476-.0871-.93487.4047-1.64007 1.1441-2.03109 2.0192.43285-1.687 1.09025-3.2981 1.944-4.799.8051.6796 1.89705 1.0066 3.02655.8034 1.1321-.204 2.0627-.8982 2.6117-1.82448-.806-.6813-1.8996-1.01085-3.03173-.80765-1.10476.19892-2.01401.86573-2.56724 1.75793.86058-1.49839 1.91412-2.88489 3.13417-4.12284.5541.90498 1.4736 1.58201 2.5903 1.78094 1.1329.20149 2.2257-.13063 3.0308-.81534-.5507-.92462-1.483-1.61616-2.6151-1.81765-1.0065-.17843-1.9807.06489-2.7499.60105.8853-.86657 1.8663-1.64092 2.9045-2.341.8828.26039 1.8569.2288 2.7499-.19808 1.0442-.49859 1.746-1.40528 2.0081-2.42808-.9878-.42517-2.1524-.43968-3.1965.05976-.9554.45591-1.6068 1.26015-1.9141 2.17623-5.48456 3.73945-9.01655 9.92491-9.01655 16.69781 0 .1554.00597.309.01024.4636-.09562-.8231-.43456-1.6333-1.02024-2.2992-.78374-.8913-1.84155-1.3336-2.872034-1.3105-.092205 1.0902.250151 2.2402 1.033904 3.1316.78374.8913 1.84155 1.3335 2.87203 1.3105.00598-.0769.00598-.1537.00769-.2314.08623 1.5752.3637 3.1119.8085 4.5872-.28259-.6719-.74276-1.2797-1.37027-1.7305-.95109-.6839-2.07463-.8649-3.074383-.5985.138309 1.0843.713743 2.125 1.664823 2.8088.95023.6831 2.07463.8649 3.07438.5985-.01537-.1238-.03927-.2459-.06574-.3688.49262 1.436 1.14574 2.8072 1.9423 4.0929-.37139-.4542-.84266-.8333-1.40529-1.0911-1.05439-.4824-2.19074-.4354-3.1256.0248.32784 1.0381 1.07744 1.9448 2.13183 2.4281 1.05524.4815 2.19074.4354 3.12561-.0248-.06574-.21-.15368-.4115-.25272-.607.79229 1.1645 1.70496 2.2488 2.72182 3.2366-.4483-.3219-.97162-.5533-1.5479-.6549-1.13294-.2014-2.22575.1307-3.02998.8145.55067.9255 1.48212 1.617 2.61505 1.8185 1.13294.2007 2.22573-.1315 3.03003-.8153-.111-.187-.2417-.3612-.3825-.5268 2.6569 2.3589 5.9438 4.0793 9.6218 4.8605z" fill="url(#K)"/><path d="m86.7893 6.40913c.6437-.85375.9562-2.01486.7675-3.21695-.1904-1.20294-.8418-2.19159-1.7135-2.776409-.6446.854609-.957 2.014859-.7675 3.216949.1895 1.20294.8418 2.19159 1.7135 2.77641z" fill="url(#L)"/><path d="m91.7162 8.00541c.1921-1.20209-.1186-2.3632-.7615-3.21952-.8717.58311-1.5257 1.57091-1.7178 2.773s.1187 2.3632.7607 3.21871c.8726-.5832 1.5265-1.5701 1.7186-2.77219z" fill="url(#M)"/><path d="m92.1354 16.071c.9715-.3663 1.8116-1.1791 2.2462-2.3086.4337-1.1287.3688-2.3333-.082-3.3168-.9716.3662-1.8116 1.179-2.2462 2.3085-.4337 1.1287-.3688 2.3333.082 3.3169z" fill="url(#N)"/><path d="m93.104 24.4568c-.6276.4508-1.0869 1.0587-1.3703 1.7306.4456-1.4753.7231-3.0121.8085-4.5873.0025.0777.0017.1546.0085.2314 1.0296.023 2.0883-.4192 2.8721-1.3105.7837-.8913 1.1261-2.0414 1.0339-3.1316-1.0305-.0231-2.0883.4192-2.8721 1.3105-.5857.6659-.9246 1.4762-1.0202 2.2992.0034-.1545.0102-.3082.0102-.4636 0-6.7729-3.5328-12.95833-9.0174-16.69778-.3073-.91609-.9587-1.72032-1.9141-2.17623-1.0441-.49945-2.2086-.48493-3.1964-.05976.2621 1.0228.9638 1.92949 2.008 2.42808.893.42688 1.8672.45847 2.7508.19807 1.0382.70008 2.0191 1.47444 2.9036 2.341-.7692-.53616-1.7433-.77948-2.7499-.60104-1.1321.20149-2.0636.89303-2.6142 1.81765.8042.68471 1.897 1.01682 3.03.81533 1.1167-.19892 2.037-.87595 2.5903-1.78093 1.22 1.23795 2.2744 2.62445 3.1349 4.12281-.554-.8922-1.4633-1.55898-2.5672-1.75791-1.1321-.20319-2.2266.12636-3.0317.80766.549.92635 1.4787 1.62045 2.6117 1.82445 1.1295.2032 2.2206-.1238 3.0265-.8034.8538 1.5009 1.5112 3.112 1.9432 4.799-.3911-.8751-1.0954-1.6144-2.0311-2.0191-1.0629-.4611-2.1976-.3919-3.1248.0871.3467 1.0304 1.1116 1.9235 2.1754 2.3836 1.0459.4534 2.16.3919 3.0787-.0665.3287 1.4035.5045 2.8575.5045 4.3379 0 .3927-.0273.7803-.0512 1.1688.0137-1.0843-.4013-2.1942-1.2328-3.018-.8393-.8325-1.9235-1.1962-2.9506-1.098-.0214 1.0937.3944 2.2172 1.2345 3.0488.8384.8324 1.9218 1.1961 2.9472 1.0979-.1136 1.7801-.4645 3.5124-1.0459 5.1542.199-1.0203.0188-2.1438-.5925-3.1035-.6446-1.0099-1.6247-1.6204-2.6466-1.7672-.251 1.0612-.0803 2.2547.5643 3.2647.6386 1.0006 1.6085 1.6085 2.6211 1.7622-.5917 1.629-1.3959 3.1725-2.388 4.5906.2928-.9109.2766-1.9568-.1212-2.936-.4534-1.1202-1.3088-1.9159-2.2864-2.2633-.4346.992-.4772 2.1984-.023 3.3185.4379 1.0792 1.2498 1.8544 2.183 2.2198-.9058 1.2388-1.9508 2.3803-3.1213 3.3928.4858-.8094.7035-1.827.5378-2.8754-.1895-1.2021-.8409-2.1916-1.7117-2.7765-.6446.8538-.958 2.014-.7684 3.217.1827 1.1568.7948 2.113 1.617 2.7047-2.5007 2.0755-5.5264 3.5917-8.8859 4.3046l.0956.5106c3.678-.7812 6.965-2.5015 9.6218-4.8605-.1408.1657-.2706.3398-.3824.5268.8051.6839 1.8979 1.016 3.0308.8154 1.1321-.2015 2.0635-.8931 2.6151-1.8186-.8043-.6838-1.8979-1.0159-3.03-.8144-.5763.1016-1.0997.3329-1.5479.6548 1.0168-.9878 1.9287-2.0721 2.7218-3.2366-.0999.1955-.1878.397-.2536.607.9357.4602 2.0712.5063 3.1256.0248 1.0553-.4832 1.8049-1.3899 2.1319-2.4281-.9349-.4602-2.0704-.5071-3.1256-.0248-.5618.2579-1.0339.6369-1.4053 1.0911.7965-1.2857 1.4505-2.6568 1.9431-4.0929-.0273.123-.0503.2451-.0657.3689.9997.2663 2.1233.0845 3.0744-.5985.951-.6839 1.5265-1.7246 1.6648-2.8089-1.0006-.2664-2.1242-.0854-3.0752.5985z" fill="url(#O)"/></svg>