<svg fill="none" height="108" viewBox="0 0 667 108" width="667" xmlns="http://www.w3.org/2000/svg"><g fill="#fff"><path d="m308.969 55.4234c-5.74-5.4938-13.189-8.3018-22.469-8.3018-9.281 0-16.73 2.93-22.591 8.6681-5.74 5.738-8.671 12.9411-8.671 21.6092 0 9.1564 2.931 16.4816 8.671 22.0975 5.861 5.4936 13.31 8.3016 22.468 8.3016 9.037 0 16.486-2.808 22.347-8.5457 2.931-2.808 5.251-6.1043 6.717-9.7669 1.465-3.6626 2.198-7.6914 2.198-12.0865.122-9.1565-2.809-16.4816-8.67-21.9755zm-9.525 35.4049c-3.175 3.4184-7.449 5.1276-13.067 5.1276-4.884 0-9.402-1.7092-12.822-5.2496-3.419-3.6626-4.884-8.0577-4.884-13.3074 0-5.3718 1.71-9.889 5.007-13.3074s7.571-5.1276 12.699-5.1276c4.885 0 9.159 1.7092 12.578 5.1276 3.42 3.4184 5.007 7.8135 5.007 13.3074.122 5.3718-1.343 9.8889-4.518 13.4294z"/><path d="m356.838 73.493h-16.608v-13.4295h19.172c.977 0 1.71-.7325 1.71-1.7092v-8.546c0-.9767-.733-1.7092-1.71-1.7092h-30.284c-.977 0-1.71.7325-1.71 1.7092v55.3047c0 .977.733 1.709 1.71 1.709h9.403c.977 0 1.709-.732 1.709-1.709v-19.6556h16.608c.977 0 1.709-.7325 1.709-1.7092v-8.546c0-.9767-.854-1.7092-1.709-1.7092z"/><path d="m384.801 60.0635v45.1715c0 .977.733 1.71 1.71 1.71h9.403c.977 0 1.709-.733 1.709-1.71v-45.1715h16.242c.977 0 1.709-.7325 1.709-1.7092v-8.546c0-.9767-.732-1.7092-1.709-1.7092h-45.183c-.977 0-1.709.7325-1.709 1.7092v8.546c0 .9767.732 1.7092 1.709 1.7092z"/><path d="m438.04 82.6486c2.93 1.3429 5.128 2.808 6.716 4.1509 1.465 1.343 2.32 2.6859 2.32 4.1509 0 1.5871-.611 2.808-1.71 3.7847-1.099.8546-2.564 1.3429-4.396 1.3429-2.442 0-4.762-.6104-7.204-1.7092-1.71-.8546-3.175-1.8313-4.397-3.0521-.732-.7325-1.831-.6104-2.442.1221l-5.251 6.3484c-.488.6105-.488 1.343-.122 1.9534 1.465 2.3194 3.786 4.1514 6.961 5.6164 3.785 1.709 7.815 2.563 12.089 2.563 5.861 0 10.502-1.587 14.287-4.883 3.175-2.442 5.251-5.9823 5.618-9.889.366-4.0289-.245-7.3252-1.71-10.1332-1.221-2.3196-2.686-4.0288-4.396-5.2496-1.832-1.343-3.786-2.4418-5.862-3.6626-2.198-1.0988-4.152-2.0755-5.983-2.808-1.832-.8546-3.419-1.8313-4.763-3.0522-1.221-1.2208-1.954-2.6858-1.954-4.395 0-1.4651.611-2.6859 1.71-3.5405 1.221-.8546 2.809-1.2209 4.64-1.2209 1.954 0 3.542.2442 4.885.8546.855.3663 1.71.9767 2.687 1.7092.732.6104 1.831.4884 2.442-.3662l4.884-6.8369c.489-.7325.367-1.7092-.244-2.1975-3.907-3.4184-9.158-5.1276-15.875-5.1276-5.739 0-10.257 1.5871-13.677 4.8834-3.419 3.2963-5.128 7.2031-5.128 11.8424 0 2.0754.244 4.0288.854 5.8601.733 1.8313 1.588 3.4184 2.443 4.5172.977 1.2208 2.198 2.4417 3.785 3.5405 1.588 1.0987 2.931 2.0754 4.152 2.6858 1.466.7326 2.931 1.4651 4.641 2.1976z"/><path d="m495.438 105.724 12.211-38.0911 12.334 38.0911c.244.732.854 1.098 1.587 1.098h9.891c.733 0 1.343-.488 1.588-1.22l15.63-55.3053c.245-1.0988-.488-2.0755-1.587-2.0755h-8.792c-.733 0-1.466.4883-1.588 1.2209l-10.135 37.4803-11.479-37.4803c-.244-.7326-.855-1.2209-1.588-1.2209h-10.624c-.732 0-1.343.4883-1.587 1.2209l-11.112 37.6024-10.014-37.4804c-.244-.7325-.855-1.2208-1.587-1.2208h-10.991c-1.099 0-1.953 1.0988-1.587 2.0754l16.363 55.3053c.244.732.855 1.221 1.588 1.221h9.891c.733-.123 1.343-.611 1.588-1.221z"/><path d="m559.913 106.822h9.402c.977 0 1.71-.732 1.71-1.709v-55.3047c0-.9767-.733-1.7092-1.71-1.7092h-9.402c-.977 0-1.71.7325-1.71 1.7092v55.3047c.122.977.855 1.709 1.71 1.709z"/><path d="m598.868 82.6486c2.93 1.3429 5.128 2.8079 6.716 4.1509 1.465 1.3429 2.32 2.6859 2.32 4.1509 0 1.5871-.61 2.808-1.709 3.7847-1.099.8546-2.565 1.3429-4.397 1.3429-2.442 0-4.762-.6104-7.204-1.7092-1.71-.8546-3.175-1.8313-4.396-3.0521-.733-.7325-1.832-.6105-2.443.1221l-5.251 6.3484c-.488.6104-.488 1.343-.122 1.9534 1.466 2.3194 3.786 4.1514 6.961 5.6164 3.785 1.709 7.815 2.563 12.089 2.563 5.862 0 10.502-1.587 14.288-4.883l.61-.488c3.175-3.0526 5.129-7.2035 5.129-11.4765 0-3.0522-.611-5.738-1.832-7.9356-1.221-2.3196-2.686-4.0288-4.396-5.2497-1.832-1.3429-3.786-2.4417-5.862-3.6626-2.198-1.0987-4.151-2.0754-5.983-2.8079-1.832-.8546-3.419-1.8313-4.762-3.0522-1.222-1.2208-1.954-2.6859-1.954-4.3951 0-1.465.61-2.6859 1.709-3.5405 1.221-.8546 2.809-1.2208 4.641-1.2208 1.953 0 3.541.2441 4.884.8546.855.3662 1.71.9767 2.687 1.7092.732.6104 1.831.4883 2.442-.3663l4.884-6.8368c.489-.7325.367-1.7092-.244-2.1975-3.907-3.4184-9.158-5.1276-15.875-5.1276-5.739 0-10.257 1.5871-13.676 4.8834s-5.129 7.2031-5.129 11.8423c0 2.0755.244 4.0289.855 5.8601.732 1.8313 1.587 3.4184 2.442 4.5172.977 1.2209 2.198 2.4417 3.786 3.5405 1.587 1.0988 2.93 2.0755 4.151 2.6859 1.466.6104 2.931 1.3429 4.641 2.0755z"/><path d="m644.049 82.6486c2.931 1.3429 5.129 2.8079 6.717 4.1509 1.465 1.3429 2.32 2.6859 2.32 4.1509 0 1.5871-.611 2.808-1.71 3.7847-1.099.8546-2.564 1.3429-4.396 1.3429-2.442 0-4.762-.6104-7.205-1.7092-1.709-.8546-3.175-1.8313-4.396-3.0521-.732-.7325-1.831-.6105-2.442.1221l-5.251 6.3484c-.488.6104-.488 1.343-.122 1.9534 1.465 2.3194 3.786 4.1514 6.96 5.6164 3.786 1.709 7.816 2.563 12.09 2.563 5.861 0 10.502-1.587 14.287-4.883l.611-.488c3.175-3.0526 5.128-7.2035 5.128-11.4765 0-3.0522-.61-5.738-1.831-7.9356-1.221-2.3196-2.687-4.0288-4.396-5.2497-1.832-1.3429-3.786-2.4417-5.862-3.6626-2.198-1.0987-4.152-2.0754-5.983-2.8079-1.832-.8546-3.42-1.8313-4.763-3.0522-1.221-1.2208-1.954-2.6859-1.954-4.3951 0-1.465.611-2.6859 1.71-3.5405 1.221-.8546 2.809-1.2208 4.64-1.2208 1.954 0 3.542.2441 4.885.8546.855.3662 1.709.9767 2.686 1.7092.733.6104 1.832.4883 2.443-.3663l4.884-6.8368c.489-.7325.367-1.7092-.244-2.1975-3.908-3.4184-9.159-5.1276-15.875-5.1276-5.739 0-10.257 1.5871-13.677 4.8834-3.419 3.2963-5.129 7.2031-5.129 11.8423 0 2.0755.245 4.0289.855 5.8601.733 1.8313 1.588 3.4184 2.443 4.5172.977 1.2209 2.198 2.4417 3.785 3.5405 1.588 1.0988 2.931 2.0755 4.152 2.6859 1.343.6104 2.931 1.3429 4.64 2.0755z"/><path d="m224.954 82.6491c2.93 1.3429 5.128 2.808 6.716 4.1509 1.465 1.343 2.32 2.6859 2.32 4.1509 0 1.5872-.61 2.808-1.71 3.7847-1.099.8546-2.564 1.3429-4.396 1.3429-2.442 0-4.762-.6104-7.204-1.7092-1.71-.8546-3.175-1.8312-4.396-3.0521-.733-.7325-1.832-.6104-2.443.1221l-5.251 6.3484c-.488.6105-.488 1.343-.122 1.9534 1.466 2.3199 3.786 4.1509 6.961 5.6159 3.785 1.709 7.815 2.564 12.089 2.564 5.861 0 10.502-1.587 14.287-4.884l.489-.488c3.175-3.0521 5.129-7.203 5.251-11.5981 0-3.0521-.611-5.738-1.832-8.0576-1.221-2.3197-2.686-4.0289-4.396-5.2497-1.832-1.343-3.786-2.4417-5.862-3.6626-2.198-1.0988-4.151-2.0755-5.983-2.808-1.832-.8546-3.419-1.8313-4.763-3.0521-1.221-1.2209-1.953-2.6859-1.953-4.3951 0-1.4651.61-2.6859 1.709-3.5405 1.221-.8546 2.809-1.2209 4.641-1.2209 1.953 0 3.541.2442 4.884.8546.855.3663 1.71.9767 2.687 1.7092.732.6105 1.831.4884 2.442-.3662l4.884-6.8368c.489-.7326.367-1.7092-.244-2.1976-3.907-3.4184-9.158-5.1276-15.875-5.1276-5.739 0-10.257 1.5871-13.677 4.8834-3.419 3.2964-5.128 7.2031-5.128 11.8424 0 2.0754.244 4.0288.854 5.8601.733 1.8313 1.588 3.4184 2.443 4.5172.977 1.2208 2.198 2.4417 3.785 3.5405 1.588 1.0987 2.931 2.0754 4.152 2.6859 1.466.8546 2.931 1.5871 4.641 2.3196z"/><path d="m77.7902 67.1907c-3.4987-3.4943-5.4979-8.0868-5.6978-13.0787l-18.493 18.47-19.1926-19.1689 19.1926-19.1688 5.6979 5.6908c1.3994 1.3977 3.2987 2.1964 5.2979 2.1964 1.9993 0 3.8985-.7987 5.298-2.1964l8.0969-8.0869c2.8989-2.8953 2.8989-7.6875 0-10.5828l-19.0927-19.06897c-1.3995-1.397729-3.2987-2.19643-5.298-2.19643-1.9992 0-3.8985.798701-5.2979 2.19643l-46.08241 46.02517c-2.898891 2.8953-2.898891 7.6875 0 10.5828l46.08241 46.0256c1.3994 1.397 3.2987 2.196 5.2979 2.196 1.9993 0 3.8985-.799 5.298-2.196l31.9878-31.9485c-4.9981-.1997-9.5964-2.1965-13.095-5.6908z"/><path d="m180.85 58.8048-46.082 46.0252c-1.4 1.398-3.299 2.196-5.298 2.196s-3.899-.798-5.298-2.196l-19.093-19.0691c-2.899-2.8953-2.899-7.6875 0-10.5828l8.097-8.0868c1.4-1.3977 3.299-2.1964 5.298-2.1964s3.899.7987 5.298 2.1964l5.398 5.3912.3.2995 19.193-19.1688-19.193-19.1688-28.589 28.5536c-.1.0998-.2.1996-.4.2995-2.3992 2.2962-5.5979 3.5941-8.9966 3.5941-3.4987 0-6.8974-1.3977-9.3964-3.8936-2.4991-2.496-3.8985-5.7906-3.8985-9.3848 0-3.3944 1.1995-6.5892 3.5986-8.9853.0999-.0999.1999-.1997.2999-.2995l.0999-.0999.1999-.0998 41.7842-41.73208c1.399-1.397725 3.299-2.196425 5.298-2.196425s3.898.7987 5.298 2.196425l46.082 46.02508c2.899 2.6956 2.899 7.388 0 10.3831z"/><path d="m220.733 19.6409v9.8619h-6.733v-29.005564c1.29 0 2.707-.013812 4.25-.041436 1.571-.027624 3.156-.041437 4.755-.041437 4.152 0 7.182.911607 9.089 2.734807 1.88 1.76796 2.82 4.06077 2.82 6.87843 0 2.7072-.996 5.0138-2.988 6.9199-1.992 1.8785-4.629 2.8177-7.911 2.8177-1.459 0-2.553-.0414-3.282-.1243zm2.945-13.01107c-.028 0-.154.01381-.378.04144-.225 0-.575.01381-1.052.04144-.477 0-.982 0-1.515 0v6.62979c1.178.1382 2.202.2072 3.072.2072 1.15 0 2.09-.29 2.819-.8701.757-.6078 1.136-1.5056 1.136-2.69341 0-2.23757-1.36-3.35636-4.082-3.35636z"/><path d="m238.332 15c0-4.2818 1.445-7.8453 4.334-10.69061 2.918-2.87293 6.691-4.30939 11.32-4.30939 4.601 0 8.346 1.3674 11.235 4.10221 2.946 2.73481 4.419 6.36739 4.419 10.89779 0 4.3646-1.487 7.9558-4.461 10.7735-2.945 2.8177-6.677 4.2265-11.193 4.2265-4.573 0-8.332-1.3674-11.278-4.1022-2.917-2.7348-4.376-6.3674-4.376-10.8978zm7.154 0c0 2.4586.827 4.5442 2.482 6.2569 1.628 1.6851 3.633 2.5276 6.018 2.5276 2.693 0 4.783-.8149 6.27-2.4447 1.487-1.6851 2.23-3.7984 2.23-6.3398 0-2.6243-.814-4.7376-2.441-6.33978-1.655-1.62984-3.675-2.44475-6.059-2.44475-2.469 0-4.503.81491-6.102 2.44475-1.599 1.62988-2.398 3.74308-2.398 6.33978z"/><path d="m306.739.497236h6.48l-8.289 29.005564h-6.439l-6.143-18.6464-6.06 18.6464h-6.438l-8.711-29.005564h7.617l4.965 18.314964 5.513-18.314964h6.775l5.68 18.314964z"/><path d="m335.438 29.5028h-17.884v-29.005564h17.463v6.215474h-10.731v5.09669h9.468v6.2155h-9.468v5.2624h11.152z"/><path d="m349.038 19.3508v10.152h-6.733v-29.005564c1.599 0 3.366-.013812 5.302-.041436s3.507-.041437 4.713-.041437c7.266 0 10.899 3.093927 10.899 9.281767 0 3.97787-1.655 6.76797-4.966 8.37017l8.585 11.4365h-8.164l-7.154-10.152zm2.945-12.72097c-.028 0-.154.01381-.378.04144-.225 0-.576.01381-1.052.04144-.477 0-.982 0-1.515 0v6.42269h2.44c3.058 0 4.587-1.1188 4.587-3.35639 0-2.09945-1.361-3.14918-4.082-3.14918z"/><path d="m389.05 29.5028h-17.884v-29.005564h17.463v6.215474h-10.731v5.09669h9.468v6.2155h-9.468v5.2624h11.152z"/><path d="m396.632 29.5028h-.715v-29.005564h.589c1.262 0 2.665-.013812 4.208-.041436h1.936c.729-.027624 1.29-.041437 1.683-.041437.393-.027624.687-.041436.883-.041436 5.527 0 9.665 1.353593 12.414 4.060773s4.124 6.1464 4.124 10.3177c0 4.2817-1.473 7.8315-4.418 10.6492-2.918 2.79-7.07 4.185-12.456 4.185-1.094 0-2.315-.0138-3.661-.0414-1.347-.0276-2.876-.0414-4.587-.0414zm8.5-22.9144c-1.094 0-1.921.04143-2.482.12431v16.57459c.785.0552 1.599.0829 2.44.0829 2.974 0 5.302-.7597 6.986-2.279 1.683-1.5194 2.524-3.6326 2.524-6.3398 0-2.5691-.855-4.5718-2.567-6.00831-1.711-1.43646-4.011-2.15469-6.901-2.15469z"/><path d="m436.749 29.4199v-28.83979c3.282-.165747 6.255-.24862 8.921-.24862 3.254 0 5.708.649171 7.364 1.94752 1.683 1.27071 2.524 3.02486 2.524 5.26242 0 2.84527-1.122 4.99997-3.366 6.46407v.0829c1.262.4696 2.272 1.2707 3.03 2.4033.785 1.1326 1.178 2.5414 1.178 4.2265 0 2.9006-1.038 5.1243-3.114 6.6713-2.048 1.5193-4.741 2.279-8.079 2.279-3.9 0-6.719-.0829-8.458-.2486zm9.341-11.6437h-2.609v5.4282c.618.1658 1.375.2486 2.273.2486 2.609 0 3.913-1.0221 3.913-3.0663 0-1.7403-1.192-2.6105-3.577-2.6105zm-.505-11.22924c-.505 0-1.206.05525-2.104.16575v5.26239h2.231c2.076 0 3.114-.9392 3.114-2.81764 0-.80111-.309-1.43647-.926-1.90608s-1.389-.70442-2.315-.70442z"/><path d="m479.72.497236h7.28l-10.436 17.196164v11.8094h-6.733v-11.8094l-10.351-17.196164h7.7l6.312 10.980664z"/></g></svg>