<svg width="21" height="17" viewBox="0 0 21 17" fill="none" xmlns="http://www.w3.org/2000/svg">
<path d="M8.40292 0.559527C8.79036 -0.186509 9.90964 -0.186509 10.2971 0.559527L12.3681 4.54732C12.5218 4.8433 12.8188 5.04855 13.1624 5.09629L17.7954 5.73993C18.6614 5.86024 19.0065 6.87197 18.3796 7.45236L15.0288 10.5543C14.7797 10.785 14.666 11.1174 14.7248 11.4431L15.5154 15.8242C15.6634 16.6443 14.7576 17.2697 13.9828 16.8824L9.8416 14.8125C9.53385 14.6586 9.16615 14.6586 8.8584 14.8125L4.71722 16.8824C3.94237 17.2697 3.03665 16.6443 3.18464 15.8242L3.9752 11.4432C4.03399 11.1174 3.92028 10.785 3.67116 10.5543L0.320397 7.45236C-0.306543 6.87197 0.0385991 5.86024 0.904575 5.73993L5.53759 5.09629C5.88122 5.04855 6.1782 4.8433 6.33192 4.54732L8.40292 0.559527Z" fill="white" fill-opacity="0.2"/>
</svg>
