<svg width="80" height="10" fill="none" xmlns="http://www.w3.org/2000/svg"><path d="M20.476 9.87c-.476 0-.955-.015-1.426-.046a10.466 10.466 0 0 1-1.479-.206v-8.45c.4-.078.845-.13 1.324-.169.477-.04.922-.057 1.336-.057.556 0 1.065.04 1.53.123.465.077.865.213 1.201.405.336.194.6.446.788.762.188.317.285.705.285 1.162 0 .696-.336 1.245-1.008 1.646.556.206.93.497 1.13.853.2.362.303.768.303 1.22 0 .916-.336 1.6-1.001 2.06-.677.47-1.665.696-2.983.696zm-.993-5.404h.956c.607 0 1.033-.077 1.298-.231.257-.154.388-.406.388-.748 0-.354-.135-.6-.4-.742-.271-.143-.665-.214-1.181-.214-.169 0-.349 0-.543.006a6.236 6.236 0 0 0-.516.032c-.002 0-.002 1.897-.002 1.897zm0 1.499v2.252c.142.02.297.031.465.04.168.007.354.013.556.013.588 0 1.059-.083 1.421-.251.362-.168.542-.477.542-.93 0-.4-.148-.691-.451-.86-.303-.173-.736-.257-1.298-.257h-1.233v-.007h-.002zM27.255 1.233c0 .342-.109.613-.336.813-.22.2-.485.297-.788.297a1.142 1.142 0 0 1-.788-.297c-.22-.2-.336-.465-.336-.813 0-.342.109-.614.336-.813.216-.195.497-.3.788-.297.29-.005.572.101.788.297.225.2.336.47.336.813zm-.18 8.527h-1.872V3.143h1.872V9.76zM28.081 1.496l1.872-.303v1.95h2.252v1.561h-2.252v2.323c0 .394.072.71.206.942.135.232.42.355.84.355.207-.001.414-.02.619-.058.2-.036.396-.088.587-.154l.266 1.458c-.246.1-.499.18-.756.24a4.47 4.47 0 0 1-1.02.103c-.51 0-.936-.072-1.272-.206a1.906 1.906 0 0 1-.807-.582 2.136 2.136 0 0 1-.42-.896 5.456 5.456 0 0 1-.123-1.168V1.496h.008zM32.47 6.454c-.002-.46.076-.917.232-1.35A3.19 3.19 0 0 1 33.373 4c.291-.317.651-.562 1.07-.748.42-.188.897-.277 1.434-.277.354 0 .676.031.967.097.292.064.578.154.853.27l-.388 1.499a4.985 4.985 0 0 0-.581-.174 2.941 2.941 0 0 0-.705-.078c-.556 0-.968.175-1.239.517-.27.342-.405.794-.405 1.356 0 .593.128 1.058.38 1.38.257.33.704.492 1.335.492.245 0 .49-.023.73-.066.247-.037.487-.104.717-.2l.265 1.536a4.38 4.38 0 0 1-.82.24c-.356.07-.72.104-1.084.103-.607 0-1.124-.091-1.561-.272a2.95 2.95 0 0 1-1.079-.736 2.803 2.803 0 0 1-.613-1.098 5.513 5.513 0 0 1-.178-1.387z" fill="#4D4D4D"/><path d="M44.258 6.442c0 .522-.077.993-.226 1.427-.148.433-.368.8-.65 1.104-.289.307-.64.549-1.028.71a3.419 3.419 0 0 1-1.336.252c-.485 0-.93-.083-1.33-.252a2.96 2.96 0 0 1-1.027-.71 3.176 3.176 0 0 1-.665-1.104 4.044 4.044 0 0 1-.24-1.427c0-.523.084-.994.246-1.421a3.054 3.054 0 0 1 1.71-1.795c.4-.168.833-.251 1.304-.251.477 0 .916.083 1.316.25.4.17.742.4 1.027.705.294.315.52.686.665 1.09.15.428.234.9.234 1.422zm-1.91 0c0-.582-.117-1.033-.348-1.362-.232-.328-.562-.496-.988-.496-.425 0-.762.168-.993.496-.232.329-.354.788-.354 1.362 0 .582.116 1.039.354 1.375.231.343.568.51.993.51.426 0 .756-.167.988-.51.231-.342.348-.801.348-1.375zM47.06 1.233c0 .342-.11.613-.337.813-.22.2-.485.297-.787.297a1.142 1.142 0 0 1-.788-.297c-.22-.2-.337-.465-.337-.813 0-.342.11-.614.337-.813.216-.195.497-.3.788-.297.29-.005.572.101.787.297.226.2.337.47.337.813zm-.175 8.527h-1.872V3.143h1.873V9.76zM47.95 3.368c.317-.09.73-.18 1.233-.257a10.432 10.432 0 0 1 1.581-.123c.562 0 1.027.072 1.401.22.374.148.671.354.885.62.22.27.374.587.465.955.091.368.135.782.135 1.233v3.738h-1.872V6.242c0-.608-.078-1.033-.24-1.285-.162-.251-.459-.374-.89-.374-.135 0-.278.006-.426.02-.148.014-.285.026-.4.046v5.105H47.95V3.368z" fill="#4D4D4D"/><path d="M58.77 9.935c-1.421 0-2.498-.394-3.24-1.182-.742-.787-1.11-1.904-1.11-3.356 0-.722.117-1.362.342-1.93a4.11 4.11 0 0 1 .93-1.432c.4-.393.88-.694 1.407-.885a5.103 5.103 0 0 1 1.776-.303c.368 0 .704.026 1.007.083.268.045.534.108.794.188a3.937 3.937 0 0 1 .896.394l-.568 1.581a4.64 4.64 0 0 0-.936-.362 4.38 4.38 0 0 0-1.213-.148c-.301 0-.6.05-.885.148-.288.103-.55.269-.768.485-.22.22-.4.51-.536.859-.134.354-.2.782-.2 1.284a4.85 4.85 0 0 0 .129 1.124c.09.349.231.645.425.897.206.259.472.464.774.6.317.148.705.22 1.156.22.257 0 .513-.017.768-.052a4.564 4.564 0 0 0 1.072-.277c.135-.058.258-.117.362-.163l.543 1.576c-.277.168-.665.316-1.168.45-.513.135-1.098.2-1.757.2zM64.63 2.968c.557 0 1.014.066 1.382.188.368.123.665.303.885.542a2 2 0 0 1 .47.853c.092.337.135.71.135 1.117v3.898a23.6 23.6 0 0 1-1.116.206 11.02 11.02 0 0 1-1.736.123c-.425 0-.812-.04-1.161-.117a2.605 2.605 0 0 1-.897-.368c-.249-.17-.45-.4-.582-.671-.134-.277-.2-.614-.2-1.02 0-.387.078-.71.232-.98a1.73 1.73 0 0 1 .62-.64c.257-.162.556-.277.89-.348a5.03 5.03 0 0 1 1.045-.11c.245 0 .46.015.645.033.188.02.343.045.46.083v-.175c0-.316-.098-.573-.292-.767-.194-.194-.528-.291-1.007-.291-.315 0-.63.024-.942.071-.31.046-.582.109-.807.194l-.24-1.51a7.229 7.229 0 0 1 .942-.212c.194-.031.394-.051.608-.077.227-.008.447-.022.667-.022zm.149 5.48c.188 0 .362-.006.528-.014.135-.002.268-.016.4-.04v-1.42c-.077-.02-.188-.032-.342-.052a3.148 3.148 0 0 0-.414-.025 4.337 4.337 0 0 0-.496.031c-.155.02-.291.058-.406.123a.692.692 0 0 0-.277.24.681.681 0 0 0-.103.373c0 .291.097.497.297.608.2.125.47.176.813.176zM70.414 8.416c.342 0 .587-.031.73-.103.142-.065.213-.2.213-.387 0-.149-.09-.285-.276-.394-.189-.117-.466-.24-.846-.38a7.455 7.455 0 0 1-.799-.343 2.247 2.247 0 0 1-.608-.42 1.683 1.683 0 0 1-.388-.587 2.186 2.186 0 0 1-.134-.82c0-.619.231-1.11.69-1.472.46-.362 1.091-.542 1.898-.542.388 0 .775.037 1.156.11.368.07.665.148.879.23l-.329 1.46a6.1 6.1 0 0 0-.71-.2 3.93 3.93 0 0 0-.859-.092c-.588 0-.879.163-.879.491a.482.482 0 0 0 .04.2.445.445 0 0 0 .148.168c.099.067.203.126.311.174.161.079.327.148.497.206.413.154.748.303 1.019.451.271.149.477.311.633.477.15.164.261.357.329.568.065.206.097.451.097.73 0 .652-.246 1.15-.736 1.479-.491.336-1.182.502-2.078.502-.588 0-1.079-.051-1.465-.148a7.435 7.435 0 0 1-.813-.251l.316-1.524c.32.125.647.224.982.297.321.08.65.12.982.12zM73.92 9.76V.303L75.794 0v3.17c.16-.05.321-.09.485-.122.189-.038.381-.058.574-.058.536 0 .981.071 1.336.22.354.148.639.354.852.62.214.27.363.587.452.955.09.368.128.782.128 1.233v3.738h-1.872V6.242c0-.608-.077-1.033-.231-1.285-.155-.251-.446-.374-.86-.374a2.237 2.237 0 0 0-.47.046c-.149.032-.277.057-.394.097v5.028h-1.872v.006zM11.462 10a6.034 6.034 0 0 0 0-9.882h4.534V10h-4.534zM1.969 5.058a6.023 6.023 0 0 0 2.57 4.94H0V.119h4.54a6.023 6.023 0 0 0-2.571 4.94z" fill="#F7941D"/><path d="M7.998 9.992a4.937 4.937 0 1 0 0-9.873 4.937 4.937 0 0 0 0 9.873z" fill="#F7941D"/><path d="m10.313 5.261-.002-.005v-.001l-.005-.016h-.001v-.002l-.001-.002a1.008 1.008 0 0 0-.33-.493L9.96 4.73l-.007-.005-.005-.004-.002-.001-.004-.003-.002-.002-.004-.003-.002-.002-.005-.003-.002-.002-.005-.003L9.92 4.7l-.005-.003-.003-.002-.003-.004-.003-.002-.005-.003-.002-.002-.005-.003-.003-.002-.005-.003-.003-.002-.005-.004-.003-.002-.005-.003-.003-.002-.006-.004-.002-.002-.006-.003-.003-.002-.006-.004-.003-.001-.005-.004-.003-.001-.007-.004-.003-.001-.006-.004-.003-.002-.007-.003-.003-.002-.006-.004-.003-.002-.007-.003-.003-.002-.007-.004-.003-.002-.007-.003-.004-.003c-.004-.002-.007-.003-.01-.006a1.408 1.408 0 0 0-.452-.142c.044-.047.085-.098.121-.152l.006-.008.003-.005.004-.006.002-.002.003-.006.002-.003.003-.005.002-.003.004-.006.002-.002.003-.006.002-.003.003-.005.002-.003.003-.005.002-.003.003-.005.001-.003.003-.005.002-.003.002-.005.002-.002.002-.006.002-.002.002-.005.002-.003.003-.004.001-.003.003-.005.001-.002.003-.005.001-.002.003-.005v-.002l.003-.005.001-.002.003-.004v-.003l.003-.004.001-.002.002-.005.001-.002.002-.004.001-.003.002-.004.001-.002.002-.005.003-.007.007-.015a.896.896 0 0 0 .046-.526l-.001-.001V3.57H9.58V3.57a.143.143 0 0 0-.004-.015v-.002l-.002-.004a.26.26 0 0 0-.006-.02l-.005-.021-.003-.005-.004-.015-.001-.001v-.001l-.001-.001a.896.896 0 0 0-.293-.439l-.013-.01-.006-.004-.004-.003-.002-.002-.004-.003-.002-.002-.003-.003-.002-.001-.004-.003-.002-.001-.005-.004-.002-.001-.004-.003-.002-.002-.004-.003-.003-.002-.004-.003-.003-.001-.004-.003-.003-.002-.004-.003h-.003l-.005-.004-.002-.001-.005-.003-.002-.002-.005-.002-.003-.002-.005-.003-.002-.002-.005-.003-.003-.001-.005-.003-.003-.002-.005-.003-.003-.002-.005-.003-.003-.002-.005-.003-.003-.002-.006-.003-.003-.002-.006-.003-.003-.002-.006-.003-.003-.002-.006-.003-.004-.002-.01-.005a1.354 1.354 0 0 0-.957-.094l-.09.023-.226-.883-.526.135.226.879-.42.108-.226-.877-.525.135.226.879-1.084.279.144.56.437-.112a.27.27 0 0 1 .329.194l.606 2.359a.18.18 0 0 1-.13.22l-.383.098.023.666 1.082-.278.23.878.524-.135-.226-.88.42-.108.227.88.525-.135-.227-.884.218-.056c.389-.1.703-.328.893-.612l.006-.01.004-.004.004-.007.002-.003.004-.006.002-.004.004-.006.002-.003.004-.007.001-.003.004-.006.002-.003.003-.007.002-.003.003-.006.002-.003.003-.006.002-.003.003-.006.002-.003.003-.006.002-.003.003-.005.002-.004.003-.005.001-.003.003-.006.002-.002.003-.006v-.003l.004-.005.001-.002.003-.006.001-.002.003-.005.001-.003.003-.005.001-.003.003-.005.001-.002.003-.006.001-.002.003-.005.001-.002.002-.006.001-.002.003-.005.003-.008.007-.016a1.01 1.01 0 0 0 .052-.592l-.001-.001v-.001l-.001-.001-.004-.017v-.002h-.001V5.31h-.001v-.002h-.001l-.001-.002c-.002-.008-.003-.016-.006-.023l-.002-.022zM7.226 3.684l.583-.148a.791.791 0 0 1 .535.041l.005.002.002.002.003.001.002.001.003.002h.002l.003.002h.001l.003.003h.002l.003.002h.002l.003.002.001.001.003.002h.002l.003.002.001.001.003.002h.002l.003.002.001.001.003.002.001.001.003.002h.002l.002.002h.002l.002.002.002.001.002.002h.002l.002.002h.001l.003.002.001.001.002.002h.001l.003.002.003.002.003.002h.001l.002.002h.001l.003.002.003.002.007.005a.453.453 0 0 1 .16.23l.001.001c0 .003.002.006.003.008l.001.003.003.01a.063.063 0 0 1 .002.013l.002.002.002.009c.02.095.01.192-.03.28l-.003.008-.002.003-.001.003v.001l-.001.002v.001l-.002.003v.001l-.002.003-.002.003v.002l-.002.002v.001l-.002.003v.001l-.001.002-.001.002-.002.002v.002l-.002.002v.002l-.002.002-.001.002-.002.003v.001l-.003.003v.001l-.002.003-.001.002-.002.002v.002l-.003.002v.002l-.002.003-.001.001-.002.003-.001.001-.002.003v.001l-.003.003v.002l-.003.003v.001l-.003.003-.001.002-.002.003-.002.002-.003.004a.79.79 0 0 1-.45.294l-.581.152-.277-1.068zM9.28 5.49l.001.003.002.009h.001v.001c.021.104.006.211-.042.305l-.005.009-.002.004-.001.003-.001.001-.002.003v.001l-.002.003v.001l-.003.003v.002l-.002.002-.001.002-.002.002v.002l-.003.003v.001l-.003.003v.001l-.002.003-.001.001-.002.003v.002l-.003.002v.002l-.002.002-.001.002-.003.003v.001l-.003.003v.002l-.002.003-.001.002-.002.003-.001.002-.002.003-.001.002-.002.003-.002.002-.002.003-.001.002-.003.004-.001.001-.002.004-.002.002-.002.003-.001.002-.003.003-.002.003-.004.004a.996.996 0 0 1-.536.333l-.69.179-.298-1.16.69-.176a.997.997 0 0 1 .63.032l.006.003.003.001.004.002h.002l.004.002h.002l.004.002.002.001.003.002h.002l.004.002.001.001.004.002L9 5.16l.004.002h.002l.003.002.001.001.003.002h.002l.003.002.002.001.003.002h.001l.003.002h.002l.003.003h.001l.004.002h.001l.003.002.002.001.003.002h.001l.003.003h.001l.003.002.002.001.002.002h.002l.003.003h.001l.003.003h.001l.003.002h.001l.003.002.003.003.009.005c.087.06.152.146.184.247v.002l.003.008.002.003a.542.542 0 0 0 .004.023z" fill="#fff"/></svg>