<svg fill="none" height="47" viewBox="0 0 94 47" width="94" xmlns="http://www.w3.org/2000/svg"><g fill="#fff" opacity=".7"><path d="m10.2017 2.87051c.1692-1.07263-.1097-2.107935-.68484-2.87051-.77705.521842-1.35908 1.40402-1.5282 2.47742-.16912 1.07263.1097 2.10869.68487 2.87051.77781-.52185 1.35907-1.40403 1.52817-2.47742z"/><path d="m5.76447 9.24592c.57364-.76334.85095-1.79941.67954-2.87204-.17217-1.07264-.75496-1.95406-1.53353-2.47437-.57365.7641-.85019 1.80016-.67878 2.8728.17141 1.07263.7542 1.95329 1.53277 2.47361z"/><path d="m3.86322 13.9693c.403-.8776.4609-1.9525.0739-2.9596-.38776-1.0079-1.13815-1.73314-2.00433-2.05996-.403.87761-.4609 1.95256-.07314 2.95966.387 1.0079 1.13739 1.7331 2.00357 2.0599z"/><path d="m18.2981 35.2725c-2.9985-.6362-5.6976-1.9891-7.9289-3.8411.7328-.5279 1.2798-1.3812 1.4421-2.4134.1691-1.0734-.1097-2.1087-.6849-2.8705-.7778.5218-1.35905 1.4047-1.52817 2.4774-.1478.9355.04647 1.8436.47997 2.5658-1.04372-.9035-1.97694-1.9221-2.78446-3.0275.83266-.326 1.55715-1.0178 1.94796-1.9807.40452-.9995.36643-2.0759-.02133-2.9612-.87152.3101-1.63486 1.0201-2.04014 2.0196-.35424.8738-.36872 1.807-.10818 2.6199-.88446-1.2654-1.60209-2.6428-2.13003-4.0963.90351-.1371 1.76893-.6795 2.33877-1.5724.57441-.9012.72677-1.9662.50356-2.9132-.91189.1311-1.78646.6758-2.36162 1.577-.54546.8563-.70621 1.8588-.5287 2.7692-.5188-1.465-.8319-3.0107-.93399-4.5991.9157.0876 1.88168-.2369 2.63055-.9797.74886-.742 1.12062-1.7445 1.10082-2.7204-.9157-.0876-1.88321.2369-2.63207.9797-.74201.7351-1.11225 1.7255-1.10006 2.693-.02209-.3466-.04571-.6925-.04571-1.0429 0-1.321.15617-2.6184.45023-3.8708.81895.4091 1.81388.4639 2.7471.0594.94922-.4106 1.63181-1.2075 1.94034-2.127-.82656-.4273-1.83978-.489-2.78823-.0777-.83419.3611-1.46345 1.0209-1.81236 1.8017.38624-1.5053.97284-2.9429 1.73465-4.28214.71839.60644 1.69275.89814 2.70063.71684 1.01017-.18204 1.84057-.8014 2.33037-1.62797-.7191-.60792-1.69502-.90198-2.70518-.72067-.98579.1775-1.79712.77248-2.29078 1.56857.76791-1.33698 1.70799-2.57416 2.79662-3.67879.49442.80752 1.31494 1.41164 2.31134 1.58914 1.0109.17979 1.9861-.11656 2.7044-.72753-.4913-.82505-1.3232-1.44212-2.3334-1.62191-.8982-.15921-1.7674.0579-2.45379.53632.78999-.77324 1.66529-1.4642 2.59169-2.08889.7877.23235 1.6569.20416 2.4538-.17674.9317-.4449 1.5579-1.25395 1.7918-2.1666-.8814-.379385-1.9205-.392335-2.8522.05333-.8525.4068-1.4338 1.12443-1.708 1.94186-4.89392 3.33674-8.04555 8.85608-8.04555 14.89958 0 .1386.00534.2758.00914.4136-.08532-.7343-.38776-1.4573-.91036-2.0515-.69935-.7954-1.643235-1.19-2.5627442-1.1694-.0822759.9728.2232112 1.999.9225562 2.7943.699348.7954 1.643228 1.19 2.562738 1.1694.00534-.0686.00534-.1371.00686-.2064.07694 1.4055.32453 2.7768.72144 4.0932-.25216-.5996-.66278-1.142-1.22271-1.5442-.84866-.6102-1.85121-.7717-2.743295-.534.123414.9675.636877 1.8961 1.485535 2.5063.8479.6095 1.85121.7717 2.74329.5341-.01371-.1105-.03504-.2194-.05866-.3291.43957 1.2813 1.02236 2.5048 1.73313 3.6521-.33139-.4053-.75191-.7435-1.25395-.9736-.94084-.4304-1.95481-.3885-2.789.0221.29254.9263.96141 1.7354 1.90225 2.1666.94161.4296 1.95482.3885 2.789-.0221-.05866-.1874-.13712-.3672-.22549-.5417.70696 1.0392 1.52134 2.0067 2.42866 2.8881-.39995-.2872-.86695-.4937-1.38117-.5843-1.01093-.1798-1.98605.1165-2.70368.7267.49137.8258 1.32251 1.4429 2.33344 1.6227 1.01093.179 1.98605-.1173 2.70368-.7275-.09904-.1669-.2156-.3223-.3413-.4701 2.37079 2.1049 5.30379 3.64 8.58569 4.337z"/><path d="m85.0765 5.34793c.5744-.76182.8532-1.79788.6848-2.87051-.1699-1.0734-.7511-1.955578-1.5289-2.47742-.5752.762575-.854 1.79788-.6849 2.87051.1691 1.07339.7511 1.95557 1.529 2.47742z"/><path d="m89.4727 6.77231c.1714-1.07264-.1059-2.1087-.6795-2.8728-.7778.52031-1.3614 1.40173-1.5328 2.47437-.1714 1.07263.1059 2.1087.6788 2.87204.7786-.52032 1.3621-1.40098 1.5335-2.47361z"/><path d="m89.8468 13.9693c.8669-.3268 1.6165-1.052 2.0043-2.0599.387-1.0071.3291-2.08205-.0731-2.95966-.867.32682-1.6166 1.05206-2.0044 2.05996-.387 1.0071-.3291 2.082.0732 2.9596z"/><path d="m90.7109 21.4519c-.5599.4022-.9698.9447-1.2227 1.5442.3976-1.3164.6452-2.6877.7214-4.0932.0023.0693.0015.1379.0076.2064.9188.0206 1.8634-.374 2.5628-1.1694.6993-.7953 1.0048-1.8214.9225-2.7943-.9195-.0206-1.8634.3741-2.5627 1.1694-.5226.5942-.8251 1.3172-.9104 2.0516.0031-.1379.0092-.2751.0092-.4137 0-6.0435-3.1524-11.56281-8.0463-14.89956-.2743-.81742-.8555-1.53505-1.708-1.94186-.9317-.445662-1.9708-.432712-2.8522-.05333.2338.91265.8601 1.7217 1.7918 2.1666.7968.38091 1.666.40909 2.4545.17674.9264.62469 1.8017 1.31565 2.5909 2.0889-.6863-.47842-1.5556-.69554-2.4538-.53632-1.0101.17979-1.8413.79685-2.3326 1.6219.7176.61097 1.6927.90732 2.7036.72753.9965-.1775 1.8177-.78162 2.3114-1.58914 1.0886 1.10463 2.0295 2.34181 2.7974 3.6788-.4944-.7961-1.3058-1.39107-2.2908-1.56858-1.0102-.18131-1.9868.11275-2.7052.72068.4898.82657 1.3195 1.44592 2.3304 1.62804 1.0079.1813 1.9815-.1105 2.7006-.71691.7618 1.33931 1.3484 2.77681 1.7339 4.28211-.3489-.7808-.9774-1.4405-1.8123-1.8016-.9485-.4114-1.961-.3497-2.7883.0777.3093.9195.9919 1.7163 1.9411 2.1269.9332.4046 1.9274.3497 2.7471-.0594.2933 1.2524.4502 2.5498.4502 3.8708 0 .3504-.0243.6963-.0457 1.0429.0122-.9675-.358-1.9578-1.1-2.693-.7489-.7428-1.7164-1.0673-2.6329-.9797-.019.9759.352 1.9784 1.1016 2.7205.7481.7427 1.7149 1.0673 2.6298.9796-.1013 1.5884-.4144 3.1341-.9332 4.5991.1775-.9103.0168-1.9129-.5287-2.7692-.5752-.9012-1.4497-1.4459-2.3616-1.5769-.224.9469-.0716 2.0119.5035 2.9131.5699.8929 1.4353 1.4353 2.3388 1.5724-.5279 1.4536-1.2456 2.8309-2.1308 4.0963.2613-.8129.2468-1.7461-.1082-2.6199-.4045-.9995-1.1678-1.7095-2.0401-2.0195-.3878.8852-.4259 1.9616-.0206 2.9611.3908.963 1.1153 1.6547 1.948 1.9807-.8083 1.1054-1.7408 2.124-2.7852 3.0275.4335-.7222.6277-1.6303.4799-2.5658-.1691-1.0726-.7504-1.9556-1.5274-2.4774-.5752.7618-.8548 1.7971-.6856 2.8705.163 1.0323.7092 1.8855 1.4428 2.4134-2.2313 1.852-4.9312 3.205-7.9289 3.8411l.0853.4556c3.2819-.6971 6.2149-2.2322 8.5856-4.3371-.1257.1478-.2415.3032-.3412.4701.7183.6102 1.6935.9065 2.7044.7275 1.0102-.1798 1.8413-.7968 2.3334-1.6226-.7176-.6103-1.6935-.9066-2.7036-.7268-.5143.0906-.9813.2971-1.3812.5843.9073-.8814 1.7209-1.8489 2.4286-2.888-.0891.1744-.1676.3542-.2262.5416.8349.4106 1.8481.4518 2.789.0221.9416-.4312 1.6105-1.2402 1.9022-2.1666-.8342-.4106-1.8474-.4525-2.789-.0221-.5012.2301-.9225.5683-1.2539.9736.7108-1.1473 1.2943-2.3708 1.7339-3.6521-.0244.1097-.045.2186-.0587.3291.8921.2377 1.8946.0754 2.7433-.5341.8487-.6102 1.3621-1.5388 1.4855-2.5063-.8928-.2377-1.8954-.0762-2.744.534z"/><path d="m32.2844 8.85083h4.4609c2.0636 0 3.2745-.90746 3.2745-2.39917 0-1.2058-.6672-1.80249-1.7176-2.15056.7662-.33563 1.3346-.93232 1.3346-1.93922 0-.62155-.2101-1.08149-.5561-1.42956-.5066-.509668-1.2727-.783149-2.3602-.783149h-4.4361zm2.3355-1.93923v-1.60359h1.8288c.8032 0 1.1739.31077 1.1739.78315 0 .53453-.4201.82044-1.1492.82044zm0-3.2942v-1.529h1.5569c.7167 0 1.0875.27348 1.0875.74585 0 .53453-.4078.78315-1.1369.78315z"/><path d="m41.1177 8.85083h7.0187v-2.05111h-4.6462v-1.37983h4.1519v-1.90193h-4.1519v-1.31768h4.5844v-2.051109h-6.9569z"/><path d="m52.7578 9c2.1006 0 3.497-1.05663 3.497-2.83425 0-1.65332-1.2357-2.29973-3.2252-2.73481-1.1986-.27348-1.4952-.44751-1.4952-.8453 0-.33564.2842-.58426.865-.58426.7661 0 1.6311.29834 2.422.85774l1.1986-1.70304c-.9391-.75829-2.0883-1.15608-3.5588-1.15608-2.076 0-3.3487 1.16851-3.3487 2.78453 0 1.81492 1.421 2.33702 3.2622 2.75967 1.1739.27348 1.4581.47237 1.4581.83287 0 .39779-.346.62155-.9885.62155-1.0009 0-1.9524-.3605-2.8051-1.0442l-1.3345 1.60359c1.0627.95718 2.5208 1.44199 4.0531 1.44199z"/><path d="m59.2922 8.85083h2.3973v-6.5884h2.5949v-2.113259h-7.5871v2.113259h2.5949z"/><path d="m26.206 23c2.1131 0 3.3265-.9203 4.2263-2.1703l-1.9905-1.4286c-.5725.7005-1.1588 1.1676-2.154 1.1676-1.336 0-2.2767-1.1264-2.2767-2.5687 0-1.4286.9407-2.5687 2.2767-2.5687.9134 0 1.5542.4258 2.0995 1.1127l1.9359-1.511c-.8452-1.1814-2.0586-2.033-4.0081-2.033-2.8903 0-5.0307 2.1978-5.0307 5 0 2.8984 2.195 5 4.9216 5z"/><path d="m30.8068 22.8077h2.7811l.6817-1.717h3.681l.6953 1.717h2.8357l-4.0627-9.6841h-2.5494zm4.2399-3.7912 1.077-2.7335 1.0634 2.7335z"/><path d="m46.0235 22.9725c2.3177 0 3.8582-1.1676 3.8582-3.1318 0-1.827-1.3633-2.5412-3.5582-3.022-1.3224-.3022-1.6496-.4945-1.6496-.9341 0-.3709.3135-.6456.9543-.6456.8452 0 1.7996.3297 2.6721.9478l1.3224-1.8819c-1.0361-.8379-2.304-1.2774-3.9264-1.2774-2.2903 0-3.6945 1.2912-3.6945 3.0769 0 2.0055 1.5678 2.5824 3.5991 3.0494 1.2952.3022 1.6087.522 1.6087.9204 0 .4395-.3817.6868-1.0906.6868-1.1043 0-2.1541-.3984-3.0948-1.1539l-1.4723 1.772c1.1724 1.0577 2.7811 1.5934 4.4716 1.5934z"/><path d="m51.2225 22.8077h2.6584v-9.6154h-2.6584z"/><path d="m55.628 22.8077h2.6176v-5.2747l4.0763 5.2747h2.3177v-9.6154h-2.6176v5.0824l-3.9264-5.0824h-2.4676z"/><path d="m71.1311 23c2.9448 0 5.1533-2.239 5.1533-5 0-2.7885-2.1813-5-5.1261-5-2.9447 0-5.1533 2.239-5.1533 5 0 2.7885 2.1813 5 5.1261 5zm.0272-2.4038c-1.4451 0-2.4403-1.2088-2.4403-2.5962 0-1.4148.968-2.5962 2.4131-2.5962 1.4587 0 2.454 1.2088 2.454 2.5962 0 1.4148-.968 2.5962-2.4268 2.5962z"/><path d="m33.2844 35.568h6.648v-1.896h-3.468l1.44-1.008c1.26-.888 1.944-1.596 1.944-2.94 0-1.608-1.26-2.7-3.096-2.7-1.632 0-2.52.636-3.42 1.8l1.572 1.308c.66-.756 1.104-1.08 1.668-1.08s.936.324.936.852c0 .504-.288.912-1.08 1.512l-3.144 2.4z"/><path d="m44.7447 35.736c2.4 0 3.9-1.992 3.9-4.368 0-2.4-1.488-4.368-3.876-4.368s-3.9 1.992-3.9 4.368c0 2.4 1.476 4.368 3.876 4.368zm.024-2.064c-.936 0-1.56-.96-1.56-2.304 0-1.368.612-2.304 1.536-2.304s1.56.972 1.56 2.304c0 1.356-.6 2.304-1.536 2.304z"/><path d="m49.4211 35.568h6.648v-1.896h-3.468l1.44-1.008c1.26-.888 1.944-1.596 1.944-2.94 0-1.608-1.26-2.7-3.096-2.7-1.632 0-2.52.636-3.42 1.8l1.572 1.308c.66-.756 1.104-1.08 1.668-1.08s.936.324.936.852c0 .504-.288.912-1.08 1.512l-3.144 2.4z"/><path d="m58.4694 35.568h2.292v-8.46h-1.692l-2.46.696.444 1.8 1.416-.324z"/><path clip-rule="evenodd" d="m16.0708 38.0606c-3.0387.4882-4.742 3.1913-3.8209 6.0635.8032 2.5044 3.8509 3.6045 6.5484 2.3636l.3337-.1535.0258-.4239c.0142-.2332.036-.597.0487-.8085.0267-.4465.039-.4365-.2515-.2047-1.9199 1.532-4.5687.7465-5.1252-1.5199-.7454-3.0356 1.9536-5.0962 4.7971-3.6627.1851.0931.3471.1695.3602.1695s.0183-.3597.0118-.7991l-.0118-.7992-.3047-.0799c-.7755-.2036-1.8696-.2643-2.6116-.1452zm14.5555.0829c-.8283.2227-.9693 1.3301-.2254 1.7708.4598.2726 1.0786.0929 1.3161-.3819.3807-.761-.2829-1.606-1.0907-1.3889zm31.5146-.0009c-1.0862.2952-.8828 1.8859.2422 1.8931 1.1721.0077 1.2716-1.7519.1087-1.9246-.0837-.0124-.2416.0017-.3509.0315zm7.4458 2.4156-1.1099 1.1932.3778.0127.3779.0126.015 2.0744c.0171 2.378.0194 2.3925.4016 2.7482.3417.318 1.421.4524 1.9592.2439.0636-.0245.9097-1.2464.8825-1.2741-.0055-.0054-.1175.02-.249.0566-.3516.0972-1.0303.1003-1.2019.0052-.2727-.1506-.2781-.1907-.2781-2.1176v-1.7398h.7835.7836v-.5054-.5053h-.7836-.7835v-.703c0-.3868-.0145-.7012-.0325-.6989-.0181.0022-.5321.541-1.1426 1.1973zm-48.2057.1833c-.1914.0318-.4358.0848-.5428.118l-.1946.0603-.2248.7014c-.2643.8252-.2755.7636.1029.5721 1.1179-.5665 2.1044-.2879 2.1176.5981l.004.2614-.4422.1917c-2.021.876-2.4762 1.2769-2.4721 2.1759.0035.7647.4291 1.2586 1.2328 1.4307.4954.1059.7026.0867.9011-.0835.2517-.216.7187-.5563.7634-.5563.0213 0 .0388.1482.0388.3295v.3295h.9141c.5026 0 .914-.0083.914-.0182 0-.0102-.0383-.1086-.0852-.2187-.2027-.4777-.2315-.7808-.2606-2.751-.0267-1.8026-.0312-1.8761-.1263-2.1178-.334-.8497-1.339-1.2392-2.6401-1.0231zm5.6368-.0195c-.9286.1667-1.568.8956-1.5665 1.7861.0013.7434.2739 1.1909 1.0539 1.7302.8591.5942 1.095 1.0194.819 1.4765-.3494.5785-1.2655.3056-1.7868-.5323-.2075-.3336-.2024-.3457-.2362.5565-.0165.441-.04.8363-.0519.8787-.0269.0943.0918.1448.5484.2338 1.9754.3849 3.197-.3706 3.1269-1.9344-.0308-.6907-.3109-1.1157-1.0905-1.6547-.6942-.4801-.8671-.6951-.8671-1.0791 0-.6432.76-.7721 1.5071-.2556l.2847.1966v-.6332-.6333l-.3042-.07c-.3835-.088-1.1237-.1219-1.4368-.0658zm9.1405-.0018c-.3577.0755-.4386.1385-.9254.7193l-.4818.5743.0266-.6254.0265-.6256h-.895-.895l.0291.0989c.1826.6207.1976.8409.1981 2.9191.0006 2.1007-.0138 2.3122-.1928 2.8205-.0372.1058-.0678.2095-.0678.2306s.4681.0384 1.0401.0384h1.0398l-.1027-.3357c-.166-.5429-.1925-.901-.1925-2.5843v-1.5955l.2502-.1197c.6988-.3344 1.425-.2085 1.7116.2969l.1057.1861-.0028 1.5819c-.003 1.7046.0071 1.6079-.2598 2.4716l-.0306.0987h1.0498c.5774 0 1.0496-.0073 1.0496-.0164 0-.009-.0308-.1029-.0685-.2086-.1838-.5154-.2006-.7118-.2323-2.6969-.034-2.1431-.0375-2.1693-.3533-2.6092-.3565-.4967-1.1435-.7634-1.8268-.619zm5.6801.0205c-2.7929.581-3.3898 4.9664-.8124 5.9677 1.9201.7461 3.9099-.4215 4.2171-2.4744.3307-2.2104-1.3385-3.9233-3.4047-3.4933zm7.3837-.0211c-.4713.1003-.7695.347-1.0877.9001l-.2022.3513-.0126-.3332c-.0069-.1834.0047-.4453.026-.5817.0213-.1365.0286-.2583.0162-.2707-.0724-.0732-1.7976-.0204-1.775.0543.2187.7223.2556 1.2471.2312 3.2859-.0219 1.8075-.0381 1.9909-.2245 2.5197-.0371.1057-.0676.1996-.0676.2086 0 .0091.47.0164 1.0446.0164s1.0447-.0067 1.0447-.015-.0399-.132-.0887-.2747c-.1809-.5304-.2156-.9564-.2158-2.6456l-.0002-1.5951.2829-.1336c.6702-.3165 1.243-.1704 1.4884.38.1953.4383.1236 3.2284-.1008 3.9227-.057.176-.1037.3295-.1037.3408s.4723.0205 1.0495.0205c.9814 0 1.0473-.0049 1.0199-.0769-.2273-.5941-.2846-1.1922-.2846-2.9611v-1.5244l.1414-.0862c.4851-.2953 1.1394-.2563 1.4566.0869.2125.2298.2431.4187.2635 1.6177.0256 1.5033-.0327 2.0996-.2801 2.8671-.023.0718.0448.0769 1.024.0769h1.0485l-.0459-.1208c-.2105-.5519-.2235-.695-.2538-2.7572-.0256-1.7479-.0379-2.0024-.1072-2.1937-.5068-1.4004-2.3023-1.5342-3.0528-.2276-.2159.3759-.2814.446-.2814.3013-.0004-.6994-1.0825-1.3382-1.9528-1.1527zm8.6786.0022c-1.4046.237-2.22 1.4063-2.22 3.1827 0 1.5836.5467 2.4786 1.7675 2.8929.6704.2273 2.0311.1623 2.4481-.1173.0817-.0546.5348-1.5093.4855-1.559-.0105-.0106-.1913.0705-.4017.1802-1.0431.543-2.0398.4062-2.4729-.3397-.1125-.1938-.2976-.8432-.2647-.9293.013-.0347.4924-.0594 1.6002-.082.87-.0177 1.5915-.0421 1.6035-.0537.061-.0605.0132-1.3684-.06-1.6364-.3206-1.1749-1.2458-1.7476-2.4855-1.5384zm8.3126-.0162c-1.7618.2359-2.3246 2.2732-.9183 3.3252.146.1093.411.3074.5889.4405.8664.6477.8003 1.5214-.1152 1.5199-.4642-.0008-.8018-.2377-1.1773-.826l-.1599-.2502-.028.1978c-.0153.1087-.0414.5172-.058.9078l-.0299.7099.3169.0727c1.8932.4347 3.1452-.1057 3.3517-1.4469.1334-.8656-.1813-1.4761-1.0744-2.0846-.6317-.4302-.8924-.7489-.8922-1.0901.0008-.6198.7598-.7727 1.4655-.2948.1579.1069.2942.1941.303.1941s.0161-.2742.0161-.6094v-.6094l-.1851-.0501c-.4151-.1128-1.0162-.1584-1.4038-.1064zm8.7828.0347c-1.3385.2451-2.1549 1.4439-2.1549 3.1642 0 1.6052.6207 2.5596 1.9049 2.9287.652.1876 2.124.0792 2.3802-.1749.0416-.0415.4631-1.5455.4328-1.5455-.013 0-.2011.0884-.4179.1964-1.3939.6942-2.6338.1757-2.6926-1.1261l-.0088-.1908 1.5452-.035c.85-.0195 1.5719-.0443 1.6046-.0555.0848-.029.0435-1.4507-.0503-1.7374-.3758-1.1481-1.2813-1.655-2.5432-1.4241zm6.618.0581c-.3798.1557-.7504.5344-1.0877 1.1116-.0999.1706-.1955.3232-.2126.3395-.0172.016-.0204-.3118-.0071-.7288l.0242-.7579h-.8918c-.8292 0-.8901.0054-.8685.0769.3698 1.2213.3447 4.9847-.0397 5.9537-.0286.072.0368.0769 1.0188.0769.577 0 1.0492-.0067 1.0492-.015s-.0401-.132-.0891-.2747c-.1697-.494-.2151-1.0079-.2153-2.4416l-.0003-1.3472.1415-.1207c.4442-.3794 1.0414-.4593 1.5637-.2094l.2907.1389.0235-.161c.0129-.0885.0538-.4278.0908-.7541.037-.3261.0767-.6651.0881-.7529.0181-.1372.0073-.1634-.0767-.1861-.1864-.0505-.6209-.0224-.8017.0519zm-51.7672.0077c0 .0238.053.2166.118.4285l.1178.3851.0155 2.0075c.0165 2.1368-.0084 2.5044-.2033 3.0226l-.0831.2205h1.0584 1.0585l-.0844-.2307c-.1859-.5089-.2128-.8658-.2125-2.8179.0004-1.9253.0182-2.1785.1924-2.7321l.1029-.3268h-1.0401c-.6538 0-1.0401.016-1.0401.0433zm31.5818.2926c.2828.9253.2854 4.5379.0038 5.4331l-.1066.3385h1.04c.572 0 1.0399-.0096 1.0399-.0213s-.0537-.1945-.1195-.4064l-.1195-.3851v-2.219c-.0002-2.1606.0024-2.2275.096-2.5485.053-.1812.109-.374.1247-.4283l.0286-.0989h-1.0449-1.0452zm-2.7972.6401c.3601.1088.6058.5182.6657 1.1089l.0292.2879h-1.0437-1.0436l.0413-.2747c.1387-.9253.636-1.3385 1.3511-1.1221zm17.2448.0298c.3091.144.5206.4839.5683.9125.0128.1171.0319.2671.0422.3337l.0184.1208h-1.0436c-1.1906 0-1.0843.0482-.9807-.4458.1714-.8164.771-1.2123 1.3954-.9212zm-33.1274.1103c1.0028.5932 1.1981 2.8846.3158 3.7057-1.0892 1.0135-2.4168-.8875-1.9252-2.7566.2469-.9384.9383-1.3463 1.6094-.9491zm-20.0838 3.1206v.8094l-.1298.0286c-.8979.1993-1.4863-.5981-1.1334-1.5355l.0422-.1119h.6104.6106z" fill-rule="evenodd"/></g></svg>