<svg width="100" height="50" viewBox="0 0 100 50" fill="none" fill-opacity=".7" xmlns="http://www.w3.org/2000/svg">
<path d="M10.8529 3.05373C11.0329 1.91264 10.7362 0.81125 10.1244 0C9.29771 0.555151 8.67854 1.49364 8.49862 2.63555C8.3187 3.77665 8.61532 4.87884 9.22721 5.68928C10.0547 5.13413 10.673 4.19564 10.8529 3.05373Z" fill="white"/>
<path d="M6.13236 9.83608C6.74262 9.02402 7.03762 7.92182 6.85527 6.78072C6.67212 5.63962 6.05213 4.70194 5.22386 4.14841C4.6136 4.96128 4.31941 6.06348 4.50176 7.20458C4.68411 8.34568 5.30409 9.28255 6.13236 9.83608Z" fill="white"/>
<path d="M4.10989 14.861C4.53861 13.9274 4.6002 12.7838 4.1885 11.7124C3.77598 10.6402 2.9777 9.86867 2.05623 9.521C1.62751 10.4546 1.56591 11.5982 1.97843 12.6696C2.39013 13.7418 3.18841 14.5133 4.10989 14.861Z" fill="white"/>
<path d="M19.4661 37.5239C16.2762 36.8472 13.4048 35.4078 11.031 33.4377C11.8107 32.876 12.3926 31.9683 12.5652 30.8702C12.7451 29.7283 12.4485 28.6269 11.8366 27.8165C11.0092 28.3716 10.3908 29.3109 10.2109 30.452C10.0537 31.4472 10.2603 32.4133 10.7215 33.1816C9.61115 32.2204 8.61836 31.1368 7.7593 29.9609C8.64511 29.614 9.41584 28.8781 9.83159 27.8537C10.2619 26.7904 10.2214 25.6453 9.8089 24.7036C8.88176 25.0334 8.0697 25.7887 7.63854 26.852C7.26169 27.7816 7.24629 28.7744 7.52346 29.6391C6.58254 28.293 5.8191 26.8277 5.25747 25.2814C6.21865 25.1355 7.13931 24.5585 7.74552 23.6086C8.35659 22.6499 8.51868 21.5169 8.28122 20.5095C7.31112 20.6489 6.38074 21.2284 5.76886 22.1871C5.18858 23.0981 5.01758 24.1646 5.20641 25.1331C4.6545 23.5746 4.32141 21.9302 4.21281 20.2405C5.18696 20.3337 6.2146 19.9884 7.01126 19.1982C7.80792 18.4089 8.20342 17.3423 8.18235 16.3041C7.2082 16.2109 6.17894 16.5562 5.38228 17.3464C4.59291 18.1285 4.19903 19.182 4.212 20.2113C4.1885 19.8425 4.16337 19.4746 4.16337 19.1018C4.16337 17.6965 4.32951 16.3163 4.64234 14.9839C5.51357 15.4191 6.572 15.4775 7.56479 15.0472C8.5746 14.6103 9.30075 13.7626 9.62898 12.7844C8.74966 12.3297 7.67177 12.2641 6.66277 12.7017C5.77534 13.0859 5.10592 13.7877 4.73473 14.6184C5.14563 13.017 5.76967 11.4877 6.58011 10.0629C7.34435 10.7081 8.3809 11.0185 9.45312 10.8256C10.5278 10.6319 11.4111 9.97299 11.9323 9.09366C11.1672 8.44693 10.129 8.1341 9.05438 8.32699C8.00567 8.51582 7.14255 9.14877 6.61739 9.99568C7.43431 8.57336 8.43439 7.2572 9.59251 6.08207C10.1185 6.94113 10.9913 7.58381 12.0514 7.77264C13.1268 7.96391 14.1642 7.64865 14.9285 6.99867C14.4057 6.12097 13.5207 5.46451 12.4461 5.27325C11.4906 5.10386 10.5659 5.33484 9.83564 5.8438C10.6761 5.0212 11.6073 4.28613 12.5928 3.62157C13.4308 3.86875 14.3555 3.83877 15.2032 3.43355C16.1944 2.96025 16.8605 2.09956 17.1093 1.12865C16.1717 0.725055 15.0662 0.711278 14.0751 1.18539C13.1682 1.61816 12.5498 2.3816 12.2581 3.2512C7.05178 6.80093 3.69899 12.6726 3.69899 19.1018C3.69899 19.2493 3.70467 19.3952 3.70872 19.5419C3.61795 18.7606 3.2962 17.9915 2.74024 17.3593C1.99626 16.5132 0.992122 16.0934 0.013921 16.1153C-0.0736065 17.1502 0.25138 18.2419 0.995364 19.088C1.73935 19.9341 2.74348 20.3539 3.72168 20.332C3.72736 20.2591 3.72736 20.1862 3.72898 20.1124C3.81083 21.6077 4.07423 23.0665 4.49647 24.4669C4.22821 23.8291 3.79138 23.2521 3.19571 22.8241C2.29288 22.175 1.22634 22.0032 0.277314 22.256C0.408605 23.2853 0.954842 24.2732 1.85767 24.9224C2.75969 25.5707 3.82704 25.7433 4.77607 25.4905C4.76148 25.373 4.73879 25.2571 4.71366 25.1404C5.18129 26.5035 5.80127 27.8051 6.55741 29.0256C6.20487 28.5945 5.75751 28.2346 5.22343 27.9899C4.22254 27.532 3.14384 27.5766 2.25641 28.0134C2.56762 28.9989 3.27918 29.8596 4.28008 30.3183C5.28178 30.7754 6.35967 30.7316 7.2471 30.2948C7.1847 30.0954 7.10122 29.9041 7.00721 29.7186C7.7593 30.824 8.62566 31.8533 9.59089 32.7909C9.16541 32.4854 8.66861 32.2658 8.12156 32.1693C7.04611 31.9781 6.00875 32.2933 5.24531 32.9425C5.76805 33.821 6.65224 34.4775 7.72769 34.6687C8.80314 34.8592 9.84051 34.5439 10.6039 33.8948C10.4986 33.7173 10.3746 33.5519 10.2409 33.3947C12.763 35.634 15.8831 37.267 19.3745 38.0085L19.4661 37.5239Z" fill="white"/>
<path d="M90.5068 5.68928C91.1178 4.87884 91.4145 3.77665 91.2353 2.63555C91.0546 1.49364 90.4363 0.555151 89.6088 0C88.9969 0.81125 88.7003 1.91264 88.8802 3.05373C89.0601 4.19564 89.6793 5.13413 90.5068 5.68928Z" fill="white"/>
<path d="M95.1838 7.20458C95.3662 6.06348 95.0712 4.96128 94.4609 4.14841C93.6334 4.70194 93.0126 5.63962 92.8303 6.78072C92.6479 7.92182 92.9429 9.02402 93.5524 9.83608C94.3807 9.28255 95.0015 8.34568 95.1838 7.20458Z" fill="white"/>
<path d="M95.5817 14.861C96.504 14.5133 97.3015 13.7418 97.714 12.6696C98.1257 11.5982 98.0641 10.4546 97.6362 9.521C96.7139 9.86867 95.9165 10.6402 95.5039 11.7124C95.0922 12.7838 95.1538 13.9274 95.5817 14.861Z" fill="white"/>
<path d="M96.501 22.8212C95.9054 23.2491 95.4693 23.8261 95.2003 24.4639C95.6233 23.0635 95.8867 21.6047 95.9678 20.1094C95.9702 20.1832 95.9694 20.2561 95.9759 20.3291C96.9533 20.351 97.9582 19.9312 98.7022 19.0851C99.4462 18.239 99.7712 17.1473 99.6836 16.1124C98.7054 16.0905 97.7013 16.5103 96.9573 17.3564C96.4013 17.9885 96.0796 18.7576 95.9888 19.5389C95.9921 19.3922 95.9986 19.2463 95.9986 19.0988C95.9986 12.6696 92.645 6.79797 87.4387 3.24824C87.1469 2.37863 86.5286 1.6152 85.6217 1.18243C84.6305 0.708318 83.5251 0.722095 82.5874 1.12569C82.8362 2.0966 83.5024 2.95729 84.4935 3.43059C85.3413 3.83581 86.266 3.86579 87.1048 3.61861C88.0903 4.28317 89.0215 5.01824 89.8611 5.84084C89.1309 5.33188 88.2062 5.1009 87.2507 5.27029C86.176 5.46155 85.2918 6.11801 84.7691 6.99571C85.5325 7.64569 86.5699 7.96095 87.6453 7.76968C88.7054 7.58085 89.5791 6.93817 90.1042 6.07911C91.2623 7.25424 92.2632 8.5704 93.0802 9.99272C92.5542 9.14581 91.6911 8.51286 90.6432 8.32403C89.5685 8.13114 88.5295 8.44397 87.7653 9.0907C88.2864 9.97003 89.169 10.6289 90.2444 10.8226C91.3166 11.0155 92.3524 10.7051 93.1174 10.06C93.9279 11.4847 94.5519 13.014 94.962 14.6155C94.5908 13.7848 93.9222 13.0829 93.034 12.6988C92.025 12.2611 90.9479 12.3268 90.0678 12.7814C90.3968 13.7596 91.1229 14.6074 92.1328 15.0442C93.1255 15.4745 94.1832 15.4162 95.0552 14.981C95.3672 16.3133 95.5342 17.6935 95.5342 19.0988C95.5342 19.4716 95.5082 19.8396 95.4855 20.2083C95.4985 19.1791 95.1046 18.1255 94.3153 17.3434C93.5186 16.5532 92.4893 16.208 91.5144 16.3012C91.4941 17.3394 91.8888 18.4059 92.6863 19.1953C93.4821 19.9855 94.5106 20.3307 95.4839 20.2375C95.3761 21.9273 95.0431 23.5717 94.4911 25.1301C94.68 24.1617 94.509 23.0951 93.9287 22.1842C93.3168 21.2254 92.3864 20.646 91.4163 20.5066C91.1781 21.5139 91.3401 22.6469 91.952 23.6057C92.5582 24.5555 93.4789 25.1326 94.4401 25.2784C93.8784 26.8248 93.115 28.29 92.1733 29.6362C92.4513 28.7714 92.4359 27.7786 92.0582 26.8491C91.6279 25.7858 90.8158 25.0304 89.8878 24.7006C89.4753 25.6423 89.4348 26.7875 89.866 27.8508C90.2817 28.8752 91.0524 29.6111 91.9383 29.9579C91.0784 31.1339 90.0864 32.2174 88.9753 33.1786C89.4364 32.4103 89.6431 31.4443 89.4859 30.449C89.3059 29.3079 88.6876 28.3686 87.8609 27.8135C87.249 28.6239 86.9516 29.7253 87.1315 30.8672C87.305 31.9654 87.8861 32.8731 88.6665 33.4347C86.2927 35.4049 83.4205 36.8442 80.2314 37.5209L80.3222 38.0056C83.8136 37.264 86.9338 35.631 89.4559 33.3918C89.3221 33.549 89.199 33.7143 89.0928 33.8918C89.857 34.541 90.8944 34.8562 91.9699 34.6658C93.0445 34.4745 93.9287 33.818 94.4522 32.9395C93.6888 32.2904 92.6506 31.9751 91.576 32.1664C91.0289 32.2628 90.5321 32.4824 90.1067 32.788C91.0719 31.8503 91.9374 30.821 92.6903 29.7156C92.5955 29.9012 92.512 30.0925 92.4496 30.2918C93.3379 30.7286 94.4158 30.7724 95.4167 30.3153C96.4184 29.8566 97.1299 28.9959 97.4403 28.0104C96.5529 27.5736 95.475 27.529 94.4733 27.9869C93.94 28.2317 93.4919 28.5915 93.1393 29.0227C93.8955 27.8021 94.5163 26.5006 94.9839 25.1374C94.9579 25.2541 94.9361 25.37 94.9215 25.4875C95.8705 25.7404 96.937 25.5678 97.8399 24.9194C98.7427 24.2702 99.2889 23.2823 99.4202 22.2531C98.4704 22.0002 97.4039 22.172 96.501 22.8212Z" fill="white"/>
<path d="M29.7874 12.5897H35.3486C37.9212 12.5897 39.4309 11.5171 39.4309 9.7538C39.4309 8.32851 38.599 7.62321 37.2896 7.21178C38.2447 6.81505 38.9533 6.10975 38.9533 4.91955C38.9533 4.18486 38.6915 3.64119 38.2601 3.22976C37.6285 2.62732 36.6734 2.30406 35.3178 2.30406H29.7874V12.5897ZM32.6989 10.2975V8.40198H34.9788C35.9802 8.40198 36.4423 8.76932 36.4423 9.32768C36.4423 9.95952 35.9186 10.2975 35.0097 10.2975H32.6989ZM32.6989 6.40362V4.59629H34.6399C35.5334 4.59629 35.9956 4.91955 35.9956 5.47791C35.9956 6.10975 35.4872 6.40362 34.5783 6.40362H32.6989Z" fill="white"/>
<path d="M40.7995 12.5897H49.5496V10.1652H43.7573V8.53422H48.9334V6.28607H43.7573V4.72853H49.4726V2.30406H40.7995V12.5897Z" fill="white"/>
<path d="M55.311 12.766C57.9298 12.766 59.6706 11.5171 59.6706 9.41585C59.6706 7.46157 58.1301 6.6975 55.6499 6.18321C54.1556 5.85995 53.7859 5.65424 53.7859 5.18404C53.7859 4.78731 54.1402 4.49343 54.8642 4.49343C55.8193 4.49343 56.8977 4.84608 57.8836 5.5073L59.3779 3.49425C58.2071 2.59793 56.7744 2.12773 54.9412 2.12773C52.3532 2.12773 50.7665 3.50895 50.7665 5.41914C50.7665 7.56443 52.5381 8.18157 54.8334 8.68116C56.2969 9.00442 56.6512 9.23952 56.6512 9.66564C56.6512 10.1358 56.2199 10.4003 55.4188 10.4003C54.171 10.4003 52.9848 9.97421 51.9219 9.16605L50.2581 11.0616C51.5829 12.193 53.4007 12.766 55.311 12.766Z" fill="white"/>
<path d="M63.4573 12.5897H66.4459V4.802H69.681V2.30406H60.2223V4.802H63.4573V12.5897Z" fill="white"/>
<path d="M18.6229 25.5027C21.1071 25.5027 22.7584 24.2606 22.7584 22.1709C22.7584 20.2274 21.2971 19.4675 18.9444 18.956C17.5269 18.6346 17.1762 18.43 17.1762 17.9624C17.1762 17.5678 17.5123 17.2755 18.1991 17.2755C19.1051 17.2755 20.1281 17.6263 21.0633 18.2838L22.4808 16.2819C21.3702 15.3905 20.0112 14.9228 18.2722 14.9228C15.8172 14.9228 14.3121 16.2965 14.3121 18.1962C14.3121 20.3297 15.9926 20.9434 18.1699 21.4403C19.5581 21.7617 19.8942 21.9956 19.8942 22.4193C19.8942 22.887 19.4851 23.15 18.7252 23.15C17.5415 23.15 16.4163 22.7262 15.408 21.9225L13.8298 23.8076C15.0866 24.9328 16.8109 25.5027 18.6229 25.5027Z" fill="white"/>
<path d="M28.7402 25.5173C31.6482 25.5173 33.5332 24.0706 33.5332 20.7681V15.0982H30.6545V20.8557C30.6545 22.2878 29.9092 22.96 28.7694 22.96C27.6296 22.96 26.8843 22.2586 26.8843 20.7827V15.0982H24.0055V20.8411C24.0055 24.0414 25.8322 25.5173 28.7402 25.5173Z" fill="white"/>
<path d="M35.211 25.3273H38.0459V22.4047H39.4488C41.9915 22.4047 43.8473 21.1334 43.8473 18.7222C43.8473 16.428 42.1814 15.0982 39.5949 15.0982H35.211V25.3273ZM38.0459 20.1835V17.4801H39.3757C40.3986 17.4801 41.0124 17.9477 41.0124 18.8245C41.0124 19.6575 40.3986 20.1835 39.3903 20.1835H38.0459Z" fill="white"/>
<path d="M45.0434 25.3273H47.8783V22.4047H49.2812C51.8239 22.4047 53.6797 21.1334 53.6797 18.7222C53.6797 16.428 52.0138 15.0982 49.4273 15.0982H45.0434V25.3273ZM47.8783 20.1835V17.4801H49.2081C50.231 17.4801 50.8448 17.9477 50.8448 18.8245C50.8448 19.6575 50.231 20.1835 49.2227 20.1835H47.8783Z" fill="white"/>
<path d="M60.0196 25.5319C63.176 25.5319 65.5433 23.15 65.5433 20.2128C65.5433 17.2463 63.2053 14.8936 60.0488 14.8936C56.8924 14.8936 54.5251 17.2755 54.5251 20.2128C54.5251 23.1792 56.8632 25.5319 60.0196 25.5319ZM60.0488 22.9746C58.4999 22.9746 57.4331 21.6887 57.4331 20.2128C57.4331 18.7076 58.4706 17.4509 60.0196 17.4509C61.5832 17.4509 62.65 18.7368 62.65 20.2128C62.65 21.7179 61.6124 22.9746 60.0488 22.9746Z" fill="white"/>
<path d="M67.0201 25.3273H69.855V22.2294H71.0971L73.1575 25.3273H76.4309L73.9905 21.7617C75.2618 21.2211 76.0948 20.1835 76.0948 18.6199C76.0948 17.5824 75.7879 16.7933 75.1888 16.1942C74.5019 15.5074 73.4206 15.0982 71.857 15.0982H67.0201V25.3273ZM69.855 20.0082V17.5532H71.7109C72.6607 17.5532 73.2452 17.9624 73.2452 18.7661C73.2452 19.5406 72.6899 20.0082 71.7255 20.0082H69.855Z" fill="white"/>
<path d="M80.022 25.3273H82.857V17.5824H85.9257V15.0982H76.9533V17.5824H80.022V25.3273Z" fill="white"/>
<path d="M34 36.568H40.648V34.672H37.18L38.62 33.664C39.88 32.776 40.564 32.068 40.564 30.724C40.564 29.116 39.304 28.024 37.468 28.024C35.836 28.024 34.948 28.66 34.048 29.824L35.62 31.132C36.28 30.376 36.724 30.052 37.288 30.052C37.852 30.052 38.224 30.376 38.224 30.904C38.224 31.408 37.936 31.816 37.144 32.416L34 34.816V36.568Z" fill="white"/>
<path d="M45.4603 36.736C47.8603 36.736 49.3603 34.744 49.3603 32.368C49.3603 29.968 47.8723 28 45.4843 28C43.0963 28 41.5843 29.992 41.5843 32.368C41.5843 34.768 43.0603 36.736 45.4603 36.736ZM45.4843 34.672C44.5483 34.672 43.9243 33.712 43.9243 32.368C43.9243 31 44.5363 30.064 45.4603 30.064C46.3843 30.064 47.0203 31.036 47.0203 32.368C47.0203 33.724 46.4203 34.672 45.4843 34.672Z" fill="white"/>
<path d="M50.1367 36.568H56.7847V34.672H53.3167L54.7567 33.664C56.0167 32.776 56.7007 32.068 56.7007 30.724C56.7007 29.116 55.4407 28.024 53.6047 28.024C51.9727 28.024 51.0847 28.66 50.1847 29.824L51.7567 31.132C52.4167 30.376 52.8607 30.052 53.4247 30.052C53.9887 30.052 54.3607 30.376 54.3607 30.904C54.3607 31.408 54.0727 31.816 53.2807 32.416L50.1367 34.816V36.568Z" fill="white"/>
<path d="M57.625 36.568H64.273V34.672H60.805L62.245 33.664C63.505 32.776 64.189 32.068 64.189 30.724C64.189 29.116 62.929 28.024 61.093 28.024C59.461 28.024 58.573 28.66 57.673 29.824L59.245 31.132C59.905 30.376 60.349 30.052 60.913 30.052C61.477 30.052 61.849 30.376 61.849 30.904C61.849 31.408 61.561 31.816 60.769 32.416L57.625 34.816V36.568Z" fill="white"/>
<path fill-rule="evenodd" clip-rule="evenodd" d="M17.0965 40.49C13.8639 41.0094 12.0518 43.885 13.0318 46.9405C13.8861 49.6048 17.1285 50.7751 19.9981 49.455L20.3531 49.2918L20.3805 48.8408C20.3956 48.5927 20.4189 48.2057 20.4324 47.9807C20.4608 47.5056 20.4739 47.5162 20.1648 47.7629C18.1223 49.3926 15.3045 48.557 14.7125 46.146C13.9195 42.9166 16.7908 40.7244 19.8158 42.2495C20.0126 42.3485 20.1851 42.4298 20.199 42.4298C20.2129 42.4298 20.2184 42.0471 20.2115 41.5797L20.199 40.7294L19.8748 40.6444C19.0498 40.4278 17.8859 40.3633 17.0965 40.49ZM32.5811 40.5782C31.6999 40.8151 31.5499 41.9932 32.3413 42.462C32.8304 42.752 33.4887 42.5609 33.7414 42.0558C34.1464 41.2462 33.4404 40.3472 32.5811 40.5782ZM66.1073 40.5772C64.9517 40.8913 65.1681 42.5836 66.3649 42.5912C67.6118 42.5994 67.7177 40.7274 66.4805 40.5438C66.3915 40.5305 66.2235 40.5456 66.1073 40.5772ZM74.0284 43.1471L72.8476 44.4164L73.2495 44.4299L73.6515 44.4433L73.6674 46.6501C73.6857 49.1799 73.6881 49.1953 74.0947 49.5737C74.4582 49.912 75.6064 50.055 76.1789 49.8332C76.2467 49.8071 77.1467 48.5073 77.1177 48.4778C77.112 48.472 76.9928 48.4991 76.8529 48.538C76.4789 48.6414 75.7568 48.6446 75.5742 48.5436C75.2842 48.3833 75.2785 48.3406 75.2785 46.2908V44.4399H76.112H76.9455V43.9023V43.3646H76.112H75.2785V42.6169C75.2785 42.2054 75.263 41.8709 75.2439 41.8733C75.2246 41.8757 74.6777 42.4488 74.0284 43.1471ZM22.7456 43.342C22.542 43.3759 22.282 43.4322 22.1682 43.4675L21.9612 43.5317L21.722 44.2779C21.4409 45.1558 21.429 45.0902 21.8315 44.8865C23.0208 44.2839 24.0702 44.5803 24.0843 45.5228L24.0885 45.8009L23.6181 46.0048C21.4681 46.9367 20.9838 47.3632 20.9882 48.3196C20.992 49.1331 21.4447 49.6585 22.2997 49.8416C22.8267 49.9543 23.0472 49.9339 23.2583 49.7528C23.5261 49.523 24.0229 49.161 24.0704 49.161C24.0931 49.161 24.1117 49.3186 24.1117 49.5115V49.8621H25.0841C25.6189 49.8621 26.0565 49.8532 26.0565 49.8426C26.0565 49.8318 26.0158 49.7271 25.9659 49.61C25.7502 49.1018 25.7196 48.7794 25.6886 46.6834C25.6602 44.7658 25.6554 44.6875 25.5543 44.4305C25.1989 43.5265 24.1298 43.1122 22.7456 43.342ZM28.7422 43.3213C27.7543 43.4986 27.0742 44.274 27.0758 45.2214C27.0772 46.0123 27.3672 46.4883 28.1969 47.062C29.1109 47.6941 29.3618 48.1465 29.0682 48.6328C28.6965 49.2482 27.722 48.9579 27.1673 48.0665C26.9466 47.7116 26.952 47.6987 26.916 48.6585C26.8986 49.1277 26.8735 49.5482 26.8608 49.5934C26.8322 49.6936 26.9586 49.7474 27.4443 49.842C29.5457 50.2515 30.8453 49.4478 30.7708 47.7842C30.738 47.0494 30.4401 46.5972 29.6107 46.0239C28.8721 45.5131 28.6882 45.2843 28.6882 44.8758C28.6882 44.1916 29.4967 44.0545 30.2915 44.6039L30.5944 44.8131V44.1395V43.4657L30.2708 43.3913C29.8628 43.2977 29.0754 43.2616 28.7422 43.3213ZM38.4662 43.3193C38.0856 43.3997 37.9996 43.4667 37.4817 44.0845L36.9692 44.6956L36.9974 44.0302L37.0256 43.3646H36.0735H35.1214L35.1524 43.4699C35.3467 44.1303 35.3626 44.3645 35.3632 46.5753C35.3637 48.8101 35.3485 49.0351 35.1579 49.5759C35.1184 49.6884 35.0858 49.7987 35.0858 49.8212C35.0858 49.8436 35.5838 49.8621 36.1923 49.8621H37.2986L37.1893 49.5049C37.0127 48.9274 36.9845 48.5464 36.9845 46.7556V45.0583L37.2507 44.931C37.994 44.5752 38.7666 44.7092 39.0715 45.2468L39.1839 45.4448L39.181 47.1276C39.1778 48.941 39.1885 48.8381 38.9046 49.757L38.8721 49.8621H39.9889C40.6031 49.8621 41.1055 49.8542 41.1055 49.8446C41.1055 49.835 41.0727 49.7351 41.0326 49.6226C40.8371 49.0744 40.8192 48.8654 40.7854 46.7536C40.7493 44.4738 40.7455 44.4459 40.4096 43.9779C40.0304 43.4495 39.1931 43.1657 38.4662 43.3193ZM44.5089 43.3412C41.5377 43.9592 40.9026 48.6246 43.6446 49.6898C45.6873 50.4835 47.8041 49.2414 48.1308 47.0574C48.4826 44.706 46.7069 42.8838 44.5089 43.3412ZM52.3638 43.3187C51.8624 43.4254 51.5452 43.6879 51.2067 44.2763L50.9916 44.65L50.9783 44.2955C50.9709 44.1004 50.9832 43.8218 51.0059 43.6767C51.0285 43.5315 51.0363 43.4019 51.0232 43.3887C50.9461 43.3109 49.1108 43.367 49.1348 43.4465C49.3674 44.2149 49.4068 44.7732 49.3807 46.9421C49.3575 48.865 49.3402 49.0601 49.142 49.6226C49.1024 49.7351 49.0701 49.835 49.0701 49.8446C49.0701 49.8542 49.57 49.8621 50.1813 49.8621C50.7925 49.8621 51.2927 49.8548 51.2927 49.846C51.2927 49.8372 51.2502 49.7056 51.1984 49.5538C51.0059 48.9896 50.9689 48.5363 50.9687 46.7394L50.9685 45.0425L51.2695 44.9003C51.9824 44.5636 52.5919 44.719 52.8529 45.3046C53.0607 45.7708 52.9844 48.7391 52.7456 49.4776C52.685 49.6649 52.6354 49.8282 52.6354 49.8402C52.6354 49.8522 53.1378 49.8621 53.7518 49.8621C54.7959 49.8621 54.866 49.8569 54.8368 49.7802C54.595 49.1482 54.5341 48.5119 54.5341 46.6301V45.0084L54.6844 44.9168C55.2005 44.6025 55.8966 44.644 56.2341 45.0092C56.4601 45.2536 56.4927 45.4546 56.5144 46.7302C56.5416 48.3294 56.4796 48.9637 56.2164 49.7802C56.192 49.8566 56.2641 49.8621 57.3058 49.8621H58.4212L58.3723 49.7335C58.1485 49.1464 58.1345 48.9942 58.1024 46.8003C58.0752 44.9408 58.062 44.6701 57.9883 44.4666C57.4492 42.9768 55.539 42.8344 54.7407 44.2245C54.511 44.6244 54.4413 44.699 54.4413 44.545C54.4409 43.801 53.2897 43.1214 52.3638 43.3187ZM61.5964 43.3211C60.1022 43.5732 59.2347 44.8171 59.2347 46.7069C59.2347 48.3916 59.8163 49.3437 61.1151 49.7845C61.8282 50.0263 63.2758 49.9571 63.7193 49.6597C63.8063 49.6016 64.2883 48.0541 64.2358 48.0011C64.2247 47.9899 64.0324 48.0761 63.8085 48.1928C62.6989 48.7706 61.6385 48.625 61.1778 47.8315C61.0581 47.6253 60.8612 46.9345 60.8962 46.8429C60.9101 46.806 61.42 46.7797 62.5986 46.7556C63.5241 46.7368 64.2916 46.7109 64.3044 46.6985C64.3693 46.6341 64.3185 45.2428 64.2406 44.9577C63.8995 43.7077 62.9152 43.0985 61.5964 43.3211ZM70.4396 43.3039C68.5653 43.5547 67.9666 45.7221 69.4626 46.8413C69.618 46.9576 69.8999 47.1683 70.0892 47.3099C71.0109 47.9989 70.9406 48.9284 69.9666 48.9268C69.4728 48.926 69.1136 48.6739 68.7141 48.0481L68.5441 47.7819L68.5143 47.9923C68.498 48.108 68.4702 48.5426 68.4525 48.9581L68.4207 49.7133L68.7578 49.7907C70.7719 50.2531 72.1039 49.6782 72.3236 48.2514C72.4654 47.3306 72.1307 46.681 71.1806 46.0337C70.5085 45.5761 70.2312 45.237 70.2314 44.874C70.2322 44.2147 71.0397 44.0521 71.7904 44.5604C71.9585 44.6741 72.1035 44.767 72.1128 44.767C72.1221 44.767 72.1299 44.4752 72.1299 44.1186V43.4703L71.933 43.417C71.4914 43.2971 70.852 43.2485 70.4396 43.3039ZM79.783 43.3408C78.3591 43.6015 77.4906 44.8768 77.4906 46.7069C77.4906 48.4146 78.1509 49.4299 79.517 49.8226C80.2107 50.0221 81.7766 49.9068 82.0492 49.6365C82.0935 49.5923 82.5418 47.9923 82.5096 47.9923C82.4957 47.9923 82.2957 48.0864 82.0651 48.2013C80.5822 48.9398 79.2631 48.3882 79.2006 47.0033L79.1912 46.8003L80.835 46.763C81.7393 46.7424 82.5073 46.7159 82.542 46.7041C82.6322 46.6732 82.5883 45.1608 82.4886 44.8558C82.0887 43.6344 81.1255 43.0951 79.783 43.3408ZM86.8235 43.4025C86.4194 43.5682 86.0251 43.971 85.6663 44.5851C85.5601 44.7666 85.4584 44.929 85.4401 44.9462C85.4218 44.9633 85.4184 44.6146 85.4325 44.171L85.4584 43.3646H84.5096C83.6274 43.3646 83.5627 43.3705 83.5857 43.4465C83.979 44.7457 83.9524 48.7493 83.5434 49.7802C83.513 49.8569 83.5825 49.8621 84.6272 49.8621C85.241 49.8621 85.7434 49.8548 85.7434 49.846C85.7434 49.8372 85.7007 49.7056 85.6487 49.5538C85.4681 49.0283 85.4198 48.4816 85.4196 46.9564L85.4192 45.5232L85.5698 45.3948C86.0424 44.9911 86.6777 44.9061 87.2333 45.172L87.5426 45.3198L87.5676 45.1486C87.5813 45.0543 87.6248 44.6934 87.6642 44.3462C87.7035 43.9993 87.7458 43.6388 87.7579 43.5453C87.7772 43.3993 87.7657 43.3715 87.6763 43.3474C87.478 43.2936 87.0158 43.3235 86.8235 43.4025ZM31.7519 43.4108C31.7519 43.436 31.8083 43.6412 31.8775 43.8666L32.0028 44.2763L32.0193 46.4119C32.0368 48.6851 32.0104 49.0762 31.803 49.6274L31.7146 49.8621H32.8405H33.9667L33.8769 49.6166C33.679 49.0752 33.6504 48.6956 33.6508 46.6189C33.6512 44.5706 33.6701 44.3013 33.8554 43.7124L33.9649 43.3646H32.8584C32.1629 43.3646 31.7519 43.3817 31.7519 43.4108ZM65.3496 43.722C65.6504 44.7064 65.6532 48.5496 65.3536 49.5019L65.2402 49.8621H66.3467C66.9551 49.8621 67.4529 49.8518 67.4529 49.8394C67.4529 49.827 67.3957 49.6325 67.3258 49.4071L67.1987 48.9974V46.6367C67.1985 44.3382 67.2012 44.267 67.3008 43.9255C67.3572 43.7328 67.4168 43.5277 67.4335 43.4699L67.4639 43.3646H66.3522H65.2404L65.3496 43.722ZM62.3739 44.403C62.7569 44.5187 63.0183 44.9543 63.0821 45.5827L63.1131 45.8889H62.0028H60.8926L60.9365 45.5968C61.0841 44.6123 61.6131 44.1728 62.3739 44.403ZM80.7194 44.4347C81.0482 44.5879 81.2732 44.9494 81.3239 45.4054C81.3376 45.53 81.3579 45.6896 81.3688 45.7604L81.3885 45.8889H80.2782C79.0116 45.8889 79.1247 45.9403 79.2349 45.4147C79.4173 44.5462 80.0551 44.1251 80.7194 44.4347ZM45.4775 44.552C46.5442 45.1831 46.752 47.6207 45.8134 48.4942C44.6547 49.5725 43.2423 47.5501 43.7654 45.5617C44.028 44.5634 44.7636 44.1295 45.4775 44.552ZM24.1117 47.8718V48.7329L23.9737 48.7634C23.0184 48.9753 22.3924 48.1271 22.7679 47.1298L22.8128 47.0107H23.4622H24.1117V47.8718Z" fill="white"/>
</svg>
