<svg fill="none" height="31" viewBox="0 0 60 31" width="60" xmlns="http://www.w3.org/2000/svg"><g fill="#fff" fill-opacity=".7"><path d="m6.51856 1.8341c.10806-.68535-.0701-1.346857-.4376-1.8341-.49649.333428-.86837.897092-.97643 1.58293-.10806.68535.07009 1.34734.43759 1.8341.49698-.33343.86838-.89709.97644-1.58293z"/><path d="m3.68337 5.90764c.36653-.48773.54371-1.14972.43419-1.83508-.11001-.68535-.48238-1.24853-.97984-1.58098-.36653.48821-.54322 1.1502-.4337 1.83556.10952.68535.48189 1.24804.97935 1.5805z"/><path d="m2.46857 8.92562c.25749-.56074.29449-1.24755.04721-1.89105-.24776-.64398-.72721-1.10737-1.28065-1.31619-.257498.56075-.294491 1.24756-.04673 1.89105.24727.64398.72673 1.10737 1.28017 1.31619z"/><path d="m11.6915 22.5372c-1.91587-.4065-3.64045-1.2709-5.06616-2.4542.46826-.3374.81775-.8825.92143-1.5421.10806-.6858-.0701-1.3473-.4376-1.8341-.49698.3334-.86837.8976-.97643 1.5829-.09443.5978.02969 1.178.30665 1.6394-.66685-.5773-1.26313-1.228-1.77909-1.9343.53202-.2084.99493-.6503 1.24464-1.2656.25846-.6386.23413-1.3264-.01363-1.892-.55685.1981-1.04458.6517-1.30354 1.2904-.22634.5583-.23559 1.1546-.06912 1.6739-.56512-.8085-1.02365-1.6885-1.36097-2.6173.57729-.0876 1.13025-.4342 1.49434-1.0046.36702-.5759.46437-1.2564.32175-1.8614-.58265.0837-1.14145.4318-1.50895 1.0076-.34852.5471-.45122 1.1877-.33781 1.7694-.33148-.9361-.53154-1.9237-.59676-2.9386.58508.056 1.20229-.1514 1.68077-.626.47848-.4741.71602-1.1146.70336-1.73818-.58508-.05597-1.20326.15139-1.68174.62598-.4741.4697-.71067 1.1025-.70288 1.7207-.01411-.2215-.0292-.4425-.0292-.6664 0-.844.09978-1.67297.28767-2.4732.52326.26139 1.15897.29643 1.75525.03796.6065-.26236 1.04263-.77151 1.23977-1.35902-.52813-.27307-1.17552-.3125-1.78153-.04965-.533.23072-.93506.65225-1.158 1.15118.24679-.96183.62159-1.88034 1.10835-2.73606.45901.38746 1.08157.57388 1.72555.45804.64544-.11634 1.176-.51207 1.48899-1.0402-.4595-.38844-1.08303-.57632-1.72847-.46048-.62987.11342-1.14826.49358-1.46368 1.00224.49065-.85426 1.09131-1.64476 1.78688-2.35055.31591.51596.84015.90196 1.47682 1.01537.64593.11488 1.26898-.07447 1.72799-.46485-.31396-.52716-.8455-.92143-1.49094-1.03631-.57388-.10173-1.12927.037-1.56784.34268.50477-.49406 1.06405-.93555 1.65595-1.33469.5033.14846 1.05869.13045 1.56784-.11293.59531-.28426.99544-.8012 1.14484-1.384333-.56316-.242405-1.2271-.250679-1.8224.034074-.54469.259928-.91608.718449-1.09131 1.240739-3.12693 2.132-5.14064 5.65856-5.14064 9.51999 0 .0886.0034.1762.00584.2643-.05452-.4692-.24776-.9311-.58168-1.3108-.44684-.50819-1.049933-.76033-1.63744893-.74719-.05256977.62159.14261993 1.27729.58946293 1.78539.446846.5082 1.049936.7603 1.637446.7472.00341-.0438.00341-.0876.00439-.1319.04916.8981.20735 1.7742.46095 2.6153-.16111-.383-.42347-.7296-.78124-.9866-.54225-.3899-1.18282-.4931-1.752813-.3412.078855.6181.406929 1.2115.949173 1.6014.54176.3894 1.18282.4931 1.75282.3412-.00877-.0706-.0224-.1402-.03749-.2103.28086.8188.65323 1.6005 1.10738 2.3335-.21174-.2589-.48043-.475-.8012-.622-.60115-.275-1.24902-.2483-1.78202.0141.18691.5919.61429 1.1088 1.21543 1.3843.60163.2746 1.24902.2483 1.78202-.0141-.03748-.1197-.08762-.2346-.14408-.3461.45171.664.97205 1.2821 1.55178 1.8453-.25555-.1835-.55393-.3154-.88249-.3733-.64593-.1149-1.26898.0745-1.7275.4643.31396.5277.84501.922 1.49093 1.0368.64593.1144 1.26898-.0749 1.7275-.4648-.06327-.1066-.13775-.2059-.21806-.3003 1.51479 1.3449 3.3888 2.3257 5.48575 2.7711z"/><path d="m54.3588 3.41703c.367-.48676.5452-1.14875.4376-1.8341-.1086-.685838-.48-1.249502-.9769-1.58293-.3675.487243-.5457 1.14875-.4376 1.8341.108.68584.4799 1.2495.9769 1.58293z"/><path d="m57.1678 4.32714c.1095-.68536-.0677-1.34735-.4342-1.83556-.497.33245-.8698.89563-.9793 1.58098-.1096.68536.0676 1.34735.4337 1.83508.4974-.33246.8703-.89515.9798-1.5805z"/><path d="m57.4071 8.92562c.554-.20882 1.0329-.67221 1.2807-1.31619.2473-.64349.2103-1.3303-.0467-1.89105-.554.20882-1.0329.67221-1.2807 1.31619-.2473.6435-.2103 1.33031.0467 1.89105z"/><path d="m57.9596 13.7066c-.3577.257-.6196.6035-.7812.9866.2541-.8411.4123-1.7173.4609-2.6153.0015.0443.001.0881.0049.1319.587.0131 1.1906-.239 1.6375-.7472.4468-.5082.642-1.1638.5894-1.78542-.5875-.01314-1.1906.239-1.6374.74722-.3339.3796-.5272.8416-.5817 1.3108.002-.0881.0058-.1757.0058-.2643 0-3.86147-2.0142-7.38802-5.1411-9.52002-.1752-.52229-.5466-.980812-1.0913-1.24074-.5953-.284753-1.2592-.276479-1.8224-.034074.1494.583134.5495 1.100074 1.1448 1.384334.5092.24338 1.0646.26139 1.5684.11293.5919.39914 1.1512.84063 1.6554 1.33469-.4385-.30568-.9939-.44441-1.5678-.34268-.6455.11488-1.1765.50915-1.4905 1.03631.4586.39038 1.0816.57973 1.7275.46485.6367-.11341 1.1614-.49941 1.4769-1.01537.6955.70579 1.2967 1.49629 1.7873 2.35055-.3159-.50867-.8343-.88882-1.4636-1.00224-.6455-.11585-1.2695.07204-1.7285.46047.313.52814.843.92387 1.489 1.0402.6439.11585 1.266-.07058 1.7255-.45803.4868.85572.8616 1.77423 1.1079 2.73606-.223-.49893-.6245-.92046-1.158-1.15118-.606-.26285-1.2529-.22342-1.7815.04965.1976.58751.6337 1.09666 1.2402 1.35902.5963.25847 1.2315.22342 1.7553-.03796.1874.80022.2876 1.62913.2876 2.47323 0 .2239-.0155.4449-.0292.6663.0078-.6181-.2287-1.2509-.7028-1.7206-.4785-.47463-1.0967-.68198-1.6823-.62601-.0122.62351.2249 1.26411.7039 1.73821.478.4746 1.0957.6819 1.6803.626-.0648 1.0149-.2648 2.0025-.5963 2.9385.1134-.5816.0107-1.2222-.3378-1.7693-.3675-.5759-.9263-.9239-1.509-1.0076-.1431.605-.0457 1.2855.3218 1.8613.3641.5705.917.9171 1.4943 1.0047-.3373.9287-.7958 1.8088-1.3614 2.6173.1669-.5194.1577-1.1157-.0692-1.674-.2584-.6386-.7462-1.0922-1.3035-1.2904-.2478.5657-.2721 1.2534-.0131 1.8921.2497.6152.7126 1.0572 1.2446 1.2655-.5165.7063-1.1122 1.3571-1.7796 1.9344.277-.4614.4011-1.0417.3067-1.6394-.1081-.6853-.4795-1.2495-.976-1.5829-.3675.4867-.5461 1.1482-.4381 1.8341.1042.6595.4532 1.2047.922 1.542-1.4258 1.1833-3.1508 2.0478-5.0662 2.4543l.0545.291c2.097-.4454 3.971-1.4262 5.4858-2.7711-.0804.0945-.1543.1938-.2181.3004.459.3898 1.0821.5792 1.728.4648.6454-.1149 1.1765-.5091 1.4909-1.0368-.4585-.3899-1.082-.5792-1.7275-.4644-.3285.058-.6269.1899-.8825.3734.5797-.5632 1.0996-1.1814 1.5518-1.8453-.0569.1115-.1071.2263-.1446.3461.5335.2623 1.1809.2886 1.7821.0141.6016-.2755 1.029-.7924 1.2154-1.3843-.533-.2624-1.1804-.2892-1.782-.0142-.3203.147-.5895.3632-.8012.6221.4541-.733.827-1.5148 1.1078-2.3335-.0156.0701-.0287.1397-.0375.2103.57.1519 1.2106.0482 1.7529-.3412.5422-.3899.8703-.9833.9491-1.6015-.5704-.1518-1.211-.0486-1.7533.3413z"/><path d="m17.8906 7.56147h3.3401c1.5452 0 2.4519-.64424 2.4519-1.70327 0-.85604-.4996-1.27965-1.2861-1.52676.5737-.23828.9993-.66189.9993-1.37673 0-.44126-.1573-.76779-.4164-1.0149-.3793-.36183-.953-.55598-1.7672-.55598h-3.3216zm1.7487-1.37673v-1.13845h1.3694c.6014 0 .879.22063.879.55598 0 .37949-.3146.58247-.8605.58247zm0-2.33868v-1.0855h1.1658c.5367 0 .8142.19415.8142.52951 0 .37948-.3053.55599-.8512.55599z"/><path d="m24.5046 7.56147h5.2554v-1.45616h-3.4789v-.9796h3.1088v-1.35025h-3.1088v-.93548h3.4326v-1.45615h-5.2091z"/><path d="m33.2203 7.66737c1.5729 0 2.6184-.75014 2.6184-2.01214 0-1.17376-.9252-1.63267-2.4148-1.94155-.8975-.19415-1.1196-.31771-1.1196-.60011 0-.23828.2128-.41479.6477-.41479.5736 0 1.2213.21181 1.8135.60894l.8974-1.20905c-.7031-.53834-1.5636-.82075-2.6646-.82075-1.5544 0-2.5074.82957-2.5074 1.97685 0 1.28848 1.064 1.65914 2.4426 1.95919.879.19416 1.0918.33536 1.0918.59129 0 .28241-.2591.44126-.7402.44126-.7495 0-1.4619-.25593-2.1003-.74131l-.9993 1.13845c.7957.67954 1.8875 1.02372 3.0348 1.02372z"/><path d="m38.1131 7.56147h1.795v-4.67736h1.943v-1.50028h-5.681v1.50028h1.943z"/><path d="m11.1849 15.3171c1.4921 0 2.4838-.746 2.4838-2.001 0-1.1673-.8776-1.6237-2.2907-1.9309-.8513-.1931-1.062-.316-1.062-.5968 0-.237.2019-.4125.6144-.4125.5441 0 1.1585.2106 1.7202.6055l.8514-1.20236c-.6671-.53538-1.4833-.81623-2.5277-.81623-1.47451 0-2.37852.82501-2.37852 1.96599 0 1.2814 1.00933 1.65 2.31702 1.9484.8338.1931 1.0357.3335 1.0357.5881 0 .2808-.2458.4388-.7021.4388-.711 0-1.38677-.2545-1.99236-.7372l-.94789 1.1321c.7548.6759 1.79045 1.0181 2.87875 1.0181z"/><path d="m17.2614 15.3259c1.7466 0 2.8788-.8689 2.8788-2.8524v-3.40537h-1.729v3.45807c0 .8601-.4476 1.2638-1.1322 1.2638s-1.1322-.4213-1.1322-1.3077v-3.41417h-1.729v3.44927c0 1.9221 1.0971 2.8085 2.8436 2.8085z"/><path d="m21.1479 15.2118h1.7026v-1.7553h.8426c1.5272 0 2.6418-.7636 2.6418-2.2117 0-1.37799-1.0005-2.17667-2.554-2.17667h-2.633zm1.7026-3.0894v-1.6237h.7987c.6144 0 .983.2809.983.8075 0 .5003-.3686.8162-.9742.8162z"/><path d="m27.0533 15.2118h1.7027v-1.7553h.8425c1.5272 0 2.6418-.7636 2.6418-2.2117 0-1.37799-1.0005-2.17667-2.554-2.17667h-2.633zm1.7027-3.0894v-1.6237h.7986c.6144 0 .983.2809.983.8075 0 .5003-.3686.8162-.9742.8162z"/><path d="m36.0481 15.3347c1.8958 0 3.3176-1.4306 3.3176-3.1947 0-1.7817-1.4043-3.19475-3.3-3.19475-1.8958 0-3.3176 1.43065-3.3176 3.19475 0 1.7816 1.4042 3.1947 3.3 3.1947zm.0176-1.5359c-.9304 0-1.5711-.7724-1.5711-1.6588 0-.904.6232-1.6588 1.5535-1.6588.9391 0 1.5798.7723 1.5798 1.6588 0 .904-.6231 1.6588-1.5622 1.6588z"/><path d="m40.2526 15.2118h1.7027v-1.8606h.746l1.2376 1.8606h1.9659l-1.4657-2.1415c.7636-.3247 1.2639-.9479 1.2639-1.887 0-.6231-.1843-1.0971-.5442-1.45692-.4125-.41251-1.062-.65825-2.0011-.65825h-2.9051zm1.7027-3.1947v-1.4745h1.1147c.5705 0 .9215.2458.9215.7285 0 .4651-.3335.746-.9128.746z"/><path d="m48.0617 15.2118h1.7027v-4.6516h1.8431v-1.49207h-5.3889v1.49207h1.8431z"/><path d="m20.4463 21.6258h3.8898v-1.1094h-2.0291l.8425-.5898c.7373-.5195 1.1375-.9338 1.1375-1.7202 0-.9409-.7373-1.5798-1.8115-1.5798-.9549 0-1.4745.3721-2.0011 1.0532l.9198.7653c.3861-.4423.6459-.6319.9759-.6319.3301 0 .5477.1896.5477.4985 0 .2949-.1685.5336-.6319.8847l-1.8396 1.4043z"/><path d="m27.1519 21.7241c1.4042 0 2.2819-1.1655 2.2819-2.5558 0-1.4042-.8706-2.5558-2.2679-2.5558-1.3972 0-2.2819 1.1656-2.2819 2.5558 0 1.4043.8636 2.5558 2.2679 2.5558zm.014-1.2077c-.5477 0-.9128-.5617-.9128-1.3481 0-.8004.3581-1.3481.8988-1.3481.5406 0 .9127.5688.9127 1.3481 0 .7934-.351 1.3481-.8987 1.3481z"/><path d="m29.8881 21.6258h3.8899v-1.1094h-2.0292l.8425-.5898c.7373-.5195 1.1375-.9338 1.1375-1.7202 0-.9409-.7372-1.5798-1.8115-1.5798-.9549 0-1.4745.3721-2.0011 1.0532l.9198.7653c.3862-.4423.646-.6319.976-.6319s.5476.1896.5476.4985c0 .2949-.1685.5336-.6319.8847l-1.8396 1.4043z"/><path d="m36.5937 21.7241c1.4043 0 2.2819-1.1655 2.2819-2.5558 0-1.4042-.8706-2.5558-2.2679-2.5558-1.3972 0-2.2819 1.1656-2.2819 2.5558 0 1.4043.8636 2.5558 2.2679 2.5558zm.014-1.2077c-.5476 0-.9127-.5617-.9127-1.3481 0-.8004.358-1.3481.8987-1.3481.5406 0 .9128.5688.9128 1.3481 0 .7934-.3511 1.3481-.8988 1.3481z"/><path clip-rule="evenodd" d="m10.268 24.3186c-1.94153.312-3.02987 2.0391-2.44131 3.8743.51315 1.6001 2.46051 2.303 4.18411 1.5102l.2132-.0981.0164-.2708c.0091-.149.023-.3815.0312-.5166.017-.2853.0249-.279-.1607-.1308-1.2268.9788-2.91919.4769-3.27474-.9711-.47628-1.9396 1.24824-3.2563 3.06504-2.3403.1183.0595.2218.1083.2302.1083.0083 0 .0117-.2298.0075-.5106l-.0075-.5107-.1947-.051c-.4955-.1301-1.1946-.1689-1.6687-.0928zm9.3002.053c-.5293.1423-.6194.8499-.144 1.1314.2937.1742.6891.0594.8409-.244.2432-.4862-.1808-1.0261-.6969-.8874zm20.1361-.0006c-.694.1886-.5641 1.205.1547 1.2096.7489.005.8125-1.1194.0695-1.2297-.0535-.0079-.1544.0011-.2242.0201zm4.7575 1.5435-.7092.7624.2413.008.2415.0081.0096 1.3255c.0109 1.5193.0124 1.5286.2566 1.7559.2183.2032.9079.289 1.2518.1558.0407-.0156.5813-.7963.5639-.814-.0035-.0035-.0751.0127-.1591.0361-.2246.0621-.6583.0641-.768.0034-.1742-.0963-.1776-.1219-.1776-1.3531v-1.1116h.5006.5006v-.3229-.3229h-.5006-.5006v-.4492c0-.2471-.0093-.448-.0208-.4466-.0116.0015-.34.3457-.73.7651zm-30.8009.117c-.1223.0204-.2784.0542-.3468.0754l-.1243.0386-.1437.4481c-.1688.5273-.176.4879.0658.3656.7143-.3619 1.3446-.1839 1.353.3821l.0026.1671-.2826.1225c-1.2913.5597-1.5821.8158-1.5795 1.3902.0023.4887.2742.8042.7877.9142.3165.0677.4489.0554.5758-.0534.1608-.138.4592-.3554.4877-.3554.0136 0 .0248.0947.0248.2105v.2106h.584c.3212 0 .5841-.0053.5841-.0117 0-.0065-.0245-.0694-.0545-.1397-.1295-.3052-.1479-.4989-.1665-1.7577-.0171-1.1518-.0199-1.1988-.0807-1.3532-.2134-.5429-.8555-.7918-1.6869-.6538zm3.6016-.0124c-.5933.1065-1.0018.5723-1.0009 1.1412.0009.475.1751.761.6734 1.1055.549.3797.6996.6514.5233.9435-.2232.3696-.8086.1952-1.1417-.3402-.1325-.2131-.1293-.2209-.1509.3556-.0105.2818-.0255.5344-.0332.5615-.0171.0602.0587.0925.3505.1493 1.2621.246 2.0426-.2368 1.9979-1.2359-.0197-.4413-.1986-.7129-.6968-1.0573-.4436-.3067-.554-.4442-.554-.6895 0-.4109.4856-.4933.9629-.1633l.182.1256v-.4046-.4046l-.1944-.0447c-.2451-.0563-.718-.078-.9181-.0421zm5.8403-.0012c-.2286.0483-.2802.0886-.5913.4596l-.3078.367.017-.3996.0169-.3997h-.5718-.5719l.0186.0632c.1167.3966.1262.5373.1266 1.8651.0004 1.3422-.0088 1.4774-.1232 1.8022-.0238.0676-.0434.1338-.0434.1473s.2992.0246.6646.0246h.6644l-.0656-.2145c-.106-.3469-.123-.5757-.123-1.6513v-1.0194l.1599-.0765c.4464-.2136.9104-.1332 1.0936.1897l.0675.1189-.0018 1.0107c-.0019 1.0892.0045 1.0274-.1659 1.5793l-.0196.0631h.6707c.369 0 .6707-.0047.6707-.0105s-.0197-.0658-.0438-.1333c-.1174-.3293-.1281-.4548-.1484-1.7232-.0217-1.3693-.024-1.386-.2258-1.6671-.2277-.3174-.7306-.4878-1.1672-.3956zm3.6293.0132c-1.7845.3712-2.1659 3.1732-.5191 3.813 1.2269.4767 2.4982-.2693 2.6945-1.581.2113-1.4123-.8552-2.5068-2.1754-2.232zm4.7178-.0135c-.3012.064-.4917.2217-.695.5751l-.1292.2245-.008-.213c-.0044-.1171.003-.2844.0166-.3716s.0182-.165.0103-.173c-.0463-.0467-1.1486-.013-1.1341.0347.1397.4615.1633.7968.1477 2.0995-.014 1.1549-.0244 1.2721-.1434 1.61-.0238.0675-.0432.1275-.0432.1333s.3003.0105.6674.0105.6675-.0044.6675-.0097-.0255-.0843-.0566-.1755c-.1156-.3389-.1378-.6111-.138-1.6903l-.0001-1.0192.1808-.0854c.4282-.2022.7942-.1089.951.2428.1248.28.079 2.0628-.0644 2.5064-.0364.1125-.0663.2105-.0663.2177 0 .0073.3018.0132.6706.0132.6271 0 .6692-.0032.6516-.0492-.1452-.3796-.1818-.7618-.1818-1.892v-.974l.0903-.055c.31-.1888.7281-.1638.9308.0555.1357.1468.1553.2675.1683 1.0336.0164.9605-.0209 1.3415-.179 1.8319-.0146.0459.0287.0492.6543.0492h.67l-.0294-.0772c-.1345-.3527-.1428-.4441-.1621-1.7617-.0164-1.1169-.0243-1.2795-.0685-1.4017-.3238-.8948-1.4711-.9803-1.9506-.1454-.1379.2402-.1798.285-.1798.1925-.0002-.4469-.6916-.855-1.2477-.7365zm5.5451.0014c-.8974.1514-1.4185.8985-1.4185 2.0335 0 1.0119.3494 1.5837 1.1294 1.8485.4283.1452 1.2977.1037 1.5642-.075.0522-.0349.3417-.9643.3102-.9961-.0067-.0068-.1222.045-.2567.1151-.6664.347-1.3033.2596-1.58-.217-.0719-.1238-.1902-.5388-.1692-.5938.0084-.0222.3147-.0379 1.0225-.0524.5559-.0113 1.0169-.0268 1.0245-.0343.039-.0387.0085-.8743-.0383-1.0456-.2048-.7507-.796-1.1166-1.5881-.9829zm5.3113-.0103c-1.1257.1506-1.4853 1.4524-.5868 2.1245.0933.0699.2626.1965.3763.2815.5536.4138.5114.9721-.0736.9711-.2966-.0005-.5123-.1518-.7522-.5277l-.1021-.1599-.0179.1264c-.0098.0695-.0265.3305-.0371.58l-.0191.4536.2024.0465c1.2097.2777 2.0097-.0676 2.1416-.9245.0852-.5531-.1158-.9432-.6865-1.332-.4036-.2748-.5702-.4785-.57-.6965.0004-.396.4854-.4937.9363-.1884.1009.0683.188.1241.1936.1241.0057 0 .0103-.1752.0103-.3894v-.3894l-.1182-.032c-.2653-.072-.6493-.1012-.897-.0679zm5.6117.0221c-.8552.1566-1.3768.9226-1.3768 2.0217 0 1.0257.3966 1.6355 1.2171 1.8713.4166.1199 1.3571.0506 1.5208-.1117.0266-.0265.2959-.9875.2766-.9875-.0084 0-.1285.0565-.267.1255-.8907.4436-1.6829.1122-1.7205-.7195l-.0056-.1219.9873-.0224c.5431-.0124 1.0043-.0283 1.0252-.0354.0542-.0186.0278-.927-.0321-1.1101-.2401-.7337-.8187-1.0575-1.625-.91zm4.2286.0371c-.2427.0995-.4795.3415-.695.7103-.0638.109-.1249.2065-.1359.2169-.011.0102-.013-.1992-.0045-.4657l.0155-.4842h-.5698c-.5299 0-.5688.0034-.5549.0491.2362.7803.2202 3.1849-.0254 3.8041-.0183.046.0235.0492.6509.0492.3687 0 .6704-.0044.6704-.0097s-.0256-.0843-.0569-.1755c-.1084-.3156-.1374-.644-.1376-1.56l-.0002-.8608.0904-.0771c.2839-.2424.6654-.2935.9991-.1338l.1858.0888.015-.1029c.0083-.0566.0344-.2734.058-.4819.0236-.2083.0491-.4249.0563-.481.0116-.0877.0047-.1045-.049-.1189-.1191-.0323-.3967-.0143-.5122.0331zm-33.0764.005c0 .0151.0339.1383.0754.2737l.0753.2461.0099 1.2827c.0105 1.3653-.0054 1.6002-.13 1.9312l-.0531.141h.6763.6764l-.054-.1475c-.1188-.3251-.136-.5531-.1357-1.8004.0002-1.2302.0115-1.392.1228-1.7457l.0658-.2088h-.6646c-.4177 0-.6645.0102-.6645.0277zm20.179.1869c.1807.5912.1823 2.8995.0024 3.4715l-.0681.2163h.6645c.3655 0 .6645-.0062.6645-.0136 0-.0075-.0344-.1243-.0764-.2597l-.0763-.2461v-1.4178c-.0002-1.3805.0015-1.4233.0613-1.6284.0339-.1157.0697-.2389.0797-.2736l.0183-.0632h-.6677-.6678zm-1.7872.409c.23.0695.387.3311.4253.7086l.0186.1839h-.6668-.6668l.0264-.1755c.0886-.5913.4063-.8553.8633-.717zm11.0185.019c.1974.092.3326.3092.363.5831.0082.0748.0204.1706.027.2132l.0118.0772h-.6668c-.7607 0-.6929.0308-.6266-.2849.1095-.5216.4926-.7745.8916-.5886zm-21.1666.0705c.6407.379.7655 1.8431.2017 2.3677-.6959.6476-1.5442-.567-1.2301-1.7613.1578-.5995.5996-.8602 1.0284-.6064zm-12.8325 1.9939v.5172l-.0829.0183c-.5738.1273-.9497-.3822-.7242-.9811l.0269-.0716h.3901.3901z" fill-rule="evenodd"/></g></svg>