<svg width="32" height="32" viewBox="0 0 32 32" fill="currentColor" xmlns="http://www.w3.org/2000/svg">
<path d="M24.2927 15.296C24.5807 15.104 24.8687 14.848 25.1567 14.528C26.1807 13.312 26.5327 11.52 26.2127 9.152C25.7007 5.28 21.0927 4.352 19.3967 4.16V0.64C19.3967 0.288 19.1087 0 18.7567 0H16.2287C15.8767 0 15.5887 0.288 15.5887 0.64V4.096H15.0447V0.64C15.0447 0.288 14.7567 0 14.4047 0H11.8767C11.5247 0 11.2367 0.288 11.2367 0.64V4.064H5.6687C5.2847 4.064 4.9967 4.352 4.9967 4.704V9.024C4.9967 9.376 5.2847 9.664 5.6687 9.664H6.9167V22.784H5.6367C5.2847 22.784 4.9967 23.072 4.9967 23.424V27.456C4.9967 27.808 5.2847 28.096 5.6367 28.096H11.2367V31.36C11.2367 31.712 11.5247 32 11.8767 32H14.4047C14.7567 32 15.0447 31.712 15.0447 31.36V28.096H15.5887V31.36C15.5887 31.712 15.8767 32 16.2287 32H18.7567C19.1087 32 19.3967 31.712 19.3967 31.36V28.096C21.3807 28.096 27.1407 27.552 27.6207 22.208C27.9727 18.176 25.8607 16.192 24.2927 15.296V15.296ZM26.3407 22.08C25.8927 27.232 18.8527 26.816 18.7887 26.816C18.5967 26.784 18.4367 26.848 18.3087 26.976C18.1807 27.104 18.0847 27.264 18.0847 27.456V30.72H16.8687V27.456C16.8687 27.104 16.5807 26.816 16.2287 26.816H14.4047C14.0527 26.816 13.7647 27.104 13.7647 27.456V30.72H12.5487V27.456C12.5487 27.104 12.2607 26.816 11.8767 26.816H6.2767V24.096H7.5567C7.9087 24.096 8.1967 23.808 8.1967 23.424V9.024C8.1967 8.672 7.9087 8.384 7.5567 8.384H6.3087V5.344H11.8767C12.2607 5.344 12.5487 5.056 12.5487 4.704V1.28H13.7647V4.736C13.7647 5.088 14.0527 5.376 14.4047 5.376H16.2287C16.5807 5.376 16.8687 5.088 16.8687 4.736V1.28H18.0847V4.736C18.0847 5.088 18.3727 5.376 18.7247 5.376C18.7567 5.376 24.4527 5.696 24.9327 9.312C25.1887 11.264 24.9327 12.768 24.1967 13.664C23.4607 14.528 22.5327 14.592 22.5007 14.592C22.1487 14.592 21.8927 14.848 21.8607 15.168C21.8287 15.488 22.0527 15.776 22.3727 15.84C22.5327 15.904 26.7887 16.896 26.3407 22.08V22.08ZM14.2127 14.688H17.0607C17.1247 14.688 17.1567 14.688 17.2207 14.656C17.2847 14.656 18.9167 14.144 19.1087 11.584C19.2367 9.44 17.9247 8.576 17.1887 8.416C17.1567 8.384 17.0927 8.384 17.0607 8.384H14.2127C13.8607 8.384 13.5727 8.672 13.5727 9.024V14.048C13.5727 14.4 13.8607 14.688 14.2127 14.688V14.688ZM14.8527 9.664H16.9647C17.1567 9.76 17.8927 10.112 17.7967 11.488C17.7327 12.864 17.1247 13.312 16.9327 13.408H14.8527V9.664ZM17.0607 17.056H14.2127C13.8607 17.056 13.5727 17.344 13.5727 17.728V23.328C13.5727 23.68 13.8607 23.968 14.2127 23.968H17.0607C18.0847 23.968 20.0687 23.264 20.0687 20.512C20.0687 17.792 18.0847 17.056 17.0607 17.056V17.056ZM17.0607 22.688H14.8527V18.368H17.0607C17.2207 18.368 18.7887 18.432 18.7887 20.512C18.7887 22.56 17.3487 22.688 17.0607 22.688V22.688Z" fill="currentColor"/>
</svg>
