<svg width="32" height="32" viewBox="0 0 32 32" fill="none" xmlns="http://www.w3.org/2000/svg">
<path d="M15.827 32C24.568 32 31.654 24.8366 31.654 16C31.654 7.16344 24.568 0 15.827 0C7.08599 0 0 7.16344 0 16C0 24.8366 7.08599 32 15.827 32Z" fill="#0D0D0D"/>
<path fill-rule="evenodd" clip-rule="evenodd" d="M11.83 11.5147C11.8314 11.5146 11.8279 11.5148 11.8331 11.5144C11.8383 11.5141 11.8349 11.5143 11.8362 11.5142C11.9054 11.5086 12.7854 11.4272 13.1013 10.9169C13.3579 10.5017 14.523 7.94575 15.0214 6.84506C15.1248 6.61683 15.1765 6.50271 15.4047 6.29457C15.633 6.08642 15.6612 6.07665 15.7177 6.0571C15.9862 5.9642 16.3396 5.95353 16.6952 6.267C17.241 6.7482 18.6796 10.2865 18.8613 10.7371C18.8664 10.7497 18.869 10.756 18.888 10.7961C18.9069 10.8362 18.9011 10.8255 18.9034 10.8298C18.9844 10.9774 19.2849 11.4367 19.9146 11.4927C20.5272 11.5463 23.6035 11.8652 24.7228 11.9816C24.9255 12.0027 25.0269 12.0132 25.1978 12.0746C25.3687 12.1359 25.4099 12.1632 25.4923 12.2179C25.8167 12.4329 26.1969 12.8182 25.8823 13.3297C25.6765 13.6645 22.8472 16.106 21.9912 16.8411C21.8698 16.9454 21.8091 16.9975 21.7214 17.1072C21.6337 17.2168 21.6149 17.2522 21.5773 17.323C21.4592 17.5455 21.3367 17.8658 21.4185 18.1347C21.5394 18.5332 22.2649 21.4893 22.469 22.3228C22.4951 22.4293 22.5081 22.4825 22.5188 22.5804C22.5295 22.6783 22.5289 22.7081 22.5276 22.7676C22.5218 23.0306 22.4737 23.4582 22.2408 23.6924C21.8883 24.0468 21.6763 24.0684 21.1361 23.8917C20.6633 23.7364 17.4721 21.8511 16.6836 21.3834C16.6103 21.3399 16.5737 21.3182 16.456 21.2728C16.3383 21.2275 16.3293 21.2257 16.3112 21.222C16.1352 21.1864 15.8666 21.1689 15.6148 21.3004C15.1959 21.5201 11.2682 23.7188 11.1987 23.7577C11.197 23.7587 11.2013 23.7563 11.1971 23.7586C11.1929 23.7609 11.1968 23.7588 11.1952 23.7597C11.1324 23.7938 9.94906 24.4207 9.54001 23.46C9.52408 23.4226 9.51611 23.4039 9.48687 23.225C9.45764 23.0461 9.46044 23.0104 9.46606 22.9391C9.5549 21.8102 10.3246 19.4736 10.4336 19.147C10.4398 19.1284 10.4429 19.1191 10.4488 19.1C10.4546 19.0808 10.4556 19.0772 10.4576 19.0698C10.5204 18.842 10.806 17.6738 10.2347 17.1157C9.66556 16.56 6.99991 14.2239 6.45538 13.7473C6.41375 13.7109 6.39294 13.6927 6.34166 13.6378C6.29038 13.583 6.28499 13.5759 6.27419 13.5618C6.10032 13.3339 5.75773 12.7628 6.27001 12.3147C6.29532 12.2926 6.30797 12.2815 6.47206 12.1974C6.63616 12.1132 6.67959 12.103 6.76647 12.0828C8.11685 11.7676 11.7348 11.5211 11.83 11.5147Z" fill="#E31351"/>
</svg>
