<svg fill="none" height="40" viewBox="0 0 150 40" width="150" xmlns="http://www.w3.org/2000/svg" xmlns:xlink="http://www.w3.org/1999/xlink"><clipPath id="a"><path d="m0 0h150v40h-150z"/></clipPath><g clip-path="url(#a)"><g fill="#9ea4ae"><path d="m2.09008 38.7696c.07333.0067.17.0134.29.02h.49c.84666 0 1.47667-.2133 1.89-.64.42-.4333.63-1.0366.63-1.81 0-.7866-.20334-1.39-.61-1.81-.40667-.42-1.03667-.63-1.89-.63-.37334 0-.64.01-.8.03zm4.62-2.43c0 .6-.09334 1.1234-.28 1.57-.18667.44-.45334.81-.8 1.11-.34.2934-.75334.5134-1.24.66-.48.14-1.01334.21-1.6.21-.28 0-.59667-.0133-.95-.04-.35334-.02-.69-.0666-1.010002-.14v-6.73c.320002-.0733.660002-.12 1.020002-.14s.68-.03.96-.03c.58 0 1.11.07 1.59.21.48.1334.89.3467 1.23.64.34666.2867.61333.6534.8 1.1.18666.44.28.9667.28 1.58z"/><path d="m11.8958 32.8096c1 0 1.7634.1834 2.29.55.5334.3667.8.9267.8 1.68 0 .94-.4633 1.5767-1.39 1.91.1267.1534.27.34.43.56s.3234.46.49.72c.1667.2534.3267.5167.48.79.1534.2667.29.53.41.79h-1.41c-.1266-.24-.2633-.48-.41-.72-.1466-.2466-.2966-.4833-.45-.71-.1466-.2333-.2933-.45-.44-.65-.1466-.2066-.2833-.39-.41-.55-.0933.0067-.1733.01-.24.01-.0666 0-.13 0-.19 0h-.61v2.62h-1.25996v-6.83c.30666-.0666.63336-.11.97996-.13.3467-.0266.6567-.04.93-.04zm.09 1.09c-.2666 0-.5133.01-.74.03v2.24h.55c.3067 0 .5767-.0166.81-.05.2334-.0333.4267-.0933.58-.18.16-.0866.28-.2033.36-.35.08-.1466.12-.3333.12-.56 0-.2133-.04-.3933-.12-.54-.08-.1466-.1966-.2633-.35-.35-.1466-.0866-.3233-.1466-.53-.18-.2066-.04-.4333-.06-.68-.06z"/><path d="m18.2822 39.8099v-6.93h4.45v1.07h-3.19v1.71h2.84v1.05h-2.84v2.03h3.43v1.07z"/><path d="m30.7882 39.8099c-.0934-.2733-.19-.5433-.29-.81-.1-.2666-.1967-.54-.29-.82h-2.92c-.0934.28-.19.5567-.29.83-.0934.2667-.1867.5334-.28.8h-1.31c.26-.74.5066-1.4233.74-2.05.2333-.6266.46-1.22.68-1.78.2266-.56.45-1.0933.67-1.6.22-.5066.4466-1.0066.68-1.5h1.19c.2333.4934.46.9934.68 1.5.22.5067.44 1.04.66 1.6.2266.56.4566 1.1534.69 1.78.24.6267.49 1.31.75 2.05zm-2.04-5.59c-.1534.3534-.33.7834-.53 1.29-.1934.5067-.3967 1.0567-.61 1.65h2.28c-.2134-.5933-.42-1.1466-.62-1.66-.2-.5133-.3734-.94-.52-1.28z"/><path d="m36.4344 32.8799c.1467.2534.31.5634.49.93.18.3667.3633.7534.55 1.16.1867.4.37.81.55 1.23.1867.4134.3567.7967.51 1.15.1534-.3533.32-.7366.5-1.15.18-.42.3634-.83.55-1.23.1867-.4066.37-.7933.55-1.16.18-.3666.3434-.6766.49-.93h1.14c.06.5067.1167 1.0467.17 1.62.0534.5667.1 1.15.14 1.75.0467.5934.0867 1.1934.12 1.8.04.6.0733 1.1867.1 1.76h-1.24c-.0266-.8066-.06-1.6366-.1-2.49-.0333-.8533-.0867-1.68-.16-2.48-.0733.1534-.16.3367-.26.55-.1.2134-.2066.4467-.32.7-.1133.2467-.23.5034-.35.77-.1133.2667-.2267.5267-.34.78-.1067.2467-.2067.48-.3.7-.0933.2134-.1733.3967-.24.55h-.94c-.0667-.1533-.1466-.34-.24-.56-.0933-.22-.1966-.4533-.31-.7-.1066-.2533-.22-.5133-.34-.78-.1133-.2666-.2267-.5233-.34-.77-.1133-.2466-.22-.4766-.32-.69-.1-.22-.1866-.4033-.26-.55-.0733.8-.13 1.6267-.17 2.48-.0333.8534-.0633 1.6834-.09 2.49h-1.24c.0267-.5733.0567-1.1666.09-1.78.04-.6133.08-1.22.12-1.82.0467-.6066.0967-1.1933.15-1.76.0533-.5666.11-1.09.17-1.57z"/><path d="m51.986 39.8896c-.3667 0-.7367-.0133-1.11-.04-.3733-.02-.7-.0666-.98-.14v-6.73c.1467-.0266.3033-.05.47-.07.1667-.0266.3367-.0466.51-.06.1733-.0133.3433-.0233.51-.03.1733-.0066.3367-.01.49-.01.42 0 .81.0334 1.17.1.36.06.67.1634.93.31.2667.1467.4733.34.62.58s.22.5367.22.89c0 .3267-.08.6067-.24.84-.1533.2334-.37.42-.65.56.42.14.73.3467.93.62.2.2734.3.62.3 1.04 0 .7134-.26 1.25-.78 1.61-.52.3534-1.3167.53-2.39.53zm-.85-3.2v2.11c.14.0134.29.0234.45.03.16.0067.3067.01.44.01.26 0 .5-.0166.72-.05.2267-.0333.42-.09.58-.17.1667-.0866.2967-.2.39-.34.1-.14.15-.32.15-.54 0-.3933-.1433-.6666-.43-.82-.2867-.1533-.6833-.23-1.19-.23zm0-.99h.89c.48 0 .8567-.0666 1.13-.2.2733-.14.41-.3866.41-.74 0-.3333-.1433-.57-.43-.71-.28-.14-.6467-.21-1.1-.21-.1933 0-.3667.0034-.52.01-.1467.0067-.2733.0167-.38.03z"/><path d="m58.3682 32.8799h1.26v6.93h-1.26z"/><path d="m66.4282 33.8297c-.7133 0-1.26.2234-1.64.67-.3734.44-.56 1.0534-.56 1.84 0 .3734.0433.7167.13 1.03.0933.3067.2266.57.4.79.18.22.4.3934.66.52.2666.12.5766.18.93.18.22 0 .41-.0066.57-.02.16-.02.2866-.0433.38-.07v-2.49h1.26v3.33c-.1734.0667-.4667.14-.88.22s-.89.12-1.43.12c-.5 0-.9567-.08-1.37-.24-.4134-.16-.7667-.3933-1.06-.7-.2867-.3066-.51-.6833-.67-1.13-.16-.4466-.24-.96-.24-1.54s.0866-1.0933.26-1.54c.18-.4466.4233-.8233.73-1.13.3066-.3133.6666-.55 1.08-.71.4133-.16.8533-.24 1.32-.24.32 0 .6033.0234.85.07.2533.04.47.0867.65.14.18.0534.3266.11.44.17.12.06.2033.1034.25.13l-.38 1.03c-.2-.12-.45-.22-.75-.3-.2933-.0866-.6033-.13-.93-.13z"/><path d="m80.5884 33.6599c.1067.36.22.7367.34 1.13.12.3867.2434.7767.37 1.17.1334.3867.2634.77.39 1.15.1334.3734.26.7267.38 1.06.1-.36.1967-.75.29-1.17.0934-.4266.1867-.8666.28-1.32.0934-.46.1834-.9266.27-1.4.0934-.4733.18-.94.26-1.4h1.3c-.2333 1.2534-.4933 2.46-.78 3.62-.2866 1.1534-.6066 2.2567-.96 3.31h-1.2c-.52-1.3466-1.0233-2.8166-1.51-4.41-.2466.8067-.4966 1.5734-.75 2.3-.2533.7267-.5066 1.43-.76 2.11h-1.2c-.36-1.0533-.6833-2.1566-.97-3.31-.28-1.16-.5366-2.3666-.77-3.62h1.35c.08.4534.1634.9167.25 1.39.0934.4734.1867.94.28 1.4.1.4534.2.8934.3 1.32.1.4267.2.82.3 1.18.1267-.34.2534-.6966.38-1.07.1334-.38.2634-.7633.39-1.15.1267-.3933.2467-.7833.36-1.17.12-.3866.23-.76.33-1.12z"/><path d="m87.4331 32.8799h1.26v6.93h-1.26z"/><path d="m96.9229 39.8099c-.2266-.38-.48-.7866-.76-1.22-.28-.44-.57-.88-.87-1.32-.3-.4466-.6066-.8766-.92-1.29-.3066-.42-.6-.7966-.88-1.13v4.96h-1.24v-6.93h1.03c.2667.28.5534.6134.86 1 .3067.38.6134.7767.92 1.19.3134.4134.6134.83.9 1.25.2934.4134.5534.8.78 1.16v-4.6h1.25v6.93z"/><path d="m107.879 39.8896c-.366 0-.736-.0133-1.11-.04-.373-.02-.7-.0666-.98-.14v-6.73c.147-.0266.304-.05.47-.07.167-.0266.337-.0466.51-.06.174-.0133.344-.0233.51-.03.174-.0066.337-.01.49-.01.42 0 .81.0334 1.17.1.36.06.67.1634.93.31.267.1467.474.34.62.58.147.24.22.5367.22.89 0 .3267-.08.6067-.24.84-.153.2334-.37.42-.65.56.42.14.73.3467.93.62.2.2734.3.62.3 1.04 0 .7134-.26 1.25-.78 1.61-.52.3534-1.316.53-2.39.53zm-.85-3.2v2.11c.14.0134.29.0234.45.03.16.0067.307.01.44.01.26 0 .5-.0166.72-.05.227-.0333.42-.09.58-.17.167-.0866.297-.2.39-.34.1-.14.15-.32.15-.54 0-.3933-.143-.6666-.43-.82-.286-.1533-.683-.23-1.19-.23zm0-.99h.89c.48 0 .857-.0666 1.13-.2.274-.14.41-.3866.41-.74 0-.3333-.143-.57-.43-.71-.28-.14-.646-.21-1.1-.21-.193 0-.366.0034-.52.01-.146.0067-.273.0167-.38.03z"/><path d="m114.262 32.8799h1.26v6.93h-1.26z"/><path d="m122.322 33.8297c-.714 0-1.26.2234-1.64.67-.374.44-.56 1.0534-.56 1.84 0 .3734.043.7167.13 1.03.093.3067.226.57.4.79.18.22.4.3934.66.52.266.12.576.18.93.18.22 0 .41-.0066.57-.02.16-.02.286-.0433.38-.07v-2.49h1.26v3.33c-.174.0667-.467.14-.88.22-.414.08-.89.12-1.43.12-.5 0-.957-.08-1.37-.24-.414-.16-.767-.3933-1.06-.7-.287-.3066-.51-.6833-.67-1.13-.16-.4466-.24-.96-.24-1.54s.086-1.0933.26-1.54c.18-.4466.423-.8233.73-1.13.306-.3133.666-.55 1.08-.71.413-.16.853-.24 1.32-.24.32 0 .603.0234.85.07.253.04.47.0867.65.14.18.0534.326.11.44.17.12.06.203.1034.25.13l-.38 1.03c-.2-.12-.45-.22-.75-.3-.294-.0866-.604-.13-.93-.13z"/><path d="m131.048 33.8297c-.714 0-1.26.2234-1.64.67-.374.44-.56 1.0534-.56 1.84 0 .3734.043.7167.13 1.03.093.3067.226.57.4.79.18.22.4.3934.66.52.266.12.576.18.93.18.22 0 .41-.0066.57-.02.16-.02.286-.0433.38-.07v-2.49h1.26v3.33c-.174.0667-.467.14-.88.22-.414.08-.89.12-1.43.12-.5 0-.957-.08-1.37-.24-.414-.16-.767-.3933-1.06-.7-.287-.3066-.51-.6833-.67-1.13-.16-.4466-.24-.96-.24-1.54s.086-1.0933.26-1.54c.18-.4466.423-.8233.73-1.13.306-.3133.666-.55 1.08-.71.413-.16.853-.24 1.32-.24.32 0 .603.0234.85.07.253.04.47.0867.65.14.18.0534.326.11.44.17.12.06.203.1034.25.13l-.38 1.03c-.2-.12-.45-.22-.75-.3-.294-.0866-.604-.13-.93-.13z"/><path d="m136.534 39.8099v-6.93h4.45v1.07h-3.19v1.71h2.84v1.05h-2.84v2.03h3.43v1.07z"/><path d="m146.203 32.8096c1 0 1.764.1834 2.29.55.534.3667.8.9267.8 1.68 0 .94-.463 1.5767-1.39 1.91.127.1534.27.34.43.56s.324.46.49.72c.167.2534.327.5167.48.79.154.2667.29.53.41.79h-1.41c-.126-.24-.263-.48-.41-.72-.146-.2466-.296-.4833-.45-.71-.146-.2333-.293-.45-.44-.65-.146-.2066-.283-.39-.41-.55-.093.0067-.173.01-.24.01-.066 0-.13 0-.19 0h-.61v2.62h-1.26v-6.83c.307-.0666.634-.11.98-.13.347-.0266.657-.04.93-.04zm.09 1.09c-.266 0-.513.01-.74.03v2.24h.55c.307 0 .577-.0166.81-.05.234-.0333.427-.0933.58-.18.16-.0866.28-.2033.36-.35.08-.1466.12-.3333.12-.56 0-.2133-.04-.3933-.12-.54-.08-.1466-.196-.2633-.35-.35-.146-.0866-.323-.1466-.53-.18-.206-.04-.433-.06-.68-.06z"/></g><path d="m55.5143 1.01156c.5606-1.348748 2.4709-1.348748 3.032 0l2.5661 6.16907c.1159.27881.3065.52025.5507.69778.2443.17753.5327.28428.8337.3085l6.6603.53387c1.4557.11682 2.0463 1.93372.9368 2.88372l-5.0741 4.3465c-.2294.1965-.4001.4524-.4935.7396s-.1057.5945-.0357.8883l1.5505 6.4993c.3387 1.421-1.2066 2.5437-2.4531 1.7827l-5.7018-3.4837c-.2578-.1576-.5541-.2409-.8562-.2409s-.5983.0833-.8561.2409l-5.7018 3.4828c-1.2461.7614-2.7914-.3612-2.4531-1.7822l1.5504-6.4989c.0701-.2938.0577-.6011-.0356-.8883-.0934-.2872-.2642-.5431-.4935-.7396l-5.0741-4.3465c-1.1091-.9504-.5189-2.7669.9368-2.88372l6.6603-.53387c.301-.02414.5896-.13084.8339-.30838s.435-.41903.5509-.6979z" fill="#e31351"/><path d="m12.7096 17.2647c0-1.7277-.3438-3.0965-1.0298-4.1068-.6873-1.0095-1.77184-1.5135-3.25656-1.5135-.67451 0-1.31076.1013-1.90589.3026-.59718.2014-1.07426.4271-1.43454.6732v10.1291c.29282.0673.66914.1305 1.13101.1858.45982.0566 1.01753.0837 1.67064.0837 1.50652 0 2.68774-.5102 3.54234-1.5308.8547-1.0201 1.2828-2.4278 1.2828-4.2233zm4.1831.0665c0 1.4143-.2084 2.6871-.6243 3.8197-.4157 1.1333-1.0122 2.1034-1.7878 2.911-.7764.8081-1.7162 1.4251-2.8181 1.852-1.1026.425-2.35048.6382-3.74514.6382-1.34983 0-2.63673-.1008-3.864-.3026-1.22563-.2022-2.24355-.4258-3.05336-.6728v-24.902768l4.08281-.673932v9.12044c.47214-.24685 1.05164-.47125 1.73725-.67264.68766-.20266 1.44607-.30277 2.27809-.30277 1.23715 0 2.34515.21871 3.32445.65554.978.43766 1.7936 1.05949 2.4462 1.86843.652.8068 1.1521 1.7777 1.5008 2.9094.3488 1.1342.5231 2.3852.5231 3.7528z" fill="#fff"/><path d="m24.4849 26.1146h-4.0827v-17.60026h4.0827zm.4388-22.74809c0 .76212-.2475 1.36755-.7427 1.81711-.4952.44875-1.0796.67269-1.7541.67269-.6976 0-1.2939-.22394-1.789-.67269-.4948-.44956-.7429-1.05499-.7429-1.81711 0-.7851.2481-1.40243.7429-1.852.4951-.44833 1.0914-.672713 1.789-.672713.6745 0 1.2589.224383 1.7541.672713.4952.44957.7427 1.0669.7427 1.852z" fill="#fff"/><path d="m28.7368 3.87039 4.0832-.67312v5.31681h6.2757v3.39932h-6.2757v7.1683c0 1.4123.225 2.4218.6744 3.028.4501.6063 1.2146.909 2.2946.909.7428 0 1.4009-.0783 1.9742-.2362.5733-.1568 1.0282-.3023 1.3671-.4365l.6741 3.2306c-.4721.2014-1.0915.4094-1.8561.6227-.765.2125-1.6653.3187-2.6993.3187-1.2598 0-2.311-.1686-3.155-.5049-.8431-.3364-1.5122-.8233-2.0078-1.4632-.4944-.6395-.8431-1.4135-1.0458-2.3224-.2029-.9082-.3036-1.946-.3036-3.1121z" fill="#fff"/><path d="m81.3467 22.9517c1.5296 0 2.6433-.258 3.3408-.7741.6964-.516 1.0459-1.2446 1.0459-2.1875 0-.5608-.1172-1.0431-.3549-1.4472-.236-.4036-.572-.7683-1.011-1.094-.4391-.3244-.9743-.6272-1.6039-.9081-.6297-.2797-1.349-.555-2.1593-.8253-.8098-.2908-1.5916-.6108-2.3447-.9582-.7543-.3474-1.4172-.7802-1.9906-1.2966-.5737-.5152-1.0343-1.1321-1.384-1.8508-.3491-.7166-.5227-1.5808-.5227-2.59018 0-2.1084.7313-3.76392 2.1942-4.96371 1.4605-1.20021 3.4519-1.80113 5.9714-1.80113 1.4621 0 2.761.16326 3.8977.48894 1.1352.32529 2.0294.67845 2.682 1.06033l-1.3153 3.43204c-.7654-.42578-1.604-.75147-2.5141-.97666-.9107-.22314-1.8505-.33636-2.8178-.33636-1.1474 0-2.0408.23586-2.6823.70758-.6408.47048-.9616 1.13253-.9616 1.98493 0 .51602.1065.95937.3208 1.32935.213.36997.5166.70097.9106.99177.394.2929.8546.5619 1.3831.8089.5285.2462 1.108.4824 1.739.7056 1.1005.4052 2.0851.8146 2.9516 1.2293.8663.4151 1.5975.9081 2.1935 1.4808.5963.5726 1.0512 1.2452 1.3659 2.0189.3141.7741.4733 1.7113.4733 2.8098 0 2.1092-.7485 3.7421-2.2444 4.8963-1.4966 1.1564-3.6834 1.7334-6.5632 1.7334-.9673 0-1.8504-.0618-2.6482-.1849-.7984-.1234-1.5074-.2748-2.1255-.4541-.6198-.1796-1.1541-.3651-1.6037-.5553-.4499-.1908-.8093-.3648-1.0787-.5218l1.2478-3.4665c.6079.3364 1.428.6731 2.464 1.0095 1.034.3364 2.2818.505 3.7443.505z" fill="#fff"/><path d="m92.751 3.87039 4.0819-.67312v5.31681h6.2771v3.39932h-6.2771v7.1683c0 1.4123.225 2.4218.6759 3.028.4494.6063 1.2149.909 2.294.909.7422 0 1.4002-.0783 1.9742-.2362.573-.1568 1.029-.3023 1.366-.4365l.675 3.2306c-.472.2014-1.091.4094-1.855.6227-.765.2125-1.665.3187-2.6997.3187-1.2599 0-2.3114-.1686-3.1542-.5049-.8452-.3364-1.5144-.8233-2.0087-1.4632-.4948-.6395-.8439-1.4135-1.0458-2.3224-.202-.9082-.3036-1.946-.3036-3.1121z" fill="#fff"/><path d="m112.525 23.2541c1.259 0 2.215-.0677 2.868-.2014v-4.51c-.225-.0672-.552-.1341-.978-.2014-.428-.0672-.9-.1013-1.418-.1013-.449 0-.904.0341-1.366.1013-.462.0673-.878.1895-1.248.3704-.371.1792-.67.4319-.894.7564-.226.3257-.338.7351-.338 1.2293 0 .9639.303 1.6313.911 2.0013.607.3704 1.428.5554 2.463.5554zm-.337-15.17695c1.349 0 2.484.16773 3.408.50411.921.33672 1.658.80809 2.21 1.41434.551.6047.945 1.3406 1.181 2.204s.354 1.8118.354 2.843v10.6677c-.631.1349-1.581.2981-2.851.489-1.271.1895-2.706.2862-4.302.2862-1.058 0-2.024-.1021-2.902-.3035-.878-.2018-1.626-.5271-2.244-.9758-.62-.4484-1.102-1.0313-1.452-1.7508-.348-.7174-.523-1.6029-.523-2.6575 0-1.0095.198-1.8622.591-2.5579s.928-1.2618 1.603-1.6994c.675-.4377 1.456-.7515 2.344-.943.889-.1896 1.817-.2851 2.785-.2851.45 0 .922.0279 1.418.0845.494.0557 1.022.1505 1.585.2855v-.6728c0-.4717-.057-.92-.169-1.3458-.113-.4266-.309-.8024-.59-1.128-.282-.3253-.653-.5771-1.114-.7576-.461-.1788-1.041-.2691-1.737-.2691-.945 0-1.812.0676-2.599.2023-.787.1341-1.429.2911-1.923.4704l-.506-3.29787c.517-.17848 1.271-.35812 2.26-.53776.99-.17965 2.048-.26912 3.173-.26912z" fill="#fff"/><path d="m133.647 12.1825c-.338-.1112-.805-.2298-1.4-.3528-.597-.1231-1.288-.185-2.075-.185-.45 0-.928.0447-1.434.1341-.506.0902-.861.1686-1.065.2359v14.1001h-4.082v-16.75891c.788-.29162 1.772-.56614 2.953-.82415s2.491-.38672 3.931-.38672c.269 0 .585.01639.944.05046.36.03279.72.07825 1.08.13371.36.05663.709.1243 1.046.20255.338.07837.608.15139.81.21871z" fill="#fff"/><path d="m148.797 11.3756c-.45.4705-1.041 1.1325-1.771 1.9848-.732.8532-1.514 1.8007-2.347 2.8439-.831 1.0431-1.669 2.1317-2.513 3.2643-.843 1.1333-1.603 2.2153-2.277 3.2478h9.111v3.3984h-14.038v-2.5239c.496-.8975 1.115-1.8729 1.856-2.928.743-1.0541 1.509-2.1136 2.295-3.18.788-1.0653 1.569-2.0802 2.345-3.0457.776-.9647 1.469-1.8053 2.075-2.5235h-8.131v-3.39954h13.395z" fill="#fff"/></g></svg>