<svg width="71" height="24" viewBox="0 0 71 24" fill="none" xmlns="http://www.w3.org/2000/svg">
<path d="M5.88402 12.0023L3.17221 14.7126L0.461914 12.0023L3.17221 9.29199L5.88402 12.0023ZM12.4657 5.42058L17.1117 10.0666L19.8205 7.36237L12.4642 0L5.10791 7.36237L7.8182 10.0727L12.4657 5.42058ZM21.7577 9.29199L19.0474 12.0023L21.7562 14.7126L24.4665 12.0023L21.7577 9.29199ZM12.4657 18.584L7.81972 13.938L5.10791 16.6452L12.4642 24L19.8205 16.6452L17.1102 13.9349L12.4657 18.584ZM12.4657 14.7126L15.176 12.0023L12.4657 9.29199L9.75543 12.0023L12.4657 14.7126ZM29.8901 5.41906H36.0031C37.5081 5.41906 38.6936 5.83298 39.4454 6.58474C39.7416 6.8758 39.9746 7.22481 40.1299 7.60997C40.2851 7.99513 40.3593 8.40817 40.3478 8.82328V8.85981C40.3478 10.3466 39.558 11.1744 38.6175 11.701C40.1393 12.2838 41.0813 13.168 41.0813 14.9363V14.9713C41.0813 17.3787 39.1258 18.5825 36.1538 18.5825H29.8886L29.8901 5.41906ZM35.3822 10.7453C36.662 10.7453 37.4701 10.3329 37.4701 9.35438V9.31634C37.4701 8.45197 36.7929 7.96196 35.5709 7.96196H32.71V10.7407L35.3822 10.7453ZM36.1538 16.0502C37.4336 16.0502 38.2036 15.5937 38.2036 14.6213V14.5832C38.2036 13.6991 37.5462 13.1543 36.0594 13.1543H32.7115V16.0457L36.1538 16.0502ZM43.9392 5.42363H46.6114L52.7807 13.5302V5.41906H55.6386V18.584H53.1734L46.7971 10.2142V18.584H43.9377L43.9392 5.42363ZM59.2681 5.42363H65.3856C66.8907 5.42363 68.0761 5.83755 68.8279 6.58931C69.1241 6.88037 69.3571 7.22938 69.5124 7.61454C69.6677 7.99969 69.7419 8.41273 69.7303 8.82785V8.86437C69.7303 10.3512 68.9405 11.179 68.0001 11.7055C69.5218 12.2884 70.4638 13.1725 70.4638 14.9408V14.9713C70.4638 17.3787 68.5083 18.5825 65.5363 18.5825H59.2666L59.2681 5.42363ZM64.7602 10.7499C66.04 10.7499 66.8481 10.3375 66.8481 9.35895V9.32091C66.8481 8.45653 66.1709 7.96652 64.9489 7.96652H62.0879V10.7407L64.7602 10.7499ZM65.5378 16.0457C66.8176 16.0457 67.5877 15.5891 67.5877 14.6167V14.5787C67.5877 13.6945 66.9303 13.1497 65.4435 13.1497H62.0956V16.0411L65.5378 16.0457Z" fill="#F0B90B"/>
</svg>
