<svg width="84" height="12" fill="none" xmlns="http://www.w3.org/2000/svg"><path d="M24.476 10.869c-.476 0-.955-.014-1.426-.046a10.488 10.488 0 0 1-1.479-.206v-8.45c.4-.077.845-.129 1.324-.168.477-.04.922-.058 1.336-.058.556 0 1.065.04 1.53.123.465.077.865.214 1.201.406.336.194.6.445.788.762.188.316.285.704.285 1.161 0 .697-.336 1.246-1.008 1.647.556.206.93.497 1.13.853.2.362.303.768.303 1.219 0 .916-.336 1.6-1.001 2.06-.677.471-1.665.697-2.983.697zm-.993-5.403h.956c.607 0 1.033-.077 1.298-.232.257-.154.388-.405.388-.748 0-.354-.135-.6-.4-.742-.271-.142-.665-.213-1.181-.213-.169 0-.349 0-.543.005a6.24 6.24 0 0 0-.516.032c-.002 0-.002 1.898-.002 1.898zm0 1.498v2.252c.142.02.297.032.465.04.168.008.354.014.556.014.588 0 1.059-.084 1.421-.252.362-.168.542-.477.542-.93 0-.4-.148-.69-.451-.859-.303-.174-.736-.257-1.298-.257h-1.233v-.008h-.002zM31.255 2.233c0 .343-.109.614-.336.814-.22.2-.485.297-.788.297a1.142 1.142 0 0 1-.788-.297c-.22-.2-.336-.465-.336-.814 0-.342.109-.613.336-.813.216-.194.497-.3.788-.297.29-.005.572.101.788.297.225.2.336.471.336.813zm-.18 8.528h-1.872V4.143h1.872v6.618zM32.081 2.496l1.872-.303v1.95h2.252v1.561h-2.252v2.323c0 .394.072.71.206.942.135.232.42.355.84.355.207-.001.414-.02.619-.058.2-.036.396-.088.587-.154l.266 1.458c-.246.1-.499.18-.756.24a4.47 4.47 0 0 1-1.02.103c-.51 0-.936-.072-1.272-.206a1.905 1.905 0 0 1-.808-.582 2.136 2.136 0 0 1-.419-.896 5.456 5.456 0 0 1-.123-1.168V2.496h.008zM36.47 7.454c-.002-.46.076-.917.232-1.35A3.19 3.19 0 0 1 37.373 5c.291-.317.651-.562 1.07-.748.42-.188.897-.277 1.434-.277.354 0 .676.031.967.097.292.064.578.154.853.27l-.388 1.499a4.985 4.985 0 0 0-.581-.174 2.941 2.941 0 0 0-.705-.078c-.556 0-.968.175-1.239.517-.27.342-.405.794-.405 1.356 0 .593.128 1.058.38 1.38.257.33.704.492 1.335.492.245 0 .49-.023.73-.066.247-.037.487-.104.717-.2l.265 1.536c-.264.107-.539.187-.82.24a5.56 5.56 0 0 1-1.084.103c-.607 0-1.124-.091-1.561-.272a2.95 2.95 0 0 1-1.079-.736 2.803 2.803 0 0 1-.613-1.098 5.513 5.513 0 0 1-.178-1.387z" fill="#4D4D4D"/><path d="M48.258 7.442c0 .522-.077.993-.226 1.427-.148.433-.368.8-.65 1.104-.289.307-.64.549-1.028.71a3.417 3.417 0 0 1-1.336.252c-.485 0-.93-.083-1.33-.252a2.959 2.959 0 0 1-1.027-.71 3.176 3.176 0 0 1-.665-1.104 4.044 4.044 0 0 1-.24-1.427c0-.523.084-.994.246-1.421a3.054 3.054 0 0 1 1.71-1.795c.4-.168.833-.251 1.304-.251.477 0 .916.083 1.316.25.4.17.742.4 1.027.705.294.315.52.686.665 1.09.15.428.234.9.234 1.422zm-1.91 0c0-.582-.117-1.033-.348-1.362-.232-.328-.562-.496-.988-.496-.425 0-.762.168-.993.496-.232.329-.354.788-.354 1.362 0 .582.116 1.039.354 1.375.231.343.568.51.993.51.426 0 .756-.167.988-.51.231-.342.348-.801.348-1.375zM51.06 2.233c0 .343-.11.614-.337.814-.22.2-.485.297-.787.297a1.142 1.142 0 0 1-.788-.297c-.22-.2-.337-.465-.337-.814 0-.342.11-.613.337-.813.216-.194.497-.3.788-.297.29-.005.572.101.787.297.226.2.337.471.337.813zm-.175 8.528h-1.872V4.143h1.873v6.618zM51.95 4.368c.317-.09.73-.18 1.233-.257a10.432 10.432 0 0 1 1.581-.123c.562 0 1.027.072 1.401.22.374.148.671.354.885.62.22.27.374.587.465.955.091.368.135.782.135 1.233v3.738h-1.872V7.242c0-.608-.078-1.033-.24-1.285-.162-.251-.459-.374-.89-.374-.135 0-.278.006-.426.02-.148.014-.285.026-.4.046v5.105H51.95V4.368z" fill="#4D4D4D"/><path d="M62.77 10.935c-1.421 0-2.498-.394-3.24-1.181-.742-.788-1.11-1.904-1.11-3.357 0-.722.117-1.361.342-1.93a4.11 4.11 0 0 1 .93-1.432c.4-.392.88-.694 1.407-.885a5.103 5.103 0 0 1 1.776-.302c.368 0 .704.025 1.007.083.268.044.533.107.794.188a3.936 3.936 0 0 1 .896.394l-.568 1.58a4.64 4.64 0 0 0-.936-.361 4.38 4.38 0 0 0-1.213-.149c-.301 0-.6.05-.885.149-.288.103-.55.268-.768.484-.22.22-.4.511-.536.86-.134.354-.2.781-.2 1.284a4.85 4.85 0 0 0 .129 1.124c.09.348.231.645.425.896.206.26.472.465.774.6.317.148.705.22 1.156.22.257 0 .513-.017.768-.052a4.564 4.564 0 0 0 1.072-.277c.135-.057.257-.117.362-.162l.543 1.575c-.277.168-.665.317-1.168.451-.513.135-1.098.2-1.757.2zM68.63 3.969c.557 0 1.014.065 1.382.188.368.122.665.303.885.542a2 2 0 0 1 .47.853c.092.336.135.71.135 1.116v3.899c-.271.057-.64.128-1.116.206-.477.077-1.059.122-1.736.122-.425 0-.812-.039-1.161-.117a2.606 2.606 0 0 1-.897-.368c-.249-.169-.45-.4-.582-.67-.134-.278-.2-.614-.2-1.02 0-.388.078-.71.232-.981a1.73 1.73 0 0 1 .62-.64c.257-.162.556-.277.89-.348a5.03 5.03 0 0 1 1.045-.109c.245 0 .46.014.645.032.188.02.343.046.46.083v-.174c0-.317-.098-.574-.292-.768-.194-.194-.528-.29-1.007-.29-.315 0-.63.024-.942.07-.31.046-.582.11-.807.194l-.24-1.51c.109-.031.245-.07.406-.108.162-.04.342-.072.536-.103.194-.032.394-.052.608-.077.227-.008.447-.022.667-.022zm.149 5.48c.188 0 .362-.006.528-.014.135-.003.268-.016.4-.04v-1.42c-.077-.02-.188-.032-.342-.052a3.15 3.15 0 0 0-.414-.026 4.34 4.34 0 0 0-.496.032c-.155.02-.291.057-.406.122a.693.693 0 0 0-.277.24.681.681 0 0 0-.103.374c0 .29.097.497.297.607.2.125.47.177.813.177zM74.414 9.417c.342 0 .587-.032.73-.103.142-.065.213-.2.213-.388 0-.148-.09-.285-.276-.394-.189-.116-.466-.24-.846-.38a7.455 7.455 0 0 1-.799-.342 2.247 2.247 0 0 1-.608-.42 1.683 1.683 0 0 1-.388-.587 2.186 2.186 0 0 1-.134-.82c0-.62.231-1.11.69-1.472.46-.362 1.091-.542 1.898-.542.388 0 .775.037 1.156.109.368.07.665.148.879.231L76.6 5.768a6.097 6.097 0 0 0-.71-.2 3.93 3.93 0 0 0-.859-.091c-.588 0-.879.162-.879.49a.482.482 0 0 0 .04.2.445.445 0 0 0 .148.169c.099.067.203.125.311.174.161.078.327.147.497.206a7.87 7.87 0 0 1 1.019.45c.271.15.477.311.633.478.15.163.261.357.329.568.065.206.097.45.097.73 0 .651-.246 1.15-.736 1.478-.491.337-1.182.503-2.078.503-.588 0-1.079-.052-1.465-.149a7.413 7.413 0 0 1-.813-.25l.316-1.525c.32.125.647.225.982.297.321.08.65.121.982.12zM77.92 10.76V1.303L79.794 1v3.17c.16-.05.321-.09.485-.122.189-.038.381-.058.574-.058.536 0 .981.071 1.336.22.354.148.639.354.852.62.214.27.363.587.452.955.09.368.128.782.128 1.233v3.738h-1.872V7.242c0-.608-.077-1.033-.231-1.285-.155-.251-.446-.374-.86-.374a2.237 2.237 0 0 0-.47.046c-.149.032-.277.057-.394.097v5.028h-1.872v.006zM14 12c3.61-2.323 4.486-6.892 1.956-10.205A7.689 7.689 0 0 0 14 0h6v12h-6zM2.602 6a6.842 6.842 0 0 0 .9 3.383A7.546 7.546 0 0 0 6 12H0V0h6A7.547 7.547 0 0 0 3.5 2.617 6.842 6.842 0 0 0 2.602 6z" fill="#F7941D"/><path d="M10 12a6 6 0 1 0 0-12 6 6 0 0 0 0 12z" fill="#F7941D"/><path d="m12.951 6.307-.003-.007v-.001l-.006-.021-.001-.001v-.002h-.001v-.002a1.326 1.326 0 0 0-.405-.644l-.018-.015-.008-.007-.005-.004L12.5 5.6l-.005-.004-.003-.003-.005-.004-.002-.002-.006-.004-.003-.002-.006-.005-.003-.002-.006-.004-.003-.002-.003-.006-.004-.002-.006-.005-.003-.002-.006-.004-.004-.003-.006-.004-.003-.003-.007-.004-.003-.003-.007-.004-.003-.003-.007-.004-.004-.003-.007-.004-.003-.003-.007-.004-.004-.003-.007-.004-.003-.002-.008-.004-.004-.003-.008-.004-.003-.003-.008-.004-.004-.003-.008-.004-.004-.003-.008-.005-.004-.002-.008-.005-.004-.002-.008-.005-.006-.003-.013-.008a1.652 1.652 0 0 0-.553-.186c.054-.062.104-.128.148-.198l.008-.012.003-.005.005-.008.002-.003.004-.008.003-.003.004-.008.002-.003.005-.008.002-.003.004-.008.002-.003.004-.007.003-.004.003-.007.002-.003.004-.007.002-.003.003-.008.002-.003.004-.007.001-.003.004-.007.001-.003.004-.007.001-.003.004-.006.002-.003.003-.007.002-.003.003-.006.002-.003.003-.006v-.003l.004-.006.001-.003.003-.006.001-.003.003-.006.002-.003.002-.005.001-.003.003-.006.001-.003.002-.006.002-.002.002-.007.004-.009.008-.02c.083-.217.103-.457.056-.686V4.1h-.001v-.002h-.001v-.002a.206.206 0 0 0-.005-.019v-.002l-.003-.005a.358.358 0 0 0-.006-.027l-.007-.027-.003-.006v-.001a1.28 1.28 0 0 1-.006-.019v-.001l-.001-.001v-.001h-.001a1.178 1.178 0 0 0-.36-.574l-.015-.014-.007-.005-.005-.004-.003-.002-.004-.004-.003-.002-.005-.004-.002-.002-.005-.004-.002-.002-.005-.004-.003-.002-.005-.004-.003-.002-.005-.004-.003-.002-.005-.004-.003-.002-.006-.004-.003-.002-.006-.004-.003-.002-.006-.003-.003-.002-.006-.004-.003-.002-.006-.004-.002-.002-.007-.004-.003-.002-.006-.004-.003-.002-.007-.004-.003-.002-.006-.004-.004-.002-.006-.004-.004-.003-.006-.004-.004-.002-.007-.005-.004-.002-.007-.005-.003-.002-.008-.004-.004-.002-.007-.004-.005-.003-.012-.007a1.569 1.569 0 0 0-1.173-.123l-.11.03L9.856 2l-.644.176.277 1.149-.516.14-.277-1.145-.644.176.277 1.15L7 4.01l.177.732.535-.147a.314.314 0 0 1 .251.038c.076.048.131.125.153.216l.743 3.081a.25.25 0 0 1-.024.179.223.223 0 0 1-.135.108l-.47.129.028.87 1.328-.363.28 1.147.645-.177-.278-1.15.516-.14.277 1.15.644-.177-.278-1.154.268-.074c.476-.13.861-.428 1.095-.8l.007-.012h.001l.004-.006.005-.008.002-.005.005-.008.003-.005.004-.008.003-.004.004-.008.002-.005.005-.008.002-.004.004-.008.002-.004.004-.008.002-.004.004-.008.002-.004.005-.008.002-.004.004-.007.002-.004.004-.008.002-.004.003-.007.002-.004.004-.007.002-.004.004-.007.001-.004.003-.006.002-.004.003-.007.002-.003.003-.007.002-.003.003-.007.002-.003.003-.007.002-.003.003-.007.002-.003.003-.007.002-.003.002-.006.002-.003.002-.008.004-.01.01-.02v-.001a1.4 1.4 0 0 0 .062-.773V6.4l-.001-.001v-.001h-.001a3.504 3.504 0 0 1-.005-.022v-.003l-.001-.001V6.37l-.001-.001v-.001l-.001-.001-.001-.003-.008-.03-.002-.028zM9.165 4.246c.11-.03.565-.152.715-.194a.916.916 0 0 1 .656.055l.006.003.003.001.004.002.002.001.004.002.001.001.004.003h.002l.004.003h.002l.004.003.001.001.004.002.002.001.004.002.002.001.003.003h.002l.004.003h.002l.003.003.002.001.003.003h.002l.004.003.002.001.002.002.002.001.003.002.002.001.003.002.002.001.003.002.002.001.003.002.001.001.003.002.001.001.003.002h.001l.003.003h.002l.002.002.002.001.002.002.001.001.003.002.004.003.009.006c.094.076.163.18.197.3v.002l.003.01.002.004.004.014a.09.09 0 0 1 .003.016l.002.003a.05.05 0 0 0 .002.011l.001.002a.63.63 0 0 1-.037.364l-.004.01-.002.005-.002.003v.002l-.002.003v.002l-.002.003v.001l-.002.004v.001l-.002.003v.002l-.003.003v.002l-.002.003v.002l-.002.003-.001.002-.002.003v.002l-.003.003v.002l-.002.004-.001.002-.003.003v.002l-.003.004-.001.002-.002.003-.001.002-.003.003v.003l-.003.003-.001.002-.002.003-.001.002-.003.004v.002l-.003.003-.001.002-.003.004v.002l-.004.004v.002l-.003.004-.001.002-.003.004-.002.002-.004.006a.968.968 0 0 1-.551.385c-.15.04-.604.167-.713.197l-.34-1.395zm2.52 2.362v.003h.001l.002.011v.001l.001.001a.645.645 0 0 1-.052.399l-.005.011-.003.005-.002.004-.001.002-.002.004v.002l-.003.003v.002l-.003.003-.001.002-.002.004-.001.002-.003.003v.002l-.003.004v.002l-.003.003-.001.002-.003.004v.002l-.003.003v.002l-.003.003-.001.002-.003.004v.002l-.003.004-.001.002-.003.004-.001.002-.003.004v.002l-.003.004-.001.002-.003.005-.001.002-.002.004-.002.002-.003.005-.002.002-.003.005-.001.002-.003.005-.002.002-.003.005-.001.002-.003.005-.003.003-.005.006a1.214 1.214 0 0 1-.658.434l-.845.234-.366-1.516c.13-.036.669-.18.847-.23.282-.076.559-.054.773.043l.007.003.003.002.005.002h.003l.004.003h.003l.004.003h.003l.004.003.002.001.005.003h.002l.004.003.002.001.005.003h.002l.003.003.002.001.004.002.002.001.004.002.002.001.003.003h.002l.004.003h.002l.004.003.002.001.003.002.002.001.004.002.002.001.004.003h.002l.003.003.002.001.003.003h.002l.003.003.002.001.003.003.002.001.003.002.002.001.003.002.002.001.003.003.005.003.01.007a.61.61 0 0 1 .225.322l.001.003.004.01.002.004a.516.516 0 0 0 .005.03z" fill="#fff"/></svg>