<svg width="60" height="16" fill="none" xmlns="http://www.w3.org/2000/svg"><path fill-rule="evenodd" clip-rule="evenodd" d="M6.064 15.76A7.999 7.999 0 1 0 9.935.239a7.999 7.999 0 0 0-3.871 15.523zM9.768 4.843c1.108.382 1.918.954 1.76 2.018-.116.78-.548 1.157-1.122 1.29.788.409 1.189 1.038.807 2.128-.474 1.354-1.6 1.468-3.096 1.184l-.364 1.456-.877-.218.358-1.437c-.227-.056-.46-.116-.7-.181l-.36 1.443-.876-.219.363-1.458-.247-.065-.379-.097-1.142-.285.436-1.004s.647.172.638.159c.248.061.359-.1.402-.209l.574-2.3c.022.004.043.01.063.015l.03.007a.727.727 0 0 0-.091-.03l.41-1.642c.01-.186-.054-.422-.41-.51.014-.01-.637-.159-.637-.159l.233-.937 1.21.302v.004c.182.046.37.089.56.132l.36-1.441.877.218-.352 1.414c.235.053.472.108.703.165l.35-1.404.878.219-.36 1.442zM6.99 10.07c.716.19 2.282.602 2.53-.397.256-1.023-1.263-1.364-2.004-1.53a9.95 9.95 0 0 1-.215-.05l-.482 1.932.17.045zm.675-2.824c.598.16 1.9.507 2.127-.401.232-.93-1.034-1.21-1.653-1.347a7.589 7.589 0 0 1-.18-.042L7.521 7.21c.042.01.09.023.144.038z" fill="#FF9736"/><path d="M23.3 5.328c.447 0 .832.08 1.156.237.325.158.594.372.81.64.212.27.37.586.472.947.101.362.152.752.152 1.17 0 .64-.117 1.245-.354 1.816a4.551 4.551 0 0 1-2.415 2.491c-.557.246-1.16.37-1.81.37-.083 0-.23-.003-.439-.008a6.445 6.445 0 0 1-.716-.061 8.417 8.417 0 0 1-.856-.168 4.3 4.3 0 0 1-.857-.306l2.409-10.12 2.157-.334-.863 3.59c.185-.082.37-.147.556-.194a2.47 2.47 0 0 1 .599-.07zm-1.809 5.96c.325 0 .631-.08.919-.238a2.42 2.42 0 0 0 .746-.633c.208-.265.373-.564.494-.898a3.06 3.06 0 0 0 .18-1.045c0-.445-.074-.793-.222-1.044-.148-.25-.423-.376-.821-.376-.131 0-.3.025-.508.07-.21.047-.397.145-.565.293l-.918 3.813.146.028a1.518 1.518 0 0 0 .3.029h.25zM28.128 12.804h-2.06l1.74-7.321h2.074l-1.754 7.321zm1.002-8.213c-.287 0-.548-.086-.78-.257-.233-.17-.348-.433-.348-.787 0-.195.04-.377.118-.55a1.47 1.47 0 0 1 .766-.745 1.38 1.38 0 0 1 .55-.11c.288 0 .547.085.78.257.23.172.347.435.347.786 0 .196-.04.379-.118.55a1.451 1.451 0 0 1-1.315.856zM31.687 3.659l2.157-.335-.53 2.158h2.312l-.418 1.698h-2.297L32.3 9.74a2.898 2.898 0 0 0-.097.6c-.01.185.014.345.07.48a.604.604 0 0 0 .298.312c.144.075.35.113.62.113a3.3 3.3 0 0 0 .648-.064c.208-.04.419-.098.632-.173l.154 1.587a7.39 7.39 0 0 1-.905.264c-.325.075-.71.11-1.156.11-.64 0-1.136-.094-1.49-.283a1.655 1.655 0 0 1-.751-.781 2.48 2.48 0 0 1-.195-1.134 7.34 7.34 0 0 1 .195-1.35l1.365-5.762zM35.535 9.88c0-.63.102-1.225.306-1.782a4.383 4.383 0 0 1 .878-1.462 4.11 4.11 0 0 1 1.386-.988 4.427 4.427 0 0 1 1.815-.362c.418 0 .792.04 1.12.119.33.08.629.183.899.313l-.71 1.615a6.66 6.66 0 0 0-.578-.201c-.2-.062-.443-.091-.73-.091-.688 0-1.232.237-1.637.71-.403.472-.606 1.108-.606 1.907 0 .473.103.856.307 1.148.204.293.58.439 1.127.439a3.836 3.836 0 0 0 1.448-.292l.155 1.656a7.45 7.45 0 0 1-.864.272 4.797 4.797 0 0 1-1.128.117c-.575 0-1.063-.084-1.461-.25a2.784 2.784 0 0 1-.988-.675 2.546 2.546 0 0 1-.564-.996 4.087 4.087 0 0 1-.175-1.197zM44.687 12.998c-.492 0-.919-.075-1.281-.223a2.365 2.365 0 0 1-.897-.626 2.706 2.706 0 0 1-.536-.954 3.852 3.852 0 0 1-.18-1.216c0-.558.09-1.116.27-1.672.18-.557.448-1.058.802-1.503.35-.445.783-.81 1.293-1.094.51-.282 1.095-.424 1.753-.424.483 0 .908.075 1.275.224.366.148.667.357.905.626.235.27.414.586.535.954.12.365.18.772.18 1.217 0 .556-.088 1.114-.263 1.671a4.823 4.823 0 0 1-.78 1.503c-.343.445-.772.81-1.287 1.092-.515.283-1.111.425-1.789.425zm1.03-5.957c-.306 0-.576.088-.807.264-.232.177-.427.4-.584.668-.159.27-.276.564-.356.884a3.81 3.81 0 0 0-.117.912c0 .464.075.826.222 1.086.15.26.417.39.807.39.307 0 .576-.088.808-.265.23-.176.426-.4.584-.668.158-.269.277-.564.356-.884.078-.32.118-.624.118-.912 0-.463-.075-.826-.223-1.086-.149-.259-.419-.39-.808-.39zM51.052 12.804H48.99l1.74-7.321h2.076l-1.754 7.321zm1.001-8.213c-.287 0-.548-.086-.779-.257-.232-.17-.348-.433-.348-.787 0-.195.04-.377.118-.55a1.45 1.45 0 0 1 .766-.745 1.37 1.37 0 0 1 .55-.11c.287 0 .547.085.78.257.23.172.348.435.348.786 0 .196-.042.379-.12.55a1.443 1.443 0 0 1-.764.745c-.172.075-.355.11-.55.11zM54.29 5.816c.156-.046.33-.1.52-.16a7.683 7.683 0 0 1 1.434-.292c.293-.033.626-.05.995-.05 1.087 0 1.836.317 2.25.948.413.63.484 1.494.216 2.589l-.948 3.953h-2.073l.918-3.87c.056-.242.1-.475.133-.704.032-.226.03-.425-.008-.598a.716.716 0 0 0-.257-.418c-.136-.106-.34-.16-.62-.16-.268 0-.541.03-.82.085l-1.35 5.665h-2.075l1.685-6.988z" fill="#272727"/></svg>