<svg width="71" height="16" fill="none" xmlns="http://www.w3.org/2000/svg"><path d="M5.139 0 5.03.365v10.58l.108.106 4.91-2.903L5.14 0z" fill="#343434"/><path d="M5.14 0 .228 8.148l4.91 2.903V0z" fill="#8C8C8C"/><path d="m5.139 11.982-.06.073v3.769l.06.176 4.913-6.92-4.913 2.902z" fill="#3C3C3B"/><path d="M5.14 16v-4.018L.228 9.08 5.139 16z" fill="#8C8C8C"/><path d="m5.139 11.052 4.91-2.903-4.91-2.232v5.135z" fill="#141414"/><path d="m.229 8.15 4.91 2.902V5.917L.23 8.149z" fill="#393939"/><path d="M18.47 12c-.69 0-1.297-.125-1.82-.375a2.839 2.839 0 0 1-1.216-1.126c-.29-.492-.434-1.07-.434-1.731 0-.622.124-1.179.374-1.671.257-.492.618-.88 1.084-1.162.466-.29 1.004-.436 1.615-.436.554 0 1.044.12 1.47.363.434.242.771.593 1.012 1.053.241.46.362.997.362 1.61 0 .307-.016.537-.048.69h-4.483c.088.525.321.933.699 1.223.385.283.887.424 1.506.424.723 0 1.406-.157 2.049-.472l.144 1.09c-.297.16-.65.286-1.06.375-.41.097-.828.145-1.253.145zm1.097-3.838c-.032-.5-.18-.888-.446-1.162-.265-.274-.63-.412-1.096-.412-.458 0-.832.138-1.121.412-.29.274-.466.662-.53 1.162h3.193zM23.154 6.867h-1.277V5.692h1.277V3.985h1.386v1.707h1.555v1.175H24.54v4.94h-1.386v-4.94zM27.472 2h1.386v4.407c.176-.29.421-.513.735-.666.32-.161.69-.242 1.108-.242.731 0 1.29.226 1.675.678.394.444.59 1.085.59 1.925v3.704h-1.385v-3.45c0-.549-.104-.956-.313-1.223-.201-.266-.515-.4-.94-.4-.466 0-.828.154-1.085.46-.257.307-.385.735-.385 1.284v3.33h-1.386V2zM37.97 12c-.69 0-1.297-.125-1.819-.375a2.84 2.84 0 0 1-1.217-1.126c-.29-.492-.434-1.07-.434-1.731 0-.622.124-1.179.374-1.671.257-.492.618-.88 1.084-1.162.466-.29 1.004-.436 1.615-.436.554 0 1.044.12 1.47.363.434.242.771.593 1.012 1.053.241.46.362.997.362 1.61 0 .307-.016.537-.048.69h-4.483c.088.525.321.933.699 1.223.385.283.887.424 1.506.424.723 0 1.406-.157 2.049-.472l.144 1.09a3.99 3.99 0 0 1-1.06.375c-.41.097-.828.145-1.253.145zm1.097-3.838c-.032-.5-.18-.888-.446-1.162-.265-.274-.63-.412-1.096-.412-.458 0-.832.138-1.121.412-.29.274-.466.662-.53 1.162h3.193zM42.076 5.692h1.326l.012 1.03c.168-.364.401-.642.699-.836.305-.194.654-.29 1.048-.29.105 0 .225.012.362.036.136.024.253.056.349.097l-.133 1.307a1.81 1.81 0 0 0-.723-.145c-.49 0-.871.182-1.144.545-.273.355-.41.851-.41 1.489v2.881h-1.386V5.692zM50.127 12c-.69 0-1.297-.125-1.82-.375a2.839 2.839 0 0 1-1.217-1.126c-.289-.492-.433-1.07-.433-1.731 0-.622.124-1.179.373-1.671.257-.492.619-.88 1.085-1.162.466-.29 1.004-.436 1.615-.436.554 0 1.044.12 1.47.363.434.242.771.593 1.012 1.053.241.46.361.997.361 1.61 0 .307-.016.537-.048.69h-4.483c.089.525.322.933.7 1.223.385.283.887.424 1.506.424.723 0 1.406-.157 2.048-.472l.145 1.09a3.99 3.99 0 0 1-1.06.375c-.41.097-.828.145-1.254.145zm1.097-3.838c-.032-.5-.18-.888-.446-1.162-.265-.274-.63-.412-1.097-.412-.458 0-.831.138-1.12.412-.29.274-.466.662-.53 1.162h3.193zM56.92 12c-.868 0-1.538-.23-2.013-.69-.473-.46-.71-1.11-.71-1.95V5.693h1.385v3.645c0 .952.45 1.428 1.35 1.428.884 0 1.326-.476 1.326-1.428V5.692h1.385v3.669c0 .84-.237 1.489-.71 1.949-.466.46-1.137.69-2.013.69zM61.564 5.692h1.326l.012.787c.169-.314.418-.556.747-.726.33-.17.72-.254 1.169-.254.442 0 .82.097 1.133.29.321.186.57.46.747.824.185-.347.458-.618.82-.812a2.43 2.43 0 0 1 1.204-.302c.74 0 1.302.226 1.688.678.393.444.59 1.085.59 1.925v3.704h-1.386v-3.45c0-.549-.104-.956-.313-1.223-.201-.266-.51-.4-.928-.4-.442 0-.787.154-1.036.46-.241.307-.362.735-.362 1.284v3.33H65.59V8.355c0-.557-.1-.965-.301-1.223-.193-.266-.502-.4-.928-.4-.434 0-.78.158-1.036.473-.25.307-.374.726-.374 1.259v3.341h-1.386V5.692z" fill="#141414"/></svg>