<svg fill="none" height="39" viewBox="0 0 61 39" width="61" xmlns="http://www.w3.org/2000/svg"><g fill="#fff" fill-opacity=".7"><path d="m3.71469 25.4994-.81786 2.4159h1.62647zm1.57821 4.7829-.31802-.9236h-2.53095l-.31736.9236h-1.877058l2.415908-6.4193h2.08797l2.41657 6.4193z"/><path d="m6.99609 27.0584c0-1.9822 1.50152-3.3204 3.47511-3.3204 1.5498 0 2.3868.8761 2.8007 1.7131l-1.4242.6837c-.2115-.5105-.761-.9343-1.3765-.9343-1.04928 0-1.79045.7994-1.79045 1.8579 0 1.0493.74117 1.8579 1.79045 1.8579.6155 0 1.165-.4231 1.3765-.9342l1.4242.6744c-.4139.8178-1.2509 1.723-2.8007 1.723-1.97359 0-3.47511-1.3482-3.47511-3.3211z"/><path d="m13.7427 27.0584c0-1.9822 1.5015-3.3204 3.4751-3.3204 1.5498 0 2.3861.8761 2.8007 1.7131l-1.4248.6837c-.2116-.5105-.7604-.9343-1.3759-.9343-1.0493 0-1.7905.7994-1.7905 1.8579 0 1.0493.7412 1.8579 1.7905 1.8579.6155 0 1.1643-.4231 1.3759-.9342l1.4248.6744c-.4146.8178-1.2509 1.723-2.8007 1.723-1.9736 0-3.4751-1.3482-3.4751-3.3211z"/><path d="m24.502 25.99c0-.443-.3557-.6836-.7987-.6836h-1.3091v1.3772h1.3091c.443 0 .7987-.2413.7987-.6936zm-.1825 4.2923-1.0777-2.1561h-.8476v2.1561h-1.6549v-6.4193h3.2146c1.4241 0 2.2327.9435 2.2327 2.1369 0 1.1161-.6744 1.7125-1.2807 1.9254l1.3098 2.357z"/><path d="m26.9863 30.2823v-6.4193h4.7069v1.4434h-3.0513v1.001h2.9838v1.444h-2.9838v1.0876h3.0513v1.4433z"/><path d="m37.2095 27.0677c0-.9911-.5964-1.7613-1.7713-1.7613h-1.0486v3.5332h1.04c1.1253 0 1.7799-.8191 1.7799-1.7719zm-4.4761 3.2146v-6.4193h2.6962c2.0206 0 3.4745 1.2126 3.4745 3.2047 0 1.9928-1.4539 3.2146-3.4659 3.2146z"/><path d="m41.386 23.863h-1.6555v6.4193h1.6555z"/><path d="m44.0287 30.2823v-4.9759h-1.7997v-1.4434h5.2457v1.4434h-1.7904v4.9759z"/><path d="m48.2256 30.2823v-6.4193h4.7068v1.4434h-3.0512v1.001h2.9845v1.444h-2.9845v1.0876h3.0512v1.4433z"/><path d="m58.4493 27.0677c0-.9911-.5971-1.7613-1.7713-1.7613h-1.0493v3.5332h1.04c1.126 0 1.7806-.8191 1.7806-1.7719zm-4.4762 3.2146v-6.4193h2.6956c2.0212 0 3.4745 1.2126 3.4745 3.2047 0 1.9928-1.4533 3.2146-3.4652 3.2146z"/><path d="m12.4941 35.6789c0-1.9822 1.5016-3.3204 3.4745-3.3204 1.5498 0 2.3868.8761 2.8007 1.7131l-1.4242.6837c-.2115-.5105-.7603-.9343-1.3765-.9343-1.0493 0-1.7905.7994-1.7905 1.8579 0 1.0493.7412 1.8579 1.7905 1.8579.6162 0 1.165-.4232 1.3765-.9342l1.4242.6743c-.4139.8186-1.2509 1.7231-2.8007 1.7231-1.9729 0-3.4745-1.3482-3.4745-3.3211z"/><path d="m22.2052 34.1202-.8178 2.4159h1.6271zm1.5789 4.7836-.318-.9243h-2.5316l-.3167.9243h-1.8771l2.4153-6.42h2.0886l2.4166 6.42z"/><path d="m25.4873 37.9699.8761-1.2893c.4614.4621 1.1742.8463 2.0588.8463.5587 0 .9052-.1924.9052-.5098 0-.8469-3.6285-.1441-3.6285-2.6176 0-1.0783.9045-2.041 2.5508-2.041 1.0294 0 1.9253.3081 2.6083.8952l-.9052 1.2417c-.5388-.4516-1.2416-.6737-1.8764-.6737-.4813 0-.6935.164-.6935.443 0 .7887 3.6285.1924 3.6285 2.5798 0 1.2887-.9521 2.1462-2.6751 2.1462-1.2992 0-2.2037-.4146-2.849-1.0208z"/><path d="m33.3901 32.4838h-1.6562v6.42h1.6562z"/><path d="m39.1021 38.9038-2.7141-3.7158v3.7158h-1.6556v-6.42h1.7039l2.5977 3.532v-3.532h1.6661v6.42z"/><path d="m46.6579 35.6789c0-1.0486-.6836-1.8579-1.7428-1.8579-1.0579 0-1.7514.8093-1.7514 1.8579 0 1.0394.6935 1.8579 1.7514 1.8579 1.0592 0 1.7428-.8185 1.7428-1.8579zm-5.1789 0c0-1.9531 1.4731-3.3204 3.4361-3.3204 1.9637 0 3.4268 1.3673 3.4268 3.3204 0 1.9544-1.4631 3.3211-3.4268 3.3211-1.963 0-3.4361-1.3667-3.4361-3.3211z"/><path d="m34.0691 5.29926-3.7223-5.29926-3.7218 5.29926-4.1362-1.64432 2.6889 5.02487h10.3387l2.6883-5.02487z"/><path d="m9.19835 6.3717.29356.59638.65849.09587-.47601.46414.1124.65588-.58844-.31009-.5891.31009.1124-.65588-.47604-.46414.65852-.09587z"/><path d="m13.1735 5.24716.519 1.05126 1.1597.1686-.839.81852.1977 1.15506-1.0374-.54546-1.0374.54546.1977-1.15506-.8397-.81852 1.1604-.1686z"/><path d="m18.4804 4.49747-.6916 1.40101-1.5471.2248 1.1194 1.09093-.2645 1.54052 1.3838-.72729 1.3832.72729-.2645-1.54052 1.1194-1.09093-1.5465-.2248z"/><path d="m51.4278 6.3717-.2942.59638-.6585.09587.476.46414-.1124.65588.5891-.31009.5891.31009-.113-.65588.476-.46414-.6578-.09587z"/><path d="m47.4058 5.24716-.5184 1.05126-1.1603.1686.839.81852-.1977 1.15506 1.0374-.54546 1.038.54546-.1977-1.15506.839-.81852-1.1603-.1686z"/><path d="m42.2187 4.49747.6916 1.40101 1.5464.2248-1.1193 1.09093.2645 1.54052-1.3832-.72729-1.3838.72729.2644-1.54052-1.1193-1.09093 1.5465-.2248z"/><path d="m26.3208 14.2428c-.4767 0-.8595.1633-1.1484.4886-.2896.326-.4351.7418-.4351 1.2489 0 .5019.1455.9164.4351 1.2444.2889.3286.6717.4925 1.1484.4925.4741 0 .8569-.1639 1.1485-.4925.2922-.328.4376-.7425.4376-1.2444 0-.5044-.1454-.9196-.4376-1.2469-.2916-.3266-.6744-.4906-1.1485-.4906z"/><path d="m56.6936 14.9952c0-.2261-.076-.4079-.2281-.5455-.1514-.1381-.3471-.2069-.5878-.2069h-1.155v1.5194h1.155c.238 0 .4337-.0695.5865-.2103.1527-.1395.2294-.3246.2294-.5567z"/><path d="m8.99512 16.6483h1.72238l-.86088-2.2804z"/><path d="m56.752 18.3361-1.0545-1.7865h-.8397v1.7865h-.8417v-4.7836h2.1019c.4714 0 .8515.1389 1.1398.4152.2883.2764.4324.6374.4324 1.083 0 .2063-.0317.3928-.0965.5627-.0641.1692-.1501.3101-.2585.4238-.1091.1131-.2295.205-.363.2764-.1329.0714-.2744.1183-.4238.1414l1.1775 1.8811zm-3.5934-4.0444h-2.4371v1.2324h2.3881v.7386h-2.3881v1.3348h2.4371v.7386h-3.2781v-4.7836h3.2781zm-3.9849 0h-1.446v4.0444h-.841v-4.0444h-1.4492v-.7392h3.7362zm-4.1898 3.1088c-.0456.1442-.1177.279-.2156.4047-.0978.1256-.2181.2347-.3609.3246-.1422.0912-.3167.1633-.523.2155-.207.0523-.4351.078-.685.078-.808 0-1.4579-.2519-1.9504-.7563l.4753-.6539c.1805.1944.4.355.6592.482.2592.1263.5442.1897.8549.1897.3194 0 .558-.0654.716-.195.1574-.1309.2361-.287.2361-.4701 0-.1071-.0317-.201-.0946-.281-.0628-.0793-.1481-.1448-.2558-.1951-.1071-.0502-.2314-.0952-.3709-.1355-.1402-.0397-.287-.0787-.4417-.1177-.1534-.0383-.3075-.0806-.4602-.1263-.1534-.0456-.2995-.1031-.4397-.1745-.1401-.0701-.2638-.1527-.3715-.2473-.1071-.0952-.1924-.2169-.2552-.3643-.0629-.1474-.0946-.3147-.0946-.5025 0-.4026.1607-.7378.4833-1.0036.322-.2671.7425-.4 1.2609-.4.7332 0 1.3283.2228 1.7858.6691l-.4727.6254c-.1839-.1858-.3974-.3246-.6394-.4165-.2413-.0932-.4919-.1395-.7504-.1395-.2433 0-.4384.0562-.5852.1673-.1474.1117-.2208.2552-.2208.431 0 .0959.0317.1799.0946.2513.0628.0707.1481.1296.2558.1759.1071.0456.2314.0879.3709.1282.1402.0397.2863.0794.4397.1197.1528.0397.3068.0833.4609.1296.1533.0469.3008.1084.441.1831.1401.0747.2638.1614.3709.2605.1077.0979.1924.2228.2558.3742.0628.1515.0946.3214.0946.5118 0 .1607-.0225.3127-.0681.4575zm-4.4424.9356h-.841v-4.7836h.841zm-1.6985-4.0444h-2.4371v1.2324h2.3881v.7386h-2.3881v1.3348h2.4371v.7386h-3.2781v-4.7836h3.2781zm-4.293 4.0444h-.841v-3.6946l-1.4632 3.6946h-.357l-1.4711-3.6946v3.6946h-.841v-4.7836h1.1835l1.3065 3.2847 1.2991-3.2847h1.1842zm-5.9538-1.3991c-.1217.3055-.289.5667-.5045.7848-.2149.2182-.4734.3895-.7769.5151-.3034.1243-.632.1864-.9844.1864-.4721 0-.8933-.1057-1.2662-.3186-.3722-.2109-.6618-.5052-.8681-.8827-.2069-.3762-.3101-.8007-.3101-1.2741 0-.474.1032-.8992.3101-1.2754.2063-.3762.4959-.6704.8681-.8826.3729-.2123.7941-.318 1.2662-.318.3524 0 .681.0621.9844.1871.3035.1243.562.2962.7769.5144.2155.2175.3828.48.5045.7854.1216.3055.1818.6354.1818.9891 0 .3538-.0602.6837-.1818.9891zm-5.5161 1.3991h-.812l-2.4972-3.4216v3.4216h-.8403v-4.7836h.8615l2.4483 3.3125v-3.3125h.8397zm-5.1651 0h-.8403v-4.7836h.8403zm-1.6721-.9356c-.0456.1442-.117.279-.2155.4047-.0979.1256-.2182.2347-.361.3246-.1415.0912-.3167.1633-.523.2155-.2063.0523-.4351.078-.685.078-.8073 0-1.4579-.2519-1.9504-.7563l.4767-.6539c.1792.1944.3987.355.6578.482.2592.1263.5442.1897.8549.1897.3194 0 .5587-.0654.7161-.195.1573-.1309.236-.287.236-.4701 0-.1071-.0317-.201-.0939-.281-.0634-.0793-.1487-.1448-.2558-.1951-.1078-.0502-.2315-.0952-.3716-.1355-.1395-.0397-.287-.0787-.4417-.1177-.1534-.0383-.3068-.0806-.4602-.1263-.1527-.0456-.2988-.1031-.439-.1745-.1408-.0701-.2638-.1527-.3715-.2473-.1078-.0952-.1924-.2169-.2553-.3643-.0634-.1474-.0952-.3147-.0952-.5025 0-.4026.1614-.7378.484-1.0036.3213-.2671.7418-.4 1.2602-.4.7332 0 1.3283.2228 1.7858.6691l-.4727.6254c-.1838-.1858-.3967-.3246-.6387-.4165-.242-.0932-.4926-.1395-.7511-.1395-.2426 0-.4377.0562-.5851.1673-.1475.1117-.2202.2552-.2202.431 0 .0959.0311.1799.0945.2513.0629.0707.1481.1296.2553.1759.1071.0456.2314.0879.3709.1282.1408.0397.2869.0794.4403.1197.1521.0397.3061.0833.4602.1296.154.0469.3008.1084.441.1831.1401.0747.2644.1614.3716.2605.1071.0979.1924.2228.2552.3742.0628.1515.0945.3214.0945.5118 0 .1607-.0225.3127-.0681.4575zm-4.8239.9356-.3504-.9243h-2.19573l-.35372.9243h-.95274l1.88102-4.7836h1.04727l1.8771 4.7836zm-5.9075.0872c-.35042 0-.67969-.0601-.98779-.1818-.30877-.1216-.57389-.2889-.79803-.5025-.22479-.2142-.40199-.4753-.53092-.7861-.12958-.3107-.19438-.6453-.19438-1.005 0-.3616.0648-.6982.19438-1.0089.12893-.3101.30613-.5726.53092-.7861.22414-.2136.48926-.3802.79803-.5005.3081-.1204.63737-.1805.98779-.1805.44827 0 .83108.0985 1.14778.2942.31803.1963.5739.4529.76696.7716l-.71076.3729c-.11835-.2063-.28628-.3749-.50381-.5045-.21752-.1309-.45025-.1957-.70017-.1957-.47472 0-.86812.1633-1.18019.4886-.3134.3259-.46943.7418-.46943 1.2489 0 .4992.15603.9138.46943 1.243.31207.3293.70547.4939 1.18019.4939.24727 0 .48066-.0654.69885-.197.21819-.1309.38678-.2989.50513-.5025l.71803.3584c-.45951.72-1.10084 1.0796-1.92201 1.0796zm-2.45889-7.1789c-1.68598 0-3.05261 1.3673-3.05261 3.0533v6.5799h57.6664c1.686 0 3.0526-1.3673 3.0526-3.0526v-6.5806z"/></g></svg>