<svg width="66" height="14" fill="none" xmlns="http://www.w3.org/2000/svg"><path fill-rule="evenodd" clip-rule="evenodd" d="M5.902 0H2.538v5.456L.334 6.728 1.68 9.06l.858-.495v4.893h3.364V6.62l3.353-1.935-1.346-2.331-2.007 1.159V0zm5.383 10.766H5.902v2.691h5.383v-2.69zM14.723 14a1.944 1.944 0 1 0 0-3.89 1.944 1.944 0 0 0 0 3.89z" fill="#000"/><path d="M22.816 9.718h4.196v1.283H21.21V1.758h1.606v7.96zM29.735 11h-1.543V4.133h1.543v6.869zM28.097 2.35c0-.237.074-.434.222-.59.153-.157.369-.236.648-.236.28 0 .495.079.647.235a.813.813 0 0 1 .229.59.805.805 0 0 1-.229.585c-.152.152-.368.228-.647.228-.28 0-.495-.076-.648-.228a.817.817 0 0 1-.222-.584zM33.353 2.463v1.67h1.212v1.142h-1.212v3.834c0 .262.05.453.152.571.106.114.292.172.559.172.178 0 .358-.022.54-.064v1.193c-.352.098-.69.146-1.016.146-1.185 0-1.777-.653-1.777-1.961V5.275h-1.13V4.132h1.13v-1.67h1.542zM38.774 11.127c-.978 0-1.771-.306-2.38-.92-.606-.618-.908-1.439-.908-2.463v-.19c0-.686.131-1.297.393-1.835a3.037 3.037 0 0 1 1.118-1.263c.478-.3 1.011-.45 1.6-.45.934 0 1.656.298 2.164.894.512.597.768 1.441.768 2.533v.622H37.04c.047.567.235 1.016.565 1.346.334.33.753.495 1.257.495.706 0 1.282-.286 1.726-.857l.832.794c-.275.41-.643.73-1.105.958a3.455 3.455 0 0 1-1.542.336zm-.184-5.884c-.423 0-.766.148-1.029.444-.258.297-.423.71-.495 1.238h2.94v-.114c-.035-.516-.172-.906-.413-1.168-.241-.267-.576-.4-1.003-.4zM45.553 9.896c.385 0 .705-.112.959-.336a1.15 1.15 0 0 0 .406-.832h1.454c-.017.427-.15.827-.4 1.2-.25.368-.589.66-1.016.876a3.027 3.027 0 0 1-1.384.323c-.96 0-1.722-.31-2.285-.933-.563-.622-.844-1.48-.844-2.577v-.159c0-1.045.28-1.88.838-2.507.558-.63 1.32-.946 2.285-.946.817 0 1.481.24 1.993.718.516.474.787 1.098.813 1.872h-1.454c-.017-.393-.152-.717-.406-.971-.25-.254-.57-.38-.959-.38-.5 0-.884.181-1.155.545-.27.36-.408.908-.413 1.644v.248c0 .744.134 1.3.4 1.67.271.363.66.545 1.168.545zM49.248 7.503c0-.673.133-1.278.4-1.816a2.897 2.897 0 0 1 1.123-1.244c.482-.292 1.037-.438 1.663-.438.927 0 1.678.299 2.254.895.58.597.892 1.388.939 2.374l.006.362c0 .677-.13 1.282-.393 1.816a2.86 2.86 0 0 1-1.117 1.238c-.483.291-1.041.437-1.676.437-.97 0-1.746-.321-2.33-.964-.58-.648-.87-1.509-.87-2.584v-.076zm1.542.133c0 .707.146 1.261.438 1.663.292.398.698.597 1.219.597.52 0 .924-.203 1.212-.61.292-.406.438-1 .438-1.783 0-.694-.15-1.244-.45-1.65-.297-.407-.7-.61-1.213-.61-.503 0-.903.201-1.2.603-.296.398-.444.995-.444 1.79zM58.579 11h-1.543V4.133h1.543v6.869zM56.94 2.35c0-.237.074-.434.222-.59.152-.157.368-.236.648-.236.279 0 .495.079.647.235a.812.812 0 0 1 .229.59.804.804 0 0 1-.229.585c-.152.152-.368.228-.648.228-.279 0-.495-.076-.647-.228a.817.817 0 0 1-.222-.584zM61.695 4.132l.045.794c.508-.614 1.174-.92 2-.92 1.43 0 2.157.818 2.183 2.456V11H64.38V6.55c0-.436-.095-.758-.285-.965-.187-.212-.493-.317-.92-.317-.623 0-1.086.281-1.39.844V11h-1.543V4.132h1.453z" fill="#000"/></svg>