<svg width="79" height="14" fill="none" xmlns="http://www.w3.org/2000/svg"><path d="M72.593 13.214v-.785h.534c.645 0 .818-.205 1.053-1.195.173-.754.142-.832-1.1-4.29-.707-1.932-1.272-3.613-1.272-3.739 0-.141.235-.204.832-.204h.817l.88 2.64.88 2.624.849-2.593.848-2.592.833-.048c.707-.047.817-.015.817.252 0 .157-.738 2.404-1.618 4.996-1.917 5.531-2.043 5.72-3.473 5.72h-.88v-.786zM4.384 10.78c-.849-.456-.943-1.682-.189-2.28.471-.376 1.006-.392 1.603-.078.518.252.644.519.644 1.257 0 .393-.126.629-.487.927-.534.456-.959.503-1.571.173zM30.012 5.515V0l.895.047.896.047 1.383 3.3C33.956 5.2 34.6 6.709 34.63 6.74c.032.015.676-1.477 1.446-3.331L37.475.016h1.807V11.015H37.397L37.38 7.84V4.65l-1.053 2.64-1.053 2.64-.612-.048-.597-.047-1.053-2.482-1.037-2.499-.047 3.08-.032 3.08H30.012v-5.5zM41.01 7.008V3h1.729v8.013h-1.728V7.008zM44.467 5.515v-5.5h6.128v1.729h-4.321V4.729h4.321v1.572h-4.243v4.714H44.467v-5.5zM52.48 7.008V3h1.572v8.013H52.48V7.008zM55.938 7.008V3h.88c.848 0 .88.016.817.377l-.08.361.567-.377c.738-.502 2.042-.455 2.828.11.958.676 1.115 1.273 1.115 4.604v2.938h-1.712l-.047-2.844c-.047-2.765-.063-2.844-.425-3.142-.518-.424-1.35-.393-1.822.094-.393.377-.393.424-.393 3.143v2.75h-1.728V7.007zM63.794 7.008V3h1.728v8.013h-1.728V7.008zM68.963 10.653c-.802-.534-.943-1.194-.896-3.912.047-2.326.047-2.326-.298-2.326-.33 0-.362-.078-.362-.707 0-.597.047-.707.315-.707.298 0 .314-.11.314-1.493V.016h1.728V3h.55c.55 0 .55 0 .55.707s0 .707-.55.707h-.566l.048 2.404.047 2.389.518.047c.503.047.503.063.503.911v.848h-.691a2.15 2.15 0 0 1-1.21-.36zM18.981 10.15c-.157-.345-.141-.455.157-.738.283-.299.393-.314.739-.157.251.126.393.314.393.55 0 .785-.974 1.037-1.289.345zM17.442 10.15c-.409-.502.204-1.272.754-.926.534.345.345 1.162-.283 1.162-.157 0-.361-.11-.471-.235zM20.773 10.04c-.11-.11-.189-.33-.189-.518 0-.456.299-.707.817-.707.566 0 .88.566.613 1.084-.204.362-.927.456-1.241.142zM7.26 9.71c-.613-.66-.409-1.65.424-1.995.958-.393 1.98.628 1.587 1.587-.362.848-1.414 1.052-2.011.408zM1.87 9.726c-.25-.078-.502-.345-.612-.613-.173-.408-.157-.534.11-.895.644-.88 1.933-.519 1.933.518 0 .77-.692 1.242-1.43.99zM16.122 9.506c-.33-.33-.315-.471.078-.754.409-.283.723-.173.864.267.063.22.016.393-.188.534-.362.267-.456.252-.754-.047zM22.344 8.94c-.11-.11-.189-.33-.189-.518 0-.44.299-.707.786-.707.487 0 .786.267.786.707 0 .44-.299.707-.786.707-.22 0-.487-.079-.597-.189zM14.88 8.877c-.173-.172-.126-.817.047-.927.094-.047.299-.047.487 0 .44.142.361.927-.094.99-.189.032-.377 0-.44-.063zM9.757 7.919c-.377-.471-.314-.911.173-1.336.44-.392.943-.345 1.351.079.425.456.44.958.032 1.367a1.013 1.013 0 0 1-1.556-.11zM.267 7.385C-.078 7.18-.094 6.253.252 5.923c.33-.345.942-.314 1.32.063.832.833-.252 2.011-1.305 1.399zM23.6 7.37c-.157-.205-.236-.535-.205-.865 0-.11.19-.314.409-.456.361-.235.424-.235.786 0 .424.283.534.99.204 1.32-.252.252-.99.236-1.194 0zM12.053 6.175a.951.951 0 0 1 .707-1.603c.8 0 1.225 1.084.628 1.619-.377.345-1.021.33-1.335-.016zM23.57 5.044c-.613-.613-.22-1.571.675-1.571.519 0 .896.377.896.927 0 .864-.959 1.257-1.571.644zM.235 4.667c-.188-.283-.204-.472-.094-.77.298-.786 1.477-.692 1.681.141.22.88-1.084 1.399-1.587.629zM13.843 4.164c-.189-.236-.33-.519-.33-.644 0-.33.723-.99 1.1-.99.455 0 .942.55.942 1.068 0 .943-1.131 1.304-1.712.566zM10.59 3.724c-.157-.408.063-.754.44-.691.267.031.362.157.362.44 0 .283-.095.408-.362.44-.204.031-.393-.047-.44-.189zM1.618 3.08c-.424-.362-.424-.393-.204-.817.456-.817 1.571-.629 1.571.267 0 .785-.754 1.1-1.367.55zM9.522 2.907c-.33-.314-.314-.424.047-.754.346-.315.755-.189.896.267.063.22.016.393-.188.534-.362.267-.456.251-.755-.047zM16.2 2.75c-.44-.55-.409-1.085.063-1.556 1.131-1.147 2.75.471 1.681 1.697-.377.44-1.351.361-1.744-.142zM22.108 2.876c-.534-.598-.252-1.587.518-1.839.315-.094.927.142 1.132.456.22.33.125 1.147-.157 1.398-.393.346-1.179.33-1.493-.015zM19.562 2.341c-.77-.44-.927-1.225-.377-1.917.251-.314.456-.408.943-.408.817 0 1.241.424 1.241 1.24 0 .99-.958 1.572-1.807 1.085zM8.265 2.137c-.141-.141-.251-.314-.251-.393 0-.235.502-.644.754-.597.377.079.613.55.408.88-.235.362-.597.409-.91.11zM3.425 2.042c-.33-.188-.377-.927-.094-1.21.236-.235.802-.235 1.037 0 .11.11.189.393.189.629 0 .33-.094.487-.409.597-.471.189-.393.189-.723-.016zM41.261 1.728c-.786-.628-.377-1.712.66-1.712.519 0 .974.455.974.99 0 .33-.675 1.052-.99 1.052-.125 0-.408-.141-.644-.33zM52.827 1.9c-.77-.313-.755-1.618.047-1.822.927-.236 1.634.472 1.32 1.32-.095.267-.77.723-.975.644a4.99 4.99 0 0 1-.392-.141zM64.249 1.838c-.943-.471-.644-1.822.408-1.822.645 0 1.022.345 1.022.927 0 .722-.786 1.225-1.43.895zM5.122 1.446c-.361-.393-.204-.927.314-1.053.22-.063.487-.016.613.094.33.283.299.896-.063 1.1-.424.22-.55.204-.864-.141zM6.662 1.524c-.188-.487 0-.801.471-.801.566 0 .88.408.582.77-.267.314-.943.33-1.053.031z" fill="#1B1744"/></svg>