<svg width="75" height="16" fill="none" xmlns="http://www.w3.org/2000/svg"><path d="M5.17 12.937c-.337 0-.673-.186-.86-.485L.128 5.243a1.032 1.032 0 0 1 .374-1.382 1.032 1.032 0 0 1 1.382.374l4.183 7.171a1.032 1.032 0 0 1-.373 1.382.933.933 0 0 1-.523.15z" fill="#F69220"/><path d="M15.703 9.015c0-.522-.187-1.008-.486-1.53-.448-.823-.971-1.346-1.68-1.682-.598-.298-1.27-.448-1.943-.373.224-.486.374-.971.41-1.494.076-.747-.186-1.42-.634-2.241A3.753 3.753 0 0 0 10.287.5C9.839.238 9.39.05 8.867.014a5.925 5.925 0 0 0-1.606.112c-.186.037-.373.112-.56.15l-.224.112c-.336.112-1.195.597-1.494.784l-1.457.859H3.49a1.189 1.189 0 0 0-.41 1.569 1.126 1.126 0 0 0 1.53.41h.038L7 2.667c.224-.112.448-.187.672-.224.224-.038.448 0 .673.037.224.075.41.187.635.336.186.15.336.336.485.56.112.225.224.449.262.71.037.262.037.486 0 .71-.038.224-.113.41-.262.597-.112.187-.299.337-.485.449L7.56 6.7l-.597.336-.374.224c-.523.299-.672.934-.373 1.457.186.336.56.523.933.523a.858.858 0 0 0 .523-.15l.785-.448 2.016-1.083c.225-.112.411-.187.635-.187.225 0 .449.037.635.112.225.075.411.187.598.336.187.15.336.336.486.56.112.225.186.449.224.673.037.224.037.485-.038.71-.037.224-.149.41-.298.634-.15.187-.337.337-.56.486l-3.474 1.98h-.187l-.635.373-1.233.672c-.522.3-.747.972-.448 1.494.187.374.56.598.971.598a.858.858 0 0 0 .523-.15l2.988-1.605 2.428-1.308a6.794 6.794 0 0 0 1.42-1.083c.41-.41.709-.859.896-1.307.224-.523.336-1.009.299-1.532zM46.629 10.957c-.224 0-.486 0-.673-.186-.187-.187-.187-.449-.187-.673V4.496c0-.224 0-.486.187-.673.187-.186.448-.186.673-.186h2.091c1.457 0 2.279.821 2.279 2.054 0 .822-.523 1.345-.934 1.531.448.224 1.008.673 1.008 1.644 0 1.382-.934 2.129-2.24 2.129h-2.204v-.038zm.597-6.05v1.68h1.42c.597 0 .933-.336.933-.859 0-.523-.336-.859-.934-.859h-1.419v.038zm1.494 4.78c.635 0 .971-.41.971-.896 0-.485-.299-.896-.97-.896h-1.495v1.792h1.494zM53.352 8.68c0 .71.41 1.195 1.195 1.195.336 0 .672-.075.933-.3.225-.149.337-.186.486-.186.261 0 .523.262.523.56 0 .262-.224.486-.523.673-.373.261-.86.373-1.457.373-1.27 0-2.502-.56-2.502-2.764 0-1.755.934-2.764 2.353-2.764 1.457 0 2.278 1.046 2.353 2.39 0 .225-.037.449-.187.598-.187.187-.373.187-.597.187H53.35v.037zm1.942-1.495c-.15-.336-.448-.56-.897-.56-.448 0-.747.224-.896.56a1.422 1.422 0 0 0-.112.598h2.054a2.326 2.326 0 0 0-.15-.598zM58.02 6.775h-.15c-.26 0-.335 0-.447-.075a.475.475 0 0 1-.262-.448c0-.187.075-.374.262-.448.112-.075.186-.075.448-.075h.15v-.71c0-.336 0-.448.074-.597a.66.66 0 0 1 .598-.337c.261 0 .485.112.597.337.075.149.075.261.075.597v.71h.41c.262 0 .337 0 .449.075.15.074.261.224.261.448 0 .187-.074.373-.261.448-.112.075-.187.075-.448.075h-.411v2.577c0 .261.075.448.448.485.187 0 .299.038.41.075.15.075.262.224.262.486 0 .224-.112.41-.261.485-.112.075-.299.075-.56.075h-.075c-1.12 0-1.569-.747-1.569-1.531V6.775zM61.643 6.775h-.15c-.26 0-.335 0-.447-.075a.475.475 0 0 1-.262-.448c0-.187.075-.374.262-.448.112-.075.186-.075.448-.075h.15v-.71c0-.336 0-.448.074-.597a.66.66 0 0 1 .598-.337c.261 0 .485.112.597.337.075.149.075.261.075.597v.71h.41c.262 0 .337 0 .449.075.15.074.261.224.261.448 0 .187-.074.373-.261.448-.112.075-.187.075-.448.075h-.411v2.577c0 .261.075.448.448.485.187 0 .299.038.41.075.15.075.262.224.262.486 0 .224-.112.41-.261.485-.112.075-.299.075-.56.075h-.075c-1.12 0-1.569-.747-1.569-1.531V6.775zM65.976 8.68c0 .71.411 1.195 1.196 1.195.336 0 .672-.075.933-.3.224-.149.337-.186.486-.186.261 0 .523.262.523.56 0 .262-.224.486-.523.673-.373.261-.86.373-1.457.373-1.27 0-2.502-.56-2.502-2.764 0-1.755.934-2.764 2.353-2.764 1.457 0 2.278 1.046 2.353 2.39 0 .225-.037.449-.187.598-.186.187-.373.187-.597.187h-2.578v.037zm1.943-1.495c-.15-.336-.448-.56-.897-.56-.448 0-.747.224-.896.56a1.422 1.422 0 0 0-.112.598h2.054c-.075-.261-.075-.41-.15-.598zM72.961 5.504c.41 0 .672.075.934.262.187.15.336.336.336.56a.71.71 0 0 1-.187.486.689.689 0 0 1-.448.186c-.15 0-.261-.037-.448-.149-.15-.075-.336-.15-.523-.15-.448 0-.897.3-.897.972v2.39c0 .336 0 .448-.074.598a.66.66 0 0 1-.598.336c-.299 0-.486-.112-.597-.336-.075-.15-.075-.262-.075-.598V6.438c0-.336 0-.448.112-.597a.659.659 0 0 1 .56-.3c.187 0 .336.075.411.15.112.112.187.224.187.411.299-.299.784-.598 1.307-.598z" fill="#606060"/><path d="M23.546 9.015 22.35 6.662V9.95c0 .336 0 .448-.113.635a.725.725 0 0 1-.634.336.725.725 0 0 1-.636-.336c-.074-.187-.112-.299-.112-.635V4.46c0-.3.038-.523.224-.673a.71.71 0 0 1 .486-.186c.187 0 .299.037.411.112.15.074.261.261.373.448l1.83 3.473 1.83-3.473c.075-.187.225-.336.374-.448a.753.753 0 0 1 .411-.112c.187 0 .336.074.486.186.187.187.224.374.224.673v5.528c0 .336 0 .448-.112.634a.725.725 0 0 1-.635.337.725.725 0 0 1-.635-.337c-.075-.186-.112-.298-.112-.634V6.7l-1.083 2.315c-.187.337-.337.486-.673.486s-.523-.112-.71-.486z" fill="#F69220"/><path d="M26.833 10.995c-.299 0-.56-.15-.672-.373-.113-.187-.113-.3-.113-.635V6.924l-1.083 2.129c-.186.336-.336.523-.747.523-.373 0-.56-.187-.747-.523l-1.083-2.129v3.063c0 .336 0 .448-.112.635-.112.224-.373.373-.672.373-.3 0-.56-.15-.673-.373-.112-.187-.112-.336-.112-.635V4.459c0-.299.038-.523.224-.747a.678.678 0 0 1 .523-.224c.187 0 .337.037.449.112.186.112.298.336.373.448l1.755 3.362L25.9 4.048c.075-.112.187-.336.373-.448a.797.797 0 0 1 .449-.112c.224 0 .373.074.523.224.186.187.224.41.224.747v5.528c0 .336 0 .448-.112.635.037.224-.224.373-.523.373zm-.672-4.557v3.549c0 .336 0 .448.074.597a.659.659 0 0 0 .56.3c.262 0 .449-.113.56-.3.075-.149.075-.261.075-.597V4.459c0-.299-.037-.486-.186-.635a.618.618 0 0 0-.449-.187.851.851 0 0 0-.41.112c-.113.075-.225.224-.337.411l-1.867 3.548-1.868-3.548c-.112-.187-.224-.336-.336-.41a.671.671 0 0 0-.41-.113.619.619 0 0 0-.449.187c-.15.15-.187.373-.187.635v5.528c0 .336 0 .448.075.597a.659.659 0 0 0 .56.3c.262 0 .449-.113.56-.3.187-.149.187-.261.187-.597V6.438l1.308 2.54c.186.374.336.486.635.486.298 0 .448-.112.634-.486l1.27-2.54zM30.717 10.958c-.523 0-.971-.187-1.27-.486-.448-.448-.56-.934-.56-1.531V6.4c0-.336 0-.448.074-.598.113-.187.3-.299.56-.299.262 0 .486.112.56.3.076.149.076.26.076.597v2.353c0 .71.448.971.896.971.41 0 .896-.224.896-.971V6.4c0-.336 0-.448.075-.598.112-.187.299-.299.56-.299.262 0 .486.112.56.3.075.149.075.26.075.597v3.585c0 .337 0 .449-.112.598a.659.659 0 0 1-.56.299.597.597 0 0 1-.41-.15c-.113-.112-.15-.224-.188-.373-.224.41-.747.598-1.232.598z" fill="#F69220"/><path d="M30.717 11.033a1.94 1.94 0 0 1-1.307-.486c-.374-.374-.56-.86-.56-1.569v-2.54c0-.336 0-.448.074-.635.112-.224.337-.336.635-.336.3 0 .523.112.635.336.075.15.075.3.075.635v2.353c0 .822.635.897.822.897.186 0 .821-.075.821-.897V6.438c0-.336 0-.448.075-.635.112-.224.336-.336.635-.336s.523.112.635.336c.075.15.075.3.075.635v3.586c0 .336 0 .448-.112.635a.725.725 0 0 1-.635.336.618.618 0 0 1-.449-.187c-.112-.074-.149-.186-.186-.298-.262.336-.747.523-1.233.523zm-1.12-5.454c-.262 0-.449.112-.523.3-.075.111-.075.26-.075.56v2.54c0 .672.15 1.12.523 1.456.299.299.71.448 1.233.448.485 0 .97-.187 1.307-.56l.075-.075.037.112c.037.187.075.262.187.374.112.074.224.15.373.15.224 0 .448-.113.523-.262.075-.15.075-.224.075-.56V6.475c0-.336 0-.448-.075-.56-.075-.187-.299-.3-.523-.3-.224 0-.448.113-.523.3-.075.112-.075.26-.075.56v2.353c0 .747-.485 1.008-.933 1.008-.448 0-.934-.261-.934-1.008V6.476c0-.336 0-.448-.075-.56-.186-.225-.373-.337-.597-.337zM37.851 5.766c.3.15.635.411.635.747 0 .187-.075.299-.186.448-.075.112-.262.187-.411.187-.15 0-.262-.037-.449-.187-.224-.149-.373-.224-.634-.224a.94.94 0 0 0-.747.336c-.187.262-.3.598-.3 1.158 0 .56.075.934.3 1.196a.94.94 0 0 0 .747.336c.26 0 .41-.075.634-.224.187-.15.3-.187.449-.187a.6.6 0 0 1 .41.187.619.619 0 0 1 .187.448c0 .336-.336.597-.635.747-.298.187-.635.261-1.045.261-1.046 0-2.391-.56-2.391-2.726 0-2.167 1.307-2.727 2.39-2.727.411-.037.71.037 1.046.224z" fill="#F69220"/><path d="M36.768 11.032a2.634 2.634 0 0 1-1.644-.56c-.523-.486-.821-1.233-.821-2.204 0-1.008.261-1.718.821-2.203.523-.486 1.196-.56 1.644-.56.41 0 .747.074 1.083.26.299.15.672.412.672.785 0 .187-.074.336-.186.486a.69.69 0 0 1-.449.187c-.149 0-.298-.038-.485-.187-.224-.15-.374-.224-.598-.224a.867.867 0 0 0-.71.336c-.186.261-.298.597-.298 1.12 0 .56.075.897.299 1.158.186.224.41.336.71.336.223 0 .41-.074.597-.224.187-.112.299-.224.485-.224a.69.69 0 0 1 .449.187c.149.15.186.299.186.485 0 .3-.224.56-.672.822-.336.15-.635.224-1.083.224zm.037-5.453c-.71 0-2.316.262-2.316 2.652 0 2.428 1.607 2.69 2.316 2.69.411 0 .71-.075 1.009-.262.41-.224.597-.448.597-.71 0-.15-.074-.261-.187-.41a.57.57 0 0 0-.373-.15c-.15 0-.261.037-.41.187-.225.186-.412.224-.673.224-.336 0-.598-.112-.785-.374-.224-.261-.298-.635-.298-1.195s.112-.934.298-1.195a.993.993 0 0 1 .785-.374c.299 0 .448.075.672.224.187.112.299.187.411.187.15 0 .261-.075.373-.15a.6.6 0 0 0 .187-.41c0-.336-.373-.598-.597-.71a2.116 2.116 0 0 0-1.009-.224zM43.753 10.621c-.112.187-.299.3-.56.3-.262 0-.486-.113-.56-.3-.075-.149-.075-.261-.075-.597V7.67c0-.71-.448-.971-.897-.971-.448 0-.896.224-.896.97v2.354c0 .336 0 .448-.075.598-.112.186-.298.298-.56.298-.261 0-.486-.112-.56-.299-.075-.149-.075-.261-.075-.597V4.496c0-.336 0-.448.075-.598.112-.186.299-.298.56-.298.261 0 .486.112.56.298.075.15.075.262.075.598v1.569c.336-.336.71-.56 1.307-.56.523 0 .971.186 1.27.485.448.448.56.934.56 1.531v2.54c-.037.299-.074.411-.149.56z" fill="#F69220"/><path d="M43.192 10.995c-.298 0-.523-.112-.635-.336-.074-.15-.074-.299-.074-.635V7.67c0-.822-.635-.897-.822-.897-.187 0-.822.075-.822.897v2.353c0 .336 0 .448-.075.635-.111.224-.336.336-.634.336-.3 0-.523-.112-.635-.336-.075-.15-.075-.299-.075-.635V4.496c0-.336 0-.448.075-.635.112-.224.336-.336.635-.336.298 0 .523.112.634.336.075.15.075.299.075.635v1.457c.374-.336.747-.486 1.233-.486.523 0 .97.187 1.307.486.374.373.56.859.56 1.568v2.54c0 .336 0 .448-.074.635-.15.187-.374.299-.673.299zm-1.531-4.333c.448 0 .934.262.934 1.009v2.353c0 .336 0 .448.074.56.075.187.3.299.523.299.224 0 .449-.112.523-.299.075-.112.075-.261.075-.56v-2.54c0-.672-.15-1.12-.523-1.457-.299-.298-.71-.448-1.233-.448-.523 0-.896.15-1.27.523l-.111.112V4.496c0-.336 0-.448-.075-.56-.075-.187-.299-.299-.523-.299-.262 0-.448.112-.523.299-.075.112-.075.261-.075.56v5.565c0 .336 0 .448.075.56.075.187.299.3.523.3.224 0 .448-.113.523-.3.075-.112.075-.261.075-.56V7.708c.037-.784.522-1.046 1.008-1.046z" fill="#F69220"/></svg>