<svg width="32" height="32" viewBox="0 0 32 32" fill="currentColor" xmlns="http://www.w3.org/2000/svg">
<path d="M15.968 23.776C15.456 23.776 15.04 23.36 15.04 22.848L15.104 13.248C15.104 12.736 15.52 12.32 16.032 12.32C16.544 12.32 16.96 12.736 16.96 13.248L16.896 22.848C16.896 23.36 16.48 23.776 15.968 23.776ZM16 7.616C15.488 7.616 15.072 8.032 15.072 8.544C15.072 9.056 15.488 9.472 16 9.472C16.512 9.472 16.928 9.056 16.928 8.544C16.928 8.032 16.512 7.616 16 7.616V7.616ZM32 16C32 24.832 24.832 32 16 32C7.168 32 0 24.832 0 16C0 7.168 7.168 0 16 0C24.832 0 32 7.168 32 16ZM30.144 16C30.144 8.192 23.808 1.856 16 1.856C8.192 1.856 1.856 8.192 1.856 16C1.856 23.808 8.192 30.144 16 30.144C23.808 30.144 30.144 23.808 30.144 16V16Z" fill="currentColor"/>
</svg>
