<svg width="33" height="32" viewBox="0 0 33 32" fill="currentColor" xmlns="http://www.w3.org/2000/svg">
<path d="M28.7196 2.28571C28.6903 2.28571 28.6903 2.28571 28.6609 2.28571H3.34426C1.49612 2.28571 0 3.78183 0 5.62998V28.2772C0 30.1253 1.49612 31.6214 3.34426 31.6214H28.6609C30.5091 31.6214 32.0052 30.1253 32.0052 28.2772V5.62998C32.0052 3.81116 30.5384 2.31504 28.7196 2.28571V2.28571ZM3.34426 3.60581H28.6316H28.6609C29.7757 3.60581 30.6851 4.51522 30.6851 5.62998V8.29953C30.2744 8.00617 29.8344 7.80082 29.3356 7.68348V6.95008C29.3356 5.83533 28.4262 4.95526 27.3408 4.95526H1.43745C1.7308 4.16319 2.46419 3.60581 3.34426 3.60581V3.60581ZM30.6851 22.2927H25.9914C24.1726 22.2927 22.6765 20.7965 22.6765 18.9484C22.6765 17.1002 24.1726 15.6041 25.9914 15.6041H30.6851V22.2927ZM28.0155 7.62481H3.34426C2.46419 7.62481 1.7308 7.06743 1.43745 6.27536H27.3408C27.6928 6.27536 28.0155 6.59806 28.0155 6.95008V7.62481V7.62481ZM28.6609 30.3013H3.34426C2.22951 30.3013 1.34944 29.3919 1.34944 28.2772V8.27019C1.90682 8.71023 2.58154 8.94491 3.34426 8.94491H28.6609C29.7757 8.94491 30.6851 9.85432 30.6851 10.9397V14.284H25.9914C23.4392 14.284 21.327 16.3669 21.327 18.9484C21.327 21.5299 23.4392 23.6128 25.9914 23.6128H30.6851V28.2772C30.6851 29.3919 29.7757 30.3013 28.6609 30.3013V30.3013ZM23.9966 18.9484C23.9966 20.0632 24.906 20.9432 25.9914 20.9432C27.1061 20.9432 28.0155 20.0632 28.0155 18.9484C28.0155 17.863 27.1061 16.9536 25.9914 16.9536C24.906 16.9536 23.9966 17.863 23.9966 18.9484V18.9484ZM26.6661 18.9484C26.6661 19.3298 26.3727 19.6231 25.9914 19.6231C25.6394 19.6231 25.346 19.3298 25.346 18.9484C25.346 18.567 25.6394 18.2737 25.9914 18.2737C26.3727 18.2737 26.6661 18.5964 26.6661 18.9484Z" fill="currentColor"/>
</svg>
