<svg width="32" height="32" viewBox="0 0 32 32" fill="currentColor" xmlns="http://www.w3.org/2000/svg">
<path d="M31.9703 18.9404C31.7029 17.336 29.623 16.2069 26.9786 15.583C26.8004 15.5235 26.6518 15.4938 26.4735 15.4641C25.4039 15.2264 24.2154 15.1076 22.9378 15.0481C22.6407 15.0481 22.3435 15.0481 22.0167 15.0481C21.7196 15.0481 21.4225 15.0481 21.1254 15.0481C20.7094 15.0779 20.3231 15.1076 19.9369 15.1373V5.27286C19.9369 5.21344 19.9072 5.15402 19.9072 5.09459C19.9072 5.09459 19.9072 5.09459 19.9072 5.06488C19.6695 3.57928 17.8867 2.47993 15.5395 1.85597C15.4503 1.82626 15.3909 1.79655 15.3018 1.76684C15.2126 1.76684 15.1235 1.73713 15.0344 1.70741C13.8162 1.41029 12.4197 1.20231 10.8747 1.1726C10.5775 1.14288 10.2804 1.14288 9.95358 1.14288C9.65645 1.14288 9.35933 1.14288 9.06221 1.1726C7.51718 1.20231 6.12071 1.41029 4.87279 1.70741C4.78366 1.73713 4.72423 1.76684 4.6351 1.76684C4.54596 1.79655 4.48654 1.82626 4.3974 1.82626C2.05014 2.47993 0.26741 3.57928 0.0297122 5.06488C0.0297122 5.1243 0 5.21344 0 5.27286V19.9804C0 20.0101 0 20.0101 0 20.0101C0 22.7733 5.1402 24.2589 9.95358 24.2589C10.6667 24.2589 11.3798 24.2292 12.0631 24.1698V26.5764V26.6061C12.0631 29.3694 17.2033 30.855 22.0167 30.855C26.8598 30.855 32 29.3694 32 26.6061V26.5764V19.1484C32 19.089 31.9703 18.9999 31.9703 18.9404V18.9404ZM1.2182 5.33229C1.24791 4.97574 1.51532 4.6192 1.93129 4.29237C1.961 4.26265 1.99072 4.23294 2.02043 4.23294C2.07985 4.17352 2.16899 4.11409 2.28784 4.02496C2.37697 3.96553 2.49582 3.90611 2.58496 3.84668C2.61467 3.84668 2.64438 3.81697 2.6741 3.81697C4.21913 2.98503 6.8338 2.36108 9.95358 2.36108C13.0734 2.36108 15.7177 2.98503 17.2628 3.78726C17.2925 3.81697 17.3222 3.84668 17.3519 3.8764C17.4708 3.93582 17.5599 3.96553 17.649 4.02496C17.7679 4.11409 17.8273 4.17352 17.9164 4.23294C17.9461 4.23294 17.9759 4.26265 18.0056 4.29237C18.4215 4.6192 18.689 4.97574 18.689 5.33229C18.689 5.362 18.7187 5.39171 18.7187 5.42142C18.7187 5.83739 18.3621 6.31279 17.7085 6.72876C17.5599 6.84761 17.3519 6.93674 17.1736 7.05559C17.0845 7.0853 16.9656 7.14473 16.8765 7.17444C16.7874 7.23386 16.6982 7.26357 16.6091 7.29329C16.1337 7.50127 15.5989 7.67954 14.9749 7.85782C14.9452 7.85782 14.9155 7.85782 14.8858 7.85782C14.6778 7.91724 14.4401 7.97667 14.2024 8.03609C13.8459 8.09551 13.4299 8.18465 13.0139 8.24407C12.8357 8.24407 12.6574 8.27379 12.4791 8.3035C12.3603 8.3035 12.2117 8.33321 12.0631 8.33321C11.8552 8.36292 11.6175 8.39263 11.3798 8.39263C11.2609 8.39263 11.1421 8.42235 11.0529 8.42235C10.6964 8.42235 10.3398 8.45206 9.95358 8.45206C9.59703 8.45206 9.24048 8.42235 8.88394 8.42235C8.76509 8.42235 8.67595 8.39263 8.5571 8.39263C8.31941 8.39263 8.08171 8.36292 7.84401 8.33321C7.72516 8.33321 7.5766 8.3035 7.42804 8.3035C7.24977 8.27379 7.0715 8.24407 6.89322 8.24407C6.50696 8.18465 6.12071 8.12523 5.73445 8.03609C5.73445 8.03609 5.73445 8.03609 5.70474 8.03609C5.49675 7.97667 5.25905 7.91724 5.05107 7.85782C5.02136 7.85782 4.99164 7.85782 4.96193 7.85782C4.33798 7.67954 3.80316 7.50127 3.32776 7.29329C3.23863 7.26357 3.14949 7.23386 3.06035 7.17444C2.97122 7.14473 2.85237 7.0853 2.76323 7.05559C2.58496 6.93674 2.37697 6.84761 2.1987 6.72876C1.57474 6.31279 1.2182 5.83739 1.2182 5.42142C1.2182 5.39171 1.2182 5.362 1.2182 5.33229V5.33229ZM1.90158 7.97667C2.34726 8.21436 2.85237 8.45206 3.38719 8.63033C3.47632 8.68976 3.56546 8.68976 3.6546 8.71947C3.80316 8.77889 3.98143 8.83832 4.12999 8.89774C4.30826 8.92745 4.45682 8.98688 4.6351 9.01659C4.69452 9.0463 4.78366 9.07601 4.84308 9.07601C5.58589 9.25429 6.32869 9.40285 7.16063 9.49198C7.19034 9.49198 7.24977 9.49198 7.27948 9.52169C7.51718 9.52169 7.72516 9.55141 7.96286 9.58112C8.11142 9.58112 8.25998 9.61083 8.40854 9.61083C8.58682 9.61083 8.76509 9.64054 8.91365 9.64054C9.2702 9.64054 9.62674 9.67025 9.95358 9.67025C10.3101 9.67025 10.6667 9.64054 10.9935 9.64054C11.1718 9.64054 11.35 9.61083 11.5283 9.61083C11.6769 9.61083 11.8254 9.58112 11.974 9.58112C12.182 9.55141 12.4197 9.52169 12.6277 9.52169C12.6871 9.49198 12.7168 9.49198 12.7762 9.49198C13.5785 9.40285 14.351 9.25429 15.0641 9.07601C15.1532 9.07601 15.2423 9.0463 15.3018 9.01659C15.48 8.98688 15.6286 8.92745 15.7772 8.89774C15.9554 8.83832 16.1337 8.77889 16.2823 8.71947C16.3714 8.68976 16.4605 8.68976 16.5497 8.63033C17.0845 8.45206 17.5896 8.21436 18.0353 7.97667C18.3918 8.27379 18.7187 8.63033 18.7187 9.0463C18.7187 9.49198 18.3621 9.93766 17.7085 10.3833C17.5599 10.5022 17.3519 10.5913 17.1439 10.7102C17.0845 10.7399 16.9954 10.7993 16.9062 10.829C16.7874 10.8885 16.6982 10.9182 16.5794 10.9479C16.1337 11.1559 15.5989 11.3341 14.9749 11.4827C14.9452 11.5124 14.9155 11.5124 14.8858 11.5124C14.6481 11.5718 14.4401 11.6313 14.2321 11.6907C14.2024 11.6907 14.1727 11.6907 14.143 11.6907C13.7864 11.7798 13.4002 11.8392 13.0436 11.8689C12.8654 11.8987 12.6871 11.9284 12.4791 11.9581C12.3603 11.9581 12.2117 11.9878 12.0631 11.9878C11.8552 12.0175 11.6175 12.0472 11.3798 12.0472C11.2609 12.0472 11.1421 12.0472 11.0529 12.0769C10.6964 12.0769 10.3398 12.1066 9.95358 12.1066C9.59703 12.1066 9.24048 12.0769 8.88394 12.0769C8.76509 12.0472 8.67595 12.0472 8.5571 12.0472C8.31941 12.0472 8.08171 12.0175 7.84401 11.9878C7.72516 11.9878 7.5766 11.9581 7.45775 11.9581C7.24977 11.9284 7.0715 11.8987 6.89322 11.8689C6.50696 11.8392 6.15042 11.7798 5.82358 11.6907C5.79387 11.6907 5.73445 11.6907 5.70474 11.6907C5.49675 11.6313 5.25905 11.5718 5.05107 11.5124C5.02136 11.5124 4.99164 11.5124 4.93222 11.4827C4.33798 11.3341 3.80316 11.1559 3.35747 10.9776C3.23863 10.9182 3.11978 10.8885 3.03064 10.829C2.9415 10.7993 2.85237 10.7399 2.76323 10.7102C2.58496 10.5913 2.37697 10.5022 2.1987 10.3833C1.57474 9.93766 1.2182 9.49198 1.2182 9.0463C1.2182 8.63033 1.54503 8.27379 1.90158 7.97667V7.97667ZM1.90158 11.6313C2.34726 11.8689 2.85237 12.1066 3.4169 12.3146C3.47632 12.3146 3.53575 12.3443 3.62488 12.3741C3.80316 12.4335 3.98143 12.4929 4.1597 12.5523C4.30826 12.582 4.45682 12.6415 4.60539 12.6712C4.69452 12.7009 4.78366 12.7306 4.87279 12.7306C5.58589 12.9089 6.3584 13.0574 7.13092 13.1466C7.19034 13.1466 7.24977 13.1466 7.27948 13.1466C7.51718 13.1763 7.72516 13.206 7.96286 13.2357C8.11142 13.2357 8.25998 13.2357 8.40854 13.2654C8.58682 13.2654 8.76509 13.2951 8.91365 13.2951C9.2702 13.2951 9.62674 13.3248 9.95358 13.3248C10.3101 13.3248 10.6667 13.2951 10.9935 13.2951C11.1718 13.2951 11.35 13.2654 11.5283 13.2654C11.6769 13.2357 11.8254 13.2357 11.974 13.2357C12.182 13.206 12.4197 13.1763 12.6277 13.1466C12.6871 13.1466 12.7465 13.1466 12.7762 13.1466C13.5785 13.0574 14.351 12.9089 15.0641 12.7306C15.1532 12.7009 15.2423 12.7009 15.3018 12.6712C15.48 12.6415 15.6286 12.582 15.7772 12.5523C15.9554 12.4929 16.1337 12.4335 16.312 12.3741C16.3714 12.3443 16.4605 12.3146 16.52 12.3146C17.0845 12.1066 17.5896 11.8689 18.0353 11.6313C18.3918 11.8987 18.7187 12.2849 18.7187 12.7009C18.7187 13.1466 18.3621 13.5923 17.7382 14.0082C17.7382 14.0082 17.7085 14.0082 17.7085 14.0379C17.5599 14.1271 17.3519 14.2459 17.1439 14.3648C17.0845 14.3945 16.9954 14.4242 16.9062 14.4836C16.7874 14.5133 16.6982 14.5728 16.5794 14.6322C16.104 14.8104 15.5989 14.9887 15.0046 15.1373C14.9452 15.167 14.9155 15.167 14.8561 15.1967C14.6481 15.2264 14.4401 15.2858 14.2321 15.3156C14.1727 15.3453 14.1133 15.3453 14.0539 15.3453C13.727 15.4344 13.4002 15.4938 13.0436 15.5235C12.8654 15.5532 12.6871 15.583 12.4791 15.6127C12.3603 15.6127 12.2117 15.6424 12.0631 15.6424C11.8552 15.6721 11.6175 15.6721 11.3798 15.7018C11.2609 15.7018 11.1421 15.7018 11.0232 15.7315C10.6964 15.7315 10.3398 15.7612 9.95358 15.7612C9.59703 15.7612 9.24048 15.7315 8.88394 15.7315C8.76509 15.7018 8.67595 15.7018 8.5571 15.7018C8.31941 15.6721 8.08171 15.6721 7.84401 15.6424C7.72516 15.6424 7.5766 15.6127 7.45775 15.6127C7.24977 15.583 7.0715 15.5532 6.86351 15.5235C6.53668 15.4938 6.20984 15.4344 5.88301 15.375C5.82358 15.3453 5.76416 15.3453 5.70474 15.3156C5.49675 15.2858 5.28877 15.2264 5.08078 15.1967C5.02136 15.167 4.96193 15.167 4.93222 15.1373C4.33798 14.9887 3.83287 14.8104 3.35747 14.6322C3.23863 14.5728 3.11978 14.5133 3.03064 14.4836C2.9415 14.4242 2.85237 14.3945 2.79294 14.3648C2.58496 14.2459 2.37697 14.1271 2.1987 14.0379C2.1987 14.0082 2.1987 14.0082 2.1987 14.0082C1.57474 13.5923 1.2182 13.1466 1.2182 12.7009C1.2182 12.2849 1.54503 11.8987 1.90158 11.6313V11.6313ZM12.0631 22.9218C11.8849 22.9516 11.7066 22.9516 11.5283 22.9813C10.9935 23.011 10.4884 23.0407 9.95358 23.0407C9.65645 23.0407 9.35933 23.0407 9.0325 23.0407C8.97307 23.0407 8.88394 23.011 8.7948 23.011C8.58682 23.011 8.37883 23.011 8.17085 22.9813C8.052 22.9813 7.93315 22.9516 7.84401 22.9516C7.66574 22.9218 7.48747 22.9218 7.30919 22.8921C7.19034 22.8921 7.0715 22.8624 6.95265 22.8327C6.80409 22.8327 6.65553 22.803 6.50696 22.7733C6.38812 22.7733 6.26927 22.7436 6.18013 22.7139C6.03157 22.6842 5.88301 22.6544 5.73445 22.6247C5.6156 22.6247 5.52646 22.595 5.40761 22.5653C5.28877 22.5356 5.1402 22.5059 5.02136 22.4762C4.90251 22.4465 4.81337 22.4167 4.69452 22.387C4.60539 22.3573 4.45682 22.3276 4.36769 22.2979C4.24884 22.2385 4.1597 22.2088 4.07057 22.179C3.95172 22.1493 3.83287 22.1196 3.74373 22.0899C3.6546 22.0305 3.56546 22.0008 3.47632 21.9711C3.38719 21.9413 3.26834 21.8819 3.1792 21.8522C3.11978 21.8225 3.03064 21.7631 2.9415 21.7334C2.85237 21.7037 2.76323 21.6442 2.70381 21.6145C2.61467 21.5848 2.55525 21.5254 2.49582 21.4957C2.40669 21.466 2.34726 21.4065 2.25812 21.3768C2.1987 21.3174 2.13928 21.2877 2.07985 21.2283C2.02043 21.1985 1.961 21.1391 1.90158 21.1094C1.84215 21.05 1.81244 21.0203 1.75302 20.9906C1.72331 20.9311 1.66388 20.9014 1.60446 20.842C1.57474 20.7826 1.54503 20.7529 1.51532 20.7232C1.48561 20.6637 1.42618 20.634 1.39647 20.5746C1.36676 20.5152 1.36676 20.4855 1.33705 20.4557C1.30734 20.426 1.27762 20.3369 1.27762 20.3072C1.24791 20.2478 1.24791 20.218 1.24791 20.1883C1.24791 20.1289 1.2182 20.0695 1.2182 20.0398C1.2182 20.0101 1.2182 19.9804 1.2182 19.9804C1.24791 19.5644 1.54503 19.2078 1.90158 18.9107C2.46611 19.2673 3.14949 19.5347 3.92201 19.7724C3.98143 19.8021 4.04085 19.8021 4.10028 19.8318C4.33798 19.8912 4.60539 19.9804 4.87279 20.0398C5.05107 20.0992 5.25905 20.1289 5.46704 20.1883C5.52646 20.1883 5.6156 20.1883 5.67502 20.218C6.15042 20.3072 6.65553 20.3963 7.16063 20.4557C7.22006 20.4557 7.27948 20.4557 7.3389 20.4557C7.75488 20.5152 8.17085 20.5449 8.58682 20.5746C8.76509 20.5746 8.94336 20.6043 9.12164 20.6043C9.29991 20.6043 9.47818 20.6043 9.68617 20.6043C9.7753 20.6043 9.86444 20.6043 9.95358 20.6043C10.1021 20.6043 10.2507 20.6043 10.3993 20.6043C10.637 20.6043 10.8747 20.6043 11.1124 20.5746C11.4392 20.5746 11.766 20.5449 12.0631 20.5152V22.9218V22.9218ZM12.2414 18.465C12.2117 18.5245 12.2117 18.5839 12.182 18.6136C12.1523 18.7027 12.1523 18.7919 12.1226 18.8513C12.1226 18.9107 12.0929 18.9701 12.0929 19.0296C12.0929 19.0593 12.0631 19.089 12.0631 19.1484V19.2673C11.9146 19.297 11.766 19.297 11.6175 19.3267C11.2312 19.3564 10.8152 19.3564 10.3993 19.3861C10.1616 19.3861 9.92386 19.3861 9.68617 19.3861C9.62674 19.3861 9.56732 19.3861 9.50789 19.3861C9.0325 19.3861 8.58682 19.3564 8.14113 19.3267C8.08171 19.3267 8.052 19.3267 7.99257 19.297C7.63603 19.2673 7.24977 19.2375 6.89322 19.1781C6.77437 19.1781 6.65553 19.1484 6.53668 19.1187C6.20984 19.089 5.88301 19.0296 5.58589 18.9404C5.40761 18.9107 5.25905 18.881 5.08078 18.8513C4.81337 18.7622 4.54596 18.7027 4.30826 18.6136C4.1597 18.5839 4.04085 18.5245 3.89229 18.465C3.62488 18.3759 3.38719 18.2868 3.14949 18.1976C3.09007 18.1679 3.03064 18.1382 2.97122 18.1085C2.70381 17.9599 2.4364 17.8411 2.22841 17.6628C2.1987 17.6628 2.1987 17.6628 2.1987 17.6628C1.57474 17.2468 1.2182 16.8012 1.2182 16.3555C1.2182 15.9395 1.54503 15.5532 1.90158 15.2858C2.34726 15.5235 2.85237 15.7612 3.4169 15.9692C3.47632 15.9692 3.53575 15.9989 3.59517 16.0286C3.77345 16.0881 3.98143 16.1475 4.18942 16.2069C4.30826 16.2366 4.45682 16.2663 4.60539 16.3258C4.69452 16.3555 4.81337 16.3852 4.90251 16.3852C5.6156 16.5635 6.3584 16.6823 7.13092 16.8012C7.19034 16.8012 7.24977 16.8012 7.30919 16.8012C7.51718 16.8309 7.72516 16.8606 7.96286 16.8606C8.11142 16.8903 8.25998 16.8903 8.40854 16.92C8.58682 16.92 8.76509 16.92 8.91365 16.9497C9.2702 16.9497 9.62674 16.9497 9.95358 16.9497C10.637 16.9497 11.35 16.92 12.0334 16.8606C12.1523 16.8606 12.2711 16.8606 12.39 16.8309C12.9545 16.7714 13.519 16.712 14.0539 16.5932C14.1133 16.5932 14.2024 16.5932 14.2618 16.5635C14.2618 16.5635 14.2321 16.5635 14.2321 16.5932C14.1727 16.6229 14.1133 16.6526 14.0836 16.6526C13.1625 17.1577 12.5385 17.7817 12.2414 18.465ZM30.7521 26.7547C30.7521 26.7844 30.7521 26.8438 30.7224 26.9033C30.7224 26.933 30.6927 26.9924 30.663 27.0221C30.6332 27.0815 30.6332 27.1113 30.6035 27.1707C30.5738 27.2004 30.5144 27.2598 30.4847 27.2895C30.455 27.349 30.4253 27.3787 30.3955 27.4381C30.3361 27.4678 30.3064 27.5272 30.247 27.5569C30.1876 27.6164 30.1578 27.6461 30.0984 27.7055C30.039 27.7352 29.9796 27.7649 29.9202 27.8243C29.8607 27.8541 29.8013 27.9135 29.7419 27.9432C29.6825 28.0026 29.5933 28.0323 29.5339 28.062C29.4448 28.1215 29.3853 28.1512 29.2962 28.2106C29.2368 28.2403 29.1476 28.27 29.0585 28.3295C28.9694 28.3592 28.9099 28.3889 28.8208 28.4483C28.7317 28.478 28.6425 28.5077 28.5534 28.5374C28.4643 28.5969 28.3751 28.6266 28.2563 28.6563C28.1671 28.7157 28.078 28.7454 27.9591 28.7751C27.87 28.8048 27.7512 28.8346 27.6323 28.8643C27.5432 28.894 27.4243 28.9237 27.3352 28.9534C27.2163 28.9831 27.0975 29.0425 26.9786 29.0723C26.8598 29.102 26.741 29.1317 26.6221 29.1317C26.5033 29.1614 26.3844 29.1911 26.2656 29.2208C26.1467 29.2505 25.9981 29.2802 25.8793 29.31C25.7307 29.3397 25.6119 29.3397 25.493 29.3694C25.3742 29.3991 25.2256 29.3991 25.0771 29.4288C24.9582 29.4585 24.8097 29.4585 24.6908 29.4882C24.5422 29.5179 24.364 29.5179 24.2154 29.5179C24.0966 29.5476 23.948 29.5476 23.8292 29.5774C23.6509 29.5774 23.4726 29.6071 23.2943 29.6071C23.1755 29.6071 23.0566 29.6071 22.9378 29.6368C22.6407 29.6368 22.3435 29.6368 22.0167 29.6368C21.7196 29.6368 21.4225 29.6368 21.1254 29.6368C21.0065 29.6071 20.8877 29.6071 20.7688 29.6071C20.5905 29.6071 20.4123 29.5774 20.234 29.5774C20.0854 29.5476 19.9666 29.5476 19.8477 29.5179C19.6992 29.5179 19.5209 29.5179 19.3723 29.4882C19.2535 29.4585 19.1049 29.4585 18.9861 29.4288C18.8375 29.3991 18.689 29.3991 18.5701 29.3694C18.4513 29.3397 18.3324 29.3397 18.1838 29.31C18.065 29.2802 17.9164 29.2505 17.7976 29.2208C17.6787 29.1911 17.5599 29.1614 17.441 29.1317C17.3222 29.1317 17.2033 29.102 17.0845 29.0723C16.9656 29.0425 16.8468 28.9831 16.728 28.9534C16.6388 28.9237 16.52 28.894 16.4308 28.8643C16.312 28.8346 16.1931 28.8048 16.104 28.7751C15.9851 28.7454 15.896 28.686 15.8069 28.6563C15.7177 28.6266 15.5989 28.5969 15.5098 28.5374C15.4206 28.5077 15.3315 28.478 15.2423 28.4483C15.1532 28.3889 15.0641 28.3592 15.0046 28.3295C14.9155 28.27 14.8264 28.2403 14.7669 28.2106C14.6778 28.1512 14.6184 28.1215 14.5292 28.062C14.4698 28.0323 14.3807 28.0026 14.3213 27.9432C14.2618 27.9135 14.2024 27.8541 14.143 27.8243C14.0836 27.7649 14.0241 27.7352 13.9647 27.7055C13.9053 27.6461 13.8756 27.6164 13.8162 27.5569C13.7864 27.5272 13.727 27.4678 13.6676 27.4381C13.6379 27.3787 13.6082 27.349 13.5785 27.2895C13.5487 27.2598 13.4893 27.2004 13.4596 27.1707C13.4299 27.1113 13.4299 27.0815 13.4002 27.0221C13.3705 26.9627 13.3408 26.933 13.3408 26.9033C13.3408 26.8736 13.3111 26.7844 13.3111 26.7547C13.3111 26.6953 13.2813 26.6656 13.2813 26.6061V26.5764C13.3111 26.1605 13.6082 25.8039 13.9647 25.5068C14.4104 25.7742 14.9155 25.9822 15.48 26.1902C15.5395 26.2199 15.5989 26.2496 15.6583 26.2496C15.8663 26.309 16.0446 26.3685 16.2526 26.4279C16.3714 26.4873 16.52 26.517 16.6685 26.5467C16.7577 26.5764 16.8765 26.6061 16.9656 26.6359C17.6787 26.8141 18.4215 26.933 19.1941 27.0221C19.2535 27.0518 19.3129 27.0518 19.3723 27.0518C19.5803 27.0815 19.7883 27.1113 20.026 27.1113C20.1746 27.141 20.3231 27.141 20.5014 27.141C20.65 27.1707 20.8282 27.1707 20.9768 27.1707C21.3333 27.2004 21.6899 27.2004 22.0167 27.2004C22.3733 27.2004 22.7298 27.2004 23.0864 27.1707C23.2349 27.1707 23.4132 27.1707 23.5915 27.141C23.74 27.141 23.8886 27.141 24.0371 27.1113C24.2748 27.1113 24.4828 27.0815 24.6908 27.0518C24.7502 27.0518 24.8097 27.0518 24.8691 27.0221C25.6416 26.933 26.3844 26.8141 27.0975 26.6359C27.1866 26.6061 27.3055 26.5764 27.3946 26.5467C27.5432 26.517 27.6917 26.4873 27.8106 26.4279C28.0186 26.3685 28.2266 26.309 28.4048 26.2496C28.4643 26.2199 28.5237 26.2199 28.5831 26.1902C29.1476 25.9822 29.6527 25.7742 30.0984 25.5068C30.455 25.8039 30.7521 26.1605 30.7818 26.5764V26.6061C30.7818 26.6656 30.7521 26.6953 30.7521 26.7547V26.7547ZM29.8013 24.2589C29.623 24.3777 29.415 24.4966 29.2071 24.5857C29.1476 24.6451 29.0585 24.6749 28.9694 24.7046C28.8802 24.764 28.7614 24.8234 28.6425 24.8531C28.1671 25.0611 27.662 25.2394 27.0678 25.388C27.0381 25.388 26.9786 25.4177 26.9192 25.4177C26.7112 25.4771 26.5033 25.5068 26.2953 25.5662C26.2358 25.5662 26.1467 25.5959 26.0873 25.5959C25.7902 25.6554 25.4633 25.7148 25.1365 25.7742C24.9285 25.8039 24.7502 25.8336 24.5423 25.8336C24.4234 25.8633 24.2748 25.8633 24.156 25.8931C23.9183 25.8931 23.6806 25.9228 23.4429 25.9525C23.3241 25.9525 23.2349 25.9525 23.1161 25.9525C22.7595 25.9822 22.403 25.9822 22.0464 25.9822C21.6602 25.9822 21.3036 25.9822 20.9471 25.9525C20.8282 25.9525 20.7391 25.9525 20.6202 25.9525C20.3825 25.9228 20.1448 25.8931 19.9072 25.8931C19.7883 25.8633 19.6397 25.8633 19.5209 25.8336C19.3129 25.8336 19.1346 25.8039 18.9267 25.7742C18.5998 25.7148 18.3027 25.6554 18.0056 25.5959C17.9164 25.5959 17.8273 25.5959 17.7679 25.5662C17.5599 25.5068 17.3519 25.4771 17.1439 25.4177C17.0845 25.4177 17.0251 25.388 16.9656 25.388C16.4011 25.2394 15.896 25.0611 15.4503 24.8531C15.3315 24.8234 15.2126 24.764 15.0938 24.7046C15.0046 24.6749 14.9155 24.6451 14.8561 24.5857C14.6481 24.4966 14.4401 24.3777 14.2916 24.2589C14.2618 24.2589 14.2618 24.2589 14.2618 24.2589C13.7864 23.9618 13.4893 23.6052 13.3705 23.2784C13.3705 23.2784 13.3705 23.2784 13.3705 23.2487C13.3111 23.1298 13.2813 23.011 13.2813 22.9516C13.2813 22.8327 13.3111 22.7436 13.3408 22.6247C13.3705 22.595 13.3705 22.5653 13.4002 22.5356C13.4299 22.4762 13.4596 22.387 13.519 22.3276C13.519 22.2979 13.5487 22.2682 13.5785 22.2385C13.6379 22.179 13.6973 22.1196 13.727 22.0602C13.7567 22.0305 13.8162 22.0008 13.8459 21.9711C13.8756 21.9413 13.9053 21.8819 13.9647 21.8522C14.4104 22.1196 14.9155 22.3276 15.48 22.5356C15.5395 22.5653 15.5989 22.595 15.688 22.595C15.8663 22.6842 16.0446 22.7436 16.2228 22.7733C16.3714 22.8327 16.52 22.8624 16.6685 22.9218C16.7577 22.9218 16.8765 22.9516 16.9656 22.9813C17.649 23.1595 18.4215 23.2784 19.2238 23.3675C19.2535 23.3972 19.3129 23.3972 19.3723 23.3972C19.5803 23.427 19.7883 23.4567 20.026 23.4567C20.1746 23.4864 20.3231 23.4864 20.4717 23.4864C20.65 23.5161 20.8282 23.5161 20.9768 23.5161C21.3333 23.5458 21.6899 23.5458 22.0167 23.5458C22.3733 23.5458 22.7298 23.5458 23.0864 23.5161C23.2349 23.5161 23.4132 23.5161 23.5915 23.4864C23.74 23.4864 23.8886 23.4864 24.0371 23.4567C24.2748 23.4567 24.4828 23.427 24.6908 23.3972C24.7502 23.3972 24.8097 23.3972 24.8394 23.3675C25.6416 23.2784 26.4141 23.1595 27.1272 22.9813C27.2163 22.9516 27.3055 22.9218 27.3946 22.9218C27.5432 22.8624 27.6917 22.8327 27.8403 22.7733C28.0186 22.7436 28.1968 22.6842 28.3751 22.6247C28.4345 22.595 28.5237 22.5653 28.5831 22.5356C29.1476 22.3276 29.6527 22.1196 30.0984 21.8522C30.455 22.1493 30.7818 22.5356 30.7818 22.9516C30.7818 23.3972 30.4253 23.8429 29.8013 24.2589V24.2589ZM29.8013 20.6043C29.623 20.7232 29.415 20.842 29.2368 20.9311C29.1476 20.9906 29.0585 21.0203 28.9694 21.0797C28.8505 21.1094 28.7614 21.1688 28.6722 21.1985C28.1968 21.4065 27.662 21.5848 27.0678 21.7334C27.0084 21.7334 26.9786 21.7631 26.9489 21.7631C26.7409 21.8225 26.5033 21.8819 26.2953 21.9116C26.2656 21.9116 26.2358 21.9413 26.2061 21.9413C25.8496 22.0008 25.493 22.0602 25.1068 22.1196C24.9285 22.1493 24.7502 22.179 24.5423 22.2088C24.4234 22.2088 24.2748 22.2088 24.1263 22.2385C23.9183 22.2682 23.6806 22.2682 23.4429 22.2979C23.3241 22.2979 23.2349 22.2979 23.1161 22.2979C22.7595 22.3276 22.403 22.3276 22.0464 22.3276C21.6602 22.3276 21.3036 22.3276 20.9471 22.2979C20.8282 22.2979 20.7391 22.2979 20.6202 22.2979C20.3825 22.2682 20.1448 22.2682 19.9072 22.2385C19.7883 22.2088 19.6397 22.2088 19.5209 22.2088C19.3129 22.179 19.1346 22.1493 18.9564 22.1196C18.5998 22.0602 18.2136 22.0008 17.8867 21.9413C17.857 21.9413 17.7976 21.9116 17.7679 21.9116C17.5599 21.8819 17.3519 21.8225 17.1439 21.7631C17.0845 21.7631 17.0548 21.7334 16.9954 21.7334C16.4308 21.5848 15.9257 21.4065 15.4503 21.2283V21.1985H15.4206C15.3018 21.1688 15.2126 21.1094 15.0938 21.0797C15.0344 21.05 14.9749 21.0203 14.9155 20.9906L14.7669 20.9014C14.6184 20.8123 14.4698 20.7529 14.351 20.6637L14.3213 20.634C13.8162 20.3072 13.4893 19.9506 13.3705 19.6238C13.3111 19.4752 13.2813 19.3861 13.2813 19.297V19.2673C13.2813 19.2375 13.3111 19.2078 13.3111 19.1484C13.3408 19.0593 13.3705 18.9404 13.4299 18.8513C13.4299 18.8216 13.4299 18.8216 13.4299 18.7919C13.4596 18.7622 13.4893 18.7324 13.519 18.7027C13.5785 18.6136 13.6379 18.5245 13.727 18.4353C13.8162 18.3462 13.9053 18.2571 13.9944 18.1976C14.0539 18.1382 14.0836 18.1085 14.143 18.0788C14.1727 18.0491 14.2321 18.0194 14.2618 17.9896C14.3807 17.9005 14.5292 17.8114 14.6481 17.7519C14.7075 17.7222 14.7372 17.6925 14.7967 17.6628C14.8561 17.6331 14.9155 17.6034 14.9749 17.5737C15.0046 17.5737 15.0641 17.544 15.0938 17.5142C15.1829 17.4845 15.2721 17.4251 15.3612 17.3954C15.4503 17.3657 15.5395 17.336 15.6583 17.2766C15.688 17.2766 15.7474 17.2468 15.8069 17.2171C16.1634 17.0983 16.6091 16.9497 17.0548 16.8309C17.0845 16.8309 17.1439 16.8309 17.1736 16.8012C17.5302 16.712 17.9164 16.6526 18.3027 16.5635C18.4513 16.5337 18.5998 16.5337 18.7781 16.504C18.8375 16.4743 18.9266 16.4743 19.0158 16.4446C19.9369 16.3258 20.9471 16.2366 22.0167 16.2366C24.5125 16.2366 26.7112 16.6526 28.2563 17.2171C28.3157 17.2468 28.3751 17.2766 28.4048 17.2766C28.5534 17.336 28.6722 17.3954 28.7911 17.4548C28.9099 17.4845 28.9991 17.544 29.0882 17.5737C29.1476 17.6034 29.2071 17.6331 29.2665 17.6628C29.415 17.7519 29.5339 17.8114 29.6527 17.9005H29.6825C30.3361 18.3165 30.7224 18.7622 30.7818 19.2078C30.7818 19.2375 30.7818 19.2673 30.7818 19.297C30.7818 19.7427 30.4253 20.1883 29.8013 20.6043V20.6043Z" fill="currentColor"/>
</svg>
