<svg width="32" height="32" viewBox="0 0 32 32" fill="currentColor" xmlns="http://www.w3.org/2000/svg">
<path d="M31.712 18.784L13.216 0.288C13.152 0.224 13.12 0.192 13.056 0.16C13.024 0.16 13.024 0.128 12.992 0.128L12.96 0.096C12.96 0.096 12.928 0.096 12.896 0.064C12.864 0.064 12.832 0.064 12.8 0.032C12.768 0.032 12.736 0.032 12.704 0.032C12.64 0 12.576 0 12.512 0H0.96C0.448 0 0 0.416 0 0.96V12.544C0 12.608 0 12.672 0.032 12.704C0.032 12.736 0.032 12.768 0.032 12.8C0.064 12.832 0.064 12.864 0.064 12.896C0.096 12.928 0.096 12.96 0.128 12.96V12.992C0.128 13.024 0.16 13.024 0.16 13.056C0.192 13.12 0.224 13.152 0.288 13.216L18.784 31.712C18.976 31.904 19.232 32 19.488 32C19.744 32 19.968 31.904 20.16 31.712L31.712 20.16C32.096 19.776 32.096 19.168 31.712 18.784ZM29.696 19.488L19.488 29.696L1.92 12.128V1.92H12.128L29.696 19.488V19.488ZM12.064 18.592L18.592 12.064C18.784 11.872 19.008 11.776 19.264 11.776C19.52 11.776 19.776 11.872 19.936 12.064C20.128 12.224 20.224 12.48 20.224 12.736C20.224 12.992 20.128 13.216 19.936 13.408L13.408 19.936C13.216 20.128 12.992 20.224 12.736 20.224C12.48 20.224 12.224 20.128 12.064 19.936C11.68 19.584 11.68 18.976 12.064 18.592ZM14.656 21.216L21.216 14.656C21.376 14.496 21.632 14.4 21.888 14.4C22.144 14.4 22.4 14.496 22.56 14.656C22.944 15.04 22.944 15.648 22.56 16.032L16.032 22.56C15.84 22.752 15.616 22.848 15.36 22.848C15.104 22.848 14.848 22.752 14.656 22.56C14.496 22.368 14.4 22.144 14.4 21.888C14.4 21.632 14.496 21.376 14.656 21.216V21.216ZM17.28 23.808L23.84 17.28C24 17.088 24.256 16.992 24.512 16.992C24.768 16.992 24.992 17.088 25.184 17.28C25.568 17.664 25.568 18.272 25.184 18.624L18.656 25.184C18.464 25.344 18.208 25.472 17.952 25.472C17.696 25.472 17.472 25.344 17.28 25.184C17.088 25.024 16.992 24.768 16.992 24.512C16.992 24.256 17.088 24 17.28 23.808ZM8.16 3.936C5.824 3.936 3.936 5.824 3.936 8.16C3.936 10.496 5.824 12.384 8.16 12.384C10.496 12.384 12.384 10.496 12.384 8.16C12.384 5.824 10.496 3.936 8.16 3.936ZM8.16 10.464C6.88 10.464 5.856 9.44 5.856 8.16C5.856 6.88 6.88 5.856 8.16 5.856C9.44 5.856 10.464 6.88 10.464 8.16C10.464 9.44 9.44 10.464 8.16 10.464Z" fill="currentColor"/>
</svg>
