<svg width="32" height="32" viewBox="0 0 32 32" fill="currentColor" xmlns="http://www.w3.org/2000/svg">
<path d="M31.9946 12.0503C31.9946 12.0503 31.9946 12.0503 31.9946 12.0235C31.9677 11.9429 31.9409 11.8623 31.8871 11.7817C31.8603 11.7549 31.8603 11.7549 31.8334 11.728C31.8334 11.728 31.8334 11.7012 31.8066 11.6743L25.1455 3.64346C25.1455 3.6166 25.1455 3.6166 25.1187 3.6166C25.0918 3.56288 25.0649 3.53602 25.0112 3.53602C24.9844 3.50917 24.9575 3.48231 24.9307 3.48231L24.9038 3.45545C24.8769 3.45545 24.8232 3.45545 24.7964 3.45545C24.7695 3.42859 24.7426 3.42859 24.7158 3.42859H7.28429C7.25743 3.42859 7.23057 3.42859 7.20371 3.45545C7.17685 3.45545 7.12313 3.45545 7.09627 3.45545L7.06941 3.48231C7.04255 3.48231 7.01569 3.50917 6.98884 3.53602C6.93512 3.53602 6.90826 3.56288 6.8814 3.6166C6.85454 3.6166 6.85454 3.6166 6.85454 3.64346L0.139788 11.7549C0.112929 11.7817 0.112929 11.8086 0.0860702 11.8086C0.0860702 11.8355 0.0592112 11.8623 0.0592112 11.8892C0.0323522 11.916 0.0323522 11.9698 0.0323522 11.9966C0.0323522 12.0235 0.00549316 12.0235 0.00549316 12.0503C0.00549316 12.0772 0.00549316 12.1309 0.00549316 12.1846C0.00549316 12.1846 0.00549316 12.1846 0.00549316 12.2115C0.00549316 12.2383 0.0323522 12.2383 0.0323522 12.2652C0.0323522 12.2921 0.0323522 12.3189 0.0592112 12.3458C0.0592112 12.3458 0.0592112 12.3458 0.0592112 12.3726C0.0860702 12.3995 0.112929 12.4532 0.139788 12.4801C0.139788 12.4801 0.139788 12.4801 0.139788 12.5069L15.5837 30.0996C15.5837 30.0996 15.5837 30.0996 15.6106 30.1264L15.6374 30.1533C15.6643 30.1802 15.718 30.207 15.7449 30.207C15.7449 30.2339 15.7717 30.2339 15.7986 30.2339C15.7986 30.2607 15.7986 30.2607 15.8255 30.2607C15.8792 30.2876 15.9329 30.2876 15.9866 30.2876C16.0672 30.2876 16.1209 30.2876 16.1746 30.2607C16.2015 30.2607 16.2015 30.2607 16.2015 30.2339C16.2283 30.2339 16.2283 30.2339 16.2552 30.207C16.2821 30.207 16.3089 30.1802 16.3626 30.1533L16.3895 30.1264C16.3895 30.0996 16.4163 30.0996 16.4163 30.0996L31.8066 12.5338C31.9409 12.4264 31.9946 12.2921 31.9946 12.1309C31.9946 12.1041 31.9946 12.0772 31.9946 12.0503V12.0503ZM23.9369 4.55667L21.7882 10.8417L17.1147 4.55667H23.9369V4.55667ZM20.9018 11.54H11.0983L15.9866 4.93269L20.9018 11.54V11.54ZM14.8854 4.55667L10.1851 10.8417L8.0632 4.55667H14.8854V4.55667ZM7.06941 5.12071L9.24499 11.54H1.77819L7.06941 5.12071ZM1.80505 12.6949H9.62102L14.5631 27.2257L1.80505 12.6949V12.6949ZM15.9866 27.9777L10.8297 12.6949H21.1704L15.9866 27.9777ZM17.437 27.2257L22.379 12.6949H30.195L17.437 27.2257ZM22.7551 11.54L24.9307 5.12071L30.2219 11.54H22.7551V11.54Z" fill="currentColor"/>
</svg>
