<svg width="32" height="32" viewBox="0 0 32 32" fill="currentColor" xmlns="http://www.w3.org/2000/svg">
<path d="M24.2195 14.56H23.4835V4.384C23.4835 1.984 21.5315 0 19.1315 0H11.8355C9.43553 0 7.48353 1.984 7.48353 4.384V14.56H6.74753C5.56353 14.56 4.57153 15.52 4.57153 16.736V29.824C4.57153 31.04 5.56353 32 6.74753 32H24.2195C25.4035 32 26.3955 31.04 26.3955 29.824V16.736C26.3955 15.52 25.4035 14.56 24.2195 14.56V14.56ZM8.92353 4.384C8.92353 2.752 10.2355 1.472 11.8355 1.472H19.1315C20.7315 1.472 22.0435 2.752 22.0435 4.384V14.56H8.92353V4.384V4.384ZM24.9235 29.824C24.9235 30.208 24.6035 30.56 24.2195 30.56H6.74753C6.36353 30.56 6.04353 30.208 6.04353 29.824V16.736C6.04353 16.352 6.36353 16 6.74753 16H24.2195C24.6035 16 24.9235 16.352 24.9235 16.736V29.824V29.824Z" fill="currentColor"/>
</svg>
