<svg width="59" height="57" xmlns="http://www.w3.org/2000/svg"><path d="M25.844 2.77c1.195-2.875 5.267-2.875 6.463 0l5.47 13.15a3.5 3.5 0 0 0 2.951 2.145l14.197 1.138c3.103.249 4.362 4.122 1.997 6.147l-10.816 9.265a3.5 3.5 0 0 0-1.128 3.47l3.305 13.854c.722 3.029-2.572 5.422-5.229 3.8L30.9 48.313a3.5 3.5 0 0 0-3.65 0l-12.154 7.424c-2.656 1.623-5.95-.77-5.229-3.799l3.305-13.853a3.5 3.5 0 0 0-1.128-3.47L1.228 25.35c-2.364-2.026-1.106-5.898 1.997-6.147l14.197-1.138a3.5 3.5 0 0 0 2.952-2.145l5.47-13.15z" fill="#e31351"/></svg>