<svg width="32" height="32" viewBox="0 0 32 32" fill="currentColor" xmlns="http://www.w3.org/2000/svg">
<path d="M12.9605 17.051L10.8809 16.0379L11.2541 15.318C11.3075 15.2113 11.3341 15.1047 11.3341 14.998V12.3318C11.3341 10.8654 10.1343 9.66558 8.66789 9.66558C7.20146 9.66558 6.00165 10.8654 6.00165 12.3318V14.998C6.00165 15.1047 6.02832 15.2113 6.08164 15.318L6.45491 16.0379L4.37525 17.051C4.13529 17.1844 4.00198 17.3977 4.00198 17.6643V19.664C4.00198 20.7571 4.9085 21.6636 6.00165 21.6636H11.3341C12.4273 21.6636 13.3338 20.7571 13.3338 19.664V17.6643C13.3338 17.3977 13.2005 17.1844 12.9605 17.051ZM12.0007 19.664C12.0007 20.0372 11.7074 20.3305 11.3341 20.3305H6.00165C5.62838 20.3305 5.33509 20.0372 5.33509 19.664V18.0642L7.68138 16.9177C7.84135 16.8377 7.948 16.7044 8.00133 16.5445C8.05465 16.3578 8.05465 16.1712 7.97467 16.0112L7.33477 14.8381V12.3318C7.33477 11.5853 7.92134 10.9987 8.66789 10.9987C9.41443 10.9987 10.001 11.5853 10.001 12.3318V14.8381L9.36111 16.0112C9.28112 16.1712 9.28112 16.3578 9.33445 16.5445C9.38777 16.7044 9.49442 16.8377 9.68106 16.9177L12.0007 18.0642V19.664V19.664ZM16.6666 12.3318H27.3315C27.7048 12.3318 27.9981 12.6251 27.9981 12.9984C27.9981 13.3716 27.7048 13.6649 27.3315 13.6649H16.6666C16.2933 13.6649 16 13.3716 16 12.9984C16 12.6251 16.2933 12.3318 16.6666 12.3318ZM27.9981 16.9977C27.9981 17.371 27.7048 17.6643 27.3315 17.6643H16.6666C16.2933 17.6643 16 17.371 16 16.9977C16 16.6244 16.2933 16.3312 16.6666 16.3312H27.3315C27.7048 16.3312 27.9981 16.6244 27.9981 16.9977ZM27.9981 20.9971C27.9981 21.3703 27.7048 21.6636 27.3315 21.6636H16.6666C16.2933 21.6636 16 21.3703 16 20.9971C16 20.6238 16.2933 20.3305 16.6666 20.3305H27.3315C27.7048 20.3305 27.9981 20.6238 27.9981 20.9971ZM31.3309 6.99935H17.3332V3.66656C17.3332 3.29329 17.0399 3 16.6666 3H0.669183C0.29591 3 0.00262451 3.29329 0.00262451 3.66656V28.9958C0.00262451 29.369 0.29591 29.6623 0.669183 29.6623H10.001C10.3743 29.6623 10.6676 29.369 10.6676 28.9958V25.663H12.0007V28.9958C12.0007 29.369 12.294 29.6623 12.6672 29.6623H19.3328C19.7061 29.6623 19.9994 29.369 19.9994 28.9958V25.663H21.3325V28.9958C21.3325 29.369 21.6258 29.6623 21.9991 29.6623H31.3309C31.7042 29.6623 31.9974 29.369 31.9974 28.9958V7.66591C31.9974 7.29263 31.7042 6.99935 31.3309 6.99935V6.99935ZM30.6643 28.3292H22.6656V24.9964C22.6656 24.6231 22.3723 24.3299 21.9991 24.3299H19.3328C18.9596 24.3299 18.6663 24.6231 18.6663 24.9964V28.3292H13.3338V24.9964C13.3338 24.6231 13.0405 24.3299 12.6672 24.3299H10.001C9.62773 24.3299 9.33445 24.6231 9.33445 24.9964V28.3292H1.33574V4.33312H16V7.66591C16 8.03918 16.2933 8.33247 16.6666 8.33247H30.6643V28.3292Z" fill="currentColor"/>
</svg>
