<svg width="32" height="32" viewBox="0 0 32 32" fill="currentColor" xmlns="http://www.w3.org/2000/svg">
<path d="M15.52 19.264C15.648 18.976 15.584 18.656 15.328 18.4C15.232 18.304 15.104 18.208 14.976 18.176C15.04 17.696 14.944 17.344 14.72 17.056C14.4 16.672 13.888 16.64 13.568 16.64C13.536 16.64 13.536 16.64 13.536 16.64C13.472 16.48 13.44 16.192 13.504 15.968C13.6 15.68 13.568 15.424 13.408 15.232C13.28 15.072 13.056 14.944 12.832 14.944C12.672 14.944 12.544 15.008 12.416 15.072C12.32 15.104 12.192 15.168 12.128 15.168C12.064 15.168 12 15.04 11.936 14.944C11.872 14.848 11.776 14.496 11.872 14.336C12.032 14.08 12.384 13.92 12.672 14.016C13.088 14.144 13.44 14.208 13.792 14.208C15.104 14.208 15.648 13.28 16.16 12.448C16.512 11.872 16.896 11.264 17.568 10.752C18.816 9.792 19.328 8.832 19.104 7.84C18.528 5.6 13.92 4.704 12.512 4.448C12.032 4.384 11.52 4.352 10.976 4.352C9.216 4.352 6.208 4.832 5.632 6.144C5.44 6.56 5.504 7.008 5.824 7.392C6.304 7.936 6.336 8.8 5.952 10.016C5.28 12.096 5.92 15.328 9.856 17.536C12.128 18.848 13.344 19.168 13.984 19.296C14.24 19.584 14.56 19.712 14.816 19.712C15.136 19.712 15.424 19.52 15.52 19.264V19.264ZM10.496 16.384C7.264 14.56 6.72 12.032 7.232 10.368C7.744 8.8 7.648 7.52 6.912 6.592C7.328 6.24 8.96 5.664 10.976 5.664C11.424 5.664 11.872 5.696 12.288 5.792C15.2 6.24 17.568 7.296 17.792 8.16C17.92 8.704 17.216 9.344 16.768 9.664C15.872 10.336 15.392 11.136 15.008 11.776C14.496 12.608 14.304 12.864 13.792 12.864C13.6 12.864 13.344 12.832 13.056 12.736C12.192 12.48 11.168 12.896 10.72 13.664C10.368 14.272 10.4 14.976 10.784 15.648C11.232 16.352 11.776 16.48 12.16 16.48C12.192 16.8 12.256 17.12 12.416 17.376C11.904 17.12 11.264 16.8 10.496 16.384ZM24.608 20C24.192 19.872 23.744 19.712 23.36 19.328C23.168 19.168 22.976 18.976 22.784 18.752C21.76 17.728 20.48 16.448 19.104 16.448C18.464 16.448 17.888 16.704 17.408 17.216C15.648 19.072 15.104 21.024 15.104 21.088C15.072 21.12 15.072 21.152 15.072 21.184C15.008 21.568 14.944 21.6 14.784 21.632C14.656 21.664 14.272 21.76 14.144 22.176C14.048 22.656 14.24 22.848 15.296 23.808C15.808 24.288 16.32 24.512 16.832 24.512C17.024 24.512 17.184 24.48 17.344 24.448C17.344 24.8 17.312 25.216 17.312 25.44C17.184 27.584 16.064 28.608 15.584 28.928C15.36 29.12 15.2 29.44 15.296 29.728C15.392 29.984 15.648 30.176 15.936 30.176C16.064 30.176 16.16 30.144 16.256 30.112C16.384 30.048 16.672 29.952 17.216 29.76C17.952 29.536 18.432 29.408 18.848 29.344C20.032 29.056 20.32 28.896 21.856 27.392C23.392 25.824 24 24.8 24.64 23.712C24.896 23.296 25.12 22.88 25.44 22.432C25.728 21.984 26.016 21.44 25.824 20.896C25.632 20.352 25.088 20.16 24.608 20V20ZM24.32 21.696C24 22.176 23.744 22.624 23.488 23.04C22.88 24.096 22.336 25.024 20.896 26.432C19.552 27.808 19.488 27.808 18.528 28.032C18.368 28.064 18.176 28.128 17.92 28.192C18.336 27.392 18.56 26.496 18.624 25.504C18.72 23.744 18.72 23.36 18.432 23.04C18.272 22.88 18.08 22.784 17.856 22.784C17.6 22.784 17.408 22.912 17.248 23.008C17.12 23.104 16.992 23.2 16.832 23.2C16.672 23.2 16.448 23.072 16.192 22.848C16.064 22.72 15.968 22.624 15.872 22.528C16.096 22.304 16.32 21.952 16.384 21.408C16.448 21.152 16.96 19.616 18.368 18.144C18.688 17.824 18.944 17.76 19.104 17.76C19.936 17.76 21.024 18.88 21.824 19.712C22.048 19.936 22.24 20.128 22.432 20.32C23.04 20.864 23.68 21.088 24.192 21.248C24.288 21.28 24.416 21.344 24.512 21.376C24.48 21.44 24.416 21.536 24.32 21.696V21.696ZM31.392 20.352C31.776 18.976 32 17.504 32 16C32 7.168 24.832 0 16 0C7.168 0 0 7.168 0 16C0 24.832 7.168 32 16 32C23.296 32 29.472 27.104 31.392 20.416V20.384C31.392 20.384 31.392 20.384 31.392 20.352ZM30.656 16C30.656 17.312 30.496 18.592 30.176 19.808C30.048 19.776 29.792 19.68 29.344 19.296C28.448 18.56 28.896 17.344 29.664 15.712C29.76 15.488 29.856 15.296 29.952 15.104C30.464 13.856 29.888 12.832 29.344 11.936C29.024 11.392 28.736 10.88 28.704 10.336C28.576 8.96 26.816 8.096 24.96 7.168C24.032 6.72 23.072 6.24 22.624 5.792C21.728 4.96 21.216 3.36 21.056 2.24C26.656 4.288 30.656 9.696 30.656 16ZM16 30.656C7.904 30.656 1.344 24.096 1.344 16C1.344 7.904 7.904 1.344 16 1.344C17.28 1.344 18.496 1.504 19.68 1.792C19.744 3.136 20.32 5.472 21.696 6.784C22.304 7.328 23.296 7.84 24.384 8.352C25.536 8.928 27.296 9.824 27.36 10.432C27.424 11.264 27.84 11.968 28.192 12.608C28.672 13.44 28.96 13.984 28.704 14.56C28.64 14.752 28.544 14.944 28.448 15.136C27.744 16.704 26.752 18.848 28.48 20.32C28.96 20.704 29.376 20.96 29.76 21.088C27.68 26.656 22.304 30.656 16 30.656V30.656Z" fill="currentColor"/>
</svg>
