<svg fill="none" height="50" viewBox="0 0 86 50" width="86" xmlns="http://www.w3.org/2000/svg" xmlns:xlink="http://www.w3.org/1999/xlink"><clipPath id="a"><path d="m0 0h86v50h-86z"/></clipPath><g clip-path="url(#a)" fill="#fff" opacity=".7"><path clip-rule="evenodd" d="m68.1224 37c2.1453 0 4.1526 1.0587 5.3644 2.8291 1.5148 2.2133 1.5148 5.13-.0004 7.3431-1.2116 1.7697-3.2183 2.8278-5.3631 2.8278h-50.2468c-2.1448 0-4.1515-1.0581-5.3631-2.8278-1.5152-2.2131-1.5152-5.1298-.0004-7.3431 1.2118-1.7704 3.2191-2.8291 5.3644-2.8291zm-42.7777 9c.9443 0 1.5038-.2901 2.0075-.8218l-.6855-.7252c-.3847.3453-.7275.5663-1.287.5663-.8394 0-1.4199-.6906-1.4199-1.5193 0-.8425.5945-1.5193 1.4199-1.5193.5595 0 .8813.2002 1.259.5386l.6435-.732c-.4546-.442-.9722-.7873-1.8955-.7873-1.5039 0-2.5531 1.1257-2.5531 2.5 0 1.4019 1.0702 2.5 2.5111 2.5zm-6.3448-.0829h3.5183v-.9668h-2.4411v-3.8674h-1.0772zm11.5438 0h-2.3292v-4.8342h2.2732c.5596 0 1.0002.1519 1.28.4281.2238.221.3357.4904.3357.8357 0 .5456-.2937.8494-.6435 1.0428.5666.2141.9163.5387.9163 1.2017 0 .8839-.7274 1.3259-1.8325 1.3259zm-1.2801-3.9019v1.0221h.9933c.4756 0 .7764-.1519.7764-.5249 0-.3176-.2518-.4972-.7065-.4972zm0 1.9061v1.0635h1.2801c.4756 0 .7624-.1657.7624-.5387 0-.3246-.2448-.5248-.7974-.5248zm5.676 1.9958h1.0982l.4476-1.0842h2.0704l.4477 1.0842h1.1261l-2.0983-4.8688h-.9933zm1.9306-2.0235.6504-1.5676.6505 1.5676zm5.618 2.0581h-.9373l-1.6717-4.8688h1.1541l1.0142 3.2735 1.0982-3.2873h.9233l1.0981 3.2873 1.0142-3.2735h1.1261l-1.6717 4.8688h-.9372l-1.1052-3.163zm4.569-.0346h1.0982l.4476-1.0842h2.0704l.4477 1.0842h1.1261l-2.0984-4.8688h-.9932zm1.9305-2.0235.6505-1.5676.6505 1.5676zm5.0924 2.0235h-1.0772v-4.8342h2.2383c.6225 0 1.1051.1726 1.4269.4903.2728.2693.4196.6492.4196 1.1188 0 .7804-.4266 1.2707-1.0491 1.4986l1.196 1.7265h-1.259l-1.0632-1.5469h-.8323zm0-3.8743v1.3881h1.0911c.5246 0 .8254-.2762.8254-.6975 0-.4558-.3218-.6906-.8464-.6906zm3.9775 3.8743h1.9095c1.5388 0 2.602-1.0566 2.602-2.4171 0-1.3743-1.0632-2.4171-2.602-2.4171h-1.9095zm1.0772-3.8743h.8323c.8813 0 1.4759.6008 1.4759 1.4572 0 .8702-.5946 1.4572-1.4759 1.4572h-.8323zm7.8651 2.4448c0 .9599-.7414 1.4986-1.7976 1.4986-.7414 0-1.4899-.2555-2.0774-.7735l.6365-.7528c.4407.3592.9023.5871 1.4619.5871.4406 0 .7064-.1727.7064-.4697 0-.2693-.1678-.4074-.9862-.6146-.9862-.2486-1.6228-.5179-1.6228-1.4917 0-.8771.7135-1.4572 1.7137-1.4572.7135 0 1.322.221 1.8186.6147l-.5596.8011c-.4336-.297-.8603-.4766-1.273-.4766-.4126 0-.6295.1865-.6295.4351 0 .3177.2099.4213 1.0562.6354.9932.2555 1.5528.6077 1.5528 1.4641z" fill-rule="evenodd"/><path d="m10.4324 3.5953c.1692-1.07263-.1097-2.10793-.68483-2.870508-.77705.521838-1.35908 1.404018-1.5282 2.477418-.16912 1.07263.1097 2.10869.68487 2.87051.77781-.52184 1.35906-1.40402 1.52816-2.47742z"/><path d="m5.99518 9.97068c.57365-.76334.85095-1.79941.67954-2.87204-.17217-1.07263-.75496-1.95405-1.53353-2.47437-.57365.7641-.85019 1.80016-.67878 2.8728.17141 1.07263.7542 1.95329 1.53277 2.47361z"/><path d="m4.09394 14.6941c.403-.8776.46089-1.9525.07389-2.9597-.38776-1.0078-1.13815-1.7331-2.00433-2.0599-.403.8776-.4609 1.9525-.07313 2.9596.387 1.0079 1.13738 1.7332 2.00357 2.06z"/><path d="m18.5289 35.9972c-2.9985-.6361-5.6977-1.9891-7.929-3.841.7329-.528 1.2798-1.3812 1.4421-2.4135.1691-1.0734-.1097-2.1087-.6849-2.8705-.7778.5219-1.35904 1.4048-1.52816 2.4774-.14779.9355.04647 1.8436.47996 2.5658-1.0437-.9035-1.97692-1.922-2.78445-3.0274.83267-.3261 1.55715-1.0178 1.94796-1.9807.40452-.9995.36643-2.076-.02133-2.9612-.87152.3101-1.63485 1.0201-2.04014 2.0196-.35424.8738-.36872 1.807-.10817 2.6198-.88447-1.2653-1.6021-2.6427-2.13004-4.0962.90351-.1372 1.76894-.6796 2.33877-1.5724.57441-.9012.72677-1.9663.50356-2.9132-.91189.131-1.78645.6757-2.36162 1.577-.54546.8562-.7062 1.8588-.5287 2.7692-.5188-1.465-.8319-3.0107-.93398-4.5991.9157.0876 1.88168-.2369 2.63054-.9797.74886-.742 1.12063-1.7446 1.10082-2.7204-.9157-.0877-1.8832.2369-2.63207.9796-.742.7352-1.11225 1.7256-1.10006 2.6931-.02209-.3467-.0457-.6925-.0457-1.043 0-1.3209.15617-2.6183.45023-3.8707.81895.4091 1.81388.4639 2.7471.0594.94922-.4106 1.6318-1.2075 1.94034-2.127-.82657-.4274-1.83978-.4891-2.78824-.0777-.83419.3611-1.46345 1.0208-1.81236 1.8017.38624-1.5054.97284-2.9429 1.73465-4.2822.71839.6064 1.69275.8982 2.70063.7169 1.01016-.1821 1.84056-.8014 2.33036-1.62797-.7191-.60793-1.695-.90199-2.70517-.72068-.98579.1775-1.79712.77248-2.29077 1.56855.76791-1.33696 1.70798-2.57414 2.79662-3.67877.49441.80752 1.31492 1.41164 2.31132 1.58914 1.0109.17979 1.9861-.11656 2.7045-.72753-.4914-.82505-1.3233-1.44212-2.3335-1.6219-.8982-.15922-1.7674.05789-2.45378.53631.78998-.77324 1.66528-1.4642 2.59168-2.08889.7877.23235 1.657.20417 2.4538-.17674.9317-.4449 1.5579-1.25395 1.7918-2.1666-.8814-.37938-1.9205-.39233-2.8522.05333-.8525.40681-1.4338 1.12443-1.708 1.94186-4.89391 3.33675-8.04553 8.85609-8.04553 14.89949 0 .1387.00533.2758.00914.4137-.08533-.7344-.38777-1.4573-.91037-2.0516-.69934-.7953-1.64323-1.1899-2.562741-1.1693-.082276.9728.223211 1.999.922561 2.7943.69934.7953 1.64323 1.1899 2.56274 1.1694.00533-.0686.00533-.1372.00685-.2065.07695 1.4056.32454 2.7768.72144 4.0932-.25216-.5995-.66278-1.1419-1.22271-1.5442-.84866-.6102-1.85121-.7717-2.743292-.534.123414.9675.636872 1.8962 1.485542 2.5064.84789.6094 1.8512.7717 2.74329.534-.01372-.1104-.03505-.2194-.05866-.3291.43956 1.2814 1.02235 2.5049 1.73312 3.6521-.33139-.4052-.75191-.7435-1.25394-.9736-.94084-.4304-1.95482-.3885-2.789.0221.29253.9264.96141 1.7355 1.90225 2.1666.9416.4297 1.95481.3886 2.789-.0221-.05866-.1874-.13713-.3671-.2255-.5416.70696 1.0391 1.52134 2.0066 2.42866 2.888-.39995-.2872-.86694-.4936-1.38117-.5843-1.01092-.1798-1.98605.1166-2.70367.7268.49137.8258 1.32251 1.4429 2.33343 1.6227 1.01093.179 1.98605-.1174 2.70366-.7276-.099-.1668-.21557-.3222-.34127-.47 2.37077 2.1049 5.30377 3.6399 8.58567 4.337z"/><path d="m77.3072 6.07272c.5744-.76182.8532-1.79788.6848-2.87051-.1698-1.0734-.7511-1.95558-1.5289-2.477418-.5752.762578-.854 1.797878-.6849 2.870508.1691 1.0734.7512 1.95558 1.529 2.47742z"/><path d="m81.7035 7.49707c.1714-1.07264-.1058-2.1087-.6795-2.8728-.7778.52032-1.3614 1.40174-1.5329 2.47437-.1714 1.07263.1059 2.1087.6788 2.87204.7786-.52032 1.3621-1.40098 1.5336-2.47361z"/><path d="m82.0775 14.6941c.8669-.3268 1.6166-1.0521 2.0043-2.06.387-1.0071.3291-2.082-.0731-2.9596-.867.3268-1.6166 1.0521-2.0044 2.0599-.387 1.0072-.3291 2.0821.0732 2.9597z"/><path d="m82.9416 22.1767c-.5599.4022-.9698.9446-1.2227 1.5442.3977-1.3164.6452-2.6877.7214-4.0933.0023.0694.0015.1379.0076.2065.9188.0206 1.8634-.3741 2.5628-1.1694.6993-.7953 1.0048-1.8215.9225-2.7943-.9195-.0206-1.8633.374-2.5627 1.1694-.5226.5942-.825 1.3171-.9104 2.0515.0031-.1379.0092-.275.0092-.4136 0-6.0435-3.1524-11.56285-8.0463-14.8996-.2743-.81742-.8555-1.53505-1.708-1.94186-.9317-.44566-1.9708-.43271-2.8522-.05333.2339.91266.8601 1.7217 1.7918 2.1666.7968.38091 1.6661.4091 2.4545.17674.9264.62469 1.8017 1.31566 2.591 2.0889-.6864-.47842-1.5557-.69554-2.4538-.53632-1.0102.17979-1.8413.79686-2.3327 1.6219.7176.61098 1.6927.90732 2.7037.72753.9964-.1775 1.8177-.78162 2.3113-1.58914 1.0886 1.10463 2.0295 2.34182 2.7974 3.67878-.4944-.79608-1.3058-1.39105-2.2908-1.56856-1.0102-.18131-1.9868.11275-2.7052.72068.4899.82658 1.3195 1.44588 2.3304 1.62798 1.0079.1813 1.9815-.1104 2.7006-.7169.7618 1.3393 1.3484 2.7769 1.7339 4.2822-.3489-.7809-.9774-1.4406-1.8123-1.8017-.9485-.4114-1.9609-.3497-2.7883.0777.3093.9195.9919 1.7164 1.9411 2.127.9332.4045 1.9274.3497 2.7471-.0594.2933 1.2524.4503 2.5498.4503 3.8708 0 .3504-.0244.6963-.0457 1.0429.0121-.9675-.3581-1.9579-1.1001-2.693-.7489-.7428-1.7164-1.0673-2.6328-.9797-.0191.9759.3519 1.9784 1.1015 2.7204.7481.7428 1.7149 1.0673 2.6298.9797-.1013 1.5884-.4144 3.1341-.9332 4.5991.1775-.9104.0168-1.9129-.5287-2.7692-.5752-.9012-1.4497-1.4459-2.3616-1.577-.224.947-.0716 2.012.5035 2.9132.5699.8929 1.4353 1.4353 2.3388 1.5724-.5279 1.4535-1.2456 2.8309-2.1308 4.0963.2613-.8129.2468-1.7461-.1082-2.6199-.4045-.9995-1.1678-1.7095-2.0401-2.0196-.3878.8852-.4258 1.9617-.0206 2.9612.3908.9629 1.1153 1.6546 1.948 1.9807-.8083 1.1054-1.7407 2.1239-2.7852 3.0275.4335-.7222.6277-1.6303.4799-2.5658-.1691-1.0727-.7503-1.9556-1.5274-2.4775-.5752.7619-.8547 1.7972-.6856 2.8706.163 1.0322.7092 1.8854 1.4428 2.4134-2.2313 1.852-4.9312 3.2049-7.9289 3.8411l.0853.4555c3.2819-.697 6.2149-2.2321 8.5857-4.337-.1257.1478-.2415.3032-.3413.47.7184.6103 1.6935.9066 2.7044.7276 1.0102-.1798 1.8413-.7969 2.3334-1.6227-.7176-.6102-1.6935-.9065-2.7036-.7268-.5143.0907-.9813.2972-1.3812.5844.9073-.8815 1.7209-1.849 2.4287-2.8881-.0892.1745-.1676.3543-.2263.5417.8349.4106 1.8482.4517 2.789.0221.9416-.4312 1.6105-1.2403 1.9022-2.1666-.8341-.4107-1.8474-.4526-2.789-.0221-.5012.23-.9225.5683-1.2539.9736.7108-1.1473 1.2943-2.3708 1.7339-3.6522-.0244.1097-.045.2187-.0587.3291.8921.2377 1.8947.0755 2.7433-.534.8487-.6102 1.3621-1.5389 1.4856-2.5064-.8929-.2376-1.8954-.0761-2.7441.5341z"/><path d="m30 10.12h3.61c1.67 0 2.65-.73 2.65-1.93 0-.97-.54-1.45-1.39-1.73.62-.27 1.08-.75 1.08-1.56 0-.5-.17-.87-.45-1.15-.41-.41-1.03-.63-1.91-.63h-3.59zm1.89-1.56v-1.29h1.48c.65 0 .95.25.95.63 0 .43-.34.66-.93.66zm0-2.65v-1.23h1.26c.58 0 .88.22.88.6 0 .43-.33.63-.92.63z"/><path d="m37.1484 10.12h5.68v-1.65h-3.76v-1.11h3.36v-1.53h-3.36v-1.06h3.71v-1.65h-5.63z"/><path d="m46.5684 10.24c1.7 0 2.83-.85 2.83-2.28 0-1.33-1-1.85-2.61-2.2-.97-.22-1.21-.36-1.21-.68 0-.27.23-.47.7-.47.62 0 1.32.24 1.96.69l.97-1.37c-.76-.61-1.69-.93-2.88-.93-1.68 0-2.71.94-2.71 2.24 0 1.46 1.15 1.88 2.64 2.22.95.22 1.18.38 1.18.67 0 .32-.28.5-.8.5-.81 0-1.58-.29-2.27-.84l-1.08 1.29c.86.77 2.04 1.16 3.28 1.16z"/><path d="m51.8565 10.12h1.94v-5.3h2.1v-1.7h-6.14v1.7h2.1z"/><path d="m17.548 23c2.3821 0 3.7498-1.0124 4.7641-2.3874l-2.2437-1.5714c-.6455.7706-1.3063 1.2843-2.4282 1.2843-1.5061 0-2.5665-1.239-2.5665-2.8255 0-1.5714 1.0604-2.8255 2.5665-2.8255 1.0297 0 1.752.4684 2.3667 1.2239l2.1823-1.6621c-.9528-1.2995-2.3206-2.2363-4.5183-2.2363-3.2581 0-5.6709 2.4176-5.6709 5.5 0 3.1882 2.4743 5.5 5.548 5.5z"/><path d="m22.7343 22.7885h3.1351l.7684-1.8888h4.1495l.7838 1.8888h3.1966l-4.5798-10.6525h-2.8739zm4.7795-4.1704 1.2141-3.0068 1.1988 3.0068z"/><path d="m39.8877 22.9698c2.6126 0 4.3493-1.2844 4.3493-3.4451 0-2.0096-1.5369-2.7953-4.0112-3.3242-1.4907-.3324-1.8595-.5439-1.8595-1.0274 0-.408.3534-.7102 1.0758-.7102.9528 0 2.0286.3626 3.0121 1.0426l1.4908-2.0701c-1.168-.9217-2.5973-1.4052-4.4261-1.4052-2.5819 0-4.1648 1.4203-4.1648 3.3846 0 2.2061 1.7673 2.8407 4.0572 3.3544 1.46.3324 1.8135.5742 1.8135 1.0124 0 .4835-.4303.7555-1.2295.7555-1.2448 0-2.4282-.4382-3.4886-1.2692l-1.6598 1.9491c1.3217 1.1635 3.1352 1.7528 5.0408 1.7528z"/><path d="m45.7483 22.7885h2.9969v-10.577h-2.9969z"/><path d="m50.7146 22.7885h2.9507v-5.8022l4.5951 5.8022h2.6127v-10.577h-2.9508v5.5907l-4.426-5.5907h-2.7817z"/><path d="m68.1908 23c3.3195 0 5.8092-2.4629 5.8092-5.5 0-3.0673-2.4589-5.5-5.7785-5.5-3.3195 0-5.8092 2.4629-5.8092 5.5 0 3.0673 2.4589 5.5 5.7785 5.5zm.0307-2.6442c-1.629 0-2.7509-1.3297-2.7509-2.8558 0-1.5563 1.0911-2.8558 2.7202-2.8558 1.6444 0 2.7663 1.3297 2.7663 2.8558 0 1.5563-1.0912 2.8558-2.7356 2.8558z"/><path d="m26 33.8508h6.1346v-.895h-4.6543l2.346-2.0635c1.5305-1.3426 2.2205-2.1133 2.2205-3.3813 0-1.4419-1.1416-2.4861-2.7223-2.4861-1.5431 0-2.3711.6837-3.1614 1.8522l.7276.5221c.7025-.9696 1.3549-1.4917 2.3585-1.4917.9535 0 1.7689.6464 1.7689 1.6657 0 .8702-.4767 1.5539-1.8316 2.7348l-3.1865 2.7845z"/><path d="m37.3865 34c2.2581 0 3.7134-2.0635 3.7134-4.5 0-2.4613-1.4302-4.5-3.6883-4.5-2.2582 0-3.726 2.0635-3.726 4.5 0 2.4613 1.4302 4.5 3.7009 4.5zm.0251-.895c-1.6435 0-2.6973-1.7031-2.6973-3.605 0-1.9392 1.0288-3.605 2.6722-3.605 1.6309 0 2.6847 1.7031 2.6847 3.605 0 1.9268-1.0162 3.605-2.6596 3.605z"/><path d="m42.3554 33.8508h6.1346v-.895h-4.6543l2.346-2.0635c1.5305-1.3426 2.2205-2.1133 2.2205-3.3813 0-1.4419-1.1416-2.4861-2.7223-2.4861-1.5431 0-2.3711.6837-3.1614 1.8522l.7276.5221c.7025-.9696 1.3549-1.4917 2.3585-1.4917.9534 0 1.7689.6464 1.7689 1.6657 0 .8702-.4767 1.5539-1.8316 2.7348l-3.1865 2.7845z"/><path d="m49.8654 33.8508h6.1346v-.895h-4.6543l2.346-2.0635c1.5305-1.3426 2.2205-2.1133 2.2205-3.3813 0-1.4419-1.1416-2.4861-2.7223-2.4861-1.5431 0-2.3711.6837-3.1614 1.8522l.7276.5221c.7025-.9696 1.3549-1.4917 2.3585-1.4917.9534 0 1.7689.6464 1.7689 1.6657 0 .8702-.4767 1.5539-1.8316 2.7348l-3.1865 2.7845z"/></g></svg>