<svg width="32" height="32" viewBox="0 0 32 32" fill="none" xmlns="http://www.w3.org/2000/svg">
<g clip-path="url(#clip0_1607_10)">
<path d="M15.827 32C24.568 32 31.654 24.8366 31.654 16C31.654 7.16344 24.568 0 15.827 0C7.08599 0 0 7.16344 0 16C0 24.8366 7.08599 32 15.827 32Z" fill="#443BE9"/>
<path d="M7.0093 6.28748C7.05537 6.17438 7.19139 6.05417 7.30672 6.02457C7.39546 6.00178 13.4702 5.99531 13.4702 6.018C13.4702 6.02789 12.786 7.93714 11.9497 10.2608C11.1135 12.5844 10.4293 14.5237 10.4293 14.5703C10.4293 14.7056 10.5276 14.8812 10.6381 14.9432C10.7304 14.9951 10.9497 15.0019 12.9852 15.0171L15.2305 15.0339L12.1574 20.9168C10.4671 24.1525 9.05305 26.8339 9.01502 26.8756C8.82283 27.0862 8.45616 27.0197 8.32057 26.7496C8.26214 26.6331 8.2759 26.8335 7.58471 16.0622C7.03739 7.53335 6.96977 6.38449 7.0093 6.28748Z" fill="white"/>
<path d="M17.6974 8.79901C18.1749 7.47157 18.5973 6.29877 18.636 6.19274L18.7064 6H21.6642C24.1039 6 24.641 6.00811 24.7299 6.04623C24.8573 6.10076 24.9669 6.23327 24.9957 6.36729C25.0179 6.47094 25.0294 6.41838 23.0127 15.4027C22.3464 18.3709 21.7816 20.8482 21.7575 20.9077C21.7335 20.9673 21.6651 21.0464 21.6056 21.0836C21.4995 21.1499 21.4473 21.1513 18.9388 21.1514C17.5316 21.1514 16.3802 21.1446 16.3802 21.1361C16.3802 21.1277 17.4302 19.1101 18.7134 16.6527C19.9967 14.1952 21.0855 12.1059 21.133 12.0097C21.2357 11.802 21.2423 11.6536 21.1553 11.5075C21.0253 11.2888 21.1079 11.2963 18.847 11.2963C17.2216 11.2963 16.8015 11.2877 16.8138 11.2544C16.8223 11.2314 17.2199 10.1264 17.6974 8.79901Z" fill="white"/>
</g>
<defs>
<clipPath id="clip0_1607_10">
<rect width="32" height="32" fill="white"/>
</clipPath>
</defs>
</svg>
