<svg fill="none" height="31" viewBox="0 0 40 31" width="40" xmlns="http://www.w3.org/2000/svg" xmlns:xlink="http://www.w3.org/1999/xlink"><clipPath id="a"><path d="m0 0h40v31h-40z"/></clipPath><g clip-path="url(#a)"><g fill="#fff"><path d="m6.15839 9.07997c0-.90865-.18081-1.62852-.54161-2.15987-.36144-.53091-.93184-.796-1.7127-.796-.35474 0-.68936.05326-1.00236.15918-.31407.10591-.56498.2246-.75446.354v5.32722c.154.0354.35192.0686.59483.0977.24183.0298.53514.044.87863.044.79233 0 1.41355-.2683 1.86303-.8051.44948-.5365.67464-1.2768.67464-2.22113zm2.20003.03498c0 .74384-.10963 1.41325-.32834 2.00885-.21865.5961-.53233 1.1063-.94026 1.531-.40836.425-.90262.7495-1.48213.974-.5799.2235-1.23617.3357-1.96966.3357-.70992 0-1.38673-.053-2.03219-.1592-.644585-.1063-1.179936-.2239-1.60584-.3538v-13.097061l2.14726-.354439v4.79669c.24831-.12983.55309-.24785.91367-.35376.36166-.10659.76053-.15924 1.19811-.15924.65064 0 1.23336.11503 1.74839.34477.51437.23017.94333.55721 1.28657.98264.34287.42433.60591.93494.7893 1.53013.18345.59653.27512 1.25446.27512 1.97372z"/><path d="m12.3514 13.7346h-2.1472v-9.25653h2.1472zm.2308-11.96392c0 .40082-.1301.71924-.3906.95567-.2604.23601-.5678.35379-.9225.35379-.3669 0-.6805-.11778-.9409-.35379-.2602-.23643-.3907-.55485-.3907-.95567 0-.4129.1305-.73757.3907-.974012.2604-.235787.574-.353797.9409-.353797.3547 0 .6621.11801.9225.353797.2605.236442.3906.561112.3906.974012z"/><path d="m14.5874 2.03565 2.1475-.35401v2.79626h3.3006v1.78775h-3.3006v3.77005c0 .7428.1183 1.2737.3547 1.5925.2367.3189.6388.4781 1.2068.4781.3906 0 .7367-.0412 1.0382-.1242.3016-.0825.5408-.159.7191-.2296l.3545 1.6991c-.2483.1059-.5741.2153-.9762.3274-.4024.1118-.8758.1677-1.4196.1677-.6626 0-1.2155-.0887-1.6593-.2656-.4434-.1769-.7953-.433-1.056-.7695-.26-.3363-.4434-.7434-.55-1.2214-.1067-.4777-.1597-1.0235-.1597-1.6367z"/><path d="m3.92138 28.8851c.80445 0 1.39019-.1357 1.75704-.4071.36623-.2714.55005-.6546.55005-1.1505 0-.295-.06162-.5486-.18664-.7611-.12417-.2123-.30087-.4041-.53172-.5754-.23097-.1706-.51241-.3298-.84357-.4776-.33116-.1471-.70948-.2919-1.13561-.434-.42589-.153-.83707-.3213-1.23316-.504-.39671-.1827-.74534-.4103-1.04689-.6819-.301729-.2709-.543983-.5954-.727865-.9734-.183638-.3769-.274935-.8314-.274935-1.3622 0-1.1089.384625-1.9796 1.154-2.6106.76809-.6312 1.81547-.9473 3.14054-.9473.76895 0 1.45206.0859 2.04987.2572.59703.1711 1.06731.3568 1.41055.5576l-.69175 1.805c-.40253-.2239-.84357-.3952-1.32225-.5136-.47893-.1174-.97319-.1769-1.48192-.1769-.60346 0-1.07331.124-1.41073.3721-.33698.2475-.50572.5957-.50572 1.044 0 .2713.05604.5045.16873.6991.11203.1946.27169.3687.47888.5216.20724.1541.44949.2956.72743.4254.27794.1295.58274.2538.91457.3711.57881.2131 1.09662.4284 1.55237.6466.45557.2183.84013.4776 1.15357.7787.31362.3012.55287.655.71836 1.0619.16525.407.24894.9.24894 1.4777 0 1.1093-.39364 1.9681-1.18037 2.5751-.78709.6082-1.93723.9117-3.45177.9117-.50873 0-.97319-.0326-1.39276-.0973-.41988-.0649-.7928-.1445-1.11789-.2388-.32595-.0945-.606955-.192-.843385-.2921-.236613-.1003-.425647-.1918-.567345-.2744l.656252-1.8231c.319695.1769.751038.354 1.295888.5309.5438.1769 1.20005.2656 1.96924.2656z"/><path d="m9.91943 18.8497 2.14677-.3541v2.7963h3.3013v1.7878h-3.3013v3.77c0 .7427.1183 1.2737.3554 1.5925.2364.3188.639.4781 1.2065.4781.3903 0 .7366-.0412 1.0383-.1243.3016-.0824.541-.159.7186-.2295l.3548 1.699c-.2482.106-.5737.2154-.9758.3275-.4024.1118-.8754.1676-1.4196.1676-.6626 0-1.2157-.0886-1.6589-.2655-.4445-.1769-.7964-.433-1.0564-.7695-.2602-.3363-.4439-.7434-.55-1.2215-.1062-.4776-.15967-1.0234-.15967-1.6367z"/><path d="m20.3185 29.0444c.6626 0 1.1651-.0356 1.5084-.1059v-2.3719c-.1182-.0354-.2899-.0705-.5144-.1059-.225-.0354-.4733-.0533-.7454-.0533-.2364 0-.4759.0179-.7188.0533s-.4616.0997-.6563.1948c-.1951.0942-.3523.2271-.4702.3978-.1187.1713-.1778.3866-.1778.6465 0 .507.1594.858.4793 1.0526.3191.1947.7508.292 1.2952.292zm-.1773-7.9819c.7097 0 1.3069.0882 1.7925.2651.4845.1771.8721.425 1.1623.7439.29.318.4972.705.6211 1.1591.1244.4541.1864.9529.1864 1.4952v5.6105c-.3317.0709-.8315.1568-1.4995.2571-.6684.0997-1.4229.1506-2.2628.1506-.5559 0-1.0645-.0537-1.5262-.1597-.4617-.1061-.8549-.2772-1.1798-.5132-.3262-.2358-.5799-.5423-.7636-.9207-.1832-.3774-.2751-.8431-.2751-1.3977 0-.5309.1041-.9794.3106-1.3453.2068-.3659.4882-.6636.8434-.8938.3549-.2301.7655-.3952 1.2327-.4959.4675-.0997.9554-.15 1.4646-.15.2366 0 .4848.0147.7454.0445.26.0293.5379.0791.8337.1501v-.3538c0-.2481-.0299-.4838-.0885-.7078-.0595-.2243-.1627-.422-.3106-.5932-.1482-.1711-.3433-.3035-.5856-.3984-.2429-.0941-.5476-.1416-.9136-.1416-.4974 0-.9529.0356-1.3669.1064-.414.0705-.7516.1531-1.0112.2474l-.2663-1.7344c.2719-.0939.6684-.1884 1.1886-.2828.5207-.0945 1.0768-.1416 1.6684-.1416z"/><path d="m31.4277 23.2211c-.1778-.0584-.4237-.1208-.7364-.1855-.3139-.0648-.6775-.0973-1.0914-.0973-.2367 0-.4881.0235-.7542.0705-.2661.0475-.4525.0887-.5598.1241v7.4156h-2.1472v-8.814c.4145-.1533.932-.2977 1.5531-.4334s1.3103-.2034 2.0675-.2034c.1416 0 .3078.0086.4967.0265.1894.0173.3783.0412.5677.0704.1895.0297.3728.0653.55.1065.1778.0412.3201.0796.4262.115z"/><path d="m39.3958 22.7969c-.2366.2474-.5475.5956-.9313 1.0439-.3851.4487-.7965.947-1.2343 1.4957-.4372.5486-.878 1.1211-1.322 1.7167-.4433.5961-.843 1.1651-1.1974 1.7082h4.7917v1.7872h-7.3829v-1.3273c.2606-.472.5862-.985.9761-1.5399.3906-.5544.7934-1.1116 1.2067-1.6725.4145-.5603.8253-1.094 1.2337-1.6018.4077-.5074.7725-.9494 1.0914-1.3272h-4.2768v-1.7879h7.0451z"/></g><path d="m28.3776.532109c.2949-.709479 1.2998-.709479 1.5949 0l1.3499 3.245091c.061.14666.1612.27367.2897.36705.1285.09339.2802.14954.4385.16228l3.5035.28083c.7657.06145 1.0764 1.01721.4928 1.51693l-2.6691 2.28637c-.1207.10333-.2105.23794-.2596.38901-.0491.15108-.0556.31277-.0188.4673l.8156 3.41883c.1782.7475-.6347 1.338-1.2904.9377l-2.9993-1.8325c-.1356-.0829-.2914-.1267-.4504-.1267-.1589 0-.3147.0438-.4503.1267l-2.9993 1.832c-.6555.4006-1.4683-.19-1.2904-.9375l.8156-3.41853c.0368-.15453.0303-.31622-.0188-.4673-.0491-.15107-.1389-.28568-.2596-.38901l-2.6691-2.28637c-.5834-.49997-.2729-1.45548.4928-1.51693l3.5035-.28083c.1583-.01269.3101-.06883.4387-.16222.1285-.09339.2288-.22041.2898-.36711z" fill="#e31351"/></g></svg>