<svg width="32" height="32" viewBox="0 0 32 32" fill="none" xmlns="http://www.w3.org/2000/svg">
<g clip-path="url(#clip0)">
<circle cx="16" cy="16" r="16" fill="#202020"/>
<path d="M22.6417 13.2373H16.8922L17.4144 6.88272H17.4155C17.4402 6.5174 17.2221 6.17893 16.8782 6.05108C16.5344 5.92429 16.1487 6.03926 15.9295 6.33258L8.14475 17.3084C7.97068 17.5619 7.95242 17.8918 8.0964 18.1637C8.24145 18.4355 8.52512 18.6042 8.83243 18.601H14.7194L14.1145 25.0931C14.0801 25.4692 14.3068 25.8205 14.6646 25.9452L14.9397 26C15.2191 25.9968 15.478 25.8517 15.6274 25.6153L23.3293 14.5298C23.5034 14.2762 23.5216 13.9464 23.3776 13.6745C23.2326 13.4027 22.9489 13.234 22.6416 13.2372L22.6417 13.2373Z" fill="#FED720"/>
</g>
<defs>
<clipPath id="clip0">
<rect width="32" height="32" fill="white"/>
</clipPath>
</defs>
</svg>
