<svg fill="none" height="35" viewBox="0 0 60 35" width="60" xmlns="http://www.w3.org/2000/svg"><g fill="#fff" fill-opacity=".7"><path d="m39.3551 29.6451c0-.176-.0506-.2965-.1519-.361-.1019-.0651-.2171-.0976-.3467-.0976-.0298 0-.0554.001-.0752.0037-.0197.0027-.0341.0043-.0416.0059v.9982c.0155.0016.039.0022.0694.0022.2154 0 .3605-.0491.4346-.1478.0746-.0981.1114-.2005.1114-.3055 0-.0192-.0005-.0309-.001-.0357-.0011-.0054-.0011-.0091-.0011-.0123 0-.0096 0-.0176.0011-.0245.0005-.0059.001-.015.001-.0256z"/><path d="m26.9336 31.111h.5365l-.3067-1.612z"/><path d="m33.1747 30.7543c-.0677-.0475-.1445-.0715-.2309-.0715-.0128 0-.032.0016-.0576.0043v.9988c.0352.0026.0598.0042.0742.0042.1311 0 .2346-.0448.3103-.1343.0757-.0896.1141-.2128.1141-.3696 0-.0827-.0181-.1637-.0544-.2421-.0357-.0784-.0874-.1418-.1557-.1898z"/><path d="m33.2265 30.0537c.0799-.0747.1199-.1941.1199-.3573 0-.1344-.0165-.2352-.0496-.3024-.0325-.0672-.0805-.1103-.1434-.1295s-.152-.0288-.2672-.0288v.9214c.0288.0064.0534.0096.0742.0096.0975 0 .1861-.0378.2661-.113z"/><path d="m43.3571 29.302c-.0442.0725-.1034.1259-.177.161-.0736.0352-.1509.0528-.2325.0528-.1307 0-.2437-.0416-.3386-.1247-.0955-.0832-.143-.2-.143-.3504.0096-.1392.063-.248.1595-.3274.0965-.0789.2074-.1189.3317-.1189.0752 0 .1477.017.2181.0506s.128.0843.1722.1525c.0448.0678.0704.1488.0768.2432 0 .1024-.0224.1893-.0672.2613zm-1.2441 2.4642c-.0554.1104-.1269.2069-.2127.289-.087.0822-.1878.1472-.3035.1957-.1157.048-.2415.072-.3775.072-.2091 0-.4224-.0576-.6394-.1728v-.7289c.145.145.3136.2181.5055.2181.1211 0 .2245-.0331.3104-.0987.0853-.0656.1328-.1567.1424-.273 0-.0853-.0251-.1648-.0752-.2389-.0507-.0741-.1051-.1349-.1632-.1813s-.1322-.1003-.2218-.1616c-.0891-.0618-.1531-.1109-.1915-.1482-.2986-.2448-.4479-.5541-.4479-.9284 0-.1376.0213-.2757.0645-.4149.0624-.2.1728-.3546.3306-.465.1579-.1104.3403-.1659.5461-.1659.2112 0 .417.0571.6186.1707v.6906c-.1856-.152-.3557-.2278-.5104-.2278-.1087 0-.1962.0347-.2629.104-.0661.0699-.0991.1536-.0991.2512 0 .0763.0224.1493.0671.2181.0416.0624.0966.1248.1643.1872s.161.1386.28.2287c.1194.0907.1882.144.2074.16.0912.0768.1664.1589.2266.2459.0598.0869.1056.1823.1376.2853.032.1029.048.2079.048.313 0 .1936-.048.3861-.144.5759zm-2.6913.4991-.6517-1.7277v1.7277h-.7663v-3.6853h.9199c.2186 0 .4149.0442.5882.1322s.3103.2139.4111.3781c.1003.1637.1504.3519.1504.5647 0 .0992-.0091.1947-.0272.2864-.0187.0922-.0667.1941-.145.3061-.0784.112-.1995.2213-.3643.329l.6517 1.6888zm-1.771-2.9942h-.7284v.7679h.6132v.7295h-.6132v.8057h.7284v.6911h-1.4953v-3.6853h1.4953zm-1.6947 2.9942h-1.5721v-3.6853h.7285v2.9942h.8436zm-1.9667-.53c-.0789.1562-.1941.2842-.345.3823-.1509.0987-.3285.1477-.5333.1477h-.9582v-3.6853h.9582c.0512 0 .1056.008.1632.0229.0576.0155.1216.0427.1931.0816.0709.0394.137.088.1983.1461.0619.0587.1195.1285.1739.2101.0496.0677.0933.1616.1306.2821.0374.121.056.241.056.361 0 .0944-.0128.1872-.0389.2784-.0267.0912-.0704.1754-.1323.2543-.0613.0779-.1429.1467-.2453.2064.104.0459.1941.1125.272.1979.0773.0853.1344.1813.1712.2869.0368.1055.0549.2165.0549.3332 0 .1728-.0389.3376-.1184.4944zm-2.918.53-.1914-2.5719-.4218 2.5719h-.5749l-.4597-2.5719-.1535 2.5719h-.7669l.345-3.6853h.9583l.345 2.2653.3067-2.2653h.9582l.4218 3.6853zm-3.3809 0-.1151-.6143h-.7285l-.1536.6143h-.7279l.8431-3.6853h.7669l.8814 3.6853zm-1.8077-1.2414c-.0155.1157-.0294.1973-.0405.2437-.008.0672-.0358.1712-.0827.3125-.0469.1418-.1392.289-.2768.4431-.137.1536-.3242.2469-.5604.2805-.0688.008-.1301.0118-.1845.0118-.3003 0-.5504-.0918-.7498-.2768-.2-.185-.3466-.4229-.4399-.7151-.0934-.2917-.1403-.601-.1403-.9273 0-.1152.0069-.2341.0192-.3573 0-.1216.0379-.3035.1125-.5472.0758-.2431.2059-.466.392-.6676.1861-.2026.4341-.304.7439-.304.1232 0 .2565.0198.3999.0598.192.0528.3381.1429.4389.2698.1008.1274.1973.3066.2896.5365l-.6901.2687c0-.088-.0176-.1685-.0538-.241-.0358-.0731-.0832-.1285-.1424-.168s-.1237-.0587-.1941-.0587c-.0816 0-.1589.0294-.2325.0886-.0736.0597-.1339.1471-.1819.2639-.0352.0822-.0613.1995-.0778.3536-.0171.1546-.0272.2922-.0299.4143-.0053.1232-.0075.2123-.0075.2688.0032.0112.0102.0869.0203.2261.0107.1402.0277.2672.0517.3818.024.1147.0704.2181.1387.312.0688.0933.1648.1455.2879.1546.1003 0 .1856-.0282.2549-.0853.0694-.0565.1243-.1403.1653-.2506.0406-.1104.0667-.2416.0779-.3936h-.4981v-.6906h1.1881c.0176.1232.0262.2528.0262.3888 0 .1536-.008.2885-.024.4042zm-3.3836 1.2414-.69-1.804v1.804h-.7279v-3.6853h.7279v1.6888l.6138-1.6888h.7663l-.6901 1.7661.7669 1.9192zm-1.8861-.4991c-.056.1104-.1269.2069-.2133.289-.0864.0822-.1872.1472-.3029.1957-.1157.048-.2421.072-.3776.072-.209 0-.4223-.0576-.6393-.1728v-.7289c.145.145.3135.2181.505.2181.1215 0 .225-.0331.3103-.0987.0859-.0656.1328-.1567.1429-.273 0-.0853-.0256-.1648-.0757-.2389s-.1045-.1349-.1626-.1813c-.0587-.0464-.1323-.1003-.2219-.1616-.0896-.0618-.153-.1109-.1919-.1482-.2987-.2448-.448-.5541-.448-.9284 0-.1376.0219-.2757.0651-.4149.0618-.2.1722-.3546.3306-.465.1578-.1104.3402-.1659.5461-.1659.2111 0 .417.0571.618.1707v.6906c-.185-.152-.3551-.2278-.5103-.2278-.1083 0-.1957.0347-.2619.104-.0666.0699-.0997.1536-.0997.2512 0 .0763.0224.1493.0672.2181.0416.0624.096.1248.1637.1872.0683.0624.1616.1386.2805.2287.1189.0907.1883.144.2075.16.0911.0768.1663.1589.2261.2459.0597.0869.1061.1823.1375.2853.032.1029.048.2079.048.313 0 .1936-.048.3861-.1434.5759zm-2.6146.4991-.1152-.6143h-.7284l-.1531.6143h-.7284l.8431-3.6853h.7668l.8815 3.6853zm27.5456-5.7427h-31.3904l-2.4461 3.8993 2.4461 3.8981h31.3904l2.4461-3.8981z"/><path d="m17.2324 31.111h.537l-.3071-1.612z"/><path d="m15.899 3.84106c0-.34556-.2783-.5418-.6244-.5418h-1.0233v1.07612h1.0233c.3461 0 .6244-.1957.6244-.53432zm-2.942 3.34888v-5.01959h2.5133c1.1284 0 1.7459.76043 1.7459 1.67071 0 .90281-.6175 1.66377-1.7459 1.66377h-1.219v1.68511z"/><path d="m17.7915 7.18994v-5.01959h1.2942v3.89067h2.0163v1.12892z"/><path d="m23.9868 3.45018-.6399 1.88881h1.2719zm1.234 3.73976-.2485-.72204h-1.9789l-.2491.72204h-1.467l1.8889-5.01959h1.6328l1.8888 5.01959z"/><path d="m27.9496 7.18994v-2.02426l-1.9037-2.99533h1.4601l1.091 1.85202 1.0761-1.85202h1.4676l-1.8963 2.99533v2.02426z"/><path d="m31.5703 7.18994v-5.01959h3.68v1.12891h-2.3858v.78283h2.3331v1.12838h-2.3331v.85055h2.3858v1.12892z"/><path d="m38.9528 3.83412c0-.34662-.2789-.53486-.6245-.53486h-1.0238v1.07612h1.0238c.3456 0 .6245-.18824.6245-.54126zm-.1429 3.35582-.8431-1.68511h-.6623v1.68511h-1.2942v-5.01959h2.5132c1.114 0 1.7459.73803 1.7459 1.67071 0 .87348-.5268 1.33955-1.0009 1.50539l1.0233 1.84349z"/><path d="m41.4458 4.481-.4816-.38395c.2411-.11998.5567-.44367.6399-.72204-.0304.01494-.1056.02987-.1733.02987-.3231 0-.5866-.24797-.5866-.62445 0-.38395.3157-.69217.6922-.69217.4064 0 .7674.31569.7674.87294 0 .60952-.3312 1.15131-.858 1.5198z"/><path d="m42.686 6.47486.6847-1.00786c.3616.36102.9183.66178 1.6105.66178.4367 0 .7076-.15038.7076-.39835 0-.66284-2.8369-.11305-2.8369-2.04719 0-.84255.7071-1.59498 1.9938-1.59498.8053 0 1.5049.2405 2.0392.70017l-.7071.97c-.4218-.35355-.971-.52633-1.467-.52633-.3765 0-.5423.12745-.5423.34609 0 .61698 2.837.15038 2.837 2.01679 0 1.00787-.745 1.67818-2.092 1.67818-1.0154 0-1.723-.32423-2.2275-.7983z"/><path d="m10.2275 12.4267c0-2.1575 1.634-3.61335 3.7809-3.61335 1.6867 0 2.598.95294 3.0486 1.86425l-1.5507.7439c-.2298-.5551-.8276-1.0158-1.4979-1.0158-1.1412 0-1.948.8687-1.948 2.021 0 1.1417.8068 2.0216 1.948 2.0216.6703 0 1.2681-.4612 1.4979-1.0164l1.5507.7338c-.4506.89-1.3619 1.8755-3.0486 1.8755-2.1469 0-3.7809-1.467-3.7809-3.6145z"/><path d="m14.0027 8.86725c-2.156 0-3.7211 1.49475-3.7211 3.55365 0 2.0595 1.5651 3.5537 3.7211 3.5537 1.6675 0 2.5319-.9583 2.966-1.787l-1.4377-.6804c-.2725.5892-.8916.9956-1.5283.9956-1.1449 0-2.0083-.8954-2.0083-2.0819 0-1.2057.8447-2.0813 2.0083-2.0813.6367 0 1.2558.4063 1.5278.9945l1.4393-.69c-.4229-.82391-1.2777-1.77685-2.9671-1.77685zm0 7.22785c-2.2253 0-3.8411-1.5449-3.8411-3.6742 0-2.1288 1.6158-3.6731 3.8411-3.6731 1.8829 0 2.7522 1.18864 3.1025 1.8979l.0272.0549-.0554.0256-1.6078.7711-.0246-.0587c-.2383-.5764-.8313-.9785-1.4419-.9785-1.0937 0-1.8883.8244-1.8883 1.9608s.7946 1.9619 1.8883 1.9619c.6106 0 1.203-.4032 1.4419-.9796l.0246-.0582 1.6637.7861-.0282.056c-.3605.7124-1.243 1.908-3.102 1.908z"/><path d="m22.5592 15.9148v-2.8071h-2.9009v2.8071h-1.8014v-6.98627h1.8014v2.60767h2.9009v-2.60767h1.8019v6.98627z"/><path d="m22.6143 15.8496h1.6819v-6.86682h-1.6819v2.60822h-3.0214v-2.60822h-1.6814v6.86682h1.6814v-2.8076h3.0214zm1.8019.12h-1.9219v-2.8077h-2.7815v2.8077h-1.9213v-7.10681h1.9213v2.60821h2.7815v-2.60821h1.9219z"/><path d="m30.9578 12.4267c0-1.1411-.7439-2.021-1.8968-2.021-1.1519 0-1.9054.8799-1.9054 2.021 0 1.1311.7535 2.0216 1.9054 2.0216 1.1529 0 1.8968-.8905 1.8968-2.0216zm-5.6355 0c0-2.1266 1.6024-3.61335 3.7387-3.61335 2.1373 0 3.7296 1.48675 3.7296 3.61335 0 2.1267-1.5923 3.6145-3.7296 3.6145-2.1363 0-3.7387-1.4878-3.7387-3.6145z"/><path d="m29.0553 10.4601c-1.0863 0-1.8456.8063-1.8456 1.9608 0 1.1364.7764 1.9619 1.8456 1.9619 1.082 0 1.8366-.8074 1.8366-1.9619s-.7546-1.9608-1.8366-1.9608zm0 4.0427c-1.1385 0-1.9656-.8757-1.9656-2.0819 0-1.2057.8271-2.0813 1.9656-2.0813 1.1524 0 1.9565.8559 1.9565 2.0813 0 1.2062-.8222 2.0819-1.9565 2.0819zm0-5.63555c-2.1314 0-3.679 1.49475-3.679 3.55365 0 2.0595 1.5476 3.5537 3.679 3.5537 2.1261 0 3.6699-1.4942 3.6699-3.5537 0-2.0589-1.5438-3.55365-3.6699-3.55365zm0 7.22785c-2.2013 0-3.799-1.5449-3.799-3.6742 0-2.1288 1.5977-3.6731 3.799-3.6731 2.196 0 3.7894 1.5443 3.7894 3.6731 0 2.1293-1.5934 3.6742-3.7894 3.6742z"/><path d="m35.5431 8.92853h-1.8019v6.98627h1.8019z"/><path d="m33.8285 15.8496h1.6819v-6.86682h-1.6819zm1.8019.12h-1.9219v-7.10681h1.9219z"/><path d="m36.5034 12.4267c0-2.1575 1.6339-3.61335 3.7819-3.61335 1.6862 0 2.597.95294 3.0476 1.86425l-1.5502.7439c-.2304-.5551-.8271-1.0158-1.4974-1.0158-1.1422 0-1.9485.8687-1.9485 2.021 0 1.1417.8063 2.0216 1.9485 2.0216.6703 0 1.267-.4612 1.4974-1.0164l1.5502.7338c-.4506.89-1.3614 1.8755-3.0476 1.8755-2.148 0-3.7819-1.467-3.7819-3.6145z"/><path d="m40.2801 8.86725c-2.1565 0-3.7216 1.49475-3.7216 3.55365 0 2.0595 1.5651 3.5537 3.7216 3.5537 1.667 0 2.5309-.9583 2.9655-1.787l-1.4382-.6804c-.272.5892-.8911.9956-1.5273.9956-1.1641 0-2.0082-.8757-2.0082-2.0819 0-1.2057.8441-2.0813 2.0082-2.0813.6362 0 1.2553.4063 1.5273.9945l1.4393-.69c-.4229-.82391-1.2777-1.77685-2.9666-1.77685zm0 7.22785c-2.2263 0-3.8421-1.5449-3.8421-3.6742 0-2.1288 1.6158-3.6731 3.8421-3.6731 1.8825 0 2.7511 1.18864 3.1015 1.8979l.0272.0549-.0549.0256-1.6073.7711-.0245-.0587c-.2389-.5764-.8324-.9785-1.442-.9785-1.0942 0-1.8888.8244-1.8888 1.9608s.7946 1.9619 1.8888 1.9619c.6096 0 1.202-.4032 1.442-.9796l.0245-.0582 1.6627.7861-.0282.056c-.3605.7124-1.2425 1.908-3.101 1.908z"/><path d="m44.166 15.9148v-6.98627h5.122v1.57097h-3.3201v1.0889h3.247v1.5716h-3.247v1.1838h3.3201v1.571z"/><path d="m44.2195 15.8496h5.002v-1.4516h-3.32v-1.3038h3.2475v-1.451h-3.2475v-1.2089h3.32v-1.45152h-5.002zm5.122.12h-5.2414v-7.10681h5.2414v1.69101h-3.3201v.9694h3.2476v1.6915h-3.2476v1.0639h3.3201z"/><path d="m19.7963 20.4081c0-1.2799-.7956-2.2237-2.0184-2.2237-1.2302 0-2.0104.9438-2.0104 2.2237 0 1.2713.7802 2.2237 2.0104 2.2237 1.2228 0 2.0184-.9524 2.0184-2.2237zm-4.7343 0c0-1.6164 1.0996-2.8306 2.7159-2.8306 1.6169 0 2.7239 1.2142 2.7239 2.8306 0 1.6157-1.107 2.8305-2.7239 2.8305-1.6163 0-2.7159-1.2148-2.7159-2.8305z"/><path d="m21.5732 23.1327v-5.4728h3.5852v.6073h-2.9042v1.7646h2.8466v.6063h-2.8466v2.4946z"/><path d="m28.0276 23.1322v-.5493c1.9693-1.5427 3.0444-2.4535 3.0444-3.3968 0-.7055-.5829-1.0015-1.1492-1.0015-.6565 0-1.1647.2794-1.4846.6895l-.4192-.4351c.4192-.5578 1.1327-.8612 1.9038-.8612.9108 0 1.8381.5172 1.8381 1.6083 0 1.1156-1.1326 2.133-2.6583 3.3387h2.6829v.6074z"/><path d="m36.3073 20.4003c0-1.0916-.353-2.2157-1.395-2.2157s-1.3945 1.1241-1.3945 2.2157c0 1.0911.3525 2.2237 1.3945 2.2237s1.395-1.1326 1.395-2.2237zm-3.487 0c0-1.3379.5903-2.8225 2.092-2.8225 1.4931 0 2.0925 1.4846 2.0925 2.8225 0 1.3289-.5994 2.8306-2.0925 2.8306-1.5017 0-2.092-1.5017-2.092-2.8306z"/><path d="m38.8767 23.1327v-4.5786l-.8778.9359-.41-.4186 1.3704-1.4115h.5989v5.4728z"/><path d="m43.7975 19.0874c0-.5663-.5333-.9028-1.1897-.9028-.665 0-1.1817.3365-1.1817.9028 0 .6645.8532.8858 1.1817.9439.3365-.0581 1.1897-.2794 1.1897-.9439zm.0821 2.5842c0-.7135-.9353-1.0169-1.2718-1.058-.336.0411-1.2719.3445-1.2719 1.058 0 .5909.5914.9524 1.2719.9524.673 0 1.2718-.3615 1.2718-.9524zm-3.2326.0747c0-.7311.6234-1.2313 1.3043-1.4366-.6319-.1803-1.2142-.5984-1.2142-1.3124 0-.9849.9599-1.4195 1.8707-1.4195.9023 0 1.8792.4346 1.8792 1.4195 0 .714-.5914 1.1321-1.2228 1.3124.681.2053 1.3044.7055 1.3044 1.4366 0 .9268-.8863 1.4846-1.9608 1.4846-1.0831 0-1.9608-.5498-1.9608-1.4846z"/><path d="m7.14101 2.00927c.11839-.75084-.07679-1.475537-.4794-2.00933104-.54392.36528404-.95134.98280004-1.06972 1.73416104-.11838.75083.07679 1.47607.4794 2.00933.54446-.36528.95134-.9828 1.06972-1.73416z"/><path d="m4.03489 6.47192c.40155-.53433.59565-1.25956.47567-2.01039-.12052-.75084-.52846-1.36782-1.07345-1.73204-.40155.53486-.59512 1.2601-.47514 2.01093s.52793 1.36728 1.07292 1.7315z"/><path d="m2.70404 9.77837c.28209-.61432.32262-1.36675.05172-2.07172-.27143-.70551-.79669-1.21317-1.40301-1.44194-.28209.61432-.32262 1.36675-.05119 2.07172.2709.7055.79616 1.21317 1.40248 1.44194z"/><path d="m12.8085 24.6903c-2.0989-.4453-3.98826-1.3923-5.55018-2.6887.51299-.3696.89588-.9668 1.00946-1.6894.11838-.7513-.07679-1.476-.4794-2.0093-.54446.3653-.95134.9833-1.06972 1.7342-.10346.6548.03253 1.2905.33595 1.796-.73057-.6325-1.38381-1.3454-1.94907-2.1192.58285-.2282 1.08999-.7124 1.36355-1.3865.28316-.6996.2565-1.4531-.01493-2.0728-.61005.2171-1.14438.7141-1.42808 1.4137-.24796.6117-.25809 1.2649-.07572 1.8339-.61912-.8857-1.12145-1.8499-1.491-2.8673.63245-.096 1.23824-.4757 1.63711-1.1007.40208-.6308.50874-1.3763.35249-2.0392-.63831.0917-1.2505.473-1.65311 1.1039-.38182.5993-.49433 1.3011-.37008 1.9384-.36316-1.0255-.58233-2.1075-.65378-3.2193.64098.0613 1.31715-.1659 1.84135-.6858.5242-.5194.78443-1.2212.77056-1.9043-.64098-.0613-1.31822.1659-1.84242.6858-.51939.5146-.77856 1.2078-.77003 1.8851-.01546-.2427-.03199-.4848-.03199-.7301 0-.9246.10932-1.8328.31516-2.70947.57325.28637 1.26969.32477 1.92294.0416.66444-.28743 1.14224-.84522 1.35821-1.48887-.57858-.29916-1.28782-.34235-1.95173-.05439-.58392.25276-1.0244.71457-1.26863 1.26116.27036-1.05372.68097-2.05999 1.21423-2.99746.50287.42447 1.18491.62871 1.89042.5018.7071-.12745 1.28836-.56099 1.63124-1.13958-.5034-.42555-1.1865-.63138-1.89361-.50447-.69004.12425-1.25796.54073-1.60352 1.09799.53753-.93588 1.19558-1.80189 1.95761-2.57512.34608.56525.92041.98813 1.61791 1.11238.70764.12585 1.39022-.08159 1.89308-.50926-.34395-.57753-.92627-1.00947-1.63338-1.13532-.62871-.11145-1.23717.04053-1.71763.37542.55299-.54126 1.16571-1.02493 1.81415-1.46221.55139.16265 1.15985.14292 1.71759-.12371.6522-.31143 1.0906-.87775 1.2543-1.516598-.617-.265564-1.34437-.27463-1.99655.037328-.59672.28476-1.0036.78709-1.19558 1.35928-3.42567 2.33569-5.63177 6.19917-5.63177 10.4295 0 .0971.00373.1931.0064.2896-.05973-.5141-.27143-1.0201-.63725-1.4361-.48953-.5567-1.150243-.8329-1.79389011-.8185-.05759229.6809.15624611 1.3992.64578011 1.956.48953.5567 1.15024.8329 1.79389.8185.00373-.048.00373-.096.0048-.1445.05386.9839.22717 1.9437.505 2.8652-.17651-.4197-.46394-.7993-.85589-1.0809-.59405-.4271-1.295821-.5402-1.92027-.3738.086388.6772.445807 1.3273 1.03986 1.7544.59352.4266 1.29583.5402 1.92027.3738-.00959-.0773-.02453-.1535-.04106-.2303.3077.8969.71564 1.7533 1.21317 2.5564-.23197-.2837-.52633-.5204-.87775-.6815-.65857-.3013-1.36834-.272-1.95227.0155.20478.6484.67298 1.2147 1.33156 1.5166.65911.3007 1.36835.2719 1.95227-.0155-.04106-.1312-.09599-.257-.15785-.3791.49487.7273 1.06493 1.4046 1.70004 2.0216-.27996-.2011-.60685-.3456-.9668-.4091-.70764-.1258-1.39021.0816-1.89255.5088.34396.578.92574 1.01 1.63338 1.1358.70764.1253 1.39022-.0821 1.89255-.5092-.06933-.1168-.15092-.2256-.2389-.3291 1.65951 1.4734 3.71261 2.548 6.00981 3.0359z"/><path d="m53.9527 3.74343c.402-.53326.5972-1.2585.4794-2.00933-.1189-.751361-.5258-1.368877-1.0703-1.73416104-.4026.53379404-.5978 1.25849104-.4794 2.00933104.1184.75136.5258 1.36888 1.0703 1.73416z"/><path d="m57.03 4.74042c.12-.75083-.0741-1.47607-.4756-2.01093-.5445.36422-.953.9812-1.0729 1.73204-.12.75083.0741 1.47606.4751 2.01039.545-.36422.9535-.98067 1.0734-1.7315z"/><path d="m57.2918 9.77837c.6069-.22877 1.1316-.73644 1.403-1.44194.2709-.70497.2304-1.4574-.0512-2.07172-.6068.22877-1.1316.73643-1.403 1.44194-.2709.70497-.2304 1.4574.0512 2.07172z"/><path d="m57.8966 15.016c-.3919.2816-.6788.6612-.8559 1.0809.2784-.9215.4517-1.8813.505-2.8652.0016.0485.0011.0965.0054.1445.6431.0144 1.3043-.2618 1.7939-.8185.4895-.5568.7033-1.2751.6457-1.956-.6436-.0144-1.3043.2618-1.7938.8185-.3659.416-.5776.922-.6373 1.4361.0021-.0965.0064-.1925.0064-.2896 0-4.23034-2.2066-8.09382-5.6323-10.42951-.192-.57219-.5989-1.07452-1.1956-1.359284-.6521-.311958-1.3795-.302892-1.9965-.037328.1637.638852.602 1.205172 1.2542 1.516592.5578.26663 1.1663.28637 1.7182.12372.6484.43728 1.2612.92094 1.8136 1.4622-.4805-.33488-1.0889-.48686-1.7176-.37541-.7071.12585-1.2889.55779-1.6329 1.13531.5024.42768 1.1849.63512 1.8926.50927.6975-.12425 1.2723-.54713 1.6179-1.11239.762.77323 1.4206 1.63925 1.9581 2.57512-.3461-.55726-.914-.97373-1.6035-1.09798-.7071-.12692-1.3907.07892-1.8936.50446.3429.57859.9236 1.01213 1.6312 1.13958.7056.12692 1.3871-.07732 1.8905-.5018.5332.93748.9438 1.94374 1.2137 2.99747-.2443-.5466-.6842-1.0084-1.2687-1.26117-.6639-.28796-1.3726-.24476-1.9517.0544.2165.64364.6943 1.20143 1.3587 1.48886.6533.28319 1.3492.24479 1.923-.04159.2053.87668.3151 1.78478.3151 2.70948 0 .2453-.017.4874-.0319.7301.0085-.6773-.2507-1.3705-.7701-1.8851-.5242-.52-1.2014-.7471-1.8429-.6858-.0134.6831.2463 1.3849.7711 1.9043.5236.5199 1.2003.7471 1.8408.6858-.0709 1.1118-.2901 2.1938-.6533 3.2193.1243-.6373.0118-1.3391-.37-1.9385-.4027-.6308-1.0148-1.0121-1.6532-1.1038-.1567.6628-.0501 1.4083.3525 2.0392.3989.625 1.0047 1.0047 1.6371 1.1006-.3695 1.0175-.8718 1.9816-1.4915 2.8674.1829-.569.1728-1.2223-.0757-1.8339-.2832-.6996-.8175-1.1966-1.4281-1.4137-.2714.6197-.2981 1.3732-.0144 2.0728.2736.6741.7807 1.1583 1.3636 1.3865-.5658.7738-1.2185 1.4867-1.9496 2.1192.3034-.5056.4394-1.1412.3359-1.7961-.1184-.7508-.5252-1.3688-1.0692-1.7341-.4026.5332-.5983 1.2579-.4799 2.0093.1141.7226.4965 1.3198 1.01 1.6894-1.5619 1.2963-3.4518 2.2434-5.5502 2.6887l.0597.3189c2.2973-.488 4.3504-1.5625 6.0099-3.0359-.088.1035-.1691.2123-.2389.329.5029.4272 1.1854.6346 1.8931.5093.7071-.1258 1.2889-.5578 1.6333-1.1358-.5023-.4272-1.1854-.6346-1.8925-.5088-.36.0635-.6868.208-.9668.409.6351-.6169 1.2046-1.2942 1.7-2.0216-.0624.1222-.1173.248-.1583.3792.5844.2874 1.2936.3162 1.9522.0155.6591-.3019 1.1273-.8682 1.3316-1.5166-.5839-.2875-1.2932-.3168-1.9523-.0155-.3509.161-.6458.3978-.8777.6815.4975-.8031.906-1.6595 1.2137-2.5564-.0171.0767-.0315.153-.0411.2303.6245.1664 1.3262.0528 1.9203-.3738.594-.4271.9534-1.0772 1.0398-1.7544-.6249-.1664-1.3267-.0534-1.9208.3738z"/></g></svg>