<svg width="32" height="32" viewBox="0 0 32 32" fill="currentColor" xmlns="http://www.w3.org/2000/svg">
<path d="M29.6566 7.264C29.6246 6.912 29.3366 6.656 28.9846 6.656C28.9206 6.656 20.7926 6.464 16.8886 0.288C16.6326 -0.096 15.9926 -0.096 15.7686 0.288C11.8646 6.464 3.73661 6.656 3.67261 6.656C3.28861 6.656 3.00061 6.944 3.00061 7.328C3.00061 7.392 3.00061 7.456 3.03261 7.52C2.93661 9.568 2.74461 23.68 15.9286 31.84C16.0566 31.936 16.2166 32 16.3766 32C16.5366 32 16.7286 31.936 16.8566 31.808C30.9366 22.976 29.6566 7.424 29.6566 7.264V7.264ZM16.3446 30.528C4.66461 23.104 4.28061 10.72 4.34461 7.936C6.39261 7.776 12.5686 6.88 16.3126 1.824C20.0886 6.912 26.3286 7.808 28.3446 7.936C28.4086 10.752 28.0246 23.104 16.3446 30.528V30.528ZM23.3846 11.136L24.7606 12.48L14.2006 23.008L9.59261 18.4L10.9366 17.024L14.2006 20.288L23.3846 11.136V11.136Z" fill="currentColor"/>
</svg>
