<svg width="32" height="32" viewBox="0 0 32 32" fill="currentColor" xmlns="http://www.w3.org/2000/svg">
<path d="M31.4228 10.4723H21.9529L26.3919 6.00642C26.7417 5.68359 26.93 5.22623 26.93 4.76888C26.93 4.28462 26.7417 3.82727 26.3919 3.50443C25.7193 2.83186 24.5625 2.83186 23.8899 3.50443L16.8951 10.4723H0.564965C0.269031 10.4723 0 10.7145 0 11.0373V13.3241C0 13.6469 0.269031 13.889 0.564965 13.889H1.21064L3.14766 27.4482C3.36288 28.8472 4.57352 29.8964 5.97248 29.8964H26.0153C27.4142 29.8964 28.6518 28.8472 28.8401 27.4482L30.7771 13.889H31.4228C31.7456 13.889 31.9878 13.6469 31.9878 13.3241V11.0373C31.9878 10.7145 31.7456 10.4723 31.4228 10.4723V10.4723ZM24.697 4.31153C24.9391 4.0694 25.3427 4.0694 25.5848 4.31153C25.7193 4.41914 25.7731 4.58056 25.7731 4.76888C25.7731 4.9303 25.7193 5.09172 25.5848 5.19933L18.052 12.7591H16.2226L17.5408 11.4409L24.697 4.31153V4.31153ZM1.15683 11.6023H15.7652L14.6084 12.7591H1.15683V11.6023V11.6023ZM27.7102 27.2868C27.6026 28.1208 26.8493 28.7665 26.0153 28.7665H5.97248C5.13849 28.7665 4.4121 28.1208 4.27759 27.2868L2.36747 13.889H29.6203L27.7102 27.2868ZM30.8578 12.7591H19.6661L20.7961 11.6023H30.8578V12.7591V12.7591ZM8.58208 17.8976C8.58208 18.2204 8.31305 18.4626 7.99021 18.4626H5.70345C5.40752 18.4626 5.13849 18.2204 5.13849 17.8976C5.13849 17.5748 5.40752 17.3326 5.70345 17.3326H7.99021C8.31305 17.3326 8.58208 17.5748 8.58208 17.8976ZM13.1287 17.8976C13.1287 18.2204 12.8866 18.4626 12.5637 18.4626H10.277C9.98104 18.4626 9.71201 18.2204 9.71201 17.8976C9.71201 17.5748 9.98104 17.3326 10.277 17.3326H12.5637C12.8866 17.3326 13.1287 17.5748 13.1287 17.8976ZM17.7022 17.8976C17.7022 18.2204 17.4601 18.4626 17.1373 18.4626H14.8505C14.5277 18.4626 14.2855 18.2204 14.2855 17.8976C14.2855 17.5748 14.5277 17.3326 14.8505 17.3326H17.1373C17.4601 17.3326 17.7022 17.5748 17.7022 17.8976ZM18.8591 17.8976C18.8591 17.5748 19.1012 17.3326 19.424 17.3326H21.7108C22.0336 17.3326 22.2757 17.5748 22.2757 17.8976C22.2757 18.2204 22.0336 18.4626 21.7108 18.4626H19.424C19.1012 18.4626 18.8591 18.2204 18.8591 17.8976ZM23.4326 17.8976C23.4326 17.5748 23.6747 17.3326 23.9975 17.3326H26.2843C26.6071 17.3326 26.8493 17.5748 26.8493 17.8976C26.8493 18.2204 26.6071 18.4626 26.2843 18.4626H23.9975C23.6747 18.4626 23.4326 18.2204 23.4326 17.8976ZM8.58208 21.3143C8.58208 21.6371 8.31305 21.9062 7.99021 21.9062H5.70345C5.40752 21.9062 5.13849 21.6371 5.13849 21.3143C5.13849 21.0184 5.40752 20.7493 5.70345 20.7493H7.99021C8.31305 20.7493 8.58208 21.0184 8.58208 21.3143ZM13.1287 21.3143C13.1287 21.6371 12.8866 21.9062 12.5637 21.9062H10.277C9.98104 21.9062 9.71201 21.6371 9.71201 21.3143C9.71201 21.0184 9.98104 20.7493 10.277 20.7493H12.5637C12.8866 20.7493 13.1287 21.0184 13.1287 21.3143ZM17.7022 21.3143C17.7022 21.6371 17.4601 21.9062 17.1373 21.9062H14.8505C14.5277 21.9062 14.2855 21.6371 14.2855 21.3143C14.2855 21.0184 14.5277 20.7493 14.8505 20.7493H17.1373C17.4601 20.7493 17.7022 21.0184 17.7022 21.3143ZM18.8591 21.3143C18.8591 21.0184 19.1012 20.7493 19.424 20.7493H21.7108C22.0336 20.7493 22.2757 21.0184 22.2757 21.3143C22.2757 21.6371 22.0336 21.9062 21.7108 21.9062H19.424C19.1012 21.9062 18.8591 21.6371 18.8591 21.3143ZM23.4326 21.3143C23.4326 21.0184 23.6747 20.7493 23.9975 20.7493H26.2843C26.6071 20.7493 26.8493 21.0184 26.8493 21.3143C26.8493 21.6371 26.6071 21.9062 26.2843 21.9062H23.9975C23.6747 21.9062 23.4326 21.6371 23.4326 21.3143ZM8.58208 24.7579C8.58208 25.0807 8.31305 25.3229 7.99021 25.3229H5.70345C5.40752 25.3229 5.13849 25.0807 5.13849 24.7579C5.13849 24.4351 5.40752 24.1929 5.70345 24.1929H7.99021C8.31305 24.1929 8.58208 24.4351 8.58208 24.7579ZM13.1287 24.7579C13.1287 25.0807 12.8866 25.3229 12.5637 25.3229H10.277C9.98104 25.3229 9.71201 25.0807 9.71201 24.7579C9.71201 24.4351 9.98104 24.1929 10.277 24.1929H12.5637C12.8866 24.1929 13.1287 24.4351 13.1287 24.7579ZM17.7022 24.7579C17.7022 25.0807 17.4601 25.3229 17.1373 25.3229H14.8505C14.5277 25.3229 14.2855 25.0807 14.2855 24.7579C14.2855 24.4351 14.5277 24.1929 14.8505 24.1929H17.1373C17.4601 24.1929 17.7022 24.4351 17.7022 24.7579ZM18.8591 24.7579C18.8591 24.4351 19.1012 24.1929 19.424 24.1929H21.7108C22.0336 24.1929 22.2757 24.4351 22.2757 24.7579C22.2757 25.0807 22.0336 25.3229 21.7108 25.3229H19.424C19.1012 25.3229 18.8591 25.0807 18.8591 24.7579ZM23.4326 24.7579C23.4326 24.4351 23.6747 24.1929 23.9975 24.1929H26.2843C26.6071 24.1929 26.8493 24.4351 26.8493 24.7579C26.8493 25.0807 26.6071 25.3229 26.2843 25.3229H23.9975C23.6747 25.3229 23.4326 25.0807 23.4326 24.7579Z" fill="currentColor"/>
</svg>
