<svg width="77" height="18" fill="none" xmlns="http://www.w3.org/2000/svg"><path d="M9.475 17.344c-.584-.584-1.197-1.183-3.946-3.84-.421-.407-1.034-1.006-1.364-1.327A728.965 728.965 0 0 0 1.105 9.2c-1.197-1.16-1.188-1.15-1.01-1.48.11-.21.876-1.83 1.623-3.433.115-.235.225-.47.249-.517.086-.163.09-.173.57-1.207.282-.608.502-1.073.766-1.628.124-.264.273-.58.33-.704l.1-.23h13.068l.03.11c.018.058.114.278.21.489.1.21.273.574.383.814.115.239.225.469.249.512.053.1.09.177.225.47.057.119.23.497.393.837l.392.838c.125.268.173.36.225.465l.24.502c.11.235.277.599.383.815.1.22.249.536.33.708.077.173.264.565.412.872.149.306.268.589.268.627 0 .038-.09.153-.201.254-.297.258-2.92 2.801-4.587 4.439-.33.325-1.523 1.48-2.658 2.571a856.312 856.312 0 0 0-2.404 2.332c-.24.244-.378.35-.455.345-.076 0-.316-.206-.761-.656zM29.712 14.523a3.744 3.744 0 0 1-1.498-.465c-.254-.148-.69-.66-.877-1.034-.335-.67-.378-1.068-.378-3.524V7.422h-1.628V5.458h1.628V3.17l.11-.024c.058-.014.345-.047.632-.08l.939-.097c.23-.028.46-.048.517-.048.1 0 .1.005.1 1.27v1.268H31.7v1.964H29.21v1.953c0 1.944.014 2.136.177 2.5.11.244.201.335.47.46.377.177.957.134 1.43-.106a.508.508 0 0 1 .15-.057c.023.024.646 1.9.646 1.944 0 .062-.728.278-1.125.34-.422.062-.996.09-1.245.067zM36.369 14.461a7.416 7.416 0 0 1-.742-.162c-.498-.159-1.485-.69-1.485-.805 0-.02-.024-.038-.048-.038-.067 0-.526-.46-.526-.527 0-.024-.02-.048-.043-.048-.024 0-.106-.1-.178-.225-.076-.13-.163-.273-.196-.326-.149-.244-.326-.68-.45-1.1-.105-.355-.115-.47-.115-1.461.005-1.044.01-1.092.134-1.485.225-.69.426-1.092.761-1.518.259-.325.843-.876.93-.876.028 0 .08-.034.114-.072.096-.115.8-.43 1.293-.58.44-.133.484-.138 1.509-.133 1.225 0 1.513.052 2.37.445.124.057.191.096.503.302.454.301.986.943 1.206 1.45.24.56.307.786.45 1.605.044.253.058 1.537.015 1.647-.029.067-.379.076-3.496.076-3.079 0-3.467.01-3.467.072 0 .091.22.628.302.728.11.144.488.517.584.58.44.277 1.106.454 1.7.45.78 0 1.714-.292 2.203-.69.09-.072.187-.134.215-.134.077 0 1.413 1.37 1.413 1.446 0 .063-.46.46-.68.59-.043.028-.201.119-.345.205-.148.082-.297.153-.33.153a.199.199 0 0 0-.11.043c-.091.091-.824.302-1.36.388a6.63 6.63 0 0 1-2.131 0zm3.28-5.827a1.057 1.057 0 0 0-.096-.278 1.295 1.295 0 0 1-.096-.244c0-.029-.043-.091-.095-.14-.053-.047-.096-.104-.096-.124 0-.052-.235-.282-.283-.282-.024 0-.067-.034-.1-.072-.158-.191-.953-.407-1.504-.407-.378 0-.819.081-1.058.196-.105.048-.21.091-.23.091-.067 0-.436.269-.603.436-.173.177-.34.445-.46.728l-.072.177h2.347c2.202 0 2.346-.005 2.346-.081zM62.896 14.466a8.676 8.676 0 0 1-.79-.182c-.489-.158-1.437-.67-1.437-.78 0-.03-.024-.048-.053-.048-.028 0-.158-.115-.287-.25-.13-.138-.268-.287-.306-.33-.039-.043-.072-.1-.072-.129 0-.034-.02-.057-.039-.057-.024 0-.081-.087-.129-.192-.048-.105-.105-.191-.124-.191-.02 0-.053-.048-.067-.106a3.22 3.22 0 0 0-.12-.302c-.36-.809-.493-1.987-.34-3.016.067-.431.24-1.025.373-1.293.259-.503.264-.508.48-.795.215-.292.861-.905.952-.905.029 0 .082-.034.115-.072.096-.115.8-.43 1.293-.58.44-.133.484-.138 1.508-.133.862 0 1.106.014 1.341.086.158.048.34.096.407.11.206.038 1.097.498 1.25.642a.799.799 0 0 0 .177.138c.057 0 .455.475.646.767.316.483.518 1.01.656 1.7.067.344.12 1.67.077 1.91l-.033.172h-6.949l.03.159c.176.953 1.292 1.675 2.566 1.675.78-.004 1.714-.296 2.203-.694.09-.072.186-.134.21-.134.053 0 1.466 1.389 1.466 1.441 0 .048-.657.57-.714.57-.029 0-.053.015-.053.039 0 .033-.43.263-.77.411-.94.407-2.366.56-3.467.37zm3.28-5.818c0-.072-.245-.618-.345-.766-.23-.34-.747-.632-1.283-.728-1.107-.196-2.136.12-2.677.824-.134.177-.388.641-.388.713 0 .015 1.058.024 2.346.024 1.983 0 2.347-.01 2.347-.067zM45.898 14.394a3.427 3.427 0 0 0-.335-.1c-.269-.078-.676-.264-.834-.38a9.228 9.228 0 0 1-.612-.612c-.106-.139-.273-.498-.393-.829l-.115-.335-.02-2.404-.018-2.408h-1.672V5.315h1.676V3.016h.23c.125 0 .527-.043.896-.096a9.69 9.69 0 0 1 .9-.095h.225v2.49h2.49v2.011h-2.495l.015 2.169.014 2.164.134.201c.077.11.225.26.335.33.187.125.235.135.656.13.355-.005.508-.024.685-.105a1.6 1.6 0 0 1 .297-.1c.081 0 .172.157.22.382.014.091.072.278.115.407.12.336.24.685.311.905.072.22.034.264-.273.35-.1.029-.301.091-.445.139-.201.062-.47.086-1.101.096-.46.01-.858.01-.886 0zM49.416 7.95V1.58h2.298v4.818l.312-.302c.172-.163.392-.345.488-.397.1-.053.216-.115.254-.14.709-.406 2.303-.464 3.184-.11.771.307 1.274.776 1.657 1.538.47.938.522 1.422.522 4.76v2.57h-2.298V11.79c0-1.547-.02-2.639-.048-2.816-.13-.728-.474-1.216-1.054-1.49-.234-.11-.32-.124-.838-.124-.536-.005-.593.005-.862.134-.158.072-.306.163-.325.201-.02.034-.058.063-.082.063-.11 0-.498.488-.684.862l-.202.407-.014 2.648-.014 2.643H49.416V7.949zM69.576 9.816v-4.5h2.093l.029.229c.014.124.052.345.086.488.043.206.062.24.09.168.039-.105.618-.694.68-.694.025 0 .101-.039.168-.082.072-.048.268-.134.436-.191.278-.096.407-.11 1.082-.11.656 0 .819.014 1.082.1.68.22 1.293.584 1.293.761 0 .077-.378.872-.464.982a7.266 7.266 0 0 0-.273.517c-.13.254-.25.465-.268.465-.02 0-.072-.043-.12-.096-.048-.053-.115-.096-.153-.096-.034 0-.063-.019-.063-.038 0-.024-.134-.105-.296-.182-.269-.12-.364-.139-.867-.153-.498-.015-.608-.005-.886.09-.642.22-1 .57-1.255 1.217l-.114.287-.02 2.672-.019 2.667h-2.24v-4.5z" fill="#5C5B5E"/><path d="M9.476 17.344c-.359-.36-1.23-1.216-1.939-1.901l-2.006-1.94c-1.58-1.537-2.021-1.968-2.653-2.585-.364-.355-1.159-1.13-1.772-1.72C.311 8.429 0 8.099 0 8.022c0-.063.086-.278.187-.484.1-.21.273-.56.378-.785a447.987 447.987 0 0 0 1.159-2.466c.11-.235.22-.47.244-.517.086-.163.091-.173.57-1.207.22-.47.416-.89.766-1.628.125-.264.273-.58.33-.704L3.735 0h13.068l.028.11c.02.058.115.278.211.489.1.21.273.574.383.814.115.239.225.469.25.512.066.13.057.105.593 1.26.35.742.431.919.814 1.723.445.939.613 1.293.78 1.652.077.173.254.537.384.814.344.714.344.709.095.93-.196.176-2.01 1.929-3.438 3.318-.354.35-.929.91-1.273 1.245-.9.88-1.676 1.632-3.228 3.126a634.86 634.86 0 0 0-1.714 1.667c-.23.225-.388.345-.455.34-.067 0-.33-.23-.757-.656z" fill="#50AF95"/><path d="M9.099 11.756c0-1.384-.02-2.514-.043-2.514-.21 0-1.418-.115-1.978-.192-1.925-.253-3.074-.713-3.074-1.22 0-.48.938-.886 2.677-1.169.517-.086 2.035-.244 2.336-.244.072 0 .082-.067.082-.766v-.766H5.507V2.442h9.769l-.01 1.21-.014 1.208-1.781.014-1.786.01v.766c0 .699.01.766.086.766.043 0 .46.033.92.072 2.59.225 4.232.79 4.093 1.407-.072.326-.67.652-1.652.896-.493.124-1.853.33-2.466.378-.21.015-.517.038-.68.053l-.301.029v5.018H9.099v-2.514zm4.214-3.084c1.537-.187 2.38-.421 2.743-.761.072-.067.13-.163.13-.21 0-.312-.786-.633-2.083-.848-.474-.082-2.026-.245-2.332-.245-.082 0-.086.072-.086.886v.886H9.099V6.6l-.393.029c-2.102.167-3.361.42-3.874.775-.23.158-.273.278-.153.446.278.373 1.34.67 2.983.838 1.12.114 1.092.114 3.041.1 1.47-.014 1.973-.033 2.61-.115z" fill="#FEFEFE"/></svg>